<svg width="286" height="276" viewBox="0 0 286 276" fill="none" xmlns="http://www.w3.org/2000/svg">
<g clip-path="url(#clip0_400_6257)">
<path d="M4.61289 1.92202L2.30644 8.84138L0.384399 35.75L2.30644 46.8978L13.0699 49.2043L44.3992 50.5497L75.7285 51.8951L81.1102 56.508L87.6451 64.1962L86.8763 61.8898L85.7231 56.508L87.6451 54.2016L86.8763 51.8951L84.9543 46.8978L91.1048 45.7446L97.2554 41.9005L99.9462 31.1371V11.5322L98.0242 4.61288L95.3333 3.45966L65.7339 0.768799H9.61021L4.61289 1.92202Z" fill="#E0ECFF"/>
<path d="M131.852 81.879L140.309 83.4166L147.613 81.879L152.61 79.9569L157.608 78.8037L162.605 76.8817L167.987 72.6532H177.597L187.207 75.344L200.277 79.9569L212.194 76.8817L217.575 68.0403V57.2768L209.503 44.9757L195.664 36.9032L179.903 33.0591H162.605L140.309 38.8252L129.546 47.6666L122.626 60.3521V68.0403L125.702 76.8817L131.852 81.879Z" fill="#E0ECFF"/>
<path d="M50.6171 211.376C50.6171 211.376 59.4411 183.863 91.9927 206.755C124.544 229.647 131.476 200.037 143.864 202.134C156.252 204.232 191.466 205.911 198.537 201.716C205.608 197.513 222.691 146.273 224.092 140.743C225.493 135.212 229.696 135.212 229.548 142.209C229.409 149.206 228.082 166.289 227.164 167.551C226.255 168.813 213.654 180.365 213.375 182.249C213.096 184.142 223.559 227.23 224.927 227.648C226.296 228.066 233.588 226.075 235.849 229.115C238.11 232.162 238.159 246.337 238.528 249.958C238.897 253.579 242.043 257.463 240.159 258.618C238.274 259.773 232.228 249.589 233.383 248.328C234.538 247.066 232.072 252.949 232.596 256.627C233.121 260.306 228.975 256.996 228.295 251.9C227.615 246.804 228.819 243.182 229.032 244.444C229.245 245.706 226.877 252.744 223.731 252.58C220.585 252.424 226.779 240.347 226.566 243.657C226.353 246.968 220.528 248.852 220.478 245.861C220.429 242.871 225.312 240.667 225.575 237.037C225.837 233.408 225.575 230.106 228.934 229.532C232.293 228.959 237.021 230.581 237.127 228.484C237.234 226.386 240.765 191.065 238.807 180.988C236.848 170.91 234.538 168.878 233.907 168.878C233.276 168.878 219.069 187.854 219.069 186.1C219.069 184.347 232.367 168.452 229.286 168.526C226.206 168.6 220.397 176.227 219.692 171.746C218.987 167.264 224.313 146.896 226.836 140.169C229.36 133.451 225.853 127.011 221.798 122.734C217.742 118.457 204.51 107.126 202.683 107.683C200.864 108.24 192.917 125.569 189.975 134.499C187.034 143.422 185.985 152.459 184.412 154.868C182.839 157.285 163.724 157.178 160.152 155.712C156.58 154.245 156.58 138.383 150.697 126.519C144.814 114.656 140.3 109.609 141.349 107.667C142.397 105.725 152.688 105.881 153.999 106.938C155.31 107.986 161.242 110.821 171.958 111.403C182.667 111.976 189.074 110.092 189.492 109.248C189.91 108.404 189.598 102.104 189.123 101.841C188.648 101.579 160.406 102.685 145.068 100.162C129.739 97.6383 114.245 85.5615 110.681 77.27C107.109 68.9703 110.468 55.5334 109.215 54.5912C107.953 53.649 99.9729 61.4161 101.235 69.3963C102.496 77.3765 112.156 82.7348 110.477 79.687C108.797 76.6391 106.273 69.5028 96.0893 68.5524C85.9052 67.6102 82.7508 55.0091 75.8193 52.7969C68.8879 50.5929 6.72608 51.7482 2.83431 47.0207C-1.04926 42.3096 0.843367 2.9249 5.35782 1.45832C9.87227 -0.00826403 95.3519 0.614419 98.1868 4.71102C101.022 8.80762 100.915 38 96.8185 42.3014C92.7219 46.6028 84.5287 45.7671 84.5287 47.1354C84.5287 48.5037 97.1215 68.0197 94.1801 68.2246C91.2388 68.4294 84.3567 58.6878 85.897 55.6072C87.4373 52.5265 105.987 53.7145 110.051 50.2898C114.114 46.8568 129.583 17.6317 171.901 17.5252C214.219 17.4187 232.768 50.4946 235.366 57.9177C237.955 65.3407 231.023 79.4084 232.776 80.1786C234.53 80.9487 242.789 74.9267 242.576 68.5606C242.362 62.1863 237.742 56.1725 237.463 57.7128C237.184 59.2531 239.56 65.0621 237.25 72.0673C234.939 79.0643 213.449 96.778 200.143 98.8836C186.837 100.989 148.616 99.4408 137.064 93.7055C125.511 87.9621 101.579 59.5399 132.541 38.7538C163.503 17.9676 202.658 27.3079 217.25 44.6365C231.842 61.9651 220.61 85.6926 203.912 82.9643C187.214 80.2359 175.768 73.411 165.478 76.1393C155.187 78.8677 141.013 88.1096 129.354 80.5473C117.695 72.9849 118.752 41.8016 154.138 34.7637C189.525 27.7257 212.736 42.326 217.25 56.2872C221.765 70.2566 211.966 80.8258 202.585 80.195C193.203 79.5641 181.864 71.7969 171.434 72.0018C161.004 72.2148 157.014 84.7422 159.046 90.5512C161.078 96.3601 180.258 95.1721 182.077 92.4438C183.896 89.7155 182.634 85.2338 181.52 86.3562C180.397 87.4787 179.766 90.5594 172.278 90.9772C164.789 91.3951 158.833 87.2001 156.383 88.806C153.933 90.4201 159.185 94.3528 158.186 95.508C157.186 96.6633 154.146 94.9345 154.04 95.508C153.933 96.0816 153.933 104.332 154.351 104.906C154.769 105.479 164.797 108.945 172.729 109.314C180.66 109.682 199.037 106.372 199.61 107.052C200.184 107.732 190.475 123.906 187.853 132.828C185.231 141.75 181.766 150.157 181.028 151.205C180.291 152.254 162.757 152.672 161.184 151.418C159.611 150.157 158.136 137.351 153.728 126.003C149.321 114.656 146.166 108.675 143.225 108.363C140.283 108.052 117.711 126.634 117.605 129.051C117.498 131.468 122.119 148.584 120.546 149.108C118.973 149.632 115.819 141.652 112.459 142.177C109.1 142.701 103.324 148.69 103.537 149.321C103.75 149.952 107.527 155.835 106.691 159.923C105.856 164.011 95.5568 182.397 93.2463 181.135C90.9358 179.873 81.8004 162.758 79.5964 146.273C77.3924 129.788 78.8098 118.449 79.8094 118.129C80.809 117.81 87.6339 118.867 91.3618 117.236C95.0897 115.606 93.7215 111.878 96.7693 107.519C99.8172 103.161 104.176 105.946 104.012 103.423C103.848 100.899 100.022 99.6948 96.8185 101.424C93.615 103.152 92.3532 108.986 92.6727 106.045C92.9841 103.103 96.6628 92.2881 95.7206 89.0354C94.7784 85.7827 92.0419 87.9293 91.5175 89.6089C90.9931 91.2885 90.5179 102.579 89.7314 99.113C88.9448 95.6473 89.4692 88.6667 88.3631 86.9298C87.257 85.201 84.1109 84.2506 84.4222 88.298C84.7335 92.3373 86.1018 99.2196 84.8401 98.0643C83.5783 96.9091 82.8983 90.8215 80.3748 88.6667C77.8512 86.5119 77.1221 90.2398 78.3756 93.0747C79.6374 95.9095 80.7353 102.161 79.3752 101.104C78.0069 100.055 76.1716 94.2299 73.7546 94.3856C71.3377 94.5412 75.5408 101.26 76.2208 103.521C76.9008 105.782 77.4252 114.918 78.2691 115.86C79.113 116.802 89.1906 115.811 89.6085 116.171C90.0263 116.54 101.841 150.943 102.611 153.745C103.381 156.547 92.3204 177.334 93.6477 173.909C94.975 170.484 115.352 152.836 115.212 148.846C115.073 144.856 112.549 142.406 112.549 139.391C112.549 136.376 115.769 132.599 116.753 134C117.736 135.401 135.236 195.817 142.061 197.915C148.886 200.012 188.689 201.692 193.515 198.964C198.34 196.235 215.989 151.812 213.154 155.073C210.319 158.325 193.31 194.556 190.475 195.711C187.64 196.866 151.303 195.604 149.312 196.342C147.313 197.079 145.322 206.632 155.719 211.884C166.117 217.136 186.591 214.613 188.271 210.418C189.951 206.215 190.057 204.641 187.534 205.379C185.01 206.116 186.067 237.726 195.202 236.144C204.338 234.571 205.182 213.777 209.901 226.689C214.629 239.602 198.766 276.676 236.57 274.472C274.373 272.268 239.716 219.66 285.713 237.3" stroke="#2252A0" stroke-width="1.53763" stroke-miterlimit="10"/>
</g>
<defs>
<clipPath id="clip0_400_6257">
<rect width="286" height="275.316" fill="white"/>
</clipPath>
</defs>
</svg>
