<svg width="256" height="251" viewBox="0 0 256 251" fill="none" xmlns="http://www.w3.org/2000/svg">
<g clip-path="url(#clip0_400_5882)">
<path d="M148.051 156.551L146.634 162.218L149.468 163.281H155.843H159.739L161.156 161.155V157.614V153.718L159.739 152.301H155.843L149.468 153.718L148.051 156.551Z" fill="#E0ECFF"/>
<path d="M167.177 157.968L165.76 163.635L168.594 164.698H174.969H178.865L180.282 162.572V159.031V155.135L178.865 153.718H174.969L168.594 155.135L167.177 157.968Z" fill="#E0ECFF"/>
<path d="M186.13 158.539L184.886 164.023L187.374 165.052H192.972H196.393L197.637 162.995V159.567V155.797L196.393 154.426H192.972L187.374 155.797L186.13 158.539Z" fill="#E0ECFF"/>
<path d="M107.673 52.4197L109.09 57.0241L111.215 63.0453L115.82 67.2956L123.966 69.4207L130.696 67.2956L135.654 63.0453L139.904 65.1705L147.342 69.4207L151.238 73.3168L154.072 80.4006L159.031 83.5883L169.302 85.005L180.636 80.4006L184.178 73.3168V63.0453L178.157 55.6074L169.302 53.4822L161.51 54.5448L156.551 55.6074H154.072L150.176 52.4197L148.759 54.5448H147.342L142.384 52.4197L139.904 50.6487V46.7527L138.488 42.8566L135.654 39.3147L127.862 36.4812L118.299 37.5438L110.153 42.8566L107.673 52.4197Z" fill="#E0ECFF"/>
<path d="M0.600456 250.757C0.600456 250.757 10.5915 225.856 34.9493 241.673C59.2989 257.482 72.9283 238.951 78.568 238.221C84.1996 237.492 100.317 245.02 112.309 243.586C124.302 242.151 173.252 223.377 178.576 220.103C183.908 216.829 185.301 207.381 184.515 203.143C183.729 198.905 181.307 194.36 180.277 194.06C179.248 193.76 136.302 194.36 131.27 194.06C126.246 193.76 119.942 188.307 119.821 177.643C119.699 166.979 120.971 154.687 119.764 151.835C118.548 148.991 111.466 139.964 112.739 139.299C114.011 138.635 124.917 142.208 126.732 141.358C128.548 140.507 131.035 137.298 133.029 137.055C135.03 136.812 197.966 136.39 206.872 137.784C215.777 139.178 217.535 147.054 217.835 153.293C218.135 159.533 219.893 185.033 215.291 189.214C210.688 193.395 133.693 192.123 129.455 189.757C125.217 187.391 125.395 155.651 125.46 152.864C125.517 150.076 118.735 144.866 120.072 144.38C121.401 143.894 125.282 146.017 127.04 145.109C128.799 144.202 131.343 141.414 136.432 141.236C141.521 141.058 207.512 141.195 210.332 145.555C213.16 149.914 212.998 161.469 211.547 164.451C210.097 167.441 188.283 167.684 186.347 166.388C184.41 165.091 185.86 156.048 187.076 155.319C188.291 154.59 196.362 154.185 196.848 155.157C197.334 156.129 197.01 162.02 196.281 163.641C195.552 165.262 171.81 166.388 168.415 165.821C165.019 165.253 166.64 155.562 168.658 154.355C170.675 153.139 179.726 153.788 179.888 154.922C180.051 156.056 180.456 161.299 178.519 163.082C176.582 164.856 150.248 166.477 147.906 164.694C145.564 162.92 148.311 154.679 149.68 153.95C151.05 153.22 160.182 151.608 160.83 153.545C161.478 155.481 162.443 162.344 160.02 162.993C157.597 163.641 132.315 163.641 131.424 164.281C130.533 164.929 130.209 182.861 131.262 185.519C132.315 188.185 133.037 193.598 123.832 196.426C114.627 199.254 91.2006 207.17 89.7502 206.603C88.2997 206.036 29.0908 74.2238 30.0631 71.801C31.0355 69.3782 96.03 56.2917 96.9376 58.4715C97.8451 60.6512 99.4819 72.6437 112.747 78.8263C126.011 85.0089 146.204 91.5886 146.285 92.7149C146.366 93.8494 138.206 105.558 132.234 103.622C126.263 101.685 128.515 91.0214 124.156 89.733C119.796 88.4446 101.945 91.5076 91.4437 107.584C80.9422 123.66 88.5347 143.691 96.8566 149.663C105.178 155.643 117.941 158.787 118.257 155.724C118.581 152.653 103.477 151.527 101.945 135.693C100.414 119.86 124.237 118.815 127.956 126.164C131.675 133.514 124.869 138.262 128.807 137.047C132.745 135.831 124.14 121.051 115.542 125.897C106.945 130.743 111.361 140.069 108.76 138.919C106.159 137.768 100.706 120.93 118.087 117.899C135.476 114.869 132.866 135.167 136.748 135.288C140.621 135.41 155.166 135.41 156.317 133.53C157.467 131.65 157.832 116.749 153.408 107.544C148.983 98.3384 145.045 98.0954 144.138 99.0596C143.23 100.032 135.897 109.237 129.601 106.45C123.305 103.662 123.175 86.0218 125.298 85.487C127.421 84.9522 151.828 98.9381 172.547 96.3937C193.267 93.8494 200.17 60.8943 194.352 43.2053C188.534 25.5164 168.909 12.3084 165.522 14.8528C162.127 17.3971 149.891 49.866 149.891 51.0734C149.891 52.2888 154.129 56.8508 156.309 56.1216C158.488 55.3923 167.215 51.0329 176.988 54.9871C186.76 58.9414 190.074 81.3139 170.692 84.385C151.309 87.4561 153.489 74.2886 150.175 71.8658C146.86 69.443 137.331 63.625 135.395 64.2732C133.458 64.9215 129.739 70.6503 121.263 68.5516C112.779 66.453 105.916 58.6983 108.663 47.2325C111.41 35.7667 130.792 34.1461 136.286 39.9641C141.78 45.7821 139.195 49.1692 140.321 51.1139C141.456 53.0505 148.765 55.0277 149.729 54.7116C150.701 54.3875 166.243 17.5997 166.648 15.6631C167.053 13.7264 147.59 6.13388 126.263 13.5239C104.935 20.9138 98.5825 49.631 98.939 56.0486C99.2956 62.4663 108.93 75.5527 108.63 72.1008C108.33 68.6489 100.025 59.9867 101.24 52.2888C102.456 44.599 106.605 38.2219 105.908 35.9369C105.203 33.6437 97.6669 28.3038 89.0695 28.3038C80.4722 28.3038 27.7376 37.8978 20.5907 42.7434C13.4438 47.5891 17.317 62.4906 22.4058 74.3615C27.4945 86.2325 90.2526 233.432 94.7336 236.463C99.2145 239.494 105.997 242.159 112.909 240.336C119.812 238.521 161.495 224.106 157.492 224.106C153.497 224.106 113.638 238.278 105.154 236.463C96.6702 234.648 90.9818 223.863 85.5285 210.177C80.0751 196.483 22.0411 61.6397 20.8338 54.0148C19.6183 46.3817 27.8591 43.3512 34.6414 41.4145C41.4236 39.4779 85.8121 32.0879 89.4018 30.3863C92.9914 28.6928 105.916 -1.91245 151.795 0.82638C201.775 3.8083 212.495 40.5556 211.652 52.3131C210.81 64.0707 195.422 66.6069 201.718 54.979C208.014 43.3512 234.673 24.0821 239.64 47.8322C244.608 71.5822 228.256 98.5977 255.514 88.785" stroke="#2252A0" stroke-width="1.41675" stroke-miterlimit="10"/>
</g>
<defs>
<clipPath id="clip0_400_5882">
<rect width="255.724" height="251" fill="white"/>
</clipPath>
</defs>
</svg>
