<svg width="348" height="304" viewBox="0 0 348 304" fill="none" xmlns="http://www.w3.org/2000/svg">
<g clip-path="url(#clip0_400_5494)">
<path d="M162.527 145.701L120.079 147.231L118.932 144.171L120.079 141.494V137.288V134.228H115.49L110.519 143.024L102.488 161.763V167.116L100.958 164.057L102.488 157.174L104.018 151.437L108.607 141.494V134.228V132.316H158.321L162.527 137.288L163.675 139.965V143.024L162.527 145.701Z" fill="#E0ECFF"/>
<path d="M95.6044 138.053V132.316H102.87H106.312L99.4286 140.347L97.5165 145.319L95.6044 149.143L90.2505 154.879V153.349V149.143V145.319L92.5451 142.259L95.6044 138.053Z" fill="#E0ECFF"/>
<path d="M83.7495 132.699H14.9143L4.97144 141.495H7.64836H16.444H78.778H79.9253L81.455 138.435L83.7495 132.699Z" fill="#E0ECFF"/>
<ellipse cx="176.677" cy="33.2704" rx="5.35385" ry="5.73626" fill="#E0ECFF"/>
<ellipse cx="196.563" cy="33.2704" rx="5.35385" ry="5.73626" fill="#E0ECFF"/>
<path d="M238.928 82.0956C218.238 86.2077 238.798 52.921 226.064 62.4266C213.329 71.9321 162.027 71.1789 152.184 69.8198C142.341 68.4606 140.929 57.2496 139.994 55.3537C139.068 53.4491 110.681 55.2671 110.067 53.5876C109.452 51.9081 139.198 41.9178 140.436 41.0347C141.674 40.1517 140.349 37.3641 140.704 36.1261C141.059 34.8882 145.656 40.3681 148.349 39.5717C151.041 38.7752 154.495 29.893 157.413 28.075C160.33 26.2656 167.135 34.135 161.083 38.2904C155.032 42.4459 148.704 36.7841 152.946 30.1527C157.188 23.5213 162.806 26.8803 167.36 33.6415C171.913 40.4028 181.064 39.7448 182.389 34.2562C183.713 28.7762 179.956 24.4823 174.692 26.2137C169.429 27.9365 169.87 38.7666 177.48 38.9484C185.081 39.1215 183.8 26.5687 192.379 25.7722C200.958 24.9757 205.157 34.9228 200.82 38.2385C196.491 41.5542 187.782 36.2041 192.284 29.1312C196.794 22.0583 204.482 25.8588 205.235 27.495C205.988 29.1312 207.399 52.2025 205.59 54.5918C203.78 56.9812 158.027 57.5093 154.971 56.3146C151.924 55.1199 145.777 46.1511 144.228 42.7835C142.678 39.4159 148.781 59.0503 151.257 59.7602C153.733 60.47 208.992 59.8467 210.845 57.0158C212.697 54.1849 215.173 5.82612 213.052 4.76129C210.931 3.69647 139.051 11.3927 136.575 14.9248C134.099 18.4656 139.406 35.8751 138.964 37.9095C138.523 39.9439 110.049 50.2027 108.37 51.6138C106.69 53.0249 137.986 51.4406 140.375 51.6138C142.765 51.7869 143.293 63.0152 148.955 64.9631C154.616 66.911 211.996 64.1666 213.321 62.4006C214.645 60.6345 222.956 2.36326 216.065 0.597207C209.165 -1.16885 134.809 8.8215 132.246 13.5916C129.684 18.3617 134.722 34.412 134.056 35.3816C133.389 36.3512 105.141 49.7005 104.301 50.5403C103.461 51.38 106.335 50.9818 107.444 48.1076C108.56 45.2681 108.387 29.0013 103.262 29.0879C102.604 29.0965 76.6588 29.564 76.5982 31.4426C76.5289 33.3126 104.024 31.9967 104.336 32.1958C104.647 32.3949 105.478 38.1433 104.699 41.0867C103.92 44.0301 103.228 46.584 93.748 47.5882C84.2684 48.5924 79.3511 47.3025 78.9789 47.3891C78.6066 47.4757 82.9871 53.4664 89.3934 54.3148C95.7997 55.1632 102.345 46.5407 102.249 46.0126C102.154 45.4932 82.7101 48.2635 78.6239 46.1078C74.5378 43.9522 74.4772 32.3516 78.1997 31.7283C81.9223 31.105 104.405 31.5292 104.769 31.2349C105.132 30.9405 105.366 25.7203 97.0463 20.7597C88.7268 15.7905 74.9966 15.5741 66.5039 20.4134C58.0113 25.2528 56.6434 34.6631 57.691 35.3816C58.7385 36.1002 57.8728 32.6546 59.9332 33.1741C61.9936 33.6935 65.2227 35.8664 66.1403 39.1561C67.058 42.4459 64.0886 43.4674 62.2619 40.2037C60.4353 36.9399 60.5651 33.0615 63.9414 34.2562C67.3177 35.4509 71.0662 43.0345 66.755 44.6707C62.4437 46.3069 60.8335 40.775 60.3141 38.7752C59.8033 36.7841 57.994 35.8578 57.5698 37.4247C57.1456 38.9917 58.1238 45.4932 65.7681 51.1809C73.4123 56.8687 87.5321 57.2582 87.2032 55.3623C86.8742 53.4664 76.3558 54.2802 76.0268 55.8818C75.6978 57.4833 89.5579 59.31 87.1079 61.6647C84.658 64.0195 72.6938 60.4527 75.8104 59.7169C78.9269 58.9724 92.9602 60.4181 93.5835 60.7211C94.2155 61.0241 93.0814 63.7684 83.3421 63.9242C73.6028 64.0801 73.9318 60.4614 70.2265 60.548C66.5213 60.6345 59.6648 66.4435 61.1019 66.4435C62.539 66.4435 65.9239 67.7507 66.5472 73.499C67.1705 79.2474 64.0972 78.9877 64.2271 76.6329C64.357 74.2782 61.604 68.677 55.0246 71.0924C48.4365 73.499 41.7791 94.6658 44.8697 94.8389C47.9603 95.0121 66.703 82.5977 65.6555 74.5379C64.608 66.4781 56.8512 68.1316 56.5915 69.3956C56.3318 70.6595 56.1154 64.9112 63.5605 61.1626C71.0143 57.4141 90.5795 57.0678 101.427 61.9937C112.274 66.9196 124.957 82.2514 123.347 87.3505C121.737 92.4495 109.928 85.5671 109.504 84.9092C109.08 84.2599 110.274 81.6454 110.11 80.8057C109.945 79.9746 109.668 80.9009 109.963 82.8315C110.257 84.762 119.616 87.489 119.884 83.6972C120.144 79.9053 106.188 66.9023 106.976 66.6426C107.764 66.3829 110.725 86.9349 105.444 99.4186C100.154 111.902 91.1508 121.676 90.4929 121.849C89.8436 122.031 87.1685 118.17 82.3725 118.456C77.5764 118.741 75.3775 123.399 79.8879 124.23C84.3983 125.061 89.151 123.165 89.7137 121.745C90.2765 120.326 86.8569 116.17 81.0826 117.278C75.3082 118.386 75.3948 122.663 75.9402 122.481C76.4856 122.308 73.2392 121.503 65.6988 111.824C58.1584 102.154 57.6477 88.9434 57.0417 89.636C55.873 90.9692 56.1327 101.401 60.8248 112.456C65.5084 123.511 82.4417 130.983 80.9873 132.125C79.5243 133.277 15.9116 131.112 14.6736 131.58C13.4356 132.047 1.93892 140.661 0.822151 141.544C-0.294621 142.427 1.11649 146.202 2.52761 146.557C3.93872 146.912 76.2086 146.617 77.0916 146.557C77.9747 146.496 79.2126 142.609 78.269 142.02C77.3254 141.432 3.1769 142.903 3.88678 141.726C4.59667 140.549 13.8512 133.536 15.851 133C17.8508 132.472 86.1557 132.662 85.1341 133.233C84.1212 133.805 81.0653 138.895 79.8273 143.397C78.5893 147.907 77.1782 161.213 76.9098 161.698C76.6415 162.183 51.9772 152.677 49.2849 151.483C46.5925 150.288 47.034 148.037 52.9988 148.037C58.9636 148.037 75.5853 148.21 76.0268 149.145C76.4683 150.072 76.0268 165.499 77.7063 168.641C79.3858 171.784 96.2759 180.882 102.37 185.929C108.474 190.968 131.017 189.816 144.635 190.881C158.252 191.946 173.809 202.906 176.112 202.465C178.415 202.023 185.834 172.052 183.358 168.606C180.882 165.161 168.502 160.027 162.226 152.954C155.95 145.881 119.347 148.574 120.144 147.604C120.94 146.635 160.105 146.635 162.183 145.925C164.26 145.215 165.014 142.756 164.702 141.224C164.39 139.692 159.179 132.619 158.071 132.307C156.962 131.995 84.6839 132.35 83.3334 132.03C81.9743 131.71 82.5629 123.988 92.0252 124.49C101.487 124.992 110.768 130.645 109.53 131.121C108.292 131.589 88.1122 131.19 87.5408 130.922C86.9694 130.654 89.5493 129.416 90.8565 129.459C92.1637 129.502 96.4057 131.467 95.3409 136.93C94.2761 142.393 89.6358 145.319 89.5493 149.509C89.4627 153.69 91.1422 153.811 90.3457 157.049C89.5493 160.287 86.8049 167.542 87.5495 163.3C88.294 159.058 99.0115 140.575 101.487 137.129C103.963 133.684 108.032 131.606 109.314 134.826C110.595 138.047 101.358 158.391 100.916 163.3C100.475 168.208 115.59 179.125 113.339 179.168C111.088 179.211 102.067 166.26 102.639 163.118C103.21 159.975 110.993 142.168 112.586 138.757C114.179 135.354 115.59 133.32 118.334 134.116C121.079 134.913 121.962 137.787 119.347 144.107C116.741 150.426 116.43 157.681 115.547 159.975C114.664 162.278 113.339 162.893 113.997 161.741C114.664 160.59 117.313 160.148 119.347 162.754C121.382 165.36 123.191 171.42 121.65 169.472C120.1 167.524 120.057 162.798 123.329 163.637C126.602 164.477 130.177 168.191 138.315 167.62C146.453 167.048 158.547 156.746 162.728 156.512C166.91 156.279 170.069 163.559 182.241 168.208C194.413 172.866 202.326 175.134 206.083 181.055C209.84 186.977 197.417 224.644 194.102 227.163C190.786 229.683 167.091 207.373 169.567 206.308C172.043 205.244 191.669 219.277 192.197 230.003C192.725 240.729 178.285 253.343 175.575 251.343C172.866 249.343 178.891 217.346 177.965 218.853C177.038 220.359 189.28 228.531 189.193 232.643C189.106 236.756 176.329 248.953 176.597 250.417C176.865 251.88 381.311 308.093 373 306.5C364.689 304.907 294.897 272.648 284.292 260.45C273.678 248.252 234.297 258.987 233.102 249.975C231.907 240.954 245.439 234.591 237.344 229.951C229.258 225.311 198.88 236.184 199.149 228.886C199.417 221.588 217.493 193.877 216.255 186.977C215.017 180.077 205.382 176.104 206.352 178.398C207.321 180.7 291.408 221.103 308.913 223.398C326.417 225.7 331.196 240.547 324.651 236.66C318.107 232.773 305.727 219.511 321.466 213.139C337.204 206.776 339.152 207.832 347.636 191.037" stroke="#2252A0" stroke-width="1.45319" stroke-miterlimit="10"/>
<ellipse cx="157.556" cy="33.2704" rx="5.35385" ry="5.73626" fill="#E0ECFF"/>
</g>
<defs>
<clipPath id="clip0_400_5494">
<rect width="348" height="303.442" fill="white"/>
</clipPath>
</defs>
</svg>
