<svg width="360" height="757" viewBox="0 0 360 757" fill="none" xmlns="http://www.w3.org/2000/svg">
<path d="M41.7768 45.393L41.8194 45.4174L41.8661 45.4329L41.895 45.4426C42.1727 45.5353 42.5367 45.6568 42.9161 45.6568C43.2553 45.6568 43.599 45.5575 43.8888 45.4271C44.1787 45.2966 44.4553 45.1168 44.6554 44.917C44.6557 44.9167 44.656 44.9164 44.6563 44.9161L55.3265 34.3438H79.0385C84.4695 34.3438 88.9623 29.9571 88.9623 24.42V10.4276C88.9623 4.99317 84.4729 0.503813 79.0385 0.503813H41.4276C35.8905 0.503813 31.5038 4.99658 31.5038 10.4276V24.42C31.5038 29.5847 35.4302 33.7671 40.3359 34.3032V43.0767C40.3359 44.1991 40.9778 44.9364 41.7768 45.393Z" stroke="white" stroke-opacity="0.1" stroke-width="0.992375"/>
<path d="M91.9917 23.5299L91.4427 23.4711V24.0233V24.8172C91.4427 31.3853 86.1128 36.6265 79.5342 36.6265H61.6714H61.1753V37.1226V38.6112C61.1753 42.1601 63.9776 44.9624 67.5265 44.9624H82.3079L88.9087 51.466C88.9092 51.4665 88.9097 51.467 88.9102 51.4675C89.0996 51.6565 89.305 51.7978 89.5403 51.8883C89.7742 51.9783 90.012 52.0083 90.2519 52.0083L90.2598 52.0083C90.3678 52.0084 90.6536 52.0086 90.9508 51.866C91.6193 51.5896 92.0381 50.9212 92.0381 50.3212V45.0135C95.1514 44.5816 97.4962 41.8883 97.4962 38.7104V29.8783V29.8703L97.496 29.8623C97.3897 26.5678 95.0444 23.857 91.9917 23.5299Z" stroke="white" stroke-opacity="0.1" stroke-width="0.992375"/>
<path d="M325.902 201.684L325.905 201.686C326.921 202.437 327.983 202.73 328.847 202.305C329.715 201.879 330.115 200.862 330.115 199.619V192.117C331.162 192.052 332.026 191.67 332.726 190.888C333.474 190.136 333.945 189.099 333.945 187.964V156.663C333.945 155.465 333.569 154.491 332.705 153.718C331.953 152.971 330.917 152.5 329.782 152.5H282.663C281.519 152.5 280.489 152.978 279.667 153.709L279.643 153.729L279.623 153.753C278.972 154.496 278.5 155.526 278.5 156.663V187.964C278.5 189.164 278.875 190.129 279.645 190.899L279.656 190.909L279.667 190.919C280.489 191.65 281.519 192.127 282.663 192.127H313.132L325.902 201.684Z" stroke="white" stroke-opacity="0.1"/>
<path d="M298.648 172.333C298.737 171.094 298.171 169.877 297.326 169.12C296.389 168.188 295.26 167.818 294.069 167.818C292.86 167.818 291.738 168.283 290.895 169.12C290.027 169.899 289.573 171.123 289.573 172.314C289.573 173.522 290.12 174.739 290.897 175.426C291.807 176.332 292.842 176.81 294.069 176.81C295.293 176.81 296.494 176.252 297.326 175.425C298.182 174.658 298.643 173.529 298.648 172.333Z" stroke="white" stroke-opacity="0.1"/>
<path d="M322.873 172.314C322.873 171.159 322.522 169.916 321.552 169.119C320.69 168.18 319.553 167.818 318.377 167.818C317.191 167.818 315.972 168.268 315.192 169.13C314.331 169.909 313.881 171.128 313.881 172.314C313.881 173.517 314.423 174.729 315.194 175.417C316.041 176.346 317.169 176.81 318.377 176.81C319.585 176.81 320.789 176.264 321.553 175.425C322.515 174.636 322.873 173.482 322.873 172.314Z" stroke="white" stroke-opacity="0.1"/>
<path d="M310.801 172.314C310.801 171.097 310.249 169.895 309.499 169.139C308.634 168.185 307.49 167.818 306.305 167.818C305.124 167.818 303.909 168.265 303.13 169.12C302.16 169.917 301.81 171.159 301.81 172.314C301.81 173.485 302.251 174.719 303.133 175.428C303.978 176.349 305.102 176.81 306.305 176.81C307.519 176.81 308.727 176.26 309.49 175.415C310.344 174.644 310.801 173.512 310.801 172.314Z" stroke="white" stroke-opacity="0.1"/>
<path d="M313.232 35.4166C311.238 35.4166 309.694 36.939 309.694 38.8098C309.694 40.6806 311.238 42.2031 313.232 42.2031C315.225 42.2031 316.769 40.6806 316.769 38.8098C316.769 36.939 315.225 35.4166 313.232 35.4166Z" stroke="white" stroke-opacity="0.1" stroke-width="0.721966"/>
<path d="M319.152 42.7805V42.7666L319.151 42.7528C319.066 41.6423 318.129 40.6868 316.986 40.6868C315.786 40.6868 314.82 41.633 314.82 42.7805C314.82 43.9279 315.786 44.8742 316.986 44.8742C318.105 44.8742 319.152 43.9371 319.152 42.7805Z" stroke="white" stroke-opacity="0.1" stroke-width="0.721966"/>
<path d="M319.224 43.9356C318.614 43.9356 318.069 44.4367 318.069 45.0186C318.069 45.6949 318.638 46.1015 319.224 46.1015C319.761 46.1015 320.307 45.6742 320.307 45.0186C320.307 44.7207 320.162 44.453 319.976 44.267C319.79 44.081 319.522 43.9356 319.224 43.9356Z" stroke="white" stroke-opacity="0.1" stroke-width="0.721966"/>
<path d="M290.634 4.87712C287.249 4.87712 284.425 7.14737 284.425 10.1475C284.425 10.1578 284.425 10.1683 284.425 10.1789C284.425 10.3178 284.425 10.4774 284.438 10.6373C280.858 11.2342 278.144 14.1037 278.144 17.5837C278.144 18.8724 278.545 20.0208 279.148 21.0247C278.257 22.1929 277.639 23.6353 277.639 25.1644C277.639 27.695 279.086 29.8485 281.177 31.0777V31.0784V31.0793V31.0803V31.0812V31.0822V31.0831V31.0841V31.085V31.0859V31.0869V31.0878V31.0888V31.0897V31.0907V31.0916V31.0926V31.0935V31.0945V31.0954V31.0964V31.0973V31.0983V31.0993V31.1002V31.1012V31.1021V31.1031V31.1041V31.105V31.106V31.1069V31.1079V31.1089V31.1098V31.1108V31.1118V31.1127V31.1137V31.1147V31.1156V31.1166V31.1176V31.1186V31.1195V31.1205V31.1215V31.1225V31.1235V31.1244V31.1254V31.1264V31.1274V31.1284V31.1293V31.1303V31.1313V31.1323V31.1333V31.1343V31.1353V31.1363V31.1372V31.1382V31.1392V31.1402V31.1412V31.1422V31.1432V31.1442V31.1452V31.1462V31.1472V31.1482V31.1492V31.1502V31.1512V31.1522V31.1533V31.1543V31.1553V31.1563V31.1573V31.1583V31.1593V31.1603V31.1614V31.1624V31.1634V31.1644V31.1654V31.1664V31.1675V31.1685V31.1695V31.1705V31.1716V31.1726V31.1736V31.1747V31.1757V31.1767V31.1778V31.1788V31.1798V31.1809V31.1819V31.1829V31.184V31.185V31.1861V31.1871V31.1881V31.1892V31.1902V31.1913V31.1923V31.1934V31.1944V31.1955V31.1965V31.1976V31.1987V31.1997V31.2008V31.2018V31.2029V31.2039V31.205V31.2061V31.2071V31.2082V31.2093V31.2103V31.2114V31.2125V31.2136V31.2146V31.2157V31.2168V31.2179V31.2189V31.22V31.2211V31.2222V31.2233V31.2243V31.2254V31.2265V31.2276V31.2287V31.2298V31.2309V31.232V31.2331V31.2342V31.2353V31.2364V31.2375V31.2386V31.2397V31.2408V31.2419V31.243V31.2441V31.2452V31.2463V31.2474V31.2485V31.2496V31.2508V31.2519V31.253V31.2541V31.2552V31.2564V31.2575V31.2586V31.2597V31.2609V31.262V31.2631V31.2642V31.2654V31.2665V31.2676V31.2688V31.2699V31.2711V31.2722V31.2733V31.2745V31.2756V31.2768V31.2779V31.2791V31.2802V31.2814V31.2825V31.2837V31.2848V31.286V31.2872V31.2883V31.2895V31.2906V31.2918V31.293V31.2941V31.2953V31.2965V31.2977V31.2988V31.3V31.3012V31.3024V31.3035V31.3047V31.3059V31.3071V31.3083V31.3095V31.3107V31.3118V31.313V31.3142V31.3154V31.3166V31.3178V31.319V31.3202V31.3214V31.3226V31.3238V31.325V31.3262V31.3274V31.3287V31.3299V31.3311V31.3323V31.3335V31.3347V31.336V31.3372V31.3384V31.3396V31.3408V31.3421V31.3433V31.3445V31.3458V31.347V31.3482V31.3495V31.3507V31.352V31.3532V31.3544V31.3557V31.3569V31.3582V31.3594V31.3607V31.3619V31.3632V31.3645V31.3657V31.367V31.3682V31.3695V31.3708V31.372V31.3733C281.177 34.3033 284.075 36.6436 287.458 36.6436H287.487C288.008 36.6437 288.475 36.6437 288.937 36.5528C289.653 37.7132 291.136 38.5208 292.728 38.5208C293.237 38.5208 293.704 38.4674 294.123 38.3559C294.765 39.051 295.669 39.4593 296.699 39.4593C297.687 39.4593 298.614 39.0275 299.213 38.4208C299.486 38.5551 299.793 38.593 300.02 38.593C300.491 38.593 300.921 38.4359 301.258 38.1245C301.611 38.4629 302.066 38.7373 302.691 38.7373C303.145 38.7373 303.518 38.5073 303.799 38.268C304.127 38.4924 304.506 38.6652 305.002 38.6652C305.693 38.6652 306.248 38.3287 306.607 37.8487C306.827 37.8994 307.067 37.9432 307.312 37.9432C309.003 37.9432 310.378 36.8524 310.713 35.2875C311.091 35.3726 311.454 35.4163 311.86 35.4163C314.174 35.4163 316.087 34.0368 316.703 32.0845C319.191 31.1592 320.992 28.9505 321.229 26.4146C323.69 25.2456 325.361 22.8703 325.361 20.1828C325.361 16.7775 322.789 13.9805 319.356 13.253C319.403 12.976 319.441 12.6844 319.441 12.4578C319.441 8.74497 316.447 5.82453 312.601 5.39744C311.235 4.08158 309.237 3.2166 307.095 3.2166C305.407 3.2166 303.847 3.7405 302.6 4.60846C301.486 3.42924 299.687 2.63902 297.71 2.63902C295.442 2.63902 293.461 3.51043 292.327 5.05229C292.142 4.97862 291.941 4.9391 291.741 4.91569C291.414 4.8771 291.035 4.87711 290.65 4.87712L290.634 4.87712Z" stroke="white" stroke-opacity="0.1" stroke-width="0.721966"/>
<path d="M53.2315 704.417C51.2383 704.417 49.6939 705.939 49.6939 707.81C49.6939 709.681 51.2383 711.203 53.2315 711.203C55.2248 711.203 56.7692 709.681 56.7692 707.81C56.7692 705.939 55.2248 704.417 53.2315 704.417Z" stroke="white" stroke-opacity="0.1" stroke-width="0.721966"/>
<path d="M59.1521 711.781V711.767L59.151 711.753C59.0656 710.642 58.1291 709.687 56.9862 709.687C55.7857 709.687 54.8203 710.633 54.8203 711.781C54.8203 712.928 55.7857 713.874 56.9862 713.874C58.1049 713.874 59.1521 712.937 59.1521 711.781Z" stroke="white" stroke-opacity="0.1" stroke-width="0.721966"/>
<path d="M59.2243 712.936C58.614 712.936 58.0691 713.437 58.0691 714.019C58.0691 714.695 58.6385 715.102 59.2243 715.102C59.7607 715.102 60.3072 714.674 60.3072 714.019C60.3072 713.721 60.1619 713.453 59.9759 713.267C59.7898 713.081 59.5222 712.936 59.2243 712.936Z" stroke="white" stroke-opacity="0.1" stroke-width="0.721966"/>
<path d="M30.6344 673.877C27.2488 673.877 24.4255 676.147 24.4255 679.147C24.4255 679.158 24.4255 679.168 24.4255 679.179C24.4254 679.318 24.4253 679.477 24.4384 679.637C20.8583 680.234 18.1444 683.104 18.1444 686.584C18.1444 687.872 18.5452 689.021 19.1481 690.025C18.2567 691.193 17.639 692.635 17.639 694.164C17.639 696.695 19.0856 698.848 21.1766 700.078V700.078V700.079V700.08V700.081V700.082V700.083V700.084V700.085V700.086V700.087V700.088V700.089V700.09V700.091V700.092V700.093V700.094V700.094V700.095V700.096V700.097V700.098V700.099V700.1V700.101V700.102V700.103V700.104V700.105V700.106V700.107V700.108V700.109V700.11V700.111V700.112V700.113V700.114V700.115V700.116V700.117V700.118V700.119V700.12V700.121V700.121V700.122V700.123V700.124V700.125V700.126V700.127V700.128V700.129V700.13V700.131V700.132V700.133V700.134V700.135V700.136V700.137V700.138V700.139V700.14V700.141V700.142V700.143V700.144V700.145V700.146V700.147V700.148V700.149V700.15V700.151V700.152V700.153V700.154V700.155V700.156V700.157V700.158V700.159V700.16V700.161V700.162V700.163V700.164V700.165V700.166V700.167V700.168V700.17V700.171V700.172V700.173V700.174V700.175V700.176V700.177V700.178V700.179V700.18V700.181V700.182V700.183V700.184V700.185V700.186V700.187V700.188V700.189V700.19V700.191V700.192V700.193V700.194V700.195V700.197V700.198V700.199V700.2V700.201V700.202V700.203V700.204V700.205V700.206V700.207V700.208V700.209V700.21V700.211V700.212V700.214V700.215V700.216V700.217V700.218V700.219V700.22V700.221V700.222V700.223V700.224V700.225V700.227V700.228V700.229V700.23V700.231V700.232V700.233V700.234V700.235V700.236V700.237V700.239V700.24V700.241V700.242V700.243V700.244V700.245V700.246V700.247V700.249V700.25V700.251V700.252V700.253V700.254V700.255V700.256V700.257V700.259V700.26V700.261V700.262V700.263V700.264V700.265V700.267V700.268V700.269V700.27V700.271V700.272V700.273V700.274V700.276V700.277V700.278V700.279V700.28V700.281V700.283V700.284V700.285V700.286V700.287V700.288V700.289V700.291V700.292V700.293V700.294V700.295V700.296V700.298V700.299V700.3V700.301V700.302V700.304V700.305V700.306V700.307V700.308V700.309V700.311V700.312V700.313V700.314V700.315V700.317V700.318V700.319V700.32V700.321V700.323V700.324V700.325V700.326V700.327V700.329V700.33V700.331V700.332V700.334V700.335V700.336V700.337V700.338V700.34V700.341V700.342V700.343V700.345V700.346V700.347V700.348V700.349V700.351V700.352V700.353V700.354V700.356V700.357V700.358V700.359V700.361V700.362V700.363V700.364V700.366V700.367V700.368V700.369V700.371V700.372V700.373C21.1766 703.303 24.0746 705.644 27.4577 705.644H27.4868C28.0077 705.644 28.4753 705.644 28.9366 705.553C29.6533 706.713 31.1364 707.521 32.7281 707.521C33.2374 707.521 33.7037 707.467 34.1233 707.356C34.7649 708.051 35.6688 708.459 36.6989 708.459C37.6871 708.459 38.6144 708.028 39.2135 707.421C39.4862 707.555 39.7928 707.593 40.02 707.593C40.4911 707.593 40.9209 707.436 41.2576 707.124C41.6106 707.463 42.0661 707.737 42.6913 707.737C43.1455 707.737 43.5183 707.507 43.7994 707.268C44.1267 707.492 44.506 707.665 45.0015 707.665C45.6935 707.665 46.2481 707.329 46.6069 706.849C46.8268 706.899 47.0671 706.943 47.3118 706.943C49.0027 706.943 50.3781 705.852 50.7128 704.287C51.0911 704.373 51.4539 704.416 51.8602 704.416C54.174 704.416 56.0867 703.037 56.7034 701.084C59.1913 700.159 60.9924 697.95 61.2287 695.415C63.69 694.246 65.361 691.87 65.361 689.183C65.361 685.778 62.7892 682.981 59.3561 682.253C59.4031 681.976 59.4409 681.684 59.4409 681.458C59.4409 677.745 56.4466 674.825 52.6006 674.397C51.2352 673.082 49.2365 672.217 47.0952 672.217C45.4071 672.217 43.8473 672.74 42.5997 673.608C41.4857 672.429 39.6874 671.639 37.7097 671.639C35.4416 671.639 33.4606 672.51 32.327 674.052C32.1416 673.979 31.9405 673.939 31.7415 673.916C31.4135 673.877 31.0349 673.877 30.6495 673.877L30.6344 673.877Z" stroke="white" stroke-opacity="0.1" stroke-width="0.721966"/>
<path d="M160.098 125.259L168.469 121.658C172.509 123.928 177.51 125.3 182.8 125.3C186.868 125.3 190.629 124.486 194.079 123.167L194.086 123.164L194.094 123.161C201.812 119.911 207.2 113.566 207.2 106.3C207.2 101.115 204.502 96.4806 200.21 93.1075C195.812 89.6302 189.599 87.5 182.8 87.5C169.451 87.5 158.5 95.8119 158.5 106.4C158.5 110.325 159.97 114.049 162.616 117.002L159.439 124.607L158.962 125.748L160.098 125.259Z" stroke="white" stroke-opacity="0.1"/>
<path d="M221.18 118.288C223.519 115.478 224.899 112.346 225 108.714L225 108.714V108.7C225 99.3101 215.147 91.7998 203.1 91.7998H203.099H203.097H203.096H203.095H203.094H203.093H203.092H203.09H203.089H203.088H203.087H203.086H203.085H203.083H203.082H203.081H203.08H203.079H203.078H203.076H203.075H203.074H203.073H203.072H203.07H203.069H203.068H203.067H203.066H203.065H203.063H203.062H203.061H203.06H203.059H203.058H203.056H203.055H203.054H203.053H203.052H203.051H203.049H203.048H203.047H203.046H203.045H203.043H203.042H203.041H203.04H203.039H203.038H203.036H203.035H203.034H203.033H203.032H203.03H203.029H203.028H203.027H203.026H203.025H203.023H203.022H203.021H203.02H203.019H203.018H203.016H203.015H203.014H203.013H203.012H203.01H203.009H203.008H203.007H203.006H203.004H203.003H203.002H203.001H203H202.999H202.997H202.996H202.995H202.994H202.993H202.991H202.99H202.989H202.988H202.987H202.985H202.984H202.983H202.982H202.981H202.979H202.978H202.977H202.976H202.975H202.973H202.972H202.971H202.97H202.969H202.967H202.966H202.965H202.964H202.963H202.961H202.96H202.959H202.958H202.957H202.955H202.954H202.953H202.952H202.951H202.949H202.948H202.947H202.946H202.945H202.943H202.942H202.941H202.94H202.939H202.937H202.936H202.935H202.934H202.932H202.931H202.93H202.929H202.928H202.926H202.925H202.924H202.923H202.922H202.92H202.919H202.918H202.917H202.915H202.914H202.913H202.912H202.91H202.909H202.908H202.907H202.906H202.904H202.903H202.902H202.901H202.899H202.898H202.897H202.896H202.894H202.893H202.892H202.891H202.889H202.888H202.887H202.886H202.885H202.883H202.882H202.881H202.88H202.878H202.877H202.876H202.875H202.873H202.872H202.871H202.87H202.868H202.867H202.866H202.865H202.863H202.862H202.861H202.859H202.858H202.857H202.856H202.854H202.853H202.852H202.851H202.849H202.848H202.847H202.846H202.844H202.843H202.842H202.84H202.839H202.838H202.837H202.835H202.834H202.833H202.831H202.83H202.829H202.828H202.826H202.825H202.824H202.822H202.821H202.82H202.819H202.817H202.816H202.815H202.813H202.812H202.811H202.81H202.808H202.807H202.806H202.804H202.803H202.802H202.8H202.799H202.798H202.797H202.795H202.794H202.793H202.791H202.79H202.789H202.787H202.786H202.785H202.783H202.782H202.781H202.779H202.778H202.777H202.775H202.774H202.773H202.771H202.77H202.769H202.767H202.766H202.765H202.763H202.762H202.761H202.759H202.758H202.757H202.755H202.754H202.753H202.751H202.75H202.749H202.747H202.746H202.745H202.743H202.742H202.74H202.739H202.738H202.736H202.735H202.734H202.732H202.731H202.729H202.728H202.727H202.725H202.724H202.723H202.721H202.72H202.718H202.717H202.716H202.714H202.713H202.712H202.71H202.709H202.707H202.706H202.705H202.703H202.702H202.7H202.699H202.698H202.696H202.695H202.693H202.692H202.691H202.689H202.688H202.686H202.685H202.683H202.682H202.681H202.679H202.678H202.676H202.675H202.674H202.672H202.671H202.669H202.668H202.666H202.665H202.663H202.662H202.661H202.659H202.658H202.656H202.655H202.653H202.652H202.65H202.649H202.648H202.646H202.645H202.643H202.642H202.64H202.639H202.637H202.636H202.634H202.633H202.631H202.63H202.628H202.627H202.626H202.624H202.623H202.621H202.62H202.618H202.617H202.615H202.614H202.612H202.611H202.609H202.608H202.606H202.605H202.603H202.602H202.6H202.599H202.597H202.596H202.594H202.593H202.591H202.589H202.588H202.586H202.585H202.583H202.582H202.58H202.579H202.577H202.576H202.574H202.573H202.571H202.57H202.568H202.566H202.565H202.563H202.562H202.56H202.559H202.557H202.556H202.554H202.552H202.551H202.549H202.548H202.546H202.545H202.543H202.541H202.54H202.538H202.537H202.535H202.533H202.532H202.53H202.529H202.527H202.526H202.524H202.522H202.521H202.519H202.518H202.516H202.514H202.513H202.511H202.509H202.508H202.506H202.505H202.503H202.501H202.5H202.498H202.496H202.495H202.493H202.492H202.49H202.488H202.487H202.485H202.483H202.482H202.48H202.478H202.477H202.475H202.473H202.472H202.47H202.468H202.467H202.465H202.463H202.462H202.46H202.458H202.457H202.455H202.453H202.452H202.45H202.448H202.446H202.445H202.443H202.441H202.44H202.438H202.436H202.435H202.433H202.431H202.429H202.428H202.426H202.424H202.422H202.421H202.419H202.417H202.416H202.414H202.412H202.41H202.409H202.407H202.405H202.403H202.402H202.4H200.95L202.092 92.6936C206.6 96.2215 209.4 101.087 209.4 106.3C209.4 113.833 203.79 120.485 195.615 123.735L194.315 124.252L195.648 124.676C197.899 125.392 200.45 125.8 203.1 125.8C207.88 125.8 212.383 124.63 215.936 122.559L223.403 125.759L224.543 126.248L224.06 125.105L221.18 118.288Z" stroke="white" stroke-opacity="0.1"/>
<path d="M355.817 440.669C354.669 444.878 351.714 448.455 348.044 451H347.42L347.53 451.353L346.584 452H347.732L348.123 453.249L348.426 454.219L348.389 454.182L348.919 456.038L349.317 457.432C349.887 459.623 349.568 461.835 347.748 463.067C346.978 463.45 346.273 463.7 345.6 463.7C344.254 463.7 342.963 463.07 341.917 462.214C341.917 462.214 341.917 462.214 341.916 462.213L334.518 456.114L334.379 456H334.2C333.257 456 332.4 456.087 331.501 456.177C331.418 456.186 331.334 456.194 331.25 456.203L330.628 456.265L330.825 456.858C331.765 459.677 333.742 462.163 336.522 464.016L336.529 464.02L336.535 464.024C337.216 464.45 337.826 464.804 338.419 465.144L336.517 472.369C336.517 472.369 336.517 472.37 336.517 472.371C336.364 472.932 336.284 473.457 336.374 473.869C336.421 474.089 336.525 474.311 336.724 474.475C336.925 474.641 337.166 474.7 337.4 474.7C337.686 474.7 337.981 474.569 338.216 474.431C338.462 474.287 338.713 474.091 338.936 473.871L346.25 467.825C347.712 468.015 349.448 468.2 351.1 468.2C356.68 468.2 361.881 466.681 365.579 464.115C369.379 461.648 371.7 458.108 371.7 454C371.7 450.09 369.376 446.451 365.58 443.886L365.577 443.884C363.118 442.245 359.952 440.919 356.384 440.307L355.937 440.231L355.817 440.669ZM349.085 453.222C349.155 452.939 349.291 452.716 349.562 452.352C350.027 451.985 350.5 451.7 351.1 451.7C351.711 451.7 352.191 451.996 352.665 452.373C353.071 452.786 353.3 453.258 353.3 453.9C353.3 454.552 353.064 455.029 352.646 455.447C352.229 455.864 351.752 456.1 351.1 456.1C350.799 456.1 350.566 456.057 350.364 455.975C350.163 455.893 349.967 455.76 349.753 455.547L348.754 454.547L349.085 453.222Z" stroke="white" stroke-opacity="0.1"/>
<path d="M346.585 458.379L346.585 458.379L346.582 458.368L344.284 449.942C344.761 449.663 345.194 449.381 345.615 449.106C345.867 448.942 346.115 448.78 346.365 448.624L346.372 448.619L346.38 448.614C350.773 445.652 353.5 441.514 353.5 436.9C353.5 432.282 350.769 428.248 346.386 425.19L346.384 425.189C342.085 422.22 336.08 420.5 329.5 420.5C323.019 420.5 317.015 422.22 312.716 425.189L312.716 425.189L312.714 425.19C308.338 428.243 305.5 432.277 305.5 436.9C305.5 441.519 308.333 445.655 312.718 448.613C317.013 451.577 323.014 453.4 329.5 453.4C331.55 453.4 333.409 453.212 335.253 452.929L343.779 460.083L343.78 460.084C344.424 460.621 345.035 460.9 345.6 460.9C345.853 460.9 346.098 460.824 346.299 460.651C346.494 460.484 346.608 460.261 346.67 460.03C346.791 459.583 346.743 459.009 346.585 458.379Z" stroke="white" stroke-opacity="0.1"/>
<path d="M341.484 434.48L341.455 434.445L341.42 434.416C340.775 433.878 339.964 433.4 338.9 433.4C337.836 433.4 337.026 433.878 336.38 434.416C335.639 435.033 335.31 435.983 335.203 436.945L335.2 436.972V437C335.2 438.071 335.684 438.891 336.347 439.553C337.009 440.216 337.829 440.7 338.9 440.7C339.971 440.7 340.791 440.216 341.454 439.553L341.47 439.537L341.484 439.52C342.022 438.875 342.5 438.064 342.5 437C342.5 435.936 342.022 435.125 341.484 434.48Z" stroke="white" stroke-opacity="0.1"/>
<path d="M322.654 434.446L322.638 434.43L322.62 434.416C321.975 433.878 321.164 433.4 320.1 433.4C319.036 433.4 318.225 433.878 317.58 434.416C316.835 435.036 316.5 435.996 316.5 437C316.5 438.032 316.853 438.86 317.546 439.553C318.209 440.216 319.029 440.7 320.1 440.7C321.171 440.7 321.991 440.216 322.654 439.553C323.316 438.891 323.8 438.071 323.8 437C323.8 435.929 323.316 435.109 322.654 434.446Z" stroke="white" stroke-opacity="0.1"/>
<path d="M329.5 433.4C328.536 433.4 327.729 433.878 327.094 434.404C326.236 435.026 325.9 435.997 325.9 437C325.9 438.033 326.255 438.87 327.06 439.567C327.713 440.215 328.528 440.7 329.5 440.7C330.539 440.7 331.473 440.242 332.07 439.538C332.724 438.878 333.2 438.062 333.2 437C333.2 435.929 332.717 435.109 332.054 434.446C331.469 433.861 330.544 433.4 329.5 433.4Z" stroke="white" stroke-opacity="0.1"/>
<path d="M357.088 451.71L357.067 451.727L357.047 451.747C356.465 452.329 356.101 453.052 356.101 454C356.101 454.948 356.465 455.671 357.047 456.254C357.621 456.828 358.342 457.2 359.201 457.2C360.148 457.2 360.872 456.836 361.454 456.254C362.036 455.671 362.401 454.948 362.401 454C362.401 453.086 362.058 452.226 361.413 451.71C360.894 451.295 360.18 450.8 359.201 450.8C358.314 450.8 357.595 451.305 357.088 451.71Z" stroke="white" stroke-opacity="0.1"/>
<path d="M55.4 350.4H57.1C58.5762 350.4 59.9 349.076 59.9 347.6V324.9C59.9 323.424 58.5762 322.1 57.1 322.1H43.5H43V322.6V332.3C43 337.028 39.2202 340.8 34.6 340.8H22.5H22V341.3V347.6C22 349.076 23.3238 350.4 24.8 350.4H39.8329L50.9994 358.8L51 358.8C52.0609 359.596 53.1723 359.898 54.0736 359.447C54.9749 358.997 55.4 357.926 55.4 356.6V350.4Z" stroke="white" stroke-opacity="0.1"/>
<path d="M-3.3 335.5H-1.2V342.7C-1.2 344.276 -0.700419 345.494 0.310977 346.008C1.32247 346.522 2.58418 346.199 3.7972 345.302L3.79855 345.301L16.9657 335.5H34.6C36.3 335.5 37.7 333.952 37.7 332.3V305.7C37.7 303.924 36.1761 302.5 34.6 302.5H-3.3C-5.08801 302.5 -6.5 304.036 -6.5 305.7V332.3C-6.5 334.088 -4.96414 335.5 -3.3 335.5Z" stroke="white" stroke-opacity="0.1"/>
<path d="M36.8815 226.551L62.2856 211.86H73.3935C79.5589 211.86 84.5276 206.193 84.5276 199.42L84.5277 188.056L84.5276 188.051C84.449 181.208 79.561 175.616 73.3935 175.616H45.7502C39.5834 175.616 34.6161 181.285 34.6161 188.132V199.42C34.6161 204.414 37.3097 208.76 41.2052 210.678C39.4595 215.742 38.2455 219.573 37.4641 222.153C37.065 223.47 36.7788 224.461 36.5921 225.124C36.4988 225.455 36.4304 225.704 36.3852 225.87C36.3626 225.953 36.3459 226.016 36.3347 226.058L36.3221 226.105L36.3189 226.118L36.3181 226.121L36.3179 226.121L36.3178 226.122C36.3178 226.122 36.3178 226.122 36.6893 226.219L36.3178 226.122L36.0858 227.011L36.8815 226.551Z" stroke="white" stroke-opacity="0.1" stroke-width="0.767871"/>
<path d="M72.3191 192.202C73.7856 192.202 75.1603 191.079 75.1603 189.668V187.979C75.1603 186.414 73.7856 185.368 72.3191 185.368H46.9794C45.435 185.368 44.0615 186.492 44.0615 187.979V189.668C44.0615 191.178 45.5385 192.202 46.9794 192.202H72.3191Z" stroke="white" stroke-opacity="0.1" stroke-width="0.767871"/>
<path d="M61.569 201.417C63.1962 201.417 64.4101 200.288 64.4101 198.96V197.193C64.4101 195.636 63.1204 194.583 61.569 194.583H46.9794C45.435 194.583 44.0615 195.706 44.0615 197.193V198.96C44.0615 199.68 44.4455 200.3 44.9838 200.728C45.5221 201.157 46.2399 201.417 46.9794 201.417H61.569Z" stroke="white" stroke-opacity="0.1" stroke-width="0.767871"/>
<path d="M337.702 743.251C346.403 738.67 351.9 731.117 351.9 722.6C351.9 715.609 348.146 709.322 342.138 704.8C336.131 700.279 327.848 697.5 318.7 697.5C309.602 697.5 301.319 700.279 295.299 704.813C289.279 709.347 285.5 715.659 285.5 722.7C285.5 729.692 289.255 735.954 295.263 740.45C301.271 744.946 309.553 747.7 318.7 747.7H318.727C320.808 747.7 322.854 747.7 324.817 747.344C325.685 748.29 327.488 750.043 329.819 751.73C332.334 753.55 335.507 755.324 338.815 755.893L338.857 755.9H338.9H338.9H338.9H338.9H338.9H338.9H338.9H338.9H338.9H338.9H338.901H338.901H338.901H338.901H338.901H338.901H338.901H338.901H338.901H338.902H338.902H338.902H338.902H338.902H338.902H338.903H338.903H338.903H338.903H338.903H338.904H338.904H338.904H338.904H338.905H338.905H338.905H338.905H338.906H338.906H338.906H338.906H338.907H338.907H338.907H338.908H338.908H338.908H338.908H338.909H338.909H338.91H338.91H338.91H338.911H338.911H338.911H338.912H338.912H338.912H338.913H338.913H338.914H338.914H338.914H338.915H338.915H338.916H338.916H338.917H338.917H338.918H338.918H338.918H338.919H338.919H338.92H338.92H338.921H338.921H338.922H338.922H338.923H338.923H338.924H338.925H338.925H338.926H338.926H338.927H338.927H338.928H338.928H338.929H338.93H338.93H338.931H338.931H338.932H338.933H338.933H338.934H338.934H338.935H338.936H338.936H338.937H338.938H338.938H338.939H338.94H338.94H338.941H338.942H338.942H338.943H338.944H338.944H338.945H338.946H338.946H338.947H338.948H338.949H338.949H338.95H338.951H338.951H338.952H338.953H338.954H338.954H338.955H338.956H338.957H338.958H338.958H338.959H338.96H338.961H338.961H338.962H338.963H338.964H338.965H338.966H338.966H338.967H338.968H338.969H338.97H338.971H338.971H338.972H338.973H338.974H338.975H338.976H338.977H338.977H338.978H338.979H338.98H338.981H338.982H338.983H338.984H338.985H338.985H338.986H338.987H338.988H338.989H338.99H338.991H338.992H338.993H338.994H338.995H338.996H338.997H338.998H338.999H339H339.001H339.002H339.002H339.003H339.004H339.005H339.006H339.007H339.008H339.009H339.01H339.011H339.012H339.013H339.014H339.015H339.017H339.018H339.019H339.02H339.021H339.022H339.023H339.024H339.025H339.026H339.027H339.028H339.029H339.03H339.031H339.032H339.033H339.034H339.035H339.037H339.038H339.039H339.04H339.041H339.042H339.043H339.044H339.045H339.046H339.048H339.049H339.05H339.051H339.052H339.053H339.054H339.055H339.057H339.058H339.059H339.06H339.061H339.062H339.063H339.065H339.066H339.067H339.068H339.069H339.07H339.071H339.073H339.074H339.075H339.076H339.077H339.078H339.08H339.081H339.082H339.083H339.084H339.086H339.087H339.088H339.089H339.09H339.092H339.093H339.094H339.095H339.096H339.098H339.099H339.1H339.101H339.102H339.104H339.105H339.106H339.107H339.109H339.11H339.111H339.112H339.114H339.115H339.116H339.117H339.118H339.12H339.121H339.122H339.123H339.125H339.126H339.127H339.128H339.13H339.131H339.132H339.134H339.135H339.136H339.137H339.139H339.14H339.141H339.142H339.144H339.145H339.146H339.147H339.149H339.15H339.151H339.153H339.154H339.155H339.156H339.158H339.159H339.16H339.162H339.163H339.164H339.165H339.167H339.168H339.169H339.171H339.172H339.173H339.175H339.176H339.177H339.178H339.18H339.181H339.182H339.184H339.185H339.186H339.188H339.189H339.19H339.191H339.193H339.194H339.195H339.197H339.198H339.199H339.201H339.202H339.203H339.205H339.206H339.207H339.208H339.21H339.211H339.212H339.214H339.215H339.216H339.218H339.219H339.22H339.222H339.223H339.224H339.226H339.227H339.228H339.23H339.231H339.232H339.234H339.235H339.236H339.237H339.239H339.24H339.241H339.243H339.244H339.245H339.247H339.248H339.249H339.251H339.252H339.253H339.255H339.256H339.257H339.259H339.26H339.261H339.262H339.264H339.265H339.266H339.268H339.269H339.27H339.272H339.273H339.274H339.276H339.277H339.278H339.28H339.281H339.282H339.283H339.285H339.286H339.287H339.289H339.29H339.291H339.293H339.294H339.295H339.297H339.298H339.299H339.3H339.302H339.303H339.304H339.306H339.307H339.308H339.309H339.311H339.312H339.313H339.315H339.316H339.317H339.318H339.32H339.321H339.322H339.324H339.325H339.326H339.327H339.329H339.33H339.331H339.333H339.334H339.335H339.336H339.338H339.339H339.34H339.341H339.343H339.344H339.345H339.346H339.348H339.349H339.35H339.351H339.353H339.354H339.355H339.356H339.358H339.359H339.36H339.361H339.363H339.364H339.365H339.366H339.368H339.369H339.37H339.371H339.372H339.374H339.375H339.376H339.377H339.379H339.38H339.381H339.382H339.383H339.385H339.386H339.387H339.388H339.389H339.391H339.392H339.393H339.394H339.395H339.396H339.398H339.399H339.4C340.504 755.9 341.8 755.043 341.8 753.6C341.8 753.431 341.76 753.253 341.72 753.106C341.679 752.955 341.625 752.794 341.577 752.649L341.574 752.642L341.559 752.595L341.534 752.552C341.358 752.243 341.154 751.904 340.935 751.538C340.385 750.62 339.733 749.534 339.15 748.332C338.36 746.705 337.737 744.943 337.702 743.251Z" stroke="white" stroke-opacity="0.1"/>
<path d="M318.5 729.1C318.5 730.976 320.024 732.4 321.7 732.4C323.453 732.4 325.1 730.899 325.1 729.1C325.1 727.191 323.441 725.8 321.7 725.8C319.901 725.8 318.5 727.348 318.5 729.1Z" stroke="white" stroke-opacity="0.1"/>
<path d="M321.7 705.5C320.011 705.5 318.7 706.937 318.7 708.5V722.3C318.7 724.076 320.124 725.4 321.7 725.4C323.489 725.4 324.8 723.963 324.8 722.3V708.5C324.8 706.799 323.351 705.5 321.7 705.5Z" stroke="white" stroke-opacity="0.1"/>
<path d="M198.54 439.932L197.711 439.602L197.973 440.456C198.302 441.523 198.468 442.764 198.468 443.926C198.468 448.852 195.758 453.316 191.312 456.564C186.866 459.812 180.706 461.822 173.893 461.822C173.814 461.822 173.744 461.809 173.676 461.792C173.659 461.788 173.642 461.783 173.623 461.778L173.618 461.777C173.602 461.773 173.582 461.767 173.564 461.763L173.564 461.763C173.532 461.755 173.459 461.737 173.38 461.737H172.309L173.084 462.475C176.772 465.986 182.534 468.244 189.049 468.244C190.991 468.244 192.844 467.999 194.605 467.67L205.161 474.933L205.782 474.381L201.019 465.347C206.119 462.705 209.428 458.308 209.428 453.26C209.428 447.453 204.883 442.452 198.54 439.932Z" stroke="white" stroke-opacity="0.1" stroke-width="0.856259"/>
<path d="M152.572 443.498C152.572 448.889 156.136 453.543 161.416 456.354L156.472 465.994L157.098 466.54L168.246 458.77C170.107 459.18 172.127 459.425 174.15 459.425C180.054 459.425 185.411 457.667 189.302 454.803C193.193 451.939 195.642 447.948 195.642 443.498C195.642 439.049 193.193 435.057 189.302 432.193C185.411 429.33 180.054 427.572 174.15 427.572C168.202 427.572 162.823 429.351 158.922 432.226C155.021 435.099 152.572 439.091 152.572 443.498Z" stroke="white" stroke-opacity="0.1" stroke-width="0.856259"/>
<path d="M25.1825 523H25.1103H24.8213V523.289H24.8205H24.8196H24.8188H24.8179H24.8171H24.8163H24.8154H24.8146H24.8138H24.8129H24.8121H24.8113H24.8104H24.8096H24.8088H24.808H24.8072H24.8063H24.8055H24.8047H24.8039H24.8031H24.8023H24.8015H24.8007H24.7998H24.799H24.7982H24.7974H24.7966H24.7958H24.795H24.7943H24.7935H24.7927H24.7919H24.7911H24.7903H24.7895H24.7887H24.788H24.7872H24.7864H24.7856H24.7848H24.7841H24.7833H24.7825H24.7817H24.781H24.7802H24.7794H24.7787H24.7779H24.7772H24.7764H24.7756H24.7749H24.7741H24.7734H24.7726H24.7719H24.7711H24.7704H24.7696H24.7689H24.7681H24.7674H24.7667H24.7659H24.7652H24.7644H24.7637H24.763H24.7622H24.7615H24.7608H24.76H24.7593H24.7586H24.7579H24.7571H24.7564H24.7557H24.755H24.7543H24.7536H24.7528H24.7521H24.7514H24.7507H24.75H24.7493H24.7486H24.7479H24.7472H24.7465H24.7458H24.7451H24.7444H24.7437H24.743H24.7423H24.7416H24.7409H24.7402H24.7395H24.7388H24.7382H24.7375H24.7368H24.7361H24.7354H24.7347H24.7341H24.7334H24.7327H24.732H24.7314H24.7307H24.73H24.7293H24.7287H24.728H24.7273H24.7267H24.726H24.7254H24.7247H24.724H24.7234H24.7227H24.7221H24.7214H24.7208H24.7201H24.7195H24.7188H24.7182H24.7175H24.7169H24.7162H24.7156H24.7149H24.7143H24.7136H24.713H24.7124H24.7117H24.7111H24.7105H24.7098H24.7092H24.7086H24.7079H24.7073H24.7067H24.7061H24.7054H24.7048H24.7042H24.7036H24.7029H24.7023H24.7017H24.7011H24.7005H24.6999H24.6992H24.6986H24.698H24.6974H24.6968H24.6962H24.6956H24.695H24.6944H24.6938H24.6932H24.6926H24.692H24.6914H24.6908H24.6902H24.6896H24.689H24.6884H24.6878H24.6872H24.6866H24.686H24.6854H24.6848H24.6842H24.6837H24.6831H24.6825H24.6819H24.6813H24.6807H24.6802H24.6796H24.679H24.6784H24.6779H24.6773H24.6767H24.6761H24.6756H24.675H24.6744H24.6739H24.6733H24.6727H24.6721H24.6716H24.671H24.6705H24.6699H24.6693H24.6688H24.6682H24.6677H24.6671H24.6665H24.666H24.6654H24.6649H24.6643H24.6638H24.6632H24.6627H24.6621H24.6616H24.661H24.6605H24.6599H24.6594H24.6588H24.6583H24.6578H24.6572H24.6567H24.6561H24.6556H24.6551H24.6545H24.654H24.6534H24.6529H24.6524H24.6518H24.6513H24.6508H24.6503H24.6497H24.6492H24.6487H24.6481H24.6476H24.6471H24.6466H24.646H24.6455H24.645H24.6445H24.644H24.6434H24.6429H24.6424H24.6419H24.6414H24.6408H24.6403H24.6398H24.6393H24.6388H24.6383H24.6378H24.6373H24.6367H24.6362H24.6357H24.6352H24.6347H24.6342H24.6337H24.6332H24.6327H24.6322H24.6317H24.6312H24.6307H24.6302H24.6297H24.6292H24.6287H24.6282H24.6277H24.6272H24.6267H24.6262H24.6257H24.6252H24.6247H24.6242H24.6237H24.6232H24.6228H24.6223H24.6218H24.6213H24.6208H24.6203H24.6198H24.6193H24.6189H24.6184H24.6179H24.6174H24.6169H24.6164H24.616H24.6155H24.615H24.6145H24.614H24.6136H24.6131H24.6126H24.6121H24.6117H24.6112H24.6107H24.6102H24.6098H24.6093H24.6088H24.6083H24.6079H24.6074H24.6069H24.6065H24.606H24.6055H24.6051H24.6046H24.6041H24.6037H24.6032H24.6027H24.6023H24.6018H24.6013H24.6009H24.6004H24.5999H24.5995H24.599H24.5986H24.5981H24.5976H24.5972H24.5967H24.5963H24.5958H24.5953H24.5949H24.5944H24.594H24.5935H24.5931H24.5926H24.5922H24.5917H24.5912H24.5908H24.5903H24.5899H24.5894H24.589H24.5885H24.5881H24.5876H24.5872H24.5867H24.5863H24.5858H24.5854H24.5849H24.5845H24.584H24.5836H24.5832H24.5827H24.5823H24.5818H24.5814H24.5809H24.5805H24.58H24.5796H24.5792H24.5787H24.5783H24.5778H24.5774H24.5769H24.5765H24.5761H24.5756H24.5752H24.5747H24.5743H24.5739H24.5734H24.573H24.5726H24.5721H24.5717H24.5712H24.5708H24.5704H24.5699H24.5695H24.5691H24.5686H24.5682H24.5678H24.5673H24.5669H24.5665H24.566H24.5656H24.5652H24.5647H24.5643H24.5639H24.5634H24.563H24.5626H24.5621H24.5617H24.5613H24.5608H24.5604H24.56H24.5596H24.5591H24.5587H24.5583H24.5578H24.5574H24.557H24.5565H24.5561H24.5557H24.5553H24.5548H24.5544H24.554H24.5536H24.5531H24.5527H24.5523H24.5518H24.5514H24.551H24.5506H24.5501H24.5497H24.5493H24.5489H24.5484H24.548H24.5476H24.5472H24.5467H24.5463H24.5459H24.5455H24.545H24.5446H24.5442H24.5438H24.5433H24.5429H24.5425H24.5421H24.5416H24.5412H24.5408H24.5404H24.5399H24.5395H24.5391H24.5387H24.5382H24.5378H24.5374H24.537H24.5366H24.5361H24.5357H24.5353H24.5349H24.5344H24.534H24.5336H24.5332H24.5327H24.5323H24.4601M25.1825 523L24.3156 522.783C24.3878 522.783 24.4601 522.783 24.5323 522.856M25.1825 523H25.3992H25.4715H25.6882C25.8327 523 25.905 522.928 25.905 522.928H26.0494M25.1825 523L24.1711 523.144M24.4601 523.289V523V522.928M24.4601 523.289H24.1711V523.144M24.4601 523.289V523.361H24.8213H24.8222H24.823H24.8238H24.8247H24.8255H24.8263H24.8272H24.828H24.8288H24.8296H24.8304H24.8312H24.832H24.8328H24.8336H24.8344H24.8352H24.836H24.8368H24.8376H24.8384H24.8392H24.8399H24.8407H24.8415H24.8422H24.843H24.8438H24.8445H24.8453H24.846H24.8468H24.8475H24.8483H24.849H24.8497H24.8505H24.8512H24.8519H24.8527H24.8534H24.8541H24.8548H24.8555H24.8563H24.857H24.8577H24.8584H24.8591H24.8598H24.8605H24.8612H24.8619H24.8625H24.8632H24.8639H24.8646H24.8653H24.8659H24.8666H24.8673H24.868H24.8686H24.8693H24.8699H24.8706H24.8713H24.8719H24.8726H24.8732H24.8739H24.8745H24.8751H24.8758H24.8764H24.877H24.8777H24.8783H24.8789H24.8796H24.8802H24.8808H24.8814H24.882H24.8826H24.8833H24.8839H24.8845H24.8851H24.8857H24.8863H24.8869H24.8875H24.8881H24.8887H24.8892H24.8898H24.8904H24.891H24.8916H24.8922H24.8927H24.8933H24.8939H24.8945H24.895H24.8956H24.8962H24.8967H24.8973H24.8979H24.8984H24.899H24.8995H24.9001H24.9006H24.9012H24.9017H24.9023H24.9028H24.9034H24.9039H24.9044H24.905H24.9055H24.906H24.9066H24.9071H24.9076H24.9082H24.9087H24.9092H24.9097H24.9102H24.9108H24.9113H24.9118H24.9123H24.9128H24.9133H24.9138H24.9143H24.9149H24.9154H24.9159H24.9164H24.9169H24.9174H24.9179H24.9184H24.9189H24.9193H24.9198H24.9203H24.9208H24.9213H24.9218H24.9223H24.9228H24.9233H24.9237H24.9242H24.9247H24.9252H24.9257H24.9261H24.9266H24.9271H24.9275H24.928H24.9285H24.929H24.9294H24.9299H24.9304H24.9308H24.9313H24.9318H24.9322H24.9327H24.9331H24.9336H24.9341H24.9345H24.935H24.9354H24.9359H24.9363H24.9368H24.9372H24.9377H24.9381H24.9386H24.939H24.9395H24.9399H24.9404H24.9408H24.9413H24.9417H24.9422H24.9426H24.943H24.9435H24.9439H24.9444H24.9448H24.9452H24.9457H24.9461H24.9465H24.947H24.9474H24.9479H24.9483H24.9487H24.9492H24.9496H24.95H24.9505H24.9509H24.9513H24.9517H24.9522H24.9526H24.953H24.9535H24.9539H24.9543H24.9548H24.9552H24.9556H24.956H24.9565H24.9569H24.9573H24.9577H24.9582H24.9586H24.959H24.9594H24.9599H24.9603H24.9607H24.9611H24.9616H24.962H24.9624H24.9628H24.9633H24.9637H24.9641H24.9645H24.9649H24.9654H24.9658H24.9662H24.9666H24.9671H24.9675H24.9679H24.9683H24.9688H24.9692H24.9696H24.97H24.9705H24.9709H24.9713H24.9717H24.9721H24.9726H24.973H24.9734H24.9739H24.9743H24.9747H24.9751H24.9756H24.976H24.9764H24.9768H24.9773H24.9777H24.9781H24.9785H24.979H24.9794H24.9798H24.9803H24.9807H24.9811H24.9816H24.982H24.9824H24.9829H24.9833H24.9837H24.9842H24.9846H24.985H24.9855H24.9859H24.9863H24.9868H24.9872H24.9877H24.9881H24.9885H24.989H24.9894H24.9899H24.9903H24.9908H24.9912H24.9917H24.9921H24.9925H24.993H24.9934H24.9939H24.9943H24.9948H24.9953H24.9957H24.9962H24.9966H24.9971H24.9975H24.998H24.9984H24.9989H24.9994H24.9998H25.0003H25.0008H25.0012H25.0017H25.0022H25.0026H25.0031H25.0036H25.004H25.0045H25.005H25.0055H25.0059H25.0064H25.0069H25.0074H25.0079H25.0083H25.0088H25.0093H25.0098H25.0103H25.0108H25.0113H25.0117H25.0122H25.0127H25.0132H25.0137H25.0142H25.0147H25.0152H25.0157H25.0162H25.0167H25.0172H25.0177H25.0183H25.0188H25.0193H25.0198H25.0203H25.0208H25.0213H25.0219H25.0224H25.0229H25.0234H25.024H25.0245H25.025H25.0256H25.0261H25.0266H25.0272H25.0277H25.0282H25.0288H25.0293H25.0299H25.0304H25.031H25.0315H25.0321H25.0326H25.0332H25.0337H25.0343H25.0349H25.0354H25.036H25.0366H25.0371H25.0377H25.0383H25.0388H25.0394H25.04H25.0406H25.0412H25.0417H25.0423H25.0429H25.0435H25.0441H25.0447H25.0453H25.0459H25.0465H25.0471H25.0477H25.0483H25.0489H25.0496H25.0502H25.0508H25.0514H25.052H25.0527H25.0533H25.0539H25.0545H25.0552H25.0558H25.0564H25.0571H25.0577H25.0584H25.059H25.0597H25.0603H25.061H25.0616H25.0623H25.063H25.0636H25.0643H25.065H25.0656H25.0663H25.067H25.0677H25.0684H25.069H25.0697H25.0704H25.0711H25.0718H25.0725H25.0732H25.0739H25.0746H25.0753H25.076H25.0768H25.0775H25.0782H25.0789H25.0796H25.0804H25.0811H25.0818H25.0826H25.0833H25.0841H25.0848H25.0856H25.0863H25.0871H25.0878H25.0886H25.0893H25.0901H25.0909H25.0917H25.0924H25.0932H25.094H25.0948H25.0956H25.0964H25.0971H25.0979H25.0987H25.0995H25.1004H25.1012H25.102H25.1028H25.1036H25.1044H25.1053H25.1061H25.1069H25.1078H25.1086H25.1094H25.1103H25.1107H25.1111H25.1116H25.112H25.1124H25.1128H25.1133H25.1137H25.1142H25.1146H25.115H25.1155H25.1159H25.1164H25.1168H25.1173H25.1177H25.1182H25.1186H25.1191H25.1195H25.12H25.1204H25.1209H25.1214H25.1218H25.1223H25.1228H25.1232H25.1237H25.1242H25.1246H25.1251H25.1256H25.1261H25.1265H25.127H25.1275H25.128H25.1285H25.1289H25.1294H25.1299H25.1304H25.1309H25.1314H25.1319H25.1324H25.1329H25.1334H25.1339H25.1344H25.1349H25.1354H25.1359H25.1364H25.1369H25.1374H25.1379H25.1384H25.1389H25.1394H25.14H25.1405H25.141H25.1415H25.142H25.1425H25.1431H25.1436H25.1441H25.1446H25.1452H25.1457H25.1462H25.1468H25.1473H25.1478H25.1483H25.1489H25.1494H25.15H25.1505H25.151H25.1516H25.1521H25.1527H25.1532H25.1537H25.1543H25.1548H25.1554H25.1559H25.1565H25.157H25.1576H25.1581H25.1587H25.1592H25.1598H25.1604H25.1609H25.1615H25.162H25.1626H25.1632H25.1637H25.1643H25.1648H25.1654H25.166H25.1665H25.1671H25.1677H25.1683H25.1688H25.1694H25.17H25.1705H25.1711H25.1717H25.1723H25.1728H25.1734H25.174H25.1746H25.1752H25.1757H25.1763H25.1769H25.1775H25.1781H25.1787H25.1793H25.1798H25.1804H25.181H25.1816H25.1822H25.1828H25.1834H25.184H25.1846H25.1852H25.1858H25.1864H25.1869H25.1875H25.1881H25.1887H25.1893H25.1899H25.1905H25.1911H25.1917H25.1923H25.1929H25.1936H25.1942H25.1948H25.1954H25.196H25.1966H25.1972H25.1978H25.1984H25.199H25.1996H25.2002H25.2008H25.2015H25.2021H25.2027H25.2033H25.2039H25.2045H25.2051H25.2057H25.2064H25.207H25.2076H25.2082H25.2088H25.2094H25.2101H25.2107H25.2113H25.2119H25.2125H25.2132H25.2138H25.2144H25.215H25.2157H25.2163H25.2169H25.2175H25.2181H25.2188H25.2194H25.22H25.2206H25.2213H25.2219H25.2225H25.2232H25.2238H25.2244H25.225H25.2257H25.2263H25.2269H25.2275H25.2282H25.2288H25.2294H25.2301H25.2307H25.2313H25.232H25.2326H25.2332H25.2338H25.2345H25.2351H25.2357H25.2364H25.237H25.2376H25.2383H25.2389H25.2395H25.2402H25.2408H25.2414H25.2421H25.2427H25.2433H25.244H25.2446H25.2452H25.2459H25.2465H25.2471H25.2478H25.2484H25.249H25.2497H25.2503H25.251H25.2516H25.2522H25.2529H25.2535H25.2541H25.2548H25.2554H25.256H25.2567H25.2573H25.2579H25.2586H25.2592H25.2598H25.2605H25.2611H25.2617H25.2624H25.263H25.2636H25.2643H25.2649H25.2656H25.2662H25.2668H25.2675H25.2681H25.2687H25.2694H25.27H25.2706H25.2713H25.2719H25.2725H25.2731H25.2738H25.2744H25.275H25.2757H25.2763H25.2769H25.2776H25.2782H25.2788H25.2795H25.2801H25.2807H25.2813H25.282H25.2826H25.2832H25.2839H25.2845H25.2851H25.2857H25.2864H25.287H25.2876H25.2883H25.2889H25.2895H25.2901H25.2908H25.2914H25.292H25.2926H25.2932H25.2939H25.2945H25.2951H25.2957H25.2964H25.297H25.2976H25.2982H25.2988H25.2995H25.3001H25.3007H25.3013H25.3019H25.3025H25.3032H25.3038H25.3044H25.305H25.3056H25.3062H25.3068H25.3075H25.3081H25.3087H25.3093H25.3099H25.3105H25.3111H25.3117H25.3123H25.3129H25.3136H25.3142H25.3148H25.3154H25.316H25.3166H25.3172H25.3178H25.3184H25.319H25.3196H25.3202H25.3208H25.3214H25.322H25.3226H25.3232H25.3238H25.3244H25.325H25.3256H25.3261H25.3267H25.3273H25.3279H25.3285H25.3291H25.3297H25.3303H25.3309H25.3314H25.332H25.3326H25.3332H25.3338H25.3344H25.3349H25.3355H25.3361H25.3367H25.3373H25.3378H25.3384H25.339H25.3396H25.3401H25.3407H25.3413H25.3418H25.3424H25.343H25.3435H25.3441H25.3447H25.3452H25.3458H25.3464H25.3469H25.3475H25.3481H25.3486H25.3492H25.3497H25.3503H25.3508H25.3514H25.3519H25.3525H25.353H25.3536H25.3541H25.3547H25.3552H25.3558H25.3563H25.3569H25.3574H25.358H25.3585H25.359H25.3596H25.3601H25.3606H25.3612H25.3617H25.3622H25.3628H25.3633H25.3638H25.3644H25.3649H25.3654H25.3659H25.3665H25.367H25.3675H25.368H25.3685H25.3691H25.3696H25.3701H25.3706H25.3711H25.3716H25.3721H25.3726H25.3731H25.3736H25.3741H25.3746H25.3752H25.3757H25.3761H25.3766H25.3771H25.3776H25.3781H25.3786H25.3791H25.3796H25.3801H25.3806H25.3811H25.3815H25.382H25.3825H25.383H25.3835H25.3839H25.3844H25.3849H25.3854H25.3858H25.3863H25.3868H25.3872H25.3877H25.3882H25.3886H25.3891H25.3895H25.39H25.3905H25.3909H25.3914H25.3918H25.3923H25.3927H25.3932H25.3936H25.394H25.3945H25.3949H25.3954H25.3958H25.3962H25.3967H25.3971H25.3975H25.398H25.3984H25.3988H25.3992L24.1711 523.144M24.4601 522.928H24.5323V522.856M24.4601 522.928L24.3156 523.072L24.2769 523.111C24.2805 523.115 24.2885 523.122 24.301 523.129C24.306 523.131 24.3109 523.134 24.3156 523.136C24.323 523.139 24.3301 523.141 24.3363 523.143C24.3457 523.145 24.3506 523.145 24.3472 523.145C24.3423 523.145 24.3355 523.144 24.3156 523.144H24.1711M24.4601 522.928L24.5323 522.856M24.5323 522.856L24.1711 523.144M24.1711 523.144H24.166L24.0602 523.039L24.0214 523M24.0214 523H24.0989C24.1098 523 24.1101 523 24.1089 523C24.1076 523 24.1044 523 24.0995 522.999C24.0993 522.999 24.0991 522.999 24.0989 522.999C24.0936 522.999 24.0865 522.998 24.0783 522.996C24.0606 522.993 24.0413 522.988 24.0216 522.98C24.0027 522.972 23.9886 522.963 23.9798 522.957C23.9716 522.952 23.9676 522.948 23.969 522.95C23.9704 522.951 23.9745 522.954 23.9825 522.962C23.9904 522.969 24.0004 522.979 24.0136 522.992L24.0214 523ZM24.0214 523H23.9493L23.8435 522.894L23.7712 522.822L24.0266 522.567L23.7712 522.822C23.7546 522.805 23.7458 522.797 23.7418 522.793C23.7389 522.791 23.734 522.789 23.7263 522.785C23.709 522.775 23.6858 522.764 23.6483 522.745L23.4487 522.645V522.553C23.3943 522.497 23.3431 522.418 23.3189 522.323C23.308 522.304 23.2972 522.286 23.2848 522.266C23.2762 522.252 23.2669 522.237 23.2563 522.22L23.2536 522.215C23.2309 522.177 23.1753 522.085 23.1624 521.966C23.1469 521.94 23.1358 521.918 23.1281 521.902L23.1256 521.897C23.1204 521.887 23.117 521.88 23.1151 521.877L23.0152 521.777V521.627V521.627V521.627V521.626V521.626V521.625V521.625V521.624V521.624V521.623V521.623V521.623V521.622V521.622V521.621V521.621V521.62V521.62V521.619V521.619V521.619V521.618V521.618V521.617V521.617V521.616V521.616V521.615V521.615V521.614V521.614V521.613V521.613V521.613V521.612V521.612V521.611V521.611V521.61V521.61V521.609V521.609V521.608V521.608V521.607V521.607V521.606V521.606V521.605V521.605V521.604V521.604V521.603V521.603V521.602V521.602V521.601V521.601V521.6V521.6V521.599V521.599V521.598V521.598V521.597V521.597V521.596V521.596V521.595V521.595V521.594V521.594V521.593V521.593V521.592V521.592V521.591V521.591V521.59V521.59V521.589V521.589V521.588V521.587V521.587V521.586V521.586V521.585V521.585V521.584V521.584V521.583V521.583V521.582V521.582V521.581V521.581V521.58V521.579V521.579V521.578V521.578V521.577V521.577V521.576V521.576V521.575V521.575V521.574V521.573V521.573V521.572V521.572V521.571V521.571V521.57V521.57V521.569V521.569V521.568V521.567V521.567V521.566V521.566V521.565V521.565V521.564V521.564V521.563V521.562V521.562V521.561V521.561V521.56V521.56V521.559V521.559V521.558V521.557V521.557V521.556V521.556V521.555V521.555V521.554V521.554V521.553V521.552V521.552V521.551V521.551V521.55V521.55V521.549V521.548V521.548V521.547V521.547V521.546V521.546V521.545V521.545V521.544V521.543V521.543V521.542V521.542V521.541V521.541V521.54V521.539V521.539V521.538V521.538V521.537V521.537V521.536V521.535V521.535V521.534V521.534V521.533V521.533V521.532V521.532V521.531V521.53V521.53V521.529V521.529V521.528V521.528V521.527V521.526V521.526V521.525V521.525V521.524V521.524V521.523V521.523V521.522V521.521V521.521V521.52V521.52V521.519V521.519V521.518V521.518V521.517V521.516V521.516V521.515V521.515V521.514V521.514V521.513V521.513V521.512V521.511V521.511V521.51V521.51V521.509V521.509V521.508V521.508V521.507V521.506V521.506V521.505V521.505V521.504V521.504V521.503V521.503V521.502V521.502V521.501V521.5V521.5V521.499V521.499V521.498V521.498V521.497V521.497V521.496V521.496V521.495V521.495V521.494V521.493V521.493V521.492V521.492V521.491V521.491V521.49V521.49V521.489V521.489V521.488V521.488V521.487V521.487V521.486V521.486V521.485V521.485V521.484V521.484V521.483V521.483V521.482V521.482V521.481V521.48V521.48V521.479V521.479V521.478V521.478V521.477V521.477V521.476V521.476V521.475V521.475V521.474V521.474V521.473V521.473V521.472V521.472V521.472V521.471V521.471V521.47V521.47V521.469V521.469V521.468V521.468V521.467V521.467V521.466V521.466V521.465V521.465V521.464V521.464V521.463V521.463V521.462V521.462V521.462V521.461V521.461V521.46V521.46V521.459V521.459V521.458V521.458V521.457V521.457V521.457V521.456V521.456V521.455V521.455V521.454V521.454V521.453V521.453V521.453V521.452V521.452V521.451V521.451V521.45V521.45V521.45V521.449V521.449V521.448V521.448V521.448V521.447V521.447V521.446V521.446V521.446V521.445V521.445V521.444V521.444V521.444V521.443V521.443V521.442V521.442V521.442V521.441V521.441V521.44V521.44V521.44V521.439V521.439V521.439V521.438V521.438V521.438V521.437V521.437V521.436V521.436V521.436V521.435V521.435V521.435V521.434V521.434V521.434V521.433V521.433V521.433V521.432V521.432V521.432V521.431V521.431V521.431V521.43V521.43V521.43V521.429V521.429V521.429V521.428V521.428V521.428V521.428V521.427V521.427V521.427V521.426V521.426V521.426V521.426V521.425V521.425V521.425V521.424V521.424V521.424V521.424V521.423V521.423V521.423V521.423V521.422V521.422V521.422V521.422V521.421V521.421V521.421V521.421V521.42V521.42V521.42V521.42V521.419V521.419V521.419V521.419V521.419V521.418V521.418V521.418V521.418V521.418V521.417V521.417V521.417V521.417V521.417V521.416V521.416V521.416V521.416V521.416V521.416V521.415V521.415V521.415V521.415V521.415V521.415V521.414V521.414V521.414V521.414V521.414V521.414V521.414V521.413V521.413V521.413V521.413V521.413V521.413V521.413V521.413V521.412V521.412V521.412V521.412V521.412V521.412V521.412V521.412V521.412V521.412V521.412V521.411V521.411V521.411V521.411V521.411V521.411V521.411V521.411V521.411V521.411V521.411V521.411V521.411V521.411V521.411V521.411V521.411V521.411V521.371C22.98 521.298 22.9647 521.228 22.9569 521.181C22.9429 521.097 22.943 521.018 22.943 520.981L22.943 520.977V517.365H19.1863C16.2716 517.365 13.6543 516.242 11.6392 514.302L11.6267 514.29L11.6155 514.277C11.1844 513.774 10.8209 513.338 10.3872 512.761C10.131 512.496 9.96988 512.163 9.82752 511.809C9.0819 510.385 8.63878 508.6 8.63878 506.817V495.259C8.63878 490.404 11.9222 486.14 16.5634 485.012C17.3186 484.787 18.2884 484.639 19.1863 484.639H45.9164V485C51.4791 485 56.1749 489.624 56.3194 495.259M56.3194 495.259V506.817C56.3194 512.452 51.6236 517.004 46.0608 517.004H32.1901L26.8441 522.422M56.3194 495.259L56.6805 495.249L56.6807 495.259H56.3194ZM26.8441 522.422C26.6997 522.494 26.6274 522.567 26.5552 522.639L26.5551 522.639M26.8441 522.422L27.1012 522.676L27.0592 522.718L27.0057 522.745L26.8441 522.422ZM26.5551 522.639H26.4829C26.4107 522.711 26.3384 522.783 26.2662 522.783H26.1939C26.1939 522.855 26.0494 522.928 26.0494 522.928M26.5551 522.639L26.8106 522.894L26.7048 523H26.5551V522.639ZM26.0494 522.928L26.211 523.251L26.1347 523.289H26.0494V522.928Z" stroke="white" stroke-opacity="0.1" stroke-width="0.722433"/>
<path d="M13.5512 500.46C13.5512 503.184 15.732 505.372 18.3915 505.372C21.1917 505.372 23.304 503.26 23.304 500.46C23.304 497.8 21.1157 495.62 18.3915 495.62C15.7357 495.62 13.5512 497.804 13.5512 500.46Z" stroke="white" stroke-opacity="0.1" stroke-width="0.722433"/>
<path d="M27.3501 500.46C27.3501 503.184 29.5309 505.372 32.1904 505.372C34.8386 505.372 37.1029 503.268 37.1029 500.46C37.1029 497.797 34.8386 495.62 32.1904 495.62C29.5346 495.62 27.3501 497.804 27.3501 500.46Z" stroke="white" stroke-opacity="0.1" stroke-width="0.722433"/>
<path d="M40.7871 500.46C40.7871 503.184 42.9679 505.372 45.6274 505.372C48.2757 505.372 50.5399 503.268 50.5399 500.46C50.5399 497.797 48.2757 495.62 45.6274 495.62C42.9716 495.62 40.7871 497.804 40.7871 500.46Z" stroke="white" stroke-opacity="0.1" stroke-width="0.722433"/>
</svg>
