<svg width="138" height="68" viewBox="0 0 138 68" fill="none" xmlns="http://www.w3.org/2000/svg">
<g clip-path="url(#clip0_400_4349)">
<path d="M69.5701 20.8457C69.5701 18.2479 67.4792 16.157 64.8814 16.157H20.0853C17.4875 16.157 15.3965 18.2479 15.3965 20.8457C15.3965 23.4435 17.4875 25.5344 20.0853 25.5344H64.9448C67.4792 25.5344 69.5701 23.4435 69.5701 20.8457Z" fill="white"/>
<path d="M20.0853 9.37741H28.4489C31.0467 9.37741 33.1376 7.2865 33.1376 4.68871C33.1376 2.09091 30.9833 0 28.3855 0H20.0853C17.4875 0 15.3965 2.09091 15.3965 4.68871C15.3965 7.2865 17.4875 9.37741 20.0853 9.37741Z" fill="white"/>
<path d="M4.68871 16.157C3.42149 16.157 2.21763 16.6639 1.39394 17.551C0.506887 18.438 0 19.6419 0 20.8457C0 22.1129 0.506887 23.3168 1.39394 24.1405C2.28099 25.0275 3.48485 25.5344 4.68871 25.5344C5.95592 25.5344 7.15978 25.0275 7.98347 24.1405C8.87052 23.2534 9.37741 22.0496 9.37741 20.8457C9.37741 19.5785 8.87052 18.3747 7.98347 17.551C7.15978 16.6639 5.95592 16.157 4.68871 16.157Z" fill="white"/>
<path d="M47.204 37.1294C47.204 34.5316 45.1131 32.4407 42.5153 32.4407H30.4767C27.8789 32.4407 25.788 34.5316 25.788 37.1294C25.788 39.7272 27.8789 41.8181 30.4767 41.8181H42.4519C45.1131 41.8181 47.204 39.7272 47.204 37.1294Z" fill="white"/>
<path d="M128.369 9.63085C122.477 3.67493 114.24 0 105.179 0H42.5152C39.9174 0 37.8265 2.09091 37.8265 4.6887C37.8265 7.2865 39.9174 9.37741 42.5152 9.37741H105.179C111.642 9.37741 117.471 11.9752 121.78 16.2204C126.025 20.4656 128.623 26.2948 128.623 32.8209C128.623 39.2837 126.025 45.1129 121.78 49.4215C117.535 53.6667 111.705 56.2645 105.179 56.2645H83.6365C78.5042 56.2645 73.8155 54.6171 69.9505 51.8926C68.6833 51.0055 67.0993 50.7521 65.642 51.2589C63.8679 51.8926 61.967 52.5895 60.1929 53.2865L62.4739 49.6749C63.7411 48.281 64.1213 46.2534 63.2343 44.416L63.1709 44.3526C63.1709 44.2893 63.1075 44.2893 63.1075 44.2259C61.777 41.8182 60.8265 39.2204 60.383 36.3691C60.0028 33.8347 57.5951 32.0606 55.0607 32.4408C52.5263 32.8209 50.7522 35.2286 51.1323 37.7631C51.5758 40.6777 52.3995 43.4656 53.6034 46.0634L45.6199 58.7355C45.0497 59.5592 44.7329 60.6364 44.7329 61.7135C44.7329 63.2975 45.4298 64.7548 46.4436 65.7052C47.4574 66.6556 48.8513 67.2259 50.3086 67.2259C51.0056 67.2259 51.7026 67.0992 52.3362 66.8457C52.653 66.719 52.9698 66.5289 53.2866 66.4022C54.0469 66.0854 56.1378 65.135 58.799 64.0578C61.1433 63.1074 63.9312 61.9669 66.5924 60.9532C71.5345 63.9311 77.3637 65.7052 83.5731 65.7052H105.116C114.176 65.7052 122.413 62.0303 128.306 56.0744C134.262 50.1185 137.937 41.8815 137.937 32.8843C138 23.7603 134.325 15.5234 128.369 9.63085Z" fill="#FCD7FB"/>
<path d="M76.4135 38.7769C79.2829 38.7769 81.6091 36.4507 81.6091 33.5813C81.6091 30.7119 79.2829 28.3857 76.4135 28.3857C73.544 28.3857 71.2179 30.7119 71.2179 33.5813C71.2179 36.4507 73.544 38.7769 76.4135 38.7769Z" fill="#E0ECFF"/>
<path d="M94.0277 38.7769C96.8971 38.7769 99.2233 36.4507 99.2233 33.5813C99.2233 30.7119 96.8971 28.3857 94.0277 28.3857C91.1582 28.3857 88.8321 30.7119 88.8321 33.5813C88.8321 36.4507 91.1582 38.7769 94.0277 38.7769Z" fill="#E0ECFF"/>
<path d="M111.642 38.7769C114.511 38.7769 116.837 36.4507 116.837 33.5813C116.837 30.7119 114.511 28.3857 111.642 28.3857C108.772 28.3857 106.446 30.7119 106.446 33.5813C106.446 36.4507 108.772 38.7769 111.642 38.7769Z" fill="#E0ECFF"/>
</g>
<defs>
<clipPath id="clip0_400_4349">
<rect width="138" height="67.2259" fill="white"/>
</clipPath>
</defs>
</svg>
