<svg width="81" height="39" viewBox="0 0 81 39" fill="none" xmlns="http://www.w3.org/2000/svg">
<path d="M40.8305 12.0988C40.8305 10.5929 39.6184 9.38074 38.1124 9.38074H12.1436C10.6377 9.38074 9.42554 10.5929 9.42554 12.0988C9.42554 13.6048 10.6377 14.8169 12.1436 14.8169H38.1491C39.6184 14.8169 40.8305 13.6048 40.8305 12.0988Z" fill="#ACCCFF"/>
<path d="M12.1436 5.45055H16.9921C18.4981 5.45055 19.7102 4.23843 19.7102 2.73246C19.7102 1.2265 18.4613 0.0143738 16.9554 0.0143738H12.1436C10.6377 0.0143738 9.42554 1.2265 9.42554 2.73246C9.42554 4.23843 10.6377 5.45055 12.1436 5.45055Z" fill="#ACCCFF"/>
<path d="M3.21821 9.38074C2.48359 9.38074 1.78571 9.67459 1.3082 10.1888C0.79397 10.7031 0.500122 11.4009 0.500122 12.0988C0.500122 12.8334 0.79397 13.5313 1.3082 14.0088C1.82244 14.5231 2.52032 14.8169 3.21821 14.8169C3.95283 14.8169 4.65072 14.5231 5.12822 14.0088C5.64245 13.4946 5.9363 12.7967 5.9363 12.0988C5.9363 11.3642 5.64245 10.6663 5.12822 10.1888C4.65072 9.67459 3.95283 9.38074 3.21821 9.38074Z" fill="#ACCCFF"/>
<path d="M27.8648 21.5386C27.8648 20.0327 26.6526 18.8206 25.1467 18.8206H18.1678C16.6618 18.8206 15.4497 20.0327 15.4497 21.5386C15.4497 23.0446 16.6618 24.2567 18.1678 24.2567H25.1099C26.6526 24.2567 27.8648 23.0446 27.8648 21.5386Z" fill="#ACCCFF"/>
<path d="M74.9169 5.59748C71.5009 2.14477 66.7259 0.0143738 61.4733 0.0143738H25.1464C23.6405 0.0143738 22.4283 1.2265 22.4283 2.73246C22.4283 4.23843 23.6405 5.45055 25.1464 5.45055H61.4733C65.2199 5.45055 68.5991 6.95652 71.0968 9.4175C73.5578 11.8785 75.0638 15.2577 75.0638 19.041C75.0638 22.7876 73.5578 26.1668 71.0968 28.6645C68.6359 31.1255 65.2566 32.6315 61.4733 32.6315H48.9848C46.0096 32.6315 43.2915 31.6764 41.0509 30.097C40.3163 29.5828 39.398 29.4359 38.5532 29.7297C37.5248 30.097 36.4228 30.5011 35.3944 30.9051L36.7167 28.8114C37.4513 28.0034 37.6717 26.828 37.1575 25.7628L37.1207 25.726C37.1207 25.6893 37.084 25.6893 37.084 25.6526C36.3126 24.2568 35.7617 22.7508 35.5046 21.0979C35.2842 19.6287 33.8884 18.6002 32.4192 18.8206C30.9499 19.041 29.9215 20.4368 30.1418 21.906C30.399 23.5956 30.8765 25.2118 31.5743 26.7178L26.9463 34.064C26.6157 34.5415 26.432 35.1659 26.432 35.7903C26.432 36.7086 26.8361 37.5534 27.4238 38.1044C28.0114 38.6553 28.8195 38.9859 29.6643 38.9859C30.0684 38.9859 30.4724 38.9124 30.8397 38.7655C31.0234 38.6921 31.207 38.5819 31.3907 38.5084C31.8315 38.3247 33.0436 37.7738 34.5863 37.1494C35.9453 36.5984 37.5615 35.9372 39.1042 35.3495C41.9692 37.0759 45.3485 38.1044 48.9481 38.1044H61.4366C66.6891 38.1044 71.4642 35.974 74.8801 32.5213C78.3328 29.0686 80.4632 24.2935 80.4632 19.0777C80.5 13.7885 78.3696 9.01346 74.9169 5.59748Z" fill="#2252A0"/>
<path d="M44.7977 22.4938C46.4612 22.4938 47.8096 21.1453 47.8096 19.4818C47.8096 17.8184 46.4612 16.4699 44.7977 16.4699C43.1343 16.4699 41.7858 17.8184 41.7858 19.4818C41.7858 21.1453 43.1343 22.4938 44.7977 22.4938Z" fill="#ACCCFF"/>
<path d="M55.0089 22.4938C56.6723 22.4938 58.0208 21.1453 58.0208 19.4818C58.0208 17.8184 56.6723 16.4699 55.0089 16.4699C53.3454 16.4699 51.9969 17.8184 51.9969 19.4818C51.9969 21.1453 53.3454 22.4938 55.0089 22.4938Z" fill="#ACCCFF"/>
<path d="M65.2199 22.4938C66.8834 22.4938 68.2319 21.1453 68.2319 19.4818C68.2319 17.8184 66.8834 16.4699 65.2199 16.4699C63.5565 16.4699 62.208 17.8184 62.208 19.4818C62.208 21.1453 63.5565 22.4938 65.2199 22.4938Z" fill="#ACCCFF"/>
</svg>
