<svg width="300" height="375" viewBox="0 0 300 375" fill="none" xmlns="http://www.w3.org/2000/svg">
<g clip-path="url(#clip0_1764_1901)">
<path d="M254.99 272.17C256.341 272.902 257.054 274.103 257.466 275.491C257.748 276.392 257.917 277.33 257.935 278.287C258.967 280.295 258.592 282.377 258.161 284.441C257.71 286.618 256.772 288.644 255.928 290.708C255.309 292.19 255.421 292.322 257.035 292.397C257.992 292.434 258.949 292.491 259.906 292.603C268.218 293.598 271.182 298.251 271.82 305.887C272.064 308.758 271.951 311.666 270.131 314.162C269.118 315.025 267.842 315.457 266.754 316.207C266.003 316.732 265.347 316.601 264.653 315.963C263.377 314.762 262.889 313.355 263.133 311.591C263.508 308.965 263.639 306.338 262.926 303.73C261.632 298.87 257.785 297.726 253.939 300.99C251.199 303.298 250.017 306.357 249.567 309.79C249.173 312.773 248.798 313.092 245.814 313.13C244.257 313.149 242.7 313.017 241.142 313.243C239.379 313.505 237.878 314.312 236.489 315.438C235.045 316.62 234.256 316.32 233.956 314.462C233.637 312.454 233.375 310.428 233.112 308.402C232.812 306.188 232.305 304.049 231.536 301.947C231.179 300.99 230.917 299.808 229.735 299.696C228.459 299.564 227.971 300.765 227.445 301.685C225.832 304.536 224.894 307.632 224.425 310.86C223.974 313.824 223.824 316.826 223.58 319.81C223.543 320.279 223.562 320.767 223.449 321.236C223.205 322.268 222.661 322.53 221.798 321.817C221.197 321.311 220.747 320.654 220.128 320.185C219.096 319.416 218.477 319.622 218.214 320.86C217.914 322.174 218.139 323.487 218.439 324.782C218.927 326.771 219.603 328.685 220.428 330.561C220.71 331.199 221.141 331.855 220.728 332.606C220.072 332.625 219.415 332.681 218.758 332.681C205.568 332.681 192.359 332.681 179.168 332.662C178.624 332.662 178.099 332.625 177.555 332.606C177.367 332.362 177.329 332.099 177.423 331.799C177.799 331.011 178.568 330.58 179.149 329.998C180.444 328.722 181.495 327.315 181.983 325.514C182.977 321.686 181.983 319.19 178.587 317.164C176.11 315.682 176.016 315.382 177.311 312.773C178.474 310.409 179.769 308.101 179.844 305.381C179.956 301.797 178.718 300.596 175.097 300.915C173.183 301.084 171.344 301.666 169.524 302.266C168.849 302.491 168.192 302.81 167.441 302.773C167.047 302.716 166.71 302.548 166.522 302.172C166.222 301.272 166.691 300.54 167.029 299.789C168.173 297.144 169.336 294.498 169.862 291.646C170.218 289.77 170.687 287.744 168.905 286.28C167.179 284.873 165.246 285.398 163.445 286.13C158.698 288.044 155.339 291.609 152.675 295.83C150.329 299.546 150.367 299.639 146.821 297.088C144.55 295.455 142.243 295.624 139.822 296.543C136.295 297.876 135.919 297.613 135.919 293.748C135.919 290.671 135.507 287.65 135 284.629C134.681 282.734 134.024 280.914 133.049 279.244C131.21 276.129 128.095 274.628 124.53 275.116C120.196 275.716 116.631 277.818 113.498 280.726C110.683 283.334 108.15 286.205 105.824 289.282C105.542 289.526 105.261 289.77 104.942 289.995C104.773 290.089 104.585 290.164 104.398 290.202C101.827 290.164 101.564 289.995 100.757 287.744C100.195 286.092 100.27 284.31 99.8569 282.64C99.5191 281.252 99.2752 279.826 98.3934 278.644C98.1682 278.381 97.9618 278.118 97.6053 278.024C97.4364 277.968 97.2863 277.874 97.1175 277.78C96.7234 277.499 96.4045 277.124 96.1793 276.711C93.7401 272.395 89.8374 271.251 85.278 271.851C81.2252 272.377 77.5476 273.953 74.4142 276.655C72.6317 278.193 72.0313 278.006 71.4121 275.735C70.6803 272.996 69.6109 272.152 66.6651 272.208C65.4079 272.227 64.6574 271.757 64.6574 270.5C64.6574 267.48 64.2821 264.515 63.4753 261.625C63.344 261.138 63.4378 260.669 63.7755 260.274C63.7193 258.53 64.0195 256.803 64.2446 255.077C64.6762 251.568 65.3516 248.097 66.3836 244.701C67.0778 242.393 67.9222 240.161 68.9917 238.003C69.3294 237.309 69.7234 236.614 70.1175 235.958C70.5115 235.282 70.9993 234.682 71.5622 234.138C73.8138 231.942 76.9284 232.092 78.861 233.312C80.0994 234.081 81.1689 235.019 82.107 236.145C83.0452 237.252 83.7957 238.472 84.4149 239.785C84.7714 240.536 85.1091 241.305 85.4093 242.093C86.9854 246.183 88.4677 250.293 89.7248 254.495C90.3065 256.391 90.9069 258.267 91.5073 260.162C91.6199 260.5 91.7325 260.837 91.8638 261.175C92.1453 261.926 92.6143 262.019 93.196 261.4C93.7214 260.837 94.228 260.218 94.6783 259.599C95.5789 258.323 96.4232 257.01 97.3426 255.753C98.0368 254.777 98.7874 253.839 99.5566 252.919C100.063 252.338 100.645 251.812 101.245 251.325C101.658 250.987 102.127 250.705 102.615 250.48C103.891 249.88 105.167 249.955 106.424 250.612C107.4 251.137 108.169 251.906 108.713 252.844C109.257 253.782 109.707 254.758 110.195 255.715C110.571 256.466 110.927 257.216 111.302 257.967C111.377 258.098 111.678 258.154 111.771 258.042C111.846 257.948 111.94 257.873 112.015 257.779C112.109 257.629 112.203 257.479 112.297 257.31C115.712 251.212 120.196 246.033 125.468 241.474C127.382 239.823 129.334 238.247 131.398 236.802C132.767 235.845 134.193 234.944 135.713 234.194C137.12 233.481 138.584 232.993 140.16 232.805C142.73 232.468 145.038 233.106 147.065 234.719C147.721 235.245 148.284 235.864 148.81 236.521C149.86 237.853 150.686 239.297 151.399 240.836C152.262 242.694 152.937 244.607 153.482 246.577C154.12 248.885 154.682 251.212 155.302 253.539C155.452 254.12 155.602 254.702 155.808 255.265C155.902 255.565 156.183 255.753 156.484 255.79C156.84 255.828 157.197 255.809 157.553 255.771C158.81 255.603 160.067 255.584 161.325 255.621C164.345 255.696 167.104 256.578 169.618 258.229C170.462 258.792 171.269 259.43 172.095 260.031C172.864 260.593 173.633 261.175 174.421 261.738C174.59 261.869 174.965 261.794 175.078 261.625C175.209 261.419 175.341 261.213 175.434 261.006C178.061 255.04 182.489 250.818 188.174 247.816C190.801 246.427 193.578 245.527 196.468 244.926C200.127 244.176 203.842 243.969 207.557 244.101C210.446 244.213 213.279 244.739 216.038 245.602C218.852 246.484 221.573 247.591 224.162 248.979C229.622 251.925 233.675 256.203 236.302 261.813C237.39 264.158 238.215 266.598 238.816 269.112C239.322 271.213 239.792 273.315 240.298 275.416C240.373 275.698 240.486 275.979 240.598 276.261C240.655 276.392 240.917 276.429 241.049 276.317C242.099 275.416 243.131 274.516 244.182 273.615C246.715 271.251 249.811 270.801 253.095 270.951C253.939 270.988 254.352 271.739 254.99 272.17Z" fill="#A1A0A0"/>
<path d="M63.7943 260.256C63.8131 260.931 64.0758 261.532 64.2634 262.17C64.5261 263.145 64.9013 264.102 64.9201 265.134C65.3704 266.767 65.2578 268.455 65.2766 270.125C65.2766 270.425 65.2766 270.726 65.2953 271.026C65.3329 271.514 65.6706 271.814 66.1397 271.664C66.8339 271.438 67.5469 271.438 68.2787 271.438C68.8416 271.438 69.3669 271.607 69.7985 271.926C71.0931 272.883 72.0125 274.103 72.1251 275.792C72.1626 276.279 72.2001 276.748 72.5191 277.142C72.5754 277.218 72.763 277.274 72.8193 277.236C73.0632 277.067 73.3259 276.899 73.5135 276.692C74.7331 275.322 76.253 274.403 77.8666 273.577C79.0487 272.977 80.2682 272.508 81.4878 272.001C82.032 271.776 82.6324 271.664 83.214 271.532C85.1466 271.101 86.7227 270.894 88.7304 271.101C90.9632 271.326 93.0459 272.039 94.7158 273.671C95.5789 274.516 96.3669 275.397 96.8172 276.542C97.0049 276.992 97.2863 277.368 97.7366 277.593C98.9375 280.313 98.7123 283.165 98.5059 286.017C98.4684 286.43 98.337 286.843 98.337 287.256C98.3558 287.875 97.8304 288.776 98.4872 289.057C99.2564 289.395 100.101 288.944 100.645 288.231C100.833 288.006 101.001 287.744 101.264 287.612C101.621 287.912 101.583 288.325 101.639 288.738C101.696 289.132 101.94 289.357 102.334 289.395C103.197 289.451 104.003 289.883 104.904 289.826C107.456 290.164 109.557 292.735 109.82 295.849C110.064 298.833 109.501 301.685 108.657 304.536C108.056 306.563 108.094 306.582 110.158 306.788C113.104 307.107 115.092 308.814 116.5 311.272C117.194 312.473 117.7 312.567 118.789 311.648C121.491 309.321 124.08 309.058 126.707 310.616C129.146 312.06 130.722 315.607 130.178 318.552C129.821 320.541 128.94 322.324 127.607 323.825C126.65 324.894 126.163 325.945 126.632 327.39C126.857 328.122 126.801 328.928 126.669 329.716C126.35 331.668 125.243 332.662 123.292 332.794C123.048 332.812 122.804 332.794 122.579 332.794C100.101 332.794 77.6227 332.794 55.1445 332.794C54.8443 332.794 54.5441 332.794 54.2439 332.737C53.5872 332.7 52.9305 332.662 52.2738 332.662C46.5136 332.662 40.7533 332.737 35.0118 332.644C29.0076 332.55 23.0222 332.568 17.0181 332.493C14.4475 332.456 11.8582 332.437 9.2877 332.4C8.79986 332.4 8.33079 332.4 7.84295 332.362C7.52398 332.343 7.22377 332.212 7.12995 331.912C6.96109 331.368 6.60459 330.974 6.26685 330.58C5.25365 329.398 4.22168 328.215 3.24601 327.015C2.17651 325.701 1.35094 324.256 0.67547 322.699C0.112579 321.404 -0.075051 320.054 0.0187642 318.665C0.150105 316.676 1.35094 315.175 3.26477 314.575C3.84642 314.387 4.42808 314.331 5.02849 314.274C6.15428 314.181 7.29882 314.031 8.4246 313.88C8.64976 313.843 8.87492 313.73 9.10007 313.655C9.30647 313.58 9.47533 313.243 9.40028 313.074C9.2877 312.792 9.19389 312.511 9.02502 312.267C8.64976 311.723 8.23697 311.197 7.86171 310.672C7.35511 309.94 6.79222 309.227 6.34191 308.439C3.54621 303.429 5.14107 298.195 8.55594 295.174C10.0195 293.879 11.6894 293.222 13.6595 293.316C14.8791 293.372 16.0424 293.598 17.1682 293.992C18.2377 294.367 19.3072 294.78 20.3767 295.155C20.7144 295.268 21.0709 295.361 21.4086 295.436C21.4461 295.455 21.5962 295.268 21.5962 295.192C21.5587 294.967 21.4649 294.742 21.3711 294.517C19.8701 291.421 18.8568 288.175 18.2189 284.798C17.8436 282.846 17.6748 280.876 17.8061 278.887C18.0125 275.585 19.007 272.546 21.0709 269.9C22.6282 267.93 24.5796 266.485 26.9625 265.622C29.139 264.834 31.2967 264.853 33.4732 265.603C34.3926 265.922 35.2557 266.316 36.0813 266.823C37.2446 267.555 38.4079 268.305 39.5525 269.074C41.335 270.294 43.0987 271.532 44.8812 272.752C45.0313 272.846 45.1814 272.94 45.3315 273.033C45.5754 273.183 45.9319 273.033 46.0257 272.714C46.1008 272.489 46.1571 272.264 46.2321 272.02C46.476 271.101 46.7012 270.163 46.9639 269.243C47.6393 266.842 48.6901 264.646 50.2099 262.676C51.2794 261.288 52.5365 260.087 53.9812 259.111C54.4316 258.811 54.8819 258.53 55.3697 258.286C57.7714 257.104 60.0229 257.423 62.1056 259.036C62.4809 259.336 62.7999 259.693 63.1564 260.031C63.3252 260.237 63.5504 260.256 63.7943 260.256Z" fill="#CFCECD"/>
<path d="M54.2627 332.775C54.9194 332.737 55.5761 332.681 56.2328 332.681C63.8506 332.681 71.4684 332.681 79.0862 332.681C92.5205 332.681 105.955 332.7 119.37 332.719C120.571 332.719 121.772 332.681 122.973 332.625C124.699 332.531 125.994 331.293 126.181 329.548C126.313 328.328 126.275 327.146 125.543 326.095C125.3 325.757 125.393 325.401 125.656 325.12C126.05 324.669 126.482 324.256 126.876 323.806C128.114 322.38 128.996 320.785 129.446 318.928C129.84 317.389 129.596 315.944 129.052 314.537C128.846 313.974 128.527 313.468 128.208 312.961C127.42 311.666 126.2 310.897 124.793 310.484C123.742 310.165 122.654 310.184 121.622 310.616C120.44 311.104 119.427 311.835 118.601 312.811C118.301 313.167 117.963 313.505 117.625 313.862C117.532 313.956 117.213 313.899 117.138 313.787C117.006 313.599 116.856 313.411 116.744 313.186C116.425 312.605 116.143 312.023 115.843 311.423C115.486 310.728 114.999 310.109 114.454 309.546C113.141 308.195 111.527 307.482 109.651 307.464C108.994 307.464 108.338 307.482 107.681 307.482C107.456 307.482 107.268 307.22 107.325 306.976C107.55 306.113 107.812 305.249 108.038 304.368C108.357 303.148 108.638 301.928 108.957 300.709C109.37 299.114 109.388 297.5 109.257 295.887C109.088 293.804 108.131 292.134 106.405 290.915C105.917 290.577 105.336 290.37 104.96 289.864H104.942C105.111 289.639 105.035 289.263 105.373 289.151C106.274 287.969 107.156 286.73 108.094 285.586C110.27 282.94 112.634 280.482 115.393 278.437C116.894 277.33 118.489 276.373 120.215 275.66C121.716 275.041 123.292 274.647 124.906 274.516C126.181 274.403 127.42 274.572 128.639 274.91C130.366 275.397 131.773 276.392 132.861 277.818C133.705 278.925 134.325 280.145 134.812 281.439C135.244 282.621 135.563 283.841 135.788 285.079C135.994 286.318 136.107 287.575 136.276 288.813C136.539 290.783 136.576 292.753 136.67 294.723C136.707 295.436 136.82 296.149 136.914 296.862C136.933 297.013 137.214 297.144 137.345 297.069C137.608 296.937 137.871 296.787 138.133 296.656C139.316 296.056 140.554 295.605 141.849 295.361C143.762 294.986 145.545 295.286 147.121 296.525C147.871 297.125 148.641 297.707 149.391 298.288C150.292 298.964 150.386 298.945 150.855 298.026C151.024 297.707 151.174 297.388 151.343 297.069C151.53 296.694 151.737 296.337 151.943 295.962C154.044 292.228 156.953 289.263 160.518 286.918C162.038 285.924 163.707 285.267 165.509 284.967C166.353 284.835 167.179 284.854 168.004 285.079C169.618 285.511 170.593 286.58 170.762 288.231C170.875 289.376 170.856 290.502 170.612 291.628C170.35 292.791 170.068 293.973 169.637 295.08C168.98 296.75 168.304 298.42 167.629 300.09C167.366 300.746 167.085 301.422 166.803 302.079C166.728 302.867 167.141 302.641 167.535 302.435C169.637 301.553 171.794 300.859 174.046 300.465C174.759 300.334 175.472 300.296 176.185 300.259C176.598 300.24 177.029 300.277 177.442 300.352C179.187 300.634 180.219 301.666 180.463 303.429C180.632 304.687 180.594 305.944 180.294 307.182C179.975 308.533 179.506 309.828 178.906 311.066C178.305 312.304 177.686 313.543 177.085 314.781C176.992 314.987 176.935 315.231 176.898 315.457C176.879 315.55 176.954 315.7 177.029 315.776C177.217 315.907 177.442 316.038 177.648 316.113C178.38 316.395 179.056 316.77 179.712 317.202C180.744 317.858 181.551 318.74 182.17 319.791C182.677 320.635 182.94 321.536 182.977 322.511C183.127 326.395 181.27 329.792 177.911 331.799C177.817 331.855 177.705 331.931 177.611 331.987C177.104 332.418 176.466 332.493 175.828 332.531C175.209 332.606 174.571 332.362 173.99 332.7C173.089 332.719 172.188 332.719 171.288 332.737C170.387 332.756 169.505 332.737 168.605 332.962C168.042 333.113 167.423 333.056 166.822 333.056C162.45 333.056 158.06 333.056 153.688 333.056C143.368 333.056 133.067 333.075 122.748 333.075C106.499 333.075 90.2502 333.075 74.0014 333.075C67.8846 333.075 61.7679 333.075 55.6512 333.075C55.1821 332.981 54.6942 333.094 54.2627 332.775Z" fill="#A1A0A0"/>
<path d="M269.794 313.918C270.788 311.892 271.182 309.753 271.238 307.501C271.332 304.63 270.6 301.947 269.606 299.302C269.043 297.782 267.974 296.656 266.735 295.699C264.99 294.367 263.001 293.598 260.806 293.391C260.506 293.354 260.206 293.354 259.924 293.279C259.155 293.072 258.386 293.054 257.616 293.035C257.204 293.035 256.772 293.016 256.359 293.016C254.295 292.997 254.051 293.166 255.065 291.046C255.834 289.432 256.509 287.762 257.072 286.055C257.71 284.104 258.029 282.115 257.935 280.051C257.917 279.45 257.935 278.869 257.954 278.268C258.48 278.4 258.498 278.4 258.648 278.043C259.211 276.58 259.755 275.135 260.318 273.671C261.669 270.144 263.058 266.635 264.596 263.183C266.21 259.562 267.974 256.015 269.944 252.582C271.97 249.035 274.222 245.639 276.473 242.243C278.875 238.641 281.277 235.076 283.697 231.492C284.71 229.991 285.723 228.509 286.755 227.045C287.131 226.501 287.562 225.994 287.975 225.488C288.088 225.357 288.238 225.244 288.388 225.15C288.857 224.812 289.532 225.038 289.682 225.6C289.739 225.826 289.795 226.088 289.757 226.295C289.626 226.933 289.476 227.589 289.288 228.208C288.707 230.16 287.975 232.074 287.224 233.969C285.798 237.59 284.354 241.211 282.947 244.851C282.384 246.296 281.839 247.76 281.333 249.242C280.132 252.694 278.894 256.147 277.787 259.618C276.06 264.984 274.391 270.369 272.927 275.81C271.839 279.807 270.713 283.785 269.606 287.762C269.456 288.288 269.362 288.813 269.249 289.338C269.231 289.376 269.287 289.451 269.325 289.489C269.362 289.526 269.437 289.545 269.475 289.526C269.681 289.432 269.925 289.338 270.094 289.188C271.951 287.518 274.165 286.449 276.436 285.492C279.776 284.104 283.247 283.165 286.737 282.34C289.307 281.739 291.878 281.158 294.448 280.576C294.917 280.464 295.386 280.351 295.874 280.426C296.212 280.482 296.512 280.914 296.362 281.252C296.268 281.458 296.156 281.702 295.987 281.852C295.386 282.434 294.767 282.997 294.111 283.541C293.454 284.085 292.891 284.685 292.328 285.304C290.133 287.687 288.144 290.239 286.061 292.716C284.41 294.686 282.703 296.637 281.033 298.589C280.676 299.001 280.376 299.433 280.057 299.883C279.888 300.127 280.113 300.502 280.432 300.521C280.545 300.521 280.676 300.559 280.789 300.54C282.271 300.352 283.753 300.108 285.123 299.452C286.755 298.664 288.294 297.782 289.626 296.506C290.32 295.849 291.09 295.268 291.84 294.667C292.178 294.386 292.722 294.555 292.891 294.967C293.003 295.249 293.135 295.53 293.135 295.812C293.154 296.525 293.191 297.256 293.097 297.969C292.797 300.108 292.403 302.229 291.878 304.33C291.653 305.268 291.427 306.188 291.221 307.126C291.127 307.539 291.296 307.783 291.765 307.876C292.122 307.951 292.478 308.083 292.816 308.083C293.923 308.064 294.955 308.439 295.931 308.871C296.906 309.302 297.863 309.809 298.839 310.297C298.989 310.372 299.12 310.503 299.252 310.634C299.496 310.86 299.571 311.366 299.383 311.629C299.177 311.929 298.97 312.211 298.707 312.454C297.375 313.712 296.362 315.175 295.518 316.77C294.448 318.796 293.51 320.86 292.76 323.018C292.478 323.806 292.215 324.613 291.915 325.401C291.315 327.052 290.883 328.722 290.958 330.486C290.958 330.73 290.958 330.974 290.902 331.199C290.771 331.968 290.508 332.268 289.72 332.268C287.731 332.268 285.761 332.268 283.772 332.268C283.059 332.268 282.327 332.306 281.614 332.325C279.175 332.512 276.736 332.343 274.278 332.418C273.209 332.437 273.058 331.874 273.715 331.274C275.742 329.454 275.854 327.315 275.066 324.913C274.803 324.106 275.047 323.243 275.254 322.436C275.535 321.329 275.629 320.204 275.61 319.059C275.573 315.794 274.428 314.593 271.126 314.293C270.619 314.331 270.131 314.331 269.794 313.918Z" fill="#CFCECD"/>
<path d="M269.794 313.918C269.981 313.918 270.169 313.956 270.319 313.88C271.407 313.393 272.439 313.768 273.471 314.031C274.128 314.199 274.672 314.593 275.085 315.119C275.76 315.982 276.267 316.92 276.267 318.046C276.267 318.815 276.267 319.603 276.267 320.372C276.267 320.917 276.192 321.442 276.023 321.967C275.854 322.53 275.704 323.112 275.573 323.694C275.441 324.294 275.423 324.894 275.742 325.438C276.248 326.302 276.286 327.259 276.267 328.215C276.248 329.172 275.892 329.96 275.235 330.617C274.766 331.086 274.278 331.499 273.79 331.949C273.771 331.968 273.771 332.062 273.79 332.099C273.809 332.137 273.846 332.212 273.903 332.212C274.203 332.231 274.503 332.268 274.803 332.268C276.53 332.268 278.275 332.268 280.001 332.268C280.545 332.268 281.07 332.325 281.614 332.343C281.389 332.418 281.164 332.55 280.939 332.568C280.526 332.606 280.095 332.587 279.682 332.587C272.42 332.606 265.178 332.625 257.917 332.625C257.072 332.625 256.247 332.606 255.421 332.85C255.027 332.962 254.596 332.944 254.164 332.944C248.235 332.944 242.306 332.944 236.358 332.944C235.945 332.944 235.495 332.962 235.101 332.85C234.331 332.643 233.562 332.644 232.774 332.644C229.416 332.644 226.057 332.644 222.698 332.644C222.042 332.644 221.385 332.606 220.728 332.587C220.559 332.212 220.409 331.818 220.203 331.443C219.19 329.585 218.552 327.596 217.97 325.57C217.689 324.594 217.539 323.581 217.407 322.568C217.295 321.78 217.426 321.01 217.576 320.26C217.614 320.035 217.726 319.81 217.839 319.603C218.327 318.759 219.171 318.552 219.978 319.059C220.503 319.378 220.916 319.81 221.291 320.279C221.666 320.748 222.004 321.236 222.379 321.705C222.436 321.78 222.567 321.817 222.68 321.836C222.83 321.855 222.886 321.761 222.905 321.611C222.924 321.142 222.961 320.654 222.98 320.185C223.092 318.215 223.167 316.226 223.355 314.274C223.637 311.235 224.068 308.214 225.119 305.306C225.644 303.842 226.263 302.397 227.014 301.047C227.295 300.521 227.652 300.033 228.027 299.564C228.215 299.339 228.459 299.151 228.703 298.983C229.303 298.57 230.147 298.682 230.71 299.17C231.217 299.621 231.536 300.183 231.798 300.803C232.324 302.022 232.718 303.279 233.018 304.555C233.262 305.606 233.506 306.657 233.656 307.726C233.975 309.865 234.219 312.004 234.519 314.143C234.594 314.669 234.726 315.194 234.857 315.7C234.876 315.757 235.101 315.813 235.157 315.776C235.401 315.588 235.607 315.382 235.833 315.175C237.615 313.524 239.716 312.623 242.156 312.53C243.056 312.492 243.957 312.53 244.858 312.53C245.814 312.53 246.771 312.548 247.728 312.53C248.179 312.53 248.516 312.229 248.629 311.779C248.742 311.254 248.817 310.728 248.873 310.184C249.042 308.571 249.361 306.994 249.961 305.475C250.918 303.054 252.457 301.122 254.596 299.658C255.14 299.283 255.721 298.964 256.341 298.757C258.404 298.063 260.224 298.438 261.763 300.033C262.439 300.728 262.908 301.572 263.227 302.473C263.658 303.673 263.902 304.893 263.958 306.169C264.033 307.914 263.958 309.64 263.789 311.366C263.733 312.023 263.696 312.68 263.639 313.336C263.583 313.843 263.677 314.293 264.165 314.575C264.746 314.931 265.009 315.569 265.403 316.095C265.497 316.226 265.741 316.245 265.891 316.132C265.985 316.057 266.097 316.001 266.172 315.926C267.242 314.987 268.443 314.331 269.794 313.918Z" fill="#F6F6F6"/>
<path d="M254.99 272.17C254.821 272.133 254.614 272.133 254.483 272.039C253.207 271.307 251.837 271.363 250.468 271.589C248.573 271.908 246.734 272.433 245.026 273.334C244.764 273.465 244.464 273.502 244.182 273.596C244.276 273.183 244.332 272.771 244.464 272.377C245.327 269.769 246.377 267.217 247.428 264.665C249.117 260.575 250.899 256.522 252.776 252.507C254.352 249.092 255.89 245.639 257.448 242.206C257.635 241.774 257.804 241.305 258.179 240.986C258.367 240.817 258.892 240.93 258.93 241.174C258.967 241.399 259.024 241.662 258.949 241.868C258.761 242.431 258.536 242.994 258.311 243.538C257.185 246.202 256.509 248.979 256.097 251.831C255.909 253.126 255.721 254.439 255.534 255.734C255.515 255.903 255.459 256.09 255.459 256.259C255.402 258.286 254.99 260.293 254.99 262.338C254.99 263.051 254.877 263.764 254.802 264.477C254.783 264.721 254.746 264.946 254.746 265.19C254.708 267.048 254.671 268.905 254.633 270.763C254.596 271.307 254.727 271.757 254.99 272.17Z" fill="#CFCECD"/>
</g>
<path d="M32.6945 313.918C31.7001 311.892 31.3061 309.753 31.2498 307.501C31.156 304.63 31.8877 301.947 32.8822 299.302C33.4451 297.782 34.5146 296.656 35.7529 295.699C37.4979 294.367 39.4868 293.598 41.682 293.391C41.9823 293.354 42.2825 293.354 42.5639 293.279C43.3332 293.072 44.1025 293.054 44.8718 293.035C45.2845 293.035 45.7161 293.016 46.1289 293.016C48.1928 292.997 48.4367 293.166 47.4235 291.046C46.6542 289.432 45.9788 287.762 45.4159 286.055C44.7779 284.104 44.459 282.115 44.5528 280.051C44.5716 279.45 44.5528 278.869 44.534 278.268C44.0087 278.4 43.9899 278.4 43.8398 278.043C43.2769 276.58 42.7328 275.135 42.1699 273.671C40.8189 270.144 39.4305 266.635 37.8919 263.183C36.2783 259.562 34.5146 256.015 32.5445 252.582C30.518 249.035 28.2665 245.639 26.0149 242.243C23.6132 238.641 21.2116 235.076 18.7911 231.492C17.7779 229.991 16.7647 228.509 15.7328 227.045C15.3575 226.501 14.926 225.994 14.5132 225.488C14.4006 225.357 14.2505 225.244 14.1004 225.15C13.6313 224.812 12.9558 225.038 12.8057 225.6C12.7494 225.826 12.6932 226.088 12.7307 226.295C12.862 226.933 13.0121 227.589 13.1998 228.208C13.7814 230.16 14.5132 232.074 15.2637 233.969C16.6897 237.59 18.1344 241.211 19.5417 244.851C20.1046 246.296 20.6487 247.76 21.1553 249.242C22.3561 252.694 23.5945 256.147 24.7015 259.618C26.4277 264.984 28.0976 270.369 29.5611 275.81C30.6494 279.807 31.7752 283.785 32.8822 287.762C33.0323 288.288 33.1261 288.813 33.2387 289.338C33.2574 289.376 33.2011 289.451 33.1636 289.489C33.1261 289.526 33.0511 289.545 33.0135 289.526C32.8071 289.432 32.5632 289.338 32.3943 289.188C30.5368 287.518 28.3228 286.449 26.0524 285.492C22.7126 284.104 19.2415 283.165 15.7515 282.34C13.181 281.739 10.6105 281.158 8.03992 280.576C7.57085 280.464 7.10177 280.351 6.61393 280.426C6.2762 280.482 5.976 280.914 6.1261 281.252C6.21992 281.458 6.33249 281.702 6.50136 281.852C7.10178 282.434 7.72096 282.997 8.37766 283.541C9.03437 284.085 9.59726 284.685 10.1602 285.304C12.3554 287.687 14.3443 290.239 16.427 292.716C18.0782 294.686 19.7856 296.637 21.4555 298.589C21.812 299.001 22.1122 299.433 22.4312 299.883C22.6 300.127 22.3749 300.502 22.0559 300.521C21.9433 300.521 21.812 300.559 21.6994 300.54C20.2171 300.352 18.7349 300.108 17.3652 299.452C15.7328 298.664 14.1942 297.782 12.862 296.506C12.1678 295.849 11.3985 295.268 10.648 294.667C10.3103 294.386 9.76613 294.555 9.59726 294.967C9.48468 295.249 9.35333 295.53 9.35333 295.812C9.33457 296.525 9.29706 297.256 9.39087 297.969C9.69108 300.108 10.0851 302.229 10.6105 304.33C10.8356 305.268 11.0608 306.188 11.2672 307.126C11.361 307.539 11.1921 307.783 10.723 307.876C10.3665 307.951 10.0101 308.083 9.67232 308.083C8.5653 308.064 7.53334 308.439 6.55766 308.871C5.58198 309.302 4.62507 309.809 3.64939 310.297C3.49929 310.372 3.36793 310.503 3.23659 310.634C2.99267 310.86 2.91763 311.366 3.10526 311.629C3.31165 311.929 3.51804 312.211 3.78072 312.454C5.1129 313.712 6.1261 315.175 6.97044 316.77C8.03993 318.796 8.97807 320.86 9.72859 323.018C10.01 323.806 10.2727 324.613 10.5729 325.401C11.1733 327.052 11.6049 328.722 11.5299 330.486C11.5299 330.73 11.5299 330.974 11.5861 331.199C11.7175 331.968 11.9802 332.268 12.7682 332.268C14.7571 332.268 16.7272 332.268 18.7161 332.268C19.4291 332.268 20.1608 332.306 20.8738 332.325C23.313 332.512 25.7522 332.343 28.2102 332.418C29.2797 332.437 29.4298 331.874 28.7731 331.274C26.7467 329.454 26.6341 327.315 27.4221 324.913C27.6848 324.106 27.4409 323.243 27.2345 322.436C26.9531 321.329 26.8592 320.204 26.878 319.059C26.9155 315.794 28.0601 314.593 31.3624 314.293C31.869 314.331 32.3568 314.331 32.6945 313.918Z" fill="#A1A0A0"/>
<path d="M113.306 30.8449C108.269 27.3184 126.349 8.64967 115.057 5.54716C103.765 2.44465 37.8354 51.9308 43.3239 86.8233C48.8124 121.716 103.853 76.4436 108.373 83.6177C112.893 90.7919 29.2722 152.904 61.2346 179.97C93.197 207.036 138.727 147.432 145.863 155.91C153 164.389 105.978 193.909 148.897 221.502C182.076 242.833 269.991 160.42 263.677 141.164C257.363 121.909 225.872 150.783 221.544 143.788C217.215 136.792 275.491 80.5283 259.348 53.136C243.205 25.7437 186.091 75.4471 182.076 71.1387C178.06 66.8303 232.305 27.5578 211.155 5.54716C190.004 -16.4635 118.342 34.3713 113.306 30.8449Z" fill="#E0ECFF"/>
<g clip-path="url(#clip1_1764_1901)">
<path d="M98.0286 320.2C94.5143 310.171 92.8858 300.143 92.1143 289.943C91.9429 287.971 91.2572 287.971 89.6286 288.229C84.3143 289.257 79 289.429 73.8572 287.8C65.1143 284.971 59.6286 278.629 56.1143 270.486C51.4 259.6 50.4572 247.943 50.5429 236.2C50.6286 206.629 60.4857 180.143 75.9143 155.371C86.3715 138.657 99.0572 123.657 113.286 110.029C115.086 108.314 115.086 107.543 113.371 105.743C107.371 99.5714 103.6 92.2857 104.029 83.3714C104.114 81.4857 103.686 80.8857 101.714 81.7429C98.2858 83.2 95.8 82.5143 94.2572 79.8571C92.8858 77.4571 93.4857 74.7143 95.7143 73.0857C98.2858 71.2 101.029 71.5429 103.257 74.3714C104.629 76.0857 105.571 75.9143 106.429 74.2C113.114 60.9143 124.857 55 138.657 52.8571C157.771 49.8571 174.571 55 188.029 69.2286C193.686 75.2286 197.2 82.5143 196.771 91.1714C196.686 93.0571 197.371 94.2571 199.6 93.4857C201.486 92.8857 203.114 93.3143 204.571 94.5143C206.371 95.9714 207.486 97.8571 206.886 100.343C206.457 102.314 205.171 103.429 203.286 103.771C200.886 104.286 198.914 103.429 197.457 101.457C195.229 98.4571 195.229 98.4571 193.429 101.886C192.057 104.543 190.343 107.029 188.029 109.086C186.4 110.543 186.314 111.314 188.2 112.686C194.114 116.971 199.771 121.686 205.171 126.657C219.486 139.771 232.086 154.343 240.914 171.829C251.286 192.486 253.857 214 248.371 236.543C247.514 240.229 246.657 243.914 245.629 247.514C242.714 258.571 237.229 262.514 225.914 260.8C222.143 260.2 221.371 261.229 220.771 264.571C218.029 280.343 213.229 295.6 207.571 310.514C206.8 312.486 206.2 314.457 205.514 316.514C204.057 320.714 204.057 320.629 208.686 321.057C223.171 322.257 237.657 323.2 251.8 327.057C253.514 327.486 255.229 328.171 256.771 328.943C259.429 330.4 259.429 332.114 256.771 333.571C253.257 335.543 249.314 336.314 245.371 337.086C228.743 340.257 211.943 341.457 195.057 342.314C159.914 344.029 124.686 343.943 89.5429 341.629C75.4 340.686 61.1715 339.486 47.2857 336.4C44.8857 335.886 42.5715 335.114 40.3429 334.257C38.8857 333.657 36.7429 333.057 36.8286 331.171C36.9143 329.629 38.8 328.943 40.2572 328.343C43.0857 327.057 46.0857 326.371 49.1715 325.686C64.3429 322.6 79.7715 321.571 95.1143 320.457C96.0572 320.371 96.8286 320.286 98.0286 320.2ZM99.4 278.286C99.3143 277.943 99.1429 277.514 99.0572 277.171C98.9715 277.257 98.7143 277.429 98.7143 277.429C98.8857 277.771 99.0572 278.114 99.2286 278.457C99.1429 278.886 99.3143 279.229 99.7429 279.4C99.8286 279.4 99.9143 279.314 100 279.229C100 278.8 99.9143 278.457 99.4 278.286ZM220.257 147.657C219.743 147.057 219.229 146.371 218.629 145.771C217.943 144.143 216.657 143.2 215.371 142.257C215.2 141.743 215.029 141.143 214.771 140.8C208.343 133.514 201.314 126.743 193.857 120.4C193.514 120.143 193.171 119.8 192.657 120.314C192.4 121.171 193.171 121.686 193.514 122.286C204.657 139.171 212.286 157.6 217.343 177.143C219.229 184.429 219.143 184.429 226.086 181C227.2 180.829 228.229 180.486 229 179.629C231.657 179.2 233.286 176.543 236.114 176.371C235.257 177.743 233.714 178.171 232.6 179.286C230.629 180.4 228.657 181.429 226.6 182.543C225.143 183.057 223.771 183.829 222.314 184.171C219.914 184.686 219.4 185.8 219.914 188.286C222.486 200.714 224.114 213.314 224.371 226.086C224.371 227.543 223.429 229.686 226.086 229.943C228.229 230.2 230.457 230.971 231.571 227.971C232.257 226.171 234.057 225.143 235.429 223.943C236.971 223.343 238.6 222.829 240.143 222.229C242.029 222.571 244.171 222.314 245.543 224.2C245.371 224.286 245.114 224.543 244.943 224.457C236.629 222.229 231.143 226.086 230.714 234.829C230.457 239.286 230.714 243.657 231.229 248.029C231.571 250.514 230.971 253.171 232.771 256.086C231.743 249.829 231.657 244.171 232.086 238.6C232.343 234.914 232.514 231.057 235.343 228.143C235.429 228.314 235.6 228.4 235.686 228.571C234.4 231.571 233.971 234.743 233.714 237.914C233.286 242.971 233.886 248.114 234.143 253.171C234.229 254.629 233.457 256.857 235.086 257.286C236.714 257.714 238.257 256.086 239.457 254.714C239.971 254.029 240.657 253.343 240.829 252.486C243.486 243.229 246.829 234.143 245.457 224.286C247.514 225.743 247.171 223.857 247.257 222.914C248.543 206.886 245.114 191.714 238.686 177.057C237.829 175.086 237.057 176.029 236.029 176.543C236.029 175.257 237.743 174.657 236.714 172.771C232.514 164.886 228.057 157.171 222.314 150.314C221.8 149.2 221.114 148.343 220.257 147.657ZM111.829 83.5429C112.086 83.7143 112.257 83.8857 112.514 84.0571C112.171 85 111.829 86.0286 111.571 86.9714C112.857 87.4857 113.114 86.5429 113.371 85.8571C114.743 82.4286 115.686 78.9143 115.343 75.1429C115.257 73.6857 115.429 71.5429 113.543 71.3714C111.829 71.2 110.629 73 110.029 74.5429C108.743 77.5429 104.543 79 101.714 77.2C101.286 76.9429 100.6 76.6857 101.114 76C102.314 74.5429 100.771 74.5429 100.171 74.4571C98.8 74.2 97.7715 74.8857 97.2572 76.0857C96.6572 77.4571 96.8286 78.7429 98.0286 79.6857C98.7143 80.2 99.9143 80.8857 100.343 80.0286C101.971 76.9429 103.857 79.6 105.229 80.0286C106.257 80.2857 107.886 81.8286 106.771 83.9714C106.257 84.9143 106.6 86.3714 106.686 87.5714C106.686 88.1714 106.6 89.1143 107.457 89.1143C107.886 89.1143 108.4 88.6 108.743 88.1714C109.771 86.7143 110.714 85.0857 111.829 83.5429ZM122.629 151.686C121.343 146.543 119.371 141.829 116.029 137.714C115.429 136.257 114.4 135.057 113.371 133.943C111.743 132.143 110.714 131.714 109 134.371C104.8 140.8 100.857 147.314 97.2572 154C95.8858 156.657 94.3429 159.229 92.6286 161.714C91.1715 163.857 88.8572 164.886 86.2 164.371C83.7143 163.857 82.7715 161.8 82 159.657C81.2286 157.514 81.3143 155.286 81.0572 152.971C73.4286 164.286 67.3429 176.286 62.6286 188.971C62.1143 190.343 62.8 191.029 63.7429 191.629C75.8286 199.771 88.7715 203.8 103.429 200.714C105.829 200.371 108.314 200.029 110.371 198.657C114.486 197.886 117.829 195.571 121.429 193.686C123.486 192.571 124.429 191.114 124.514 188.714C124.771 181.6 125.029 174.571 124.686 167.457C124.514 162.143 124.257 156.829 122.629 151.686ZM124.686 249.657C124.086 249.4 123.486 249.143 122.886 248.886C120.571 247.6 119.286 248.114 119.114 250.943C119.029 252.571 118.429 254.2 118 255.743C115.086 266.543 111.057 277.171 101.029 282.914C94.1715 286.771 94.0858 291.229 95.6286 297.229C95.8857 298.086 96.0572 298.943 96.2286 299.8C96.4857 301.343 96.4858 302.886 97.2572 304.343C97.7715 306.743 98.2857 309.057 98.8 311.457C99.0572 312.571 99.7429 313.171 100.686 313.514C113.971 318.657 127.6 321.571 142 320.286C149.971 320.2 157.514 319.257 160.343 310C160.343 309.914 160.514 309.829 160.514 309.743C165.914 299.8 170.2 289.343 173.457 278.457C174.486 277.343 175.429 277.171 175.257 279.143C175.086 280.686 174.571 282.143 174.143 283.686C172.943 287.286 171.743 290.8 170.543 294.4C167.8 300.657 165.4 307 162.143 313.086C161.543 314.2 161.543 314.971 163.086 314.971C167.629 315.143 172.086 316 176.714 315.314C181.429 315.314 186.143 315.143 190.857 314.029C195.229 313.6 199.257 312.057 203.286 310.686C204.743 310.171 205.429 309.314 205.857 307.943C212.2 289.6 217.171 270.829 219.143 251.457C219.571 247.171 220.257 242.8 219.743 238.086C217.6 239.629 215.8 240.914 214 242.2C211.6 243.486 209.114 244.771 206.714 246.143C201.229 248.457 195.571 250.514 189.743 251.543C188.886 251.714 187.514 252.486 187.257 251.029C187.086 249.914 188.457 250 189.229 249.743C195.486 248.114 201.4 245.629 206.8 242.114C209.114 241 211.171 239.543 213.057 237.829C214.086 237.057 215.114 236.2 216.229 235.514C219.486 233.543 220.171 230.8 219.914 227.114C219.057 215.971 218.371 204.743 216.571 193.686C214.771 182.286 212.029 171.057 208.343 160.086C208.086 159.4 208.171 158.457 207.229 158.2C206.629 158.029 206.114 158.457 205.943 158.971C204.914 161.886 202.171 162.486 199.943 163.857C198.057 164.371 196.086 164.971 194.2 165.486C189.486 166 184.771 167.114 180.057 165.657C178.429 165.143 176.886 164.714 175.257 165.057C172.6 165.571 171.743 164.8 171.657 161.886C171.4 148.429 168.143 135.657 162.314 123.486C161.629 122.029 161.029 120.657 158.971 121.171C159.057 121 158.971 120.829 158.8 120.657C160.257 120.571 161.8 120.571 163.257 120.486C163.429 120.657 163.514 121.171 163.857 120.657C163.686 120.743 163.429 120.914 163.257 121C162.229 121.257 162.486 121.771 163.086 122.2V122.371C169.6 134.971 172.943 148.257 172.514 162.486C172.514 163.257 172 164.543 173.543 164.286C174.829 164.114 176.714 164.8 177.057 162.743C177.4 160.514 179.029 159.743 180.657 158.8C183.143 157.343 186.057 156.914 188.714 155.886C192.229 155.543 195.743 155.2 199.257 154.943C201.143 155.543 203.286 155.371 204.914 156.743C205.429 157.171 206.029 157.514 206.714 157.086C207.486 156.486 206.971 155.886 206.714 155.286C201.314 140.543 194.114 126.743 184.686 114.143C184 113.2 183.4 112.857 182.286 113.629C179.286 115.771 175.857 117.057 172.514 118.6C170.371 118.943 168.314 120.4 165.571 119.457C168.571 118.6 171.229 118 173.543 116.714C179.371 114.571 184.086 110.886 188.8 105.486C185.543 106.171 184.6 104.457 183.314 103.086C181.857 96.5714 182.543 90.4857 185.971 84.6571C187.429 83.3714 188.457 81.5714 190.514 80.8857C192.229 80.3714 191.286 79.3429 190.857 78.5714C188.286 73.8571 184.943 69.8286 180.4 66.9143C174.743 62.4571 168.314 59.6286 161.286 58.2571C158.457 57.1429 155.457 57.0571 152.457 56.7143C140.543 55.5143 129.229 57.2286 119.029 64C116.886 65.3714 112.771 66.7429 117.229 70.2571C117.4 70.3429 117.4 70.6857 117.486 70.8571C119.971 77.1143 115.343 90.0571 109.343 92.8C107.714 93.5714 107.714 94.0857 108.314 95.4571C110.8 101.457 114.914 106.171 119.971 110.114C122.8 112.343 126.143 113.971 129.143 115.857C122.629 118.857 117.829 123.571 113.2 128.714C112.171 129.914 113.029 130.343 113.714 131.114C119.543 137.886 124 145.429 125.714 154.343C126.4 159.143 127.086 163.943 127.257 168.829C127.857 183.143 126.743 197.286 125.371 211.514C124 220.686 122.629 229.857 121.257 239.029C120.571 243.486 120.571 243.4 125.2 244.857C125.886 245.457 126.743 245.714 127.6 245.8C139.686 250.771 152.286 253.429 165.4 253C166.857 252.914 169.343 251.714 169.6 253.686C169.771 255.057 166.857 254.714 165.314 254.886C153.143 256.171 141.314 254.029 129.571 251.029C128.029 250.6 126.314 250.171 124.686 249.657ZM100.857 314.8C100.686 314.714 100.429 314.457 100.343 314.457C99.9143 314.629 100.086 314.971 100.257 315.229C100.943 317.114 101.629 319 102.314 320.8C104.8 327.486 109.686 331.086 116.714 332.029C122.714 332.8 128.8 333.743 134.886 333.486C142.514 333.229 151 326.971 153.829 319.343C147.486 321.229 141.143 322.086 134.714 322.171C122.8 322.429 111.657 319.257 100.857 314.8ZM57.4857 258.229C57.3143 258.057 57.0572 257.8 56.9715 257.886C56.5429 258.057 56.7143 258.4 56.8857 258.743C57.6572 263.2 59.2 267.314 61.2572 271.257C68.8 285.4 82.2572 287.457 95.3715 281.8C97.6 280.857 98.0286 279.657 96.9143 277.514C95.9715 275.543 95.3715 273.4 94.6858 271.257C94.0858 269.286 94.2572 266.543 92.9715 265.343C91.6 264.057 89.1143 265.857 87.0572 265.857C86.6286 265.857 86.2 265.943 85.7715 265.943C75.4857 266.8 66.2286 263.629 57.4857 258.229ZM99.3143 203.286C98.4572 203.371 97.3429 202.771 96.9143 204.057H96.6572C96.3143 203.8 95.9715 203.457 95.6286 203.457C83.7143 203.286 73 199.429 63.4857 192.4C62.0286 191.286 61.7715 192.057 61.3429 193.343C55 212.8 52.8572 232.686 55.7715 253.086C55.9429 254.371 56.0286 255.657 57.4 256.514C64.6 260.971 72.1429 264.143 80.7143 264.4C83.8857 264.743 87.0572 264.4 90.2286 264.057C93.0572 263.714 93.4 262.429 93.4 260.029C93.2286 253.429 95.5429 248.114 102.229 245.543C105.314 245.029 108.314 244.171 111.143 246.4C113.8 248.543 113.371 251.886 114.4 255.4C119.371 234.743 122.543 214.514 124.257 193.429C118.943 197.2 113.714 199.514 108.4 201.571C105.314 202.086 102.314 202.686 99.3143 203.286ZM82.6 155.2C82.7715 157.857 82.7715 161.286 86.2 162.914C88.6 164.029 91.0858 162.229 93.4 157.857C98.1143 148.771 103 139.857 109.257 131.8C109.686 131.2 110.457 130.686 109.514 129.914C106.429 127.257 101.029 125.714 97.9429 129.571C93.7429 134.886 89.4572 140.114 85.6857 145.686C83.8857 148.343 82.6 151.257 82.6 155.2ZM100.429 249.314C100.686 250.257 100.771 250.429 100.771 250.6C100.6 251.371 100.343 252.057 100.171 252.829C98.2 259.771 98.1143 266.8 99.7429 273.829C100.171 275.886 100.257 279.229 102.4 279.4C104.457 279.571 106 276.914 107.371 274.943C110.371 270.486 110.8 265.171 112.086 260.2C112.943 256.943 112.686 253.857 112 250.686C111.4 247.771 109.514 246.314 106.6 246.4C101.629 246.486 97.2572 249.571 95.8857 254.371C93.6572 262 95.8 269.2 98.5429 276.229C95.5429 267.229 96.0572 258.486 100.429 249.314ZM161.457 316.086C162.057 317.8 162.743 319.086 163 320.457C163.771 323.629 165.657 325.171 168.829 325.943C176.714 327.914 184.6 328.086 192.486 326.2C199.343 324.571 203.714 318.743 203.629 311.543C190.086 317.457 176.029 318.143 161.457 316.086ZM101.714 125.2C105.229 125.286 108.057 126.143 110.371 128.114C111.314 128.886 111.829 128.629 112.6 127.857C116.714 123.143 121.343 119.114 127.171 115.771C123.743 113.886 120.657 112.257 117.914 109.943C116.971 109.171 116.371 109.686 115.686 110.371C110.971 115.086 106.343 119.886 101.714 125.2ZM231.057 258.143C230.371 256.171 229.943 254.543 229.771 252.743C229.171 246.571 228.914 240.4 229.257 234.143C229.429 232.086 228.829 231.571 226.857 231.4C224.371 231.143 224.543 232.257 224.457 233.971C224.2 239.457 223.857 245.029 223.343 250.514C222.486 258.914 222.4 258.829 231.057 258.143ZM187.6 93.5714C187.514 94.7714 187.429 95.9714 187.429 97.1714C187.429 98.3714 187.429 99.5714 187.514 100.857C187.6 102.657 188.457 103 189.829 101.8C190.6 101.029 191.629 100.171 191.8 99.2286C192.057 98.2 191.114 96.8286 193.257 97.0857C195.486 97.4286 198.571 96.4857 199.343 99.1429C199.771 100.6 199.943 101.114 201.143 101.2C202.6 101.371 203.457 100.429 203.886 99.2286C204.314 97.8571 203.714 96.8286 202.686 96.0571C202.086 95.6286 200.971 94.6 200.714 95.9714C200.457 97.6857 199.686 97 199 96.7429C194.114 95.2857 193.514 94.1714 193.943 89.0286C194.114 87.4857 194.114 85.3429 192.4 84.6571C190.857 84.0571 189.829 85.6857 188.971 86.8857C185.8 91.4286 184.086 96.4 185.114 102.057C185.8 99.0571 185.714 96.0571 187.6 93.5714ZM185.971 164.457C191.2 164.371 196.343 163.514 201.057 161.2C202.257 160.6 204.229 160.086 203.8 158.457C203.543 157.086 201.657 157.086 200.371 157C194.114 156.486 188.029 157.514 182.2 159.914C180.829 160.514 178.686 161.114 178.943 162.743C179.2 164.457 181.343 164.286 182.886 164.371C184 164.543 185.029 164.457 185.971 164.457ZM192.657 119.629C192.486 119.457 192.4 119.286 192.229 119.2C192.057 119.2 191.886 119.286 191.714 119.371C191.886 119.543 192.057 119.8 192.314 119.886C192.314 119.971 192.486 119.714 192.657 119.629Z" fill="#2252A0"/>
<path d="M206.8 242.029C201.4 245.543 195.486 248.029 189.229 249.657C188.457 249.914 187 249.829 187.257 250.943C187.514 252.4 188.886 251.629 189.743 251.457C195.657 250.343 201.229 248.371 206.714 246.057C206.971 251.2 206.971 256.429 205.257 261.4C204.229 264.4 203.029 267.4 202 270.4C200.371 275.286 199.257 280.343 197.371 285.143C195.571 289.686 194.286 294.314 192.829 298.943C191.114 304 188.2 308.114 184.343 311.629C182.971 312.829 181.171 312.571 179.629 311.971C178.257 311.371 178.086 310 178.086 308.629C178.086 306.571 178 304.514 177.657 302.371C177.057 298.343 176.457 294.4 176.971 290.2C177.229 288.057 177.914 284.714 174.229 283.686C174.657 282.143 175.171 280.686 175.343 279.143C175.514 277.257 174.657 277.429 173.543 278.457C172.171 278.2 171.143 278.714 170.371 279.743C166.171 285.057 161.629 290.286 157.857 295.857C154.171 301.343 150.057 306.571 146.286 311.971C144.486 314.457 141.571 316.514 142.171 320.286C127.857 321.571 114.143 318.657 100.857 313.514C99.8286 313.171 99.1429 312.571 98.9714 311.457C98.4572 309.057 97.9429 306.743 97.4286 304.343C99.6572 304.943 101.114 303.314 102.829 302.371C110.029 298.514 114.914 292.257 119.286 285.829C122.457 281.114 124.429 275.543 126.143 270.057C128.029 263.886 130.943 257.886 129.914 251.114C141.657 254.114 153.486 256.343 165.657 254.971C167.2 254.8 170.114 255.057 169.943 253.771C169.771 251.886 167.2 253.086 165.743 253.086C152.629 253.514 140.029 250.857 127.943 245.886C131.2 246.143 132.057 244 132.143 241.343C132.229 238.943 132.657 236.457 132.743 234.143C133.343 219.486 134.029 204.829 134.8 190.171C135.143 184.429 135.143 178.686 134.2 172.943C133.171 166.771 132.657 160.514 129.571 154.857C128.371 152.629 127.6 151.857 126.057 154.429C124.429 145.514 119.971 137.971 114.057 131.2C113.371 130.429 112.514 129.914 113.543 128.8C118.086 123.657 122.971 118.857 129.486 115.943C126.4 114.057 123.143 112.429 120.314 110.2C115 106.171 110.886 101.457 108.4 95.4571C107.8 94.0857 107.8 93.5714 109.429 92.8C115.429 90.0571 120.057 77.0286 117.571 70.8571C117.486 70.6857 117.486 70.3429 117.314 70.2571C112.943 66.7429 117.057 65.3714 119.114 64C129.314 57.2286 140.629 55.5143 152.543 56.7143C155.457 57.0571 158.543 57.1429 161.371 58.2571C160.857 63.3143 164.629 66.1429 167.029 69.7429C169.171 72.8286 172.429 75.4 172 79.7714C171.057 79.2571 170.029 78.7429 169.086 78.3143C156.571 71.9714 143.629 70.3429 130.171 74.9714C127.429 75.9143 124.857 77.2 122.714 79.2571C120.829 81.0571 119.8 86.0286 120.914 88.2571C122.286 91.0857 124.943 90.5714 127.343 90.4C130.171 90.1429 133.086 89.8857 135.914 89.2857C149.714 86.2 161.286 90.8286 172.086 98.9714C170.8 102.4 167.886 105.229 168.743 109.343C169.6 113.286 167.371 115.857 164.371 117.4C162.486 118.429 163.343 119.371 163.343 120.486C161.886 120.571 160.343 120.571 158.886 120.657C156.4 120.4 154 120.486 151.686 121.514C154.171 121.257 156.657 122.543 159.057 121.171C161.114 120.657 161.714 122.029 162.4 123.486C168.229 135.657 171.486 148.429 171.743 161.886C171.829 164.8 172.686 165.571 175.343 165.057C176.971 164.8 178.514 165.143 180.143 165.657C184.857 167.114 189.571 166 194.286 165.486C194.543 165.829 195.057 166.086 195.143 166.429C197.8 175.771 201.743 184.686 203.629 194.2C205.429 203.286 208.086 212.286 207.229 221.543C206.543 228.4 206.629 235.171 206.8 242.029ZM153.486 107.714C154.257 108.571 154.943 109.086 155.286 109.686C155.971 110.971 156.829 110.8 157.686 110.029C158.114 109.686 159.143 109.6 158.8 108.743C158.371 107.629 157.514 107.971 156.657 108.057C155.714 108.057 154.857 107.8 153.486 107.714Z" fill="#F4F4F6"/>
<path d="M80.7143 264.314C72.1429 264.057 64.6 260.886 57.4 256.429C56.0286 255.571 55.9429 254.286 55.7715 253C52.8572 232.686 54.9143 212.714 61.3429 193.257C61.7715 191.971 62.0286 191.2 63.4858 192.314C73 199.343 83.7143 203.286 95.6286 203.371C95.9715 203.371 96.3143 203.8 96.6572 203.971C94.9429 204.829 94.7715 206.714 94.2572 208.171C90.8286 218.2 87.4 228.229 84.7429 238.514C82.6 247 81.6572 255.657 80.7143 264.314Z" fill="#F4F4F6"/>
<path d="M103.514 200.714C88.9429 203.8 75.9143 199.771 63.8286 191.629C62.8857 190.943 62.2 190.343 62.7143 188.971C67.3429 176.286 73.4286 164.286 81.1429 152.971C81.4 155.286 81.2286 157.514 82.0857 159.657C82.8572 161.8 83.8 163.857 86.2857 164.371C88.9429 164.886 91.1714 163.943 92.7143 161.714C94.4286 159.229 95.9714 156.657 97.3429 154C100.943 147.229 104.886 140.714 109.086 134.371C110.8 131.8 111.829 132.229 113.457 133.943C114.486 135.057 115.514 136.257 116.114 137.714C114.4 137.543 113.543 137.971 113.371 140.029C112.857 146.629 112.171 153.143 111.4 159.743C110.2 170.371 108.657 180.914 105.314 191.114C104.286 194.2 102.657 197.286 103.514 200.714Z" fill="#F4F4F6"/>
<path d="M80.7143 264.314C81.6572 255.657 82.6857 247.086 84.7429 238.6C87.3143 228.314 90.7429 218.286 94.2572 208.257C94.7714 206.8 94.9429 204.914 96.6572 204.057H96.9143C97.9429 204.4 98.8857 204.657 99.3143 203.286C102.314 202.686 105.314 202.086 108.314 201.486C110.029 202.771 109.429 204.486 109.171 206.029C107.371 215.029 105.229 224.029 103.6 233.114C102.914 237.143 101.371 241.257 102.229 245.457C95.5429 248.029 93.2286 253.343 93.4 259.943C93.4857 262.429 93.1429 263.714 90.2286 263.971C87.0572 264.314 83.8857 264.571 80.7143 264.314Z" fill="#DDDBDC"/>
<path d="M172 79.8571C172.429 75.4857 169.086 72.9143 167.029 69.8286C164.629 66.2286 160.857 63.3143 161.371 58.3429C168.4 59.7143 174.829 62.5429 180.486 67C179.114 67.1714 178.429 67.6 179.457 69.0571C180.229 70.1714 180.743 71.6286 181.429 72.7429C183.743 76.5143 182.971 81.4 186.057 84.7429C182.629 90.4857 181.857 96.6571 183.4 103.171C178.771 106.257 175.6 110.886 172 115C170.543 116.629 172.686 116.457 173.543 116.8C171.143 118.086 168.571 118.771 165.571 119.543C168.314 120.486 170.371 119.029 172.514 118.686C172 119.8 172 120.571 173.371 121.343C175.686 122.629 177.829 124.171 179.8 125.971C188.8 134.029 193.514 144.914 199.257 155.114C195.743 155.457 192.229 155.8 188.714 156.057C188.2 155.114 187.6 154.171 187.171 153.143C182.971 142.429 176.714 133.086 168.657 124.857C167.114 123.229 165.4 122.2 163.086 122.457V122.286C163.171 121.857 163.171 121.514 163.257 121.086C163.429 121 163.686 120.829 163.857 120.743C163.429 121.171 163.429 120.657 163.257 120.571C163.257 119.457 162.314 118.514 164.286 117.486C167.2 115.943 169.429 113.371 168.657 109.429C167.8 105.314 170.714 102.486 172 99.0571C172.343 99.0571 172.686 99.0571 173.029 99.1429C176.286 99.5714 178.857 98.8 180.314 95.4571C181.857 91.9429 182.286 88.8571 179.114 85.7714C176.886 83.5429 174.4 81.8286 172 79.8571Z" fill="#DDDBDC"/>
<path d="M102.229 245.457C101.371 241.171 102.914 237.143 103.6 233.114C105.229 224.029 107.286 215.114 109.171 206.029C109.514 204.486 110.029 202.771 108.314 201.486C113.714 199.429 118.857 197.029 124.171 193.343C122.457 214.429 119.286 234.657 114.314 255.314C113.286 251.8 113.714 248.457 111.057 246.314C108.314 244.086 105.229 244.943 102.229 245.457Z" fill="#CAC8C8"/>
<path d="M214 242.114C215.8 240.829 217.6 239.543 219.743 238C220.257 242.714 219.571 247.086 219.143 251.371C217.171 270.743 212.2 289.514 205.857 307.857C205.429 309.229 204.743 310.086 203.286 310.6C199.171 311.971 195.143 313.514 190.857 313.943C190 312.571 190.257 311.543 191.029 310C193.857 304.514 197.543 299.457 200.114 293.886C205 283.343 207.486 272.029 211.429 261.143C213.657 255.057 213.4 248.543 214 242.114Z" fill="#CAC8C8"/>
<path d="M57.4857 258.229C66.1429 263.629 75.4 266.886 85.8572 265.857C86.2857 265.857 86.7143 265.771 87.1429 265.771C89.2 265.771 91.6857 263.971 93.0572 265.257C94.3429 266.457 94.1714 269.2 94.7714 271.171C95.3714 273.314 95.9714 275.457 97 277.429C98.1143 279.571 97.6857 280.771 95.4571 281.714C82.3429 287.371 68.8857 285.314 61.3429 271.171C59.2857 267.229 57.6571 263.114 56.9714 258.657C57.1429 258.486 57.3143 258.314 57.4857 258.229Z" fill="#CFCECD"/>
<path d="M199.943 163.771C202.171 162.4 204.914 161.714 205.943 158.886C206.114 158.371 206.629 157.943 207.229 158.114C208.171 158.371 208.086 159.314 208.343 160C212.029 170.971 214.771 182.2 216.571 193.6C218.371 204.657 219.057 215.886 219.914 227.029C220.171 230.714 219.486 233.457 216.229 235.429C215.114 236.114 214.086 236.971 213.057 237.743C212.029 237.657 211.343 237.229 211.343 236.114C211.429 230.886 210.829 225.657 211.6 220.514C212.2 216.571 212.371 212.457 211.771 208.6C209.8 195.657 206.2 182.971 201.743 170.714C200.971 168.486 199.771 166.343 199.943 163.771Z" fill="#CAC8C8"/>
<path d="M125.8 154.514C127.257 151.857 128.114 152.714 129.314 154.943C132.4 160.6 133 166.857 133.943 173.029C134.886 178.686 134.886 184.514 134.543 190.257C133.771 204.914 133 219.571 132.486 234.229C132.4 236.629 132.057 239.029 131.886 241.429C131.8 244.086 130.943 246.229 127.686 245.971C126.743 245.971 125.971 245.629 125.286 245.029C126.057 243.057 125.629 240.829 126.143 238.857C128.029 230.8 127.6 222.571 127.943 214.429C128.029 212.714 127.257 211.686 125.457 211.686C126.829 197.457 127.943 183.314 127.343 169C127.171 164.114 126.486 159.314 125.8 154.514Z" fill="#DDDBDC"/>
<path d="M100.857 314.8C111.743 319.257 122.886 322.343 134.714 322.171C141.143 322.086 147.486 321.314 153.829 319.343C151 326.971 142.514 333.229 134.886 333.486C128.714 333.743 122.714 332.8 116.714 332.029C109.771 331.086 104.8 327.486 102.314 320.8C101.629 318.914 100.943 317.114 100.257 315.229C100.429 315.143 100.6 314.971 100.857 314.8Z" fill="#CFCECD"/>
<path d="M214 242.114C213.4 248.543 213.571 255.057 211.343 261.229C207.4 272.114 204.914 283.429 200.029 293.971C197.457 299.543 193.771 304.6 190.943 310.086C190.171 311.543 190 312.657 190.771 314.029C186.143 315.057 181.429 315.229 176.629 315.314C176.457 314.457 176.371 313.6 176.114 312.743C174.657 308.457 175.857 303.743 174.571 299.457C173.886 297.314 174.4 294.057 170.457 294.4C171.657 290.8 172.857 287.286 174.057 283.686C177.657 284.714 177.057 288.057 176.8 290.2C176.286 294.4 176.971 298.343 177.486 302.371C177.743 304.514 177.914 306.571 177.914 308.629C177.914 310.086 178.086 311.457 179.457 311.971C181 312.571 182.8 312.829 184.171 311.629C188.029 308.114 190.943 304 192.657 298.943C194.2 294.314 195.4 289.686 197.2 285.143C199.086 280.343 200.286 275.286 201.829 270.4C202.857 267.4 204.057 264.4 205.086 261.4C206.8 256.429 206.8 251.286 206.543 246.057C209.114 244.771 211.6 243.486 214 242.114Z" fill="#DDDBDC"/>
<path d="M226 181C219.143 184.429 219.143 184.429 217.257 177.143C212.2 157.6 204.657 139.171 193.429 122.286C193 121.686 192.314 121.171 192.571 120.314C193.086 119.886 193.429 120.143 193.771 120.4C201.229 126.743 208.257 133.429 214.686 140.8C215.029 141.143 215.114 141.743 215.286 142.257C215.114 143.971 215.457 145.514 216.229 147.057C219.914 155.114 222.057 163.686 224.457 172.171C225.229 174.914 227.286 177.743 226 181Z" fill="#CAC8C8"/>
<path d="M96.2286 299.8C96.0572 298.943 95.8857 298.086 95.6286 297.229C94.0857 291.229 94.1714 286.857 101.029 282.914C111.057 277.257 115.086 266.543 118 255.743C118.429 254.114 118.943 252.571 119.114 250.943C119.371 248.114 120.571 247.6 122.886 248.886C123.486 249.229 124.086 249.4 124.686 249.657C124.771 250.514 125.2 251.457 125.029 252.229C123.571 259.086 121.6 265.857 119.286 272.457C116.714 279.571 112.943 286.086 107.971 291.743C104.714 295.343 101.371 298.943 96.2286 299.8Z" fill="#CAC8C8"/>
<path d="M122.629 151.686C124.257 156.829 124.514 162.143 124.771 167.457C125.114 174.571 124.771 181.6 124.6 188.714C124.514 191.114 123.657 192.571 121.514 193.686C117.914 195.571 114.571 197.886 110.457 198.657C109.171 197.971 108.571 197.2 109 195.486C110.371 190.086 111.486 184.514 112.686 179.029C114.4 171.057 116.2 163.086 118.686 155.286C119.286 153.486 119.8 151.343 122.629 151.686Z" fill="#CAC8C8"/>
<path d="M82.6 155.2C82.6857 151.257 83.8857 148.343 85.6857 145.6C89.4571 140.029 93.7429 134.714 97.9429 129.486C101.029 125.629 106.429 127.171 109.514 129.829C110.457 130.6 109.771 131.2 109.257 131.714C103 139.771 98.1143 148.686 93.4 157.771C91.0857 162.143 88.6 163.943 86.2 162.829C82.7714 161.286 82.7714 157.857 82.6 155.2Z" fill="#F4F4F6"/>
<path d="M199.343 155.029C193.6 144.829 188.886 133.943 179.886 125.886C177.914 124.086 175.771 122.543 173.457 121.257C172.086 120.486 172.086 119.8 172.6 118.6C175.943 117.143 179.371 115.771 182.371 113.629C183.486 112.857 184.086 113.2 184.771 114.143C194.2 126.743 201.4 140.543 206.8 155.286C206.971 155.886 207.571 156.486 206.8 157.086C206.114 157.6 205.6 157.257 205 156.743C203.286 155.457 201.229 155.543 199.343 155.029Z" fill="#CAC8C8"/>
<path d="M235.257 224.114C233.8 225.314 232 226.343 231.4 228.143C230.286 231.143 228.057 230.371 225.914 230.114C223.257 229.771 224.2 227.629 224.2 226.257C223.943 213.486 222.4 200.886 219.743 188.457C219.229 185.886 219.743 184.857 222.143 184.343C223.6 184 225.057 183.314 226.429 182.714C226.943 184.257 227.543 185.8 227.886 187.429C229.686 196 231.4 204.657 233.114 213.229C233.886 216.743 234.571 220.429 235.257 224.114Z" fill="#CAC8C8"/>
<path d="M100.429 249.314C96.0572 258.486 95.5429 267.229 98.4572 276.229C95.7143 269.114 93.5715 262 95.8 254.371C97.1715 249.571 101.543 246.486 106.514 246.4C109.514 246.4 111.314 247.771 111.914 250.686C112.6 253.857 112.771 257.029 112 260.2C110.714 265.257 110.371 270.486 107.286 274.943C105.914 276.914 104.371 279.571 102.314 279.4C100.171 279.143 100.171 275.886 99.6572 273.829C98.0286 266.8 98.1143 259.771 100.086 252.829C100.257 252.057 100.514 251.371 100.686 250.6C100.771 250.429 100.686 250.257 100.429 249.314Z" fill="#CFCECD"/>
<path d="M161.457 316.086C176.029 318.143 190.086 317.457 203.629 311.543C203.714 318.743 199.343 324.571 192.486 326.2C184.6 328.086 176.714 327.829 168.829 325.943C165.657 325.171 163.771 323.629 163 320.457C162.657 319.086 162.057 317.8 161.457 316.086Z" fill="#CFCECD"/>
<path d="M163.257 122.371C165.571 122.114 167.286 123.229 168.829 124.771C176.8 133 183.057 142.343 187.343 153.057C187.771 154.086 188.371 155.029 188.886 155.971C186.229 157 183.4 157.429 180.829 158.886C179.2 159.829 177.571 160.6 177.229 162.829C176.886 164.886 175 164.114 173.714 164.371C172.171 164.629 172.686 163.343 172.686 162.571C173.114 148.343 169.771 134.971 163.257 122.371Z" fill="#F4F4F6"/>
<path d="M142 320.286C141.4 316.6 144.4 314.457 146.114 311.971C149.971 306.571 154 301.429 157.686 295.857C161.457 290.2 166 285.057 170.2 279.743C170.971 278.714 172.086 278.2 173.371 278.457C170.114 289.343 165.829 299.8 160.429 309.743C160.343 309.829 160.257 309.914 160.257 310C157.514 319.257 149.971 320.2 142 320.286Z" fill="#DDDBDC"/>
<path d="M199.943 163.771C199.771 166.343 200.886 168.486 201.743 170.714C206.286 183.057 209.8 195.657 211.771 208.6C212.371 212.457 212.2 216.486 211.6 220.514C210.829 225.657 211.429 230.886 211.343 236.114C211.343 237.229 212.029 237.657 213.057 237.743C211.171 239.457 209.114 240.914 206.8 242.029C206.629 235.171 206.543 228.4 207.143 221.543C208 212.2 205.257 203.2 203.543 194.2C201.657 184.6 197.714 175.771 195.057 166.429C194.971 166.086 194.457 165.743 194.2 165.486C196.171 164.886 198.057 164.371 199.943 163.771Z" fill="#DDDBDC"/>
<path d="M245.371 224.286C244 222.4 241.857 222.657 239.971 222.314C241 217.686 238.943 213.4 238.171 209.029C236.629 199.086 234.4 189.143 232.429 179.2C233.543 178.171 235.086 177.657 235.943 176.286L235.857 176.371C236.886 175.857 237.657 175 238.514 176.886C244.943 191.543 248.371 206.714 247.086 222.743C247.086 223.943 247.429 225.743 245.371 224.286Z" fill="#F4F4F6"/>
<path d="M245.371 224.286C246.743 234.143 243.4 243.314 240.743 252.486C240.486 253.257 239.886 254.029 239.371 254.714C238.257 256.086 236.629 257.714 235 257.286C233.371 256.857 234.143 254.629 234.057 253.171C233.8 248.114 233.2 243.057 233.629 237.914C233.886 234.743 234.314 231.571 235.6 228.571C235.771 228.314 236.029 228.057 236.2 227.8C236.286 227.629 236.371 227.371 236.543 227.2C236.371 227.286 236.2 227.457 236.029 227.543C235.771 227.714 235.514 227.971 235.343 228.143C232.514 231.143 232.429 234.914 232.086 238.6C231.657 244.257 231.829 249.829 232.771 256.086C230.971 253.171 231.571 250.514 231.229 248.029C230.629 243.657 230.457 239.2 230.714 234.829C231.143 226.171 236.629 222.229 244.943 224.457C244.943 224.629 245.2 224.371 245.371 224.286Z" fill="#CFCECD"/>
<path d="M122.629 151.686C119.886 151.257 119.286 153.4 118.771 155.286C116.286 163.086 114.486 171.057 112.771 179.029C111.571 184.514 110.457 190 109.086 195.486C108.657 197.2 109.171 197.971 110.543 198.657C108.4 200.029 106 200.371 103.6 200.714C102.743 197.2 104.371 194.2 105.4 191.114C108.743 180.914 110.2 170.371 111.486 159.743C112.257 153.143 112.943 146.629 113.457 140.029C113.629 138.057 114.486 137.543 116.2 137.714C119.371 141.829 121.343 146.629 122.629 151.686Z" fill="#DDDBDC"/>
<path d="M96.2286 299.8C101.371 298.943 104.714 295.343 107.886 291.743C112.857 286.086 116.714 279.571 119.2 272.457C121.514 265.857 123.486 259.086 124.943 252.229C125.114 251.457 124.771 250.514 124.6 249.657C126.229 250.171 127.943 250.686 129.571 251.2C130.6 257.971 127.686 263.971 125.8 270.143C124.171 275.629 122.2 281.2 118.943 285.914C114.571 292.343 109.686 298.6 102.486 302.457C100.771 303.4 99.4 305.029 97.0857 304.429C96.4857 302.886 96.4 301.343 96.2286 299.8Z" fill="#DDDBDC"/>
<path d="M232.429 179.286C234.4 189.229 236.629 199.086 238.171 209.114C238.857 213.486 241 217.771 239.971 222.4C238.429 223 236.8 223.514 235.257 224.114C234.571 220.429 233.886 216.743 233.2 213.143C231.486 204.571 229.771 195.914 227.971 187.343C227.629 185.714 227.029 184.171 226.514 182.629C228.486 181.514 230.457 180.4 232.429 179.286Z" fill="#DDDBDC"/>
<path d="M101.714 125.2C106.429 119.8 110.971 115 115.686 110.371C116.371 109.686 116.971 109.171 117.914 109.943C120.571 112.171 123.743 113.886 127.171 115.771C121.343 119.114 116.714 123.143 112.6 127.857C111.914 128.629 111.314 128.886 110.371 128.114C108.057 126.229 105.229 125.371 101.714 125.2Z" fill="#F4F4F6"/>
<path d="M170.543 294.314C174.4 293.971 173.971 297.229 174.657 299.371C175.943 303.657 174.743 308.286 176.2 312.657C176.457 313.514 176.543 314.371 176.714 315.229C172.171 315.914 167.629 315.057 163.086 314.886C161.543 314.8 161.543 314.114 162.143 313C165.4 307 167.8 300.571 170.543 294.314Z" fill="#CAC8C8"/>
<path d="M235.943 176.457C233.2 176.629 231.486 179.286 228.829 179.714C229.343 178.429 229.429 177.229 228.914 175.857C225.743 168.229 224.457 159.914 221.543 152.2C221.2 151.343 221.457 150.743 222.229 150.229C227.886 157.171 232.343 164.886 236.629 172.686C237.657 174.571 235.943 175.257 235.943 176.457Z" fill="#F4F4F6"/>
<path d="M231.057 258.143C222.4 258.914 222.486 258.914 223.257 250.514C223.771 245.029 224.114 239.457 224.371 233.971C224.457 232.257 224.371 231.057 226.771 231.4C228.743 231.657 229.343 232.086 229.171 234.143C228.743 240.314 229.086 246.571 229.686 252.743C229.943 254.543 230.371 256.171 231.057 258.143Z" fill="#CFCECD"/>
<path d="M187.6 93.5714C185.8 96.1429 185.8 99.1429 185.029 101.886C184 96.2286 185.629 91.2571 188.886 86.7143C189.743 85.5143 190.771 83.9714 192.314 84.4857C194.114 85.1714 194.029 87.3143 193.857 88.8571C193.429 94.0857 194.029 95.1143 198.914 96.5714C199.686 96.8286 200.371 97.5143 200.629 95.8C200.886 94.4286 202 95.4571 202.6 95.8857C203.629 96.6571 204.229 97.7714 203.8 99.0572C203.371 100.343 202.514 101.2 201.057 101.029C199.857 100.943 199.6 100.429 199.257 98.9714C198.571 96.3143 195.4 97.2571 193.171 96.9143C191.029 96.5714 191.971 98.0286 191.714 99.0572C191.457 100 190.514 100.857 189.743 101.629C188.457 102.829 187.6 102.486 187.429 100.686C187.343 99.4857 187.343 98.2857 187.343 97C187.429 95.9714 187.514 94.7714 187.6 93.5714Z" fill="#CAC8C8"/>
<path d="M111.829 83.5429C110.8 85.0857 109.771 86.7143 108.657 88.2571C108.4 88.6857 107.8 89.2 107.371 89.2C106.514 89.1143 106.6 88.2571 106.6 87.6571C106.6 86.4571 106.171 85 106.686 84.0571C107.886 81.9143 106.171 80.3714 105.143 80.1143C103.686 79.7714 101.886 77.0286 100.257 80.1143C99.7429 80.9714 98.6286 80.3714 97.9429 79.7714C96.7429 78.8286 96.5714 77.5429 97.1714 76.1714C97.6857 74.8857 98.8 74.2857 100.086 74.5429C100.686 74.6286 102.314 74.5429 101.029 76.0857C100.514 76.7714 101.114 77.0286 101.629 77.2857C104.457 79.0857 108.571 77.6286 109.943 74.6286C110.629 73.0857 111.743 71.3714 113.457 71.4571C115.343 71.6286 115.171 73.7714 115.257 75.2286C115.514 78.9143 114.657 82.5143 113.286 85.9429C113.029 86.5429 112.771 87.5714 111.486 87.0571C111.829 86.1143 112.171 85.0857 112.429 84.1429C112.6 83.6286 112.771 83.2 112.857 82.6857C112.943 82.4286 113.114 82.0857 113.029 82C112.686 81.7429 112.6 82.0857 112.514 82.3429C111.914 82.5143 111.914 83.0286 111.829 83.5429Z" fill="#DDDBDC"/>
<path d="M125.543 211.686C127.343 211.771 128.114 212.714 128.029 214.429C127.686 222.571 128.114 230.8 126.229 238.857C125.714 240.829 126.143 243.057 125.371 245.029C120.657 243.571 120.743 243.571 121.429 239.2C122.8 230.029 124.171 220.857 125.543 211.686Z" fill="#CAC8C8"/>
<path d="M185.971 164.457C184.943 164.457 184 164.543 182.971 164.457C181.429 164.286 179.286 164.457 179.029 162.829C178.771 161.2 180.914 160.6 182.286 160C188.114 157.514 194.114 156.486 200.457 157.086C201.743 157.171 203.543 157.171 203.886 158.543C204.229 160.257 202.343 160.771 201.143 161.286C196.343 163.6 191.2 164.371 185.971 164.457Z" fill="#F4F4F6"/>
<path d="M222.229 150.229C221.457 150.657 221.2 151.343 221.543 152.2C224.457 159.914 225.743 168.229 228.914 175.857C229.429 177.143 229.343 178.429 228.829 179.714C228.057 180.486 227.029 180.829 225.914 181.086C227.286 177.829 225.143 175 224.371 172.257C221.971 163.771 219.914 155.2 216.143 147.143C215.457 145.6 215.029 144.057 215.2 142.343C216.571 143.286 217.857 144.229 218.457 145.857C218.457 146.886 218.629 147.914 220.086 147.743C221.114 148.343 221.8 149.2 222.229 150.229Z" fill="#DDDBDC"/>
<path d="M186.143 84.6571C183.057 81.3143 183.829 76.4286 181.514 72.6571C180.829 71.5429 180.314 70.1714 179.543 68.9714C178.514 67.4286 179.2 67.0857 180.571 66.9143C185.114 69.8286 188.457 73.8571 191.029 78.5714C191.457 79.3429 192.4 80.3714 190.686 80.8857C188.629 81.5714 187.6 83.3714 186.143 84.6571Z" fill="#CAC8C8"/>
<path d="M173.629 116.714C172.771 116.371 170.629 116.543 172.086 114.914C175.686 110.8 178.857 106.171 183.486 103.086C184.686 104.457 185.714 106.171 188.971 105.486C184.171 110.886 179.457 114.571 173.629 116.714Z" fill="#CAC8C8"/>
<path d="M158.971 121.086C156.571 122.457 154.086 121.257 151.6 121.429C153.914 120.4 156.314 120.314 158.8 120.571C159.057 120.743 159.057 120.914 158.971 121.086Z" fill="#CFCECD"/>
<path d="M220.257 147.657C218.8 147.743 218.714 146.8 218.629 145.771C219.143 146.371 219.657 147.057 220.257 147.657Z" fill="#F4F4F6"/>
<path d="M99.3143 203.286C98.8857 204.657 97.9429 204.486 96.9143 204.057C97.3429 202.771 98.3714 203.371 99.3143 203.286Z" fill="#F4F4F6"/>
<path d="M192.657 119.629C192.486 119.714 192.314 119.971 192.229 119.971C191.971 119.886 191.8 119.629 191.629 119.457C191.8 119.371 192.057 119.2 192.143 119.286C192.4 119.2 192.486 119.457 192.657 119.629Z" fill="#CAC8C8"/>
<path d="M99.4 278.286C99.8286 278.457 100 278.8 99.9143 279.229C99.9143 279.314 99.7429 279.4 99.6572 279.4C99.2286 279.229 99.0572 278.886 99.1429 278.457L99.4 278.286Z" fill="#CFCECD"/>
<path d="M99.2286 278.457C99.0572 278.114 98.8857 277.771 98.7143 277.429C98.7143 277.429 98.9714 277.257 99.0572 277.171C99.1429 277.514 99.3143 277.943 99.4 278.286L99.2286 278.457Z" fill="#CFCECD"/>
<path d="M56.9714 258.657C56.8 258.314 56.6286 258.057 57.0571 257.8C57.1428 257.8 57.4 258.057 57.5714 258.143C57.3143 258.314 57.1428 258.486 56.9714 258.657Z" fill="#CFCECD"/>
<path d="M163.343 121C163.257 121.429 163.257 121.771 163.171 122.2C162.571 121.771 162.314 121.343 163.343 121Z" fill="#F4F4F6"/>
<path d="M100.171 315.314C100 315.057 99.8286 314.714 100.257 314.543C100.343 314.543 100.6 314.714 100.771 314.886C100.6 314.971 100.429 315.143 100.171 315.314Z" fill="#CFCECD"/>
<path d="M172 79.8571C174.4 81.8286 176.886 83.5429 179.2 85.7714C182.371 88.7714 181.857 91.9429 180.4 95.4571C178.943 98.8 176.371 99.5714 173.114 99.1429C172.771 99.0571 172.429 99.1429 172.086 99.0571C161.286 90.8286 149.629 86.2857 135.914 89.2857C133.086 89.8857 130.257 90.1429 127.343 90.4C124.943 90.5714 122.286 91.0857 120.914 88.2571C119.8 86.0286 120.914 80.9714 122.714 79.2571C124.857 77.2 127.429 75.9143 130.171 74.9714C143.629 70.2571 156.571 71.8857 169.086 78.3143C170.029 78.8286 170.971 79.3429 172 79.8571ZM170.8 90.7429C172.171 90.5714 173.029 89.8 172.943 88.4286C172.857 87.2286 172.086 86.3714 170.8 86.4571C169.343 86.4571 168.571 87.3143 168.657 88.7714C168.657 89.9714 169.514 90.5714 170.8 90.7429ZM132.914 84.4C134.2 84.2286 135.057 83.5429 135.143 82.2571C135.143 80.8857 134.286 79.8571 132.914 79.9429C131.543 80.0286 130.686 80.8857 130.771 82.3429C130.857 83.7143 131.714 84.3143 132.914 84.4Z" fill="#0F2548"/>
<path d="M153.486 107.714C154.857 107.886 155.714 108.057 156.571 107.971C157.429 107.886 158.371 107.543 158.714 108.657C159.057 109.6 158.029 109.6 157.6 109.943C156.743 110.629 155.886 110.8 155.2 109.6C154.857 109 154.257 108.571 153.486 107.714Z" fill="#2252A0"/>
<path d="M235.857 227.629C236.029 227.543 236.2 227.371 236.371 227.286C236.286 227.457 236.2 227.714 236.029 227.886C236.114 227.8 235.857 227.629 235.857 227.629Z" fill="#2252A0"/>
<path d="M235.171 228.229C235.429 228.057 235.686 227.8 235.857 227.629L236.114 227.886C235.943 228.143 235.686 228.4 235.514 228.657C235.429 228.486 235.343 228.4 235.171 228.229Z" fill="#2252A0"/>
<path d="M112.943 82.6857C112.771 83.2 112.6 83.6286 112.514 84.1429C112.257 83.9714 112.086 83.8 111.829 83.6286C111.914 83.1143 112 82.6 112.6 82.3429C112.686 82.4286 112.771 82.5143 112.943 82.6857Z" fill="#2252A0"/>
<path d="M112.514 82.2571C112.6 82 112.686 81.6571 113.029 81.9143C113.114 82 112.943 82.3429 112.857 82.6C112.771 82.5143 112.686 82.4286 112.514 82.2571Z" fill="#2252A0"/>
<path d="M170.8 90.7429C169.514 90.6571 168.657 89.9714 168.657 88.6857C168.571 87.2286 169.343 86.3714 170.8 86.3714C172.086 86.3714 172.857 87.1429 172.943 88.3429C173.029 89.8 172.171 90.5714 170.8 90.7429Z" fill="#CAC8C8"/>
<path d="M132.914 84.4C131.714 84.2286 130.857 83.7143 130.771 82.4286C130.686 80.9714 131.543 80.0286 132.914 80.0286C134.286 79.9429 135.229 80.9714 135.143 82.3429C135.057 83.5429 134.2 84.3143 132.914 84.4Z" fill="#CAC8C8"/>
</g>
<path d="M193.53 307.833L193.411 309.532C193.27 311.541 193.412 312.807 193.634 313.565C193.743 313.936 193.86 314.149 193.942 314.263C193.983 314.319 194.014 314.35 194.032 314.366C194.042 314.374 194.049 314.379 194.053 314.382C194.054 314.383 194.056 314.384 194.057 314.385C194.059 314.385 194.062 314.385 194.067 314.385C194.091 314.385 194.143 314.378 194.216 314.349C194.333 314.302 194.402 314.244 194.429 314.221C194.581 313.885 194.611 313.573 194.58 312.854C194.575 312.731 194.568 312.599 194.561 312.458C194.519 311.648 194.462 310.528 194.597 308.987L194.704 307.781L195.889 307.536C198.665 306.96 201.103 305.762 202.732 304.106C204.318 302.493 205.175 300.418 204.852 297.843C204.618 296.176 204.067 295.085 203.401 294.324C202.724 293.55 201.838 293.013 200.775 292.608C199.696 292.196 198.516 291.949 197.272 291.704C197.182 291.687 197.092 291.669 197 291.651C195.896 291.436 194.683 291.199 193.668 290.81L193.53 307.833ZM193.53 307.833L191.828 307.79C188.395 307.702 185.412 306.564 183.52 304.57C183.228 304.248 183.169 303.952 183.195 303.69C183.225 303.387 183.385 303.047 183.662 302.772C183.939 302.495 184.244 302.372 184.479 302.359C184.663 302.349 184.934 302.396 185.265 302.755C186.341 303.933 187.957 304.641 189.575 305.015C191.229 305.398 193.084 305.48 194.835 305.245C196.572 305.012 198.332 304.45 199.708 303.436C201.125 302.392 202.145 300.845 202.183 298.817L193.53 307.833ZM214.194 233.082L214.155 233.071L214.115 233.062C213.746 232.98 213.558 232.848 213.442 232.733C213.316 232.606 213.193 232.411 213.088 232.092C212.903 231.534 212.854 230.923 212.791 230.145C212.77 229.889 212.748 229.614 212.719 229.317L212.716 229.288L212.712 229.259C212.607 228.477 212.315 227.653 211.899 226.93C211.488 226.214 210.885 225.473 210.076 224.988C209.219 224.473 208.128 224.255 206.984 224.691C205.917 225.098 205.036 225.988 204.298 227.174C201.436 231.727 197.399 231.566 195.777 230.231L195.777 230.231L195.768 230.223C195.453 229.968 195.101 229.469 194.653 228.626C194.515 228.365 194.348 228.03 194.168 227.669C193.876 227.083 193.549 226.428 193.252 225.904C192.727 224.977 192.033 223.948 191.045 223.229C189.979 222.454 188.668 222.109 187.133 222.414L187.127 222.415C185.209 222.804 184.192 224.184 183.63 225.543C183.17 226.657 182.922 227.987 182.716 229.091C182.685 229.258 182.654 229.42 182.625 229.575C182.366 230.918 182.134 231.781 181.791 232.275C181.655 232.47 181.543 232.542 181.443 232.58C181.333 232.621 181.086 232.675 180.598 232.579C180.432 232.539 180.159 232.408 179.729 232.044C179.291 231.673 178.832 231.187 178.252 230.573L178.214 230.533C177.128 229.383 175.684 227.855 173.76 226.948L173.756 226.946C172.869 226.53 171.782 226.285 170.708 226.246C169.642 226.208 168.441 226.37 167.396 226.918C166.298 227.493 165.396 228.491 165.108 229.953C164.835 231.338 165.157 232.921 165.973 234.668C167.646 238.268 169.11 241.313 170.366 243.925C171.934 247.187 173.179 249.776 174.103 251.931C175.79 255.87 176.102 257.741 175.675 259.096C175.236 260.49 173.893 261.788 170.628 264.132C169.88 264.67 169.048 265.252 168.132 265.893C165.219 267.93 161.463 270.558 156.877 274.212C148.651 280.759 141.141 288.786 137.222 297.384C133.264 306.065 132.955 315.41 139.333 324.179L139.333 324.179C147.107 334.86 160.31 337.477 173.392 337.622C179.974 337.695 186.662 337.142 192.807 336.597C193.25 336.558 193.689 336.519 194.125 336.48C199.79 335.975 204.9 335.52 209.101 335.585C211.304 335.625 213.546 335.746 215.832 335.869C216.242 335.891 216.653 335.913 217.065 335.935C219.765 336.077 222.513 336.203 225.23 336.172C230.655 336.111 236.097 335.43 241.005 332.914L241.013 332.91L241.021 332.906C252.649 326.782 255.88 312.608 252.153 301.427C249.321 292.913 242.744 284.713 235.542 277.309C230.978 272.617 226.023 268.113 221.518 264.018C218.943 261.677 216.515 259.47 214.392 257.439C213.632 256.708 213.276 255.999 213.144 255.322C213.009 254.629 213.085 253.839 213.402 252.93C214.055 251.059 215.624 248.978 217.649 246.843C219.306 245.096 221.149 243.431 222.834 241.909C223.186 241.592 223.531 241.28 223.866 240.975C224.819 240.108 225.705 239.282 226.399 238.546C227.035 237.872 227.711 237.07 228.001 236.257C228.373 235.237 228.395 234.006 228.136 232.893C227.875 231.77 227.276 230.548 226.172 229.726C225.006 228.858 223.495 228.599 221.806 229.068C220.187 229.518 218.398 230.63 216.411 232.483C215.746 233.057 214.926 233.286 214.194 233.082ZM195.894 250.049C195.894 250.05 195.891 250.044 195.884 250.029C195.891 250.042 195.895 250.049 195.894 250.049ZM185.856 249.505C185.856 249.505 185.857 249.504 185.858 249.501C185.857 249.504 185.856 249.505 185.856 249.505ZM152.436 317.574L152.435 317.571C151.696 316.175 151.178 314.679 150.856 313.114C152.8 320.312 158.219 325.729 165.595 328.484C167.635 329.258 170.165 329.884 172.961 330.4C165.741 329.609 157.073 326.385 152.436 317.574ZM237.278 318.955C237.309 318.932 237.334 318.918 237.35 318.909C237.357 318.908 237.363 318.906 237.37 318.904C237.538 318.857 237.748 318.853 237.959 318.926C238.122 318.982 238.24 319.069 238.323 319.152C238.484 319.352 238.576 319.607 238.528 319.846C238.513 319.918 238.486 319.989 238.444 320.056C238.428 320.074 238.411 320.093 238.391 320.111C238.364 320.137 238.336 320.162 238.305 320.185C238.183 320.279 238.037 320.349 237.878 320.384C237.876 320.384 237.875 320.384 237.874 320.385C237.832 320.394 237.789 320.401 237.746 320.405C237.375 320.44 237.167 320.284 237.099 320.221C236.915 319.981 236.859 319.633 237.011 319.387C237.049 319.262 237.096 319.158 237.15 319.075C237.157 319.066 237.165 319.058 237.173 319.05C237.211 319.009 237.247 318.978 237.278 318.955ZM243.161 310.783L244.134 310.672C244.124 310.708 244.102 310.763 244.054 310.828C243.944 310.978 243.794 311.045 243.682 311.062C243.581 311.078 243.473 311.063 243.368 310.999C243.282 310.948 243.209 310.871 243.161 310.783ZM243.657 310.469L243.097 310.571C243.099 310.529 243.113 310.41 243.216 310.268C243.354 310.075 243.531 310.015 243.616 310.002C243.694 309.99 243.76 310.001 243.826 310.035C243.907 310.077 244.016 310.174 244.069 310.328L243.657 310.469Z" fill="#E9B6D3" stroke="#AC1269" stroke-width="3.25735"/>
<defs>
<clipPath id="clip0_1764_1901">
<rect width="299.439" height="108" fill="white" transform="translate(0 225)"/>
</clipPath>
<clipPath id="clip1_1764_1901">
<rect width="222" height="291.343" fill="white" transform="translate(37 52)"/>
</clipPath>
</defs>
</svg>
