<svg width="305" height="358" viewBox="0 0 305 358" fill="none" xmlns="http://www.w3.org/2000/svg">
<g clip-path="url(#clip0_1764_1904)">
<path d="M254.99 297.17C256.341 297.902 257.054 299.103 257.466 300.491C257.748 301.392 257.917 302.33 257.935 303.287C258.967 305.295 258.592 307.377 258.161 309.441C257.71 311.618 256.772 313.644 255.928 315.708C255.309 317.19 255.421 317.322 257.035 317.397C257.992 317.434 258.949 317.491 259.906 317.603C268.218 318.598 271.182 323.251 271.82 330.887C272.064 333.758 271.951 336.666 270.131 339.162C269.118 340.025 267.842 340.457 266.754 341.207C266.003 341.732 265.347 341.601 264.653 340.963C263.377 339.762 262.889 338.355 263.133 336.591C263.508 333.965 263.639 331.338 262.926 328.73C261.632 323.87 257.785 322.726 253.939 325.99C251.199 328.298 250.017 331.357 249.567 334.79C249.173 337.773 248.798 338.092 245.814 338.13C244.257 338.149 242.7 338.017 241.142 338.243C239.379 338.505 237.878 339.312 236.489 340.438C235.045 341.62 234.256 341.32 233.956 339.462C233.637 337.454 233.375 335.428 233.112 333.402C232.812 331.188 232.305 329.049 231.536 326.947C231.179 325.99 230.917 324.808 229.735 324.696C228.459 324.564 227.971 325.765 227.445 326.685C225.832 329.536 224.894 332.632 224.425 335.86C223.974 338.824 223.824 341.826 223.58 344.81C223.543 345.279 223.562 345.767 223.449 346.236C223.205 347.268 222.661 347.53 221.798 346.817C221.197 346.311 220.747 345.654 220.128 345.185C219.096 344.416 218.477 344.622 218.214 345.86C217.914 347.174 218.139 348.487 218.439 349.782C218.927 351.771 219.603 353.685 220.428 355.561C220.71 356.199 221.141 356.855 220.728 357.606C220.072 357.625 219.415 357.681 218.758 357.681C205.568 357.681 192.359 357.681 179.168 357.662C178.624 357.662 178.099 357.625 177.555 357.606C177.367 357.362 177.329 357.099 177.423 356.799C177.799 356.011 178.568 355.58 179.149 354.998C180.444 353.722 181.495 352.315 181.983 350.514C182.977 346.686 181.983 344.19 178.587 342.164C176.11 340.682 176.016 340.382 177.311 337.773C178.474 335.409 179.769 333.101 179.844 330.381C179.956 326.797 178.718 325.596 175.097 325.915C173.183 326.084 171.344 326.666 169.524 327.266C168.849 327.491 168.192 327.81 167.441 327.773C167.047 327.716 166.71 327.548 166.522 327.172C166.222 326.272 166.691 325.54 167.029 324.789C168.173 322.144 169.336 319.498 169.862 316.646C170.218 314.77 170.687 312.744 168.905 311.28C167.179 309.873 165.246 310.398 163.445 311.13C158.698 313.044 155.339 316.609 152.675 320.83C150.329 324.546 150.367 324.639 146.821 322.088C144.55 320.455 142.243 320.624 139.822 321.543C136.295 322.876 135.919 322.613 135.919 318.748C135.919 315.671 135.507 312.65 135 309.629C134.681 307.734 134.024 305.914 133.049 304.244C131.21 301.129 128.095 299.628 124.53 300.116C120.196 300.716 116.631 302.818 113.498 305.726C110.683 308.334 108.15 311.205 105.824 314.282C105.542 314.526 105.261 314.77 104.942 314.995C104.773 315.089 104.585 315.164 104.398 315.202C101.827 315.164 101.564 314.995 100.757 312.744C100.195 311.092 100.27 309.31 99.8569 307.64C99.5191 306.252 99.2752 304.826 98.3934 303.644C98.1682 303.381 97.9618 303.118 97.6053 303.024C97.4364 302.968 97.2863 302.874 97.1175 302.78C96.7234 302.499 96.4045 302.124 96.1793 301.711C93.7401 297.395 89.8374 296.251 85.278 296.851C81.2252 297.377 77.5476 298.953 74.4142 301.655C72.6317 303.193 72.0313 303.006 71.4121 300.735C70.6803 297.996 69.6109 297.152 66.6651 297.208C65.4079 297.227 64.6574 296.757 64.6574 295.5C64.6574 292.48 64.2821 289.515 63.4753 286.625C63.344 286.138 63.4378 285.669 63.7755 285.274C63.7193 283.53 64.0195 281.803 64.2446 280.077C64.6762 276.568 65.3516 273.097 66.3836 269.701C67.0778 267.393 67.9222 265.161 68.9917 263.003C69.3294 262.309 69.7234 261.614 70.1175 260.958C70.5115 260.282 70.9993 259.682 71.5622 259.138C73.8138 256.942 76.9284 257.092 78.861 258.312C80.0994 259.081 81.1689 260.019 82.107 261.145C83.0452 262.252 83.7957 263.472 84.4149 264.785C84.7714 265.536 85.1091 266.305 85.4093 267.093C86.9854 271.183 88.4677 275.293 89.7248 279.495C90.3065 281.391 90.9069 283.267 91.5073 285.162C91.6199 285.5 91.7325 285.837 91.8638 286.175C92.1453 286.926 92.6143 287.019 93.196 286.4C93.7214 285.837 94.228 285.218 94.6783 284.599C95.5789 283.323 96.4232 282.01 97.3426 280.753C98.0368 279.777 98.7874 278.839 99.5566 277.919C100.063 277.338 100.645 276.812 101.245 276.325C101.658 275.987 102.127 275.705 102.615 275.48C103.891 274.88 105.167 274.955 106.424 275.612C107.4 276.137 108.169 276.906 108.713 277.844C109.257 278.782 109.707 279.758 110.195 280.715C110.571 281.466 110.927 282.216 111.302 282.967C111.377 283.098 111.678 283.154 111.771 283.042C111.846 282.948 111.94 282.873 112.015 282.779C112.109 282.629 112.203 282.479 112.297 282.31C115.712 276.212 120.196 271.033 125.468 266.474C127.382 264.823 129.334 263.247 131.398 261.802C132.767 260.845 134.193 259.944 135.713 259.194C137.12 258.481 138.584 257.993 140.16 257.805C142.73 257.468 145.038 258.106 147.065 259.719C147.721 260.245 148.284 260.864 148.81 261.521C149.86 262.853 150.686 264.297 151.399 265.836C152.262 267.694 152.937 269.607 153.482 271.577C154.12 273.885 154.682 276.212 155.302 278.539C155.452 279.12 155.602 279.702 155.808 280.265C155.902 280.565 156.183 280.753 156.484 280.79C156.84 280.828 157.197 280.809 157.553 280.771C158.81 280.603 160.067 280.584 161.325 280.621C164.345 280.696 167.104 281.578 169.618 283.229C170.462 283.792 171.269 284.43 172.095 285.031C172.864 285.593 173.633 286.175 174.421 286.738C174.59 286.869 174.965 286.794 175.078 286.625C175.209 286.419 175.341 286.213 175.434 286.006C178.061 280.04 182.489 275.818 188.174 272.816C190.801 271.427 193.578 270.527 196.468 269.926C200.127 269.176 203.842 268.969 207.557 269.101C210.446 269.213 213.279 269.739 216.038 270.602C218.852 271.484 221.573 272.591 224.162 273.979C229.622 276.925 233.675 281.203 236.302 286.813C237.39 289.158 238.215 291.598 238.816 294.112C239.322 296.213 239.792 298.315 240.298 300.416C240.373 300.698 240.486 300.979 240.598 301.261C240.655 301.392 240.917 301.429 241.049 301.317C242.099 300.416 243.131 299.516 244.182 298.615C246.715 296.251 249.811 295.801 253.095 295.951C253.939 295.988 254.352 296.739 254.99 297.17Z" fill="#A1A0A0"/>
<path d="M63.7943 285.256C63.8131 285.931 64.0758 286.532 64.2634 287.17C64.5261 288.145 64.9013 289.102 64.9201 290.134C65.3704 291.767 65.2578 293.455 65.2766 295.125C65.2766 295.425 65.2766 295.726 65.2953 296.026C65.3329 296.514 65.6706 296.814 66.1397 296.664C66.8339 296.438 67.5469 296.438 68.2787 296.438C68.8416 296.438 69.3669 296.607 69.7985 296.926C71.0931 297.883 72.0125 299.103 72.1251 300.792C72.1626 301.279 72.2001 301.748 72.5191 302.142C72.5754 302.218 72.763 302.274 72.8193 302.236C73.0632 302.067 73.3259 301.899 73.5135 301.692C74.7331 300.322 76.253 299.403 77.8666 298.577C79.0487 297.977 80.2682 297.508 81.4878 297.001C82.032 296.776 82.6324 296.664 83.214 296.532C85.1466 296.101 86.7227 295.894 88.7304 296.101C90.9632 296.326 93.0459 297.039 94.7158 298.671C95.5789 299.516 96.3669 300.397 96.8172 301.542C97.0049 301.992 97.2863 302.368 97.7366 302.593C98.9375 305.313 98.7123 308.165 98.5059 311.017C98.4684 311.43 98.337 311.843 98.337 312.256C98.3558 312.875 97.8304 313.776 98.4872 314.057C99.2564 314.395 100.101 313.944 100.645 313.231C100.833 313.006 101.001 312.744 101.264 312.612C101.621 312.912 101.583 313.325 101.639 313.738C101.696 314.132 101.94 314.357 102.334 314.395C103.197 314.451 104.003 314.883 104.904 314.826C107.456 315.164 109.557 317.735 109.82 320.849C110.064 323.833 109.501 326.685 108.657 329.536C108.056 331.563 108.094 331.582 110.158 331.788C113.104 332.107 115.092 333.814 116.5 336.272C117.194 337.473 117.7 337.567 118.789 336.648C121.491 334.321 124.08 334.058 126.707 335.616C129.146 337.06 130.722 340.607 130.178 343.552C129.821 345.541 128.94 347.324 127.607 348.825C126.65 349.894 126.163 350.945 126.632 352.39C126.857 353.122 126.801 353.928 126.669 354.716C126.35 356.668 125.243 357.662 123.292 357.794C123.048 357.812 122.804 357.794 122.579 357.794C100.101 357.794 77.6227 357.794 55.1445 357.794C54.8443 357.794 54.5441 357.794 54.2439 357.737C53.5872 357.7 52.9305 357.662 52.2738 357.662C46.5136 357.662 40.7533 357.737 35.0118 357.644C29.0076 357.55 23.0222 357.568 17.0181 357.493C14.4475 357.456 11.8582 357.437 9.2877 357.4C8.79986 357.4 8.33079 357.4 7.84295 357.362C7.52398 357.343 7.22377 357.212 7.12995 356.912C6.96109 356.368 6.60459 355.974 6.26685 355.58C5.25365 354.398 4.22168 353.215 3.24601 352.015C2.17651 350.701 1.35094 349.256 0.67547 347.699C0.112579 346.404 -0.075051 345.054 0.0187642 343.665C0.150105 341.676 1.35094 340.175 3.26477 339.575C3.84642 339.387 4.42808 339.331 5.02849 339.274C6.15428 339.181 7.29882 339.031 8.4246 338.88C8.64976 338.843 8.87492 338.73 9.10007 338.655C9.30647 338.58 9.47533 338.243 9.40028 338.074C9.2877 337.792 9.19389 337.511 9.02502 337.267C8.64976 336.723 8.23697 336.197 7.86171 335.672C7.35511 334.94 6.79222 334.227 6.34191 333.439C3.54621 328.429 5.14107 323.195 8.55594 320.174C10.0195 318.879 11.6894 318.222 13.6595 318.316C14.8791 318.372 16.0424 318.598 17.1682 318.992C18.2377 319.367 19.3072 319.78 20.3767 320.155C20.7144 320.268 21.0709 320.361 21.4086 320.436C21.4461 320.455 21.5962 320.268 21.5962 320.192C21.5587 319.967 21.4649 319.742 21.3711 319.517C19.8701 316.421 18.8568 313.175 18.2189 309.798C17.8436 307.846 17.6748 305.876 17.8061 303.887C18.0125 300.585 19.007 297.546 21.0709 294.9C22.6282 292.93 24.5796 291.485 26.9625 290.622C29.139 289.834 31.2967 289.853 33.4732 290.603C34.3926 290.922 35.2557 291.316 36.0813 291.823C37.2446 292.555 38.4079 293.305 39.5525 294.074C41.335 295.294 43.0987 296.532 44.8812 297.752C45.0313 297.846 45.1814 297.94 45.3315 298.033C45.5754 298.183 45.9319 298.033 46.0257 297.714C46.1008 297.489 46.1571 297.264 46.2321 297.02C46.476 296.101 46.7012 295.163 46.9639 294.243C47.6393 291.842 48.6901 289.646 50.2099 287.676C51.2794 286.288 52.5365 285.087 53.9812 284.111C54.4316 283.811 54.8819 283.53 55.3697 283.286C57.7714 282.104 60.0229 282.423 62.1056 284.036C62.4809 284.336 62.7999 284.693 63.1564 285.031C63.3252 285.237 63.5504 285.256 63.7943 285.256Z" fill="#CFCECD"/>
<path d="M54.2627 357.775C54.9194 357.737 55.5761 357.681 56.2328 357.681C63.8506 357.681 71.4684 357.681 79.0862 357.681C92.5205 357.681 105.955 357.7 119.37 357.719C120.571 357.719 121.772 357.681 122.973 357.625C124.699 357.531 125.994 356.293 126.181 354.548C126.313 353.328 126.275 352.146 125.543 351.095C125.3 350.757 125.393 350.401 125.656 350.12C126.05 349.669 126.482 349.256 126.876 348.806C128.114 347.38 128.996 345.785 129.446 343.928C129.84 342.389 129.596 340.944 129.052 339.537C128.846 338.974 128.527 338.468 128.208 337.961C127.42 336.666 126.2 335.897 124.793 335.484C123.742 335.165 122.654 335.184 121.622 335.616C120.44 336.104 119.427 336.835 118.601 337.811C118.301 338.167 117.963 338.505 117.625 338.862C117.532 338.956 117.213 338.899 117.138 338.787C117.006 338.599 116.856 338.411 116.744 338.186C116.425 337.605 116.143 337.023 115.843 336.423C115.486 335.728 114.999 335.109 114.455 334.546C113.141 333.195 111.527 332.482 109.651 332.464C108.994 332.464 108.338 332.482 107.681 332.482C107.456 332.482 107.268 332.22 107.325 331.976C107.55 331.113 107.812 330.249 108.038 329.368C108.357 328.148 108.638 326.928 108.957 325.709C109.37 324.114 109.388 322.5 109.257 320.887C109.088 318.804 108.131 317.134 106.405 315.915C105.917 315.577 105.336 315.37 104.96 314.864H104.942C105.111 314.639 105.035 314.263 105.373 314.151C106.274 312.969 107.156 311.73 108.094 310.586C110.27 307.94 112.634 305.482 115.393 303.437C116.894 302.33 118.489 301.373 120.215 300.66C121.716 300.041 123.292 299.647 124.906 299.516C126.181 299.403 127.42 299.572 128.639 299.91C130.366 300.397 131.773 301.392 132.861 302.818C133.705 303.925 134.325 305.145 134.812 306.439C135.244 307.621 135.563 308.841 135.788 310.079C135.994 311.318 136.107 312.575 136.276 313.813C136.539 315.783 136.576 317.753 136.67 319.723C136.707 320.436 136.82 321.149 136.914 321.862C136.933 322.013 137.214 322.144 137.345 322.069C137.608 321.937 137.871 321.787 138.133 321.656C139.316 321.056 140.554 320.605 141.849 320.361C143.762 319.986 145.545 320.286 147.121 321.525C147.871 322.125 148.641 322.707 149.391 323.288C150.292 323.964 150.386 323.945 150.855 323.026C151.024 322.707 151.174 322.388 151.343 322.069C151.53 321.694 151.737 321.337 151.943 320.962C154.044 317.228 156.953 314.263 160.518 311.918C162.038 310.924 163.707 310.267 165.509 309.967C166.353 309.835 167.179 309.854 168.004 310.079C169.618 310.511 170.593 311.58 170.762 313.231C170.875 314.376 170.856 315.502 170.612 316.628C170.35 317.791 170.068 318.973 169.637 320.08C168.98 321.75 168.304 323.42 167.629 325.09C167.366 325.746 167.085 326.422 166.803 327.079C166.728 327.867 167.141 327.641 167.535 327.435C169.637 326.553 171.794 325.859 174.046 325.465C174.759 325.334 175.472 325.296 176.185 325.259C176.598 325.24 177.029 325.277 177.442 325.352C179.187 325.634 180.219 326.666 180.463 328.429C180.632 329.687 180.594 330.944 180.294 332.182C179.975 333.533 179.506 334.828 178.906 336.066C178.305 337.304 177.686 338.543 177.086 339.781C176.992 339.987 176.935 340.231 176.898 340.457C176.879 340.55 176.954 340.7 177.029 340.776C177.217 340.907 177.442 341.038 177.648 341.113C178.38 341.395 179.056 341.77 179.712 342.202C180.744 342.858 181.551 343.74 182.17 344.791C182.677 345.635 182.94 346.536 182.977 347.511C183.127 351.395 181.27 354.792 177.911 356.799C177.817 356.855 177.705 356.931 177.611 356.987C177.104 357.418 176.466 357.493 175.828 357.531C175.209 357.606 174.571 357.362 173.99 357.7C173.089 357.719 172.188 357.719 171.288 357.737C170.387 357.756 169.505 357.737 168.605 357.962C168.042 358.113 167.423 358.056 166.822 358.056C162.45 358.056 158.06 358.056 153.688 358.056C143.368 358.056 133.067 358.075 122.748 358.075C106.499 358.075 90.2502 358.075 74.0014 358.075C67.8847 358.075 61.7679 358.075 55.6512 358.075C55.1821 357.981 54.6942 358.094 54.2627 357.775Z" fill="#A1A0A0"/>
<path d="M269.794 338.918C270.788 336.892 271.182 334.753 271.238 332.501C271.332 329.63 270.6 326.947 269.606 324.302C269.043 322.782 267.974 321.656 266.735 320.699C264.99 319.367 263.001 318.598 260.806 318.391C260.506 318.354 260.206 318.354 259.924 318.279C259.155 318.072 258.386 318.054 257.616 318.035C257.204 318.035 256.772 318.016 256.359 318.016C254.295 317.997 254.051 318.166 255.065 316.046C255.834 314.432 256.509 312.762 257.072 311.055C257.71 309.104 258.029 307.115 257.935 305.051C257.917 304.45 257.935 303.869 257.954 303.268C258.479 303.4 258.498 303.4 258.648 303.043C259.211 301.58 259.755 300.135 260.318 298.671C261.669 295.144 263.058 291.635 264.596 288.183C266.21 284.562 267.974 281.015 269.944 277.582C271.97 274.035 274.222 270.639 276.473 267.243C278.875 263.641 281.277 260.076 283.697 256.492C284.71 254.991 285.723 253.509 286.755 252.045C287.131 251.501 287.562 250.994 287.975 250.488C288.088 250.357 288.238 250.244 288.388 250.15C288.857 249.812 289.532 250.038 289.682 250.6C289.739 250.826 289.795 251.088 289.757 251.295C289.626 251.933 289.476 252.589 289.288 253.208C288.707 255.16 287.975 257.074 287.224 258.969C285.798 262.59 284.354 266.211 282.946 269.851C282.384 271.296 281.839 272.76 281.333 274.242C280.132 277.694 278.894 281.147 277.787 284.618C276.06 289.984 274.391 295.369 272.927 300.81C271.839 304.807 270.713 308.785 269.606 312.762C269.456 313.288 269.362 313.813 269.249 314.338C269.231 314.376 269.287 314.451 269.325 314.489C269.362 314.526 269.437 314.545 269.475 314.526C269.681 314.432 269.925 314.338 270.094 314.188C271.951 312.518 274.165 311.449 276.436 310.492C279.776 309.104 283.247 308.165 286.737 307.34C289.307 306.739 291.878 306.158 294.448 305.576C294.917 305.464 295.386 305.351 295.874 305.426C296.212 305.482 296.512 305.914 296.362 306.252C296.268 306.458 296.156 306.702 295.987 306.852C295.386 307.434 294.767 307.997 294.11 308.541C293.454 309.085 292.891 309.685 292.328 310.304C290.133 312.687 288.144 315.239 286.061 317.716C284.41 319.686 282.703 321.637 281.033 323.589C280.676 324.001 280.376 324.433 280.057 324.883C279.888 325.127 280.113 325.502 280.432 325.521C280.545 325.521 280.676 325.559 280.789 325.54C282.271 325.352 283.753 325.108 285.123 324.452C286.755 323.664 288.294 322.782 289.626 321.506C290.32 320.849 291.09 320.268 291.84 319.667C292.178 319.386 292.722 319.555 292.891 319.967C293.003 320.249 293.135 320.53 293.135 320.812C293.154 321.525 293.191 322.256 293.097 322.969C292.797 325.108 292.403 327.229 291.878 329.33C291.653 330.268 291.427 331.188 291.221 332.126C291.127 332.539 291.296 332.783 291.765 332.876C292.122 332.951 292.478 333.083 292.816 333.083C293.923 333.064 294.955 333.439 295.93 333.871C296.906 334.302 297.863 334.809 298.839 335.297C298.989 335.372 299.12 335.503 299.252 335.634C299.495 335.86 299.571 336.366 299.383 336.629C299.176 336.929 298.97 337.211 298.707 337.454C297.375 338.712 296.362 340.175 295.518 341.77C294.448 343.796 293.51 345.86 292.76 348.018C292.478 348.806 292.215 349.613 291.915 350.401C291.315 352.052 290.883 353.722 290.958 355.486C290.958 355.73 290.958 355.974 290.902 356.199C290.771 356.968 290.508 357.268 289.72 357.268C287.731 357.268 285.761 357.268 283.772 357.268C283.059 357.268 282.327 357.306 281.614 357.325C279.175 357.512 276.736 357.343 274.278 357.418C273.208 357.437 273.058 356.874 273.715 356.274C275.741 354.454 275.854 352.315 275.066 349.913C274.803 349.106 275.047 348.243 275.254 347.436C275.535 346.329 275.629 345.204 275.61 344.059C275.573 340.794 274.428 339.593 271.126 339.293C270.619 339.331 270.131 339.331 269.794 338.918Z" fill="#CFCECD"/>
<path d="M269.794 338.918C269.981 338.918 270.169 338.956 270.319 338.88C271.407 338.393 272.439 338.768 273.471 339.031C274.128 339.199 274.672 339.593 275.085 340.119C275.76 340.982 276.267 341.92 276.267 343.046C276.267 343.815 276.267 344.603 276.267 345.372C276.267 345.917 276.192 346.442 276.023 346.967C275.854 347.53 275.704 348.112 275.573 348.694C275.441 349.294 275.423 349.894 275.742 350.438C276.248 351.302 276.286 352.259 276.267 353.215C276.248 354.172 275.892 354.96 275.235 355.617C274.766 356.086 274.278 356.499 273.79 356.949C273.771 356.968 273.771 357.062 273.79 357.099C273.809 357.137 273.847 357.212 273.903 357.212C274.203 357.231 274.503 357.268 274.803 357.268C276.53 357.268 278.275 357.268 280.001 357.268C280.545 357.268 281.07 357.325 281.614 357.343C281.389 357.418 281.164 357.55 280.939 357.568C280.526 357.606 280.095 357.587 279.682 357.587C272.421 357.606 265.178 357.625 257.917 357.625C257.072 357.625 256.247 357.606 255.421 357.85C255.027 357.962 254.596 357.944 254.164 357.944C248.235 357.944 242.306 357.944 236.358 357.944C235.945 357.944 235.495 357.962 235.101 357.85C234.332 357.643 233.562 357.644 232.774 357.644C229.416 357.644 226.057 357.644 222.698 357.644C222.042 357.644 221.385 357.606 220.728 357.587C220.559 357.212 220.409 356.818 220.203 356.443C219.19 354.585 218.552 352.596 217.97 350.57C217.689 349.594 217.539 348.581 217.407 347.568C217.295 346.78 217.426 346.01 217.576 345.26C217.614 345.035 217.726 344.81 217.839 344.603C218.327 343.759 219.171 343.552 219.978 344.059C220.503 344.378 220.916 344.81 221.291 345.279C221.667 345.748 222.004 346.236 222.379 346.705C222.436 346.78 222.567 346.817 222.68 346.836C222.83 346.855 222.886 346.761 222.905 346.611C222.924 346.142 222.961 345.654 222.98 345.185C223.093 343.215 223.168 341.226 223.355 339.274C223.637 336.235 224.068 333.214 225.119 330.306C225.644 328.842 226.263 327.397 227.014 326.047C227.295 325.521 227.652 325.033 228.027 324.564C228.215 324.339 228.459 324.151 228.703 323.983C229.303 323.57 230.147 323.682 230.71 324.17C231.217 324.621 231.536 325.183 231.799 325.803C232.324 327.022 232.718 328.279 233.018 329.555C233.262 330.606 233.506 331.657 233.656 332.726C233.975 334.865 234.219 337.004 234.519 339.143C234.594 339.669 234.726 340.194 234.857 340.7C234.876 340.757 235.101 340.813 235.157 340.776C235.401 340.588 235.607 340.382 235.833 340.175C237.615 338.524 239.717 337.623 242.156 337.53C243.056 337.492 243.957 337.53 244.858 337.53C245.815 337.53 246.771 337.548 247.728 337.53C248.179 337.53 248.516 337.229 248.629 336.779C248.742 336.254 248.817 335.728 248.873 335.184C249.042 333.571 249.361 331.994 249.961 330.475C250.918 328.054 252.457 326.122 254.596 324.658C255.14 324.283 255.721 323.964 256.341 323.757C258.405 323.063 260.225 323.438 261.763 325.033C262.439 325.728 262.908 326.572 263.227 327.473C263.658 328.673 263.902 329.893 263.958 331.169C264.033 332.914 263.958 334.64 263.79 336.366C263.733 337.023 263.696 337.68 263.639 338.336C263.583 338.843 263.677 339.293 264.165 339.575C264.746 339.931 265.009 340.569 265.403 341.095C265.497 341.226 265.741 341.245 265.891 341.132C265.985 341.057 266.097 341.001 266.172 340.926C267.242 339.987 268.443 339.331 269.794 338.918Z" fill="#F6F6F6"/>
<path d="M254.99 297.17C254.821 297.133 254.614 297.133 254.483 297.039C253.207 296.307 251.837 296.363 250.468 296.589C248.573 296.908 246.734 297.433 245.026 298.334C244.764 298.465 244.464 298.502 244.182 298.596C244.276 298.183 244.332 297.771 244.464 297.377C245.327 294.769 246.377 292.217 247.428 289.665C249.117 285.575 250.899 281.522 252.776 277.507C254.352 274.092 255.89 270.639 257.448 267.206C257.635 266.774 257.804 266.305 258.179 265.986C258.367 265.817 258.892 265.93 258.93 266.174C258.967 266.399 259.024 266.662 258.949 266.868C258.761 267.431 258.536 267.994 258.311 268.538C257.185 271.202 256.509 273.979 256.097 276.831C255.909 278.126 255.721 279.439 255.534 280.734C255.515 280.903 255.459 281.09 255.459 281.259C255.402 283.286 254.99 285.293 254.99 287.338C254.99 288.051 254.877 288.764 254.802 289.477C254.783 289.721 254.746 289.946 254.746 290.19C254.708 292.048 254.671 293.905 254.633 295.763C254.596 296.307 254.727 296.757 254.99 297.17Z" fill="#CFCECD"/>
</g>
<path d="M32.6946 338.918C31.7001 336.892 31.3061 334.753 31.2498 332.501C31.156 329.63 31.8878 326.947 32.8822 324.302C33.4451 322.782 34.5146 321.656 35.753 320.699C37.4979 319.367 39.4868 318.598 41.6821 318.391C41.9823 318.354 42.2825 318.354 42.5639 318.279C43.3332 318.072 44.1025 318.054 44.8718 318.035C45.2846 318.035 45.7161 318.016 46.1289 318.016C48.1928 317.997 48.4368 318.166 47.4236 316.046C46.6543 314.432 45.9788 312.762 45.4159 311.055C44.778 309.104 44.459 307.115 44.5528 305.051C44.5716 304.45 44.5528 303.869 44.534 303.268C44.0087 303.4 43.9899 303.4 43.8398 303.043C43.2769 301.58 42.7328 300.135 42.1699 298.671C40.819 295.144 39.4305 291.635 37.892 288.183C36.2783 284.562 34.5146 281.015 32.5445 277.582C30.5181 274.035 28.2665 270.639 26.0149 267.243C23.6133 263.641 21.2116 260.076 18.7912 256.492C17.778 254.991 16.7648 253.509 15.7328 252.045C15.3575 251.501 14.926 250.994 14.5132 250.488C14.4006 250.357 14.2505 250.244 14.1004 250.15C13.6313 249.812 12.9559 250.038 12.8058 250.6C12.7495 250.826 12.6932 251.088 12.7307 251.295C12.862 251.933 13.0122 252.589 13.1998 253.208C13.7814 255.16 14.5132 257.074 15.2637 258.969C16.6897 262.59 18.1345 266.211 19.5417 269.851C20.1046 271.296 20.6487 272.76 21.1553 274.242C22.3561 277.694 23.5945 281.147 24.7015 284.618C26.4277 289.984 28.0976 295.369 29.5612 300.81C30.6494 304.807 31.7752 308.785 32.8822 312.762C33.0323 313.288 33.1261 313.813 33.2387 314.338C33.2575 314.376 33.2012 314.451 33.1637 314.489C33.1261 314.526 33.0511 314.545 33.0136 314.526C32.8072 314.432 32.5632 314.338 32.3944 314.188C30.5368 312.518 28.3228 311.449 26.0525 310.492C22.7126 309.104 19.2415 308.165 15.7516 307.34C13.181 306.739 10.6105 306.158 8.03995 305.576C7.57088 305.464 7.1018 305.351 6.61396 305.426C6.27623 305.482 5.97603 305.914 6.12613 306.252C6.21995 306.458 6.33252 306.702 6.50139 306.852C7.10181 307.434 7.72099 307.997 8.37769 308.541C9.0344 309.085 9.59729 309.685 10.1602 310.304C12.3555 312.687 14.3443 315.239 16.427 317.716C18.0782 319.686 19.7856 321.637 21.4555 323.589C21.812 324.001 22.1122 324.433 22.4312 324.883C22.6001 325.127 22.3749 325.502 22.0559 325.521C21.9434 325.521 21.812 325.559 21.6994 325.54C20.2172 325.352 18.7349 325.108 17.3652 324.452C15.7328 323.664 14.1942 322.782 12.8621 321.506C12.1678 320.849 11.3985 320.268 10.648 319.667C10.3103 319.386 9.76616 319.555 9.59729 319.967C9.48471 320.249 9.35336 320.53 9.35336 320.812C9.3346 321.525 9.29709 322.256 9.3909 322.969C9.69111 325.108 10.0851 327.229 10.6105 329.33C10.8357 330.268 11.0608 331.188 11.2672 332.126C11.361 332.539 11.1922 332.783 10.7231 332.876C10.3666 332.951 10.0101 333.083 9.67235 333.083C8.56533 333.064 7.53337 333.439 6.55769 333.871C5.58201 334.302 4.6251 334.809 3.64942 335.297C3.49932 335.372 3.36796 335.503 3.23662 335.634C2.9927 335.86 2.91766 336.366 3.10529 336.629C3.31168 336.929 3.51807 337.211 3.78075 337.454C5.11293 338.712 6.12613 340.175 6.97047 341.77C8.03996 343.796 8.9781 345.86 9.72862 348.018C10.0101 348.806 10.2728 349.613 10.573 350.401C11.1734 352.052 11.6049 353.722 11.5299 355.486C11.5299 355.73 11.5299 355.974 11.5862 356.199C11.7175 356.968 11.9802 357.268 12.7682 357.268C14.7571 357.268 16.7272 357.268 18.7161 357.268C19.4291 357.268 20.1609 357.306 20.8739 357.325C23.3131 357.512 25.7523 357.343 28.2102 357.418C29.2797 357.437 29.4298 356.874 28.7731 356.274C26.7467 354.454 26.6341 352.315 27.4222 349.913C27.6849 349.106 27.4409 348.243 27.2345 347.436C26.9531 346.329 26.8593 345.204 26.878 344.059C26.9156 340.794 28.0601 339.593 31.3624 339.293C31.869 339.331 32.3568 339.331 32.6946 338.918Z" fill="#A1A0A0"/>
<path d="M113.306 55.8449C108.269 52.3184 126.349 33.6497 115.057 30.5472C103.765 27.4446 37.8354 76.9308 43.3239 111.823C48.8124 146.716 103.853 101.444 108.373 108.618C112.893 115.792 29.2722 177.904 61.2346 204.97C93.197 232.036 138.727 172.432 145.863 180.91C153 189.389 105.978 218.909 148.897 246.502C182.076 267.833 269.991 185.42 263.677 166.164C257.363 146.909 225.872 175.783 221.544 168.788C217.215 161.792 275.491 105.528 259.348 78.136C243.205 50.7437 186.091 100.447 182.076 96.1387C178.06 91.8303 232.305 52.5578 211.155 30.5472C190.004 8.53653 118.342 59.3713 113.306 55.8449Z" fill="#E0ECFF"/>
<g clip-path="url(#clip1_1764_1904)">
<path d="M97.9251 170.841C99.2297 171.711 98.7079 173.102 98.7079 174.233C98.7948 184.93 98.273 195.454 96.7945 206.064C95.403 216.326 98.6209 225.98 102.621 235.286C103.056 236.329 103.578 237.286 103.491 238.504C102.535 239.025 101.578 238.939 100.534 238.678C99.5776 233.807 97.7512 229.198 96.3597 224.502C93.4027 214.587 93.9245 204.933 96.0118 195.019C97.4033 188.322 97.4033 181.452 97.4903 174.668C97.4033 173.45 96.8815 172.059 97.9251 170.841Z" fill="#CAC8C8"/>
<path d="M163.761 223.806C159.5 225.98 155.064 227.893 150.977 230.589C150.803 230.415 150.629 230.242 150.455 230.068C154.108 226.676 158.456 224.588 163.066 223.11C163.326 223.284 163.5 223.545 163.761 223.806Z" fill="#CFCECD"/>
<path d="M124.538 235.286C126.538 234.416 128.626 233.633 131.409 233.807C128.973 235.547 126.712 236.068 124.364 236.416C124.451 236.068 124.538 235.634 124.538 235.286Z" fill="#CFCECD"/>
<path d="M112.101 237.721C112.362 236.851 112.71 236.764 113.145 237.634C112.797 237.634 112.449 237.634 112.101 237.721Z" fill="#F4F4F6"/>
<path d="M97.3164 163.449C98.7949 164.927 97.9252 166.667 98.0122 168.319C95.9249 166.928 96.4467 165.188 97.3164 163.449Z" fill="#CAC8C8"/>
<path d="M110.971 133.009C116.711 132.053 120.276 134.836 123.581 139.271C129.234 146.925 133.496 155.274 137.149 163.971C138.192 166.493 139.062 166.754 141.062 164.927C143.845 162.492 146.889 160.318 150.194 158.665C150.02 160.579 150.716 162.144 151.933 163.536C156.63 169.102 160.717 175.103 164.022 181.625C165.849 185.191 167.327 188.931 169.24 192.584C172.545 198.845 178.024 203.542 180.633 210.238C181.155 211.456 182.286 211.63 183.416 211.804C182.721 212.152 182.025 212.587 181.242 212.935C178.372 214.065 175.502 215.196 172.197 216.5C174.372 217.457 175.676 216.413 177.068 216.152C177.416 217.022 177.763 217.892 178.111 218.762C172.98 219.892 167.936 221.197 162.979 223.11C158.282 224.588 154.021 226.763 150.368 230.068C150.107 230.328 149.672 230.85 149.672 230.85C150.194 231.372 150.542 230.937 150.89 230.589C154.89 227.893 159.326 226.067 163.674 223.806C170.284 221.545 176.894 219.805 183.938 219.457C183.677 221.023 182.895 222.501 183.329 224.067C184.895 230.242 187.678 235.808 191.418 240.939C193.592 243.896 196.723 245.722 199.071 248.505C200.897 250.679 202.289 253.028 200.115 255.637C198.549 257.55 196.81 259.376 194.462 260.42C182.895 265.725 170.458 266.769 158.021 266.682C152.107 266.682 146.28 265.377 140.627 263.377C131.235 260.159 122.712 255.55 116.189 247.896C113.754 245.113 112.449 241.374 108.623 239.895C113.841 238.678 119.146 237.46 124.364 236.242C126.712 235.895 128.973 235.373 131.409 233.633C128.539 233.459 126.538 234.155 124.538 235.112C121.146 236.068 117.754 236.938 114.276 237.199C114.449 235.46 113.928 233.894 112.884 232.503C109.318 227.458 107.231 221.632 104.796 215.978C104.013 214.152 103.143 212.239 102.883 210.238C101.056 197.802 101.491 185.191 100.708 172.668C100.099 163.623 98.9689 154.665 95.4031 146.142C94.7943 144.663 94.0986 143.533 92.2722 143.881C88.8804 139.967 88.0977 135.532 90.098 130.748L90.011 130.835C91.1416 130.313 91.0546 128.574 92.968 128.4C84.6189 125.182 77.3134 121.095 71.4865 114.746C68.5295 111.615 66.2683 108.049 64.7028 103.962C64.181 102.657 64.094 101.874 65.9204 101.787C67.5728 101.7 68.7904 100.57 69.921 99.4391C74.4434 94.7427 77.0525 89.0897 77.5743 82.567C77.6613 81.4364 77.7483 80.0449 77.1395 79.2621C74.5304 75.8703 77.2265 75.0876 79.5746 74.0439C92.3592 68.5649 105.318 68.7388 118.45 72.4785C118.624 74.6527 117.754 76.653 116.798 78.4794C116.015 80.0449 115.493 81.5233 116.015 83.2627C107.927 82.0452 99.8386 80.3058 91.5765 81.1755C84.271 81.9582 81.5749 84.3064 79.7486 91.4379C78.0962 97.9606 79.5746 99.4391 85.9234 97.6127C88.2716 96.917 90.6198 96.2212 93.0549 95.5255C97.5774 94.2209 102.187 93.2642 106.97 93.5252C108.449 93.6121 109.84 93.6991 110.971 94.8297C110.884 96.83 110.71 98.7433 110.536 100.744C110.188 104.396 108.709 108.049 109.666 111.789C106.97 113.876 104.274 111.789 101.404 111.789C105.492 117.007 105.492 117.007 108.709 115.702C109.666 116.137 109.84 117.181 109.927 117.964C110.362 122.834 112.101 127.182 114.363 131.357C113.232 131.357 112.188 131.444 111.058 131.444C105.926 130.922 100.795 130.313 95.664 129.618C100.621 131.618 105.579 133.357 110.971 133.009Z" fill="#F4F4F6"/>
<path d="M191.331 219.022C205.072 218.588 218.726 218.848 232.38 220.936C233.598 221.11 234.381 221.718 235.25 222.414C235.25 222.936 235.337 223.458 235.859 223.719C240.121 231.894 239.599 240.591 238.381 249.288C237.772 253.462 236.468 257.463 234.207 261.029C232.989 260.681 232.032 259.376 230.467 259.898C223.422 262.333 216.291 264.508 209.333 267.117C202.724 269.552 195.853 270.682 189.069 271.9C183.677 272.857 178.198 273.031 172.806 273.639C167.501 274.248 162.196 275.292 156.804 275.64C149.237 276.248 141.932 274.509 134.452 273.292C130.452 272.683 126.103 272.422 122.972 270.161C115.754 264.768 109.753 258.246 104.796 250.592C102.448 247.027 101.056 242.678 96.7946 240.678C99.9255 240.591 103.056 240.504 106.187 240.33C106.187 242.939 107.666 244.939 109.057 247.027C114.362 254.593 121.059 260.594 129.06 265.029C133.148 267.291 137.409 269.465 141.845 270.682C152.194 273.552 162.718 271.987 173.154 270.508C179.851 269.552 186.547 268.421 193.244 266.856C202.637 264.768 211.073 261.029 217.856 254.071C220.9 250.94 222.292 246.94 220.813 242.591C219.335 238.069 216.552 234.851 211.334 234.242C207.159 233.72 202.724 233.198 199.419 230.155C195.94 227.111 191.592 224.502 191.331 219.022Z" fill="#CAC8C8"/>
<path d="M191.331 219.022C191.592 224.502 195.94 227.198 199.419 230.328C202.724 233.285 207.072 233.894 211.334 234.416C216.552 235.025 219.335 238.243 220.813 242.765C222.205 247.114 220.9 251.114 217.856 254.245C211.073 261.203 202.724 264.942 193.244 267.03C186.634 268.508 179.938 269.726 173.154 270.682C162.718 272.161 152.281 273.726 141.845 270.856C137.409 269.639 133.148 267.465 129.06 265.203C121.059 260.768 114.276 254.767 109.057 247.201C107.666 245.2 106.187 243.113 106.187 240.504C106.97 240.156 107.753 239.982 108.623 240.156C112.449 241.548 113.841 245.374 116.189 248.157C122.712 255.724 131.235 260.42 140.627 263.638C146.28 265.551 152.107 266.856 158.021 266.943C170.458 267.03 182.895 265.986 194.462 260.681C196.723 259.637 198.549 257.811 200.115 255.898C202.289 253.202 200.897 250.94 199.071 248.766C196.723 245.983 193.592 244.157 191.418 241.2C187.678 236.068 184.895 230.502 183.33 224.328C182.895 222.675 183.677 221.197 183.938 219.718C184.547 219.37 185.156 219.283 185.852 219.544C186.46 220.762 187.591 220.414 188.548 220.501C189.504 220.501 190.548 220.501 190.722 219.283C190.983 218.848 191.157 218.848 191.331 219.022Z" fill="#DDDBDC"/>
<path d="M100.621 272.248C100.708 271.117 100.708 269.987 101.578 268.682C108.796 274.335 117.145 277.379 125.929 279.205C141.062 282.423 156.282 282.249 171.588 281.467C172.284 281.467 172.893 281.38 174.372 281.293C161.065 301.296 147.933 320.603 128.625 334.692C127.234 332.866 128.452 331.474 129.669 330.344C132.626 327.474 134.018 323.647 136.018 320.168C139.323 314.515 139.497 308.253 139.236 301.992C139.062 296.512 136.714 292.338 131.582 289.99C129.234 288.946 126.799 287.989 124.799 286.511C120.972 283.641 116.711 282.075 112.275 280.423C107.927 278.597 103.491 276.422 100.621 272.248Z" fill="#CFCECD"/>
<path d="M60.3542 230.589C60.0063 231.633 60.0933 233.025 58.3539 232.59C48.5263 229.807 38.3509 228.067 30.0887 221.284C25.5663 217.544 25.4793 217.457 27.3927 211.978C30.5236 202.846 34.0024 193.888 38.4378 184.843C44.5257 195.193 55.4839 195.888 65.0505 199.019C63.833 205.368 62.2675 211.717 61.3978 218.153C60.789 222.24 58.3539 226.241 60.3542 230.589Z" fill="#F4F4F6"/>
<path d="M100.621 272.248C103.491 276.422 107.84 278.684 112.275 280.336C116.624 281.988 120.972 283.554 124.799 286.424C126.799 287.989 129.321 288.859 131.582 289.903C136.714 292.251 138.975 296.425 139.236 301.905C139.497 308.166 139.323 314.428 136.018 320.081C134.018 323.473 132.626 327.387 129.669 330.257C128.452 331.474 127.234 332.779 128.625 334.605C125.495 337.649 121.407 339.302 117.754 341.389C116.624 342.085 115.406 342.085 114.623 340.693C115.493 336.518 118.537 333.475 120.276 329.735C125.582 318.429 125.495 310.515 116.276 302.165C109.492 296.078 102.448 290.077 98.5339 281.554C99.2297 278.51 99.9255 275.379 100.621 272.248Z" fill="#CAC8C8"/>
<path d="M114.536 340.867C114.101 341.302 113.58 341.302 112.971 341.215C99.3166 337.736 89.576 329.996 84.7927 316.428C84.4448 315.298 84.5318 314.515 85.1406 313.645C90.5327 305.209 94.1854 295.904 97.2294 286.424C99.0557 287.468 96.8815 289.468 98.5339 290.859C101.056 293.034 103.23 295.73 105.405 298.252C108.97 302.426 112.623 306.601 114.536 311.819C117.58 320.168 117.145 328.43 113.667 336.605C112.884 338.258 112.449 339.823 114.536 340.867Z" fill="#F4F4F6"/>
<path d="M21.7397 238.938C21.6528 232.764 23.3052 226.937 24.3488 220.936C24.5228 219.718 25.1316 218.675 26.6101 220.066C33.3067 226.502 41.6558 229.633 50.3528 232.155C52.4401 232.764 54.4404 233.894 56.7016 233.894C58.6149 233.894 59.0498 235.025 58.7888 236.851C57.8322 243.287 57.6582 249.897 55.2231 255.985C54.8752 256.941 54.5273 257.985 55.0491 258.942C56.2667 261.116 54.8752 261.638 53.2228 262.159C51.5704 262.594 50.2658 263.377 49.3091 260.855C46.3522 253.549 44.004 252.593 36.7855 255.202C35.481 255.724 35.481 254.767 35.2201 254.245C32.8719 249.897 29.3931 247.809 24.4358 249.114C23.1313 249.462 23.2182 248.505 23.0443 247.896C22.0876 245.026 21.7397 241.982 21.7397 238.938Z" fill="#CFCECD"/>
<path d="M96.7945 240.765C101.056 242.765 102.448 247.114 104.796 250.679C109.753 258.246 115.754 264.855 122.972 270.248C126.103 272.596 130.452 272.77 134.452 273.379C141.845 274.596 149.237 276.249 156.804 275.727C162.109 275.292 167.414 274.335 172.806 273.726C178.198 273.118 183.764 272.944 189.069 271.987C195.94 270.769 202.811 269.726 209.333 267.204C216.291 264.595 223.422 262.42 230.467 259.985C232.032 259.463 232.989 260.681 234.207 261.116C232.206 265.551 229.162 268.508 224.118 269.465C199.419 274.161 174.719 278.684 149.411 278.423C137.67 278.336 126.016 277.118 114.797 273.205C106.883 270.422 100.882 265.551 96.7075 258.333C93.3157 252.506 90.2718 246.592 87.7496 239.982C91.0545 240.156 93.9245 240.504 96.7945 240.765Z" fill="#CFCECD"/>
<path d="M201.593 200.063C197.418 203.368 193.418 206.934 188.2 208.673C186.373 205.629 184.721 202.411 182.199 199.802C176.024 193.627 172.197 186.148 171.067 177.451C170.284 171.972 167.849 167.449 164.457 163.014C162.891 161.014 160.021 159.622 160.195 156.491C163.065 155.795 165.935 155.187 168.805 154.491C169.762 156.665 171.501 158.318 173.154 159.883C177.502 164.058 181.503 168.493 185.243 173.189C192.026 181.452 196.201 191.192 201.593 200.063Z" fill="#CAC8C8"/>
<path d="M66.2681 197.367C59.6584 196.323 53.3966 194.41 47.2218 191.888C45.4824 191.192 43.8299 190.062 42.4384 188.757C39.2205 185.713 38.7857 183.452 40.873 179.625C43.2212 175.19 45.6563 170.841 48.3524 165.971C50.0048 168.58 52.0921 169.711 54.5272 170.493C60.0063 172.32 62.0936 171.363 65.2245 166.406C66.703 163.971 68.0075 161.362 70.2687 159.448C70.4427 167.971 68.4424 176.146 67.2248 184.495C66.529 188.757 65.2245 192.932 66.2681 197.367Z" fill="#F4F4F6"/>
<path d="M90.0978 130.922C87.1408 133.009 87.9236 136.314 87.8366 139.097C87.7496 140.663 87.3148 141.185 86.3581 141.88C76.3566 148.142 68.7902 156.578 63.5721 167.015C62.2675 169.537 60.4411 170.406 57.8321 170.058C56.4405 169.885 54.9621 169.537 53.5705 169.015C49.1351 167.449 48.6133 165.71 51.2224 161.796C57.2233 152.838 63.746 144.228 73.6605 139.097C77.6611 137.88 81.6618 137.01 85.7493 138.662C86.1842 139.01 86.706 139.532 87.1408 139.097C87.7496 138.402 86.793 138.315 86.3581 138.141C82.0096 135.358 77.5742 136.575 73.1387 137.793C74.3563 133.357 76.6175 129.444 79.4005 125.791C80.2702 124.573 81.4008 124.138 82.3575 125.269C84.5318 127.704 90.0108 125.791 89.9239 131.096C90.0108 131.009 90.0978 130.922 90.0978 130.922Z" fill="#F4F4F6"/>
<path d="M66.2682 197.367C65.2245 193.019 66.5291 188.757 67.1379 184.582C68.3555 176.233 70.2688 168.058 70.1818 159.535C74.7042 152.491 80.7921 147.185 87.6627 142.489C88.9673 141.619 89.837 141.358 90.3588 143.185C88.0106 143.707 87.9236 145.446 88.2715 147.359C88.7064 149.534 88.5324 151.882 86.5321 152.578C82.8794 153.795 82.4445 156.404 82.5315 159.448C82.7055 166.841 80.7052 174.059 80.0964 181.365C79.6615 187.105 77.9221 192.497 76.4436 197.976C72.9648 199.715 69.66 198.063 66.2682 197.367Z" fill="#DDDBDC"/>
<path d="M100.534 238.765C96.5338 239.634 92.5331 239.112 88.5325 238.678C87.0541 238.504 86.7062 237.46 86.3583 236.416C85.0537 233.025 83.9231 229.633 82.5316 226.328C81.7489 224.502 82.5316 223.023 82.9665 221.458C87.8368 203.89 92.3592 186.235 94.3595 168.058C94.6204 166.058 94.7074 164.058 94.8813 162.057C95.6641 162.144 96.5337 162.144 97.3165 162.231C97.3165 162.666 97.3165 163.014 97.3165 163.449C96.5337 165.188 95.925 167.015 98.0122 168.319C98.0122 169.189 98.0122 169.972 98.0122 170.841C96.9686 171.972 97.4035 173.45 97.4035 174.755C97.3165 181.625 97.3165 188.496 95.925 195.106C93.8377 205.02 93.3159 214.674 96.2728 224.588C97.7513 229.285 99.5777 233.894 100.534 238.765Z" fill="#CFCECD"/>
<path d="M232.641 266.247C242.991 252.506 242.295 237.721 236.99 222.501C247.339 223.197 259.515 229.459 256.645 242.417C254.123 254.419 244.556 264.595 232.641 266.247Z" fill="#CFCECD"/>
<path d="M160.282 156.578C160.108 159.796 162.978 161.101 164.544 163.101C167.849 167.449 170.371 171.972 171.154 177.538C172.284 186.235 176.111 193.714 182.286 199.889C184.895 202.498 186.46 205.629 188.287 208.76C186.808 210.065 185.417 211.282 183.503 211.804C182.373 211.63 181.155 211.456 180.72 210.238C178.111 203.629 172.632 198.845 169.327 192.584C167.414 189.018 165.935 185.278 164.109 181.625C160.804 175.103 156.717 169.102 152.02 163.536C150.803 162.057 150.107 160.579 150.281 158.665C152.977 155.448 156.63 155.882 160.282 156.578Z" fill="#DDDBDC"/>
<path d="M183.155 149.273C183.416 143.968 185.504 139.358 188.287 134.923C188.895 134.053 189.504 133.357 190.722 133.618C201.941 135.705 213.16 138.141 224.64 142.141C220.987 143.446 218.378 145.098 216.117 147.272C208.638 146.403 201.245 145.707 193.679 145.881C192.2 145.881 190.287 145.185 189.504 147.098C188.808 148.751 190.026 150.055 190.983 151.273C196.201 158.492 203.071 164.058 209.507 170.145C209.681 171.363 209.855 172.581 210.029 173.798C206.637 171.798 203.419 169.537 200.81 166.493C196.288 161.188 191.244 156.317 186.373 151.36C185.504 150.49 184.721 149.186 183.155 149.273Z" fill="#DDDBDC"/>
<path d="M97.9252 170.841C97.9252 169.972 97.9252 169.189 97.9252 168.319C97.8382 166.667 98.7079 164.84 97.2294 163.449C97.2294 163.014 97.2294 162.666 97.2294 162.231C97.0555 158.318 96.8815 154.491 95.49 150.838C95.2291 150.055 95.0552 149.36 94.0115 149.273C93.4028 147.533 92.794 145.794 92.1852 144.055C94.0115 143.707 94.7073 144.837 95.3161 146.316C98.8818 154.839 100.012 163.797 100.621 172.842C101.404 185.365 100.969 197.976 102.795 210.412C103.056 212.413 103.926 214.326 104.709 216.152C107.144 221.805 109.231 227.632 112.797 232.677C113.841 234.155 114.362 235.634 114.189 237.373C113.841 237.46 113.406 237.547 113.058 237.634C112.623 236.764 112.275 236.938 112.014 237.721C109.231 238.591 106.274 238.678 103.404 238.678C103.578 237.46 103.056 236.503 102.535 235.46C98.6209 226.067 95.3161 216.5 96.7076 206.238C98.1861 195.628 98.6209 185.017 98.6209 174.407C98.7079 173.102 99.2297 171.798 97.9252 170.841Z" fill="#DDDBDC"/>
<path d="M155.499 150.838C152.803 157.883 145.063 159.013 140.279 163.623C138.888 164.927 138.627 163.536 138.279 162.666C134.452 153.186 129.147 144.489 122.712 136.488C124.973 135.879 127.147 137.532 129.321 136.923C132.365 136.053 134.974 136.923 137.583 138.228C142.715 140.837 146.976 144.663 151.064 148.664C152.455 149.882 153.673 150.838 155.499 150.838Z" fill="#DDDBDC"/>
<path d="M114.275 131.705C112.014 127.443 110.275 123.095 109.84 118.312C109.753 117.529 109.579 116.485 108.622 116.05C109.231 115.268 109.84 114.485 110.449 113.702C111.579 112.311 110.536 112.311 109.579 112.224C108.622 108.484 110.188 104.831 110.449 101.178C110.623 99.1782 110.797 97.2649 110.884 95.2646C116.102 95.1776 119.755 98.3955 123.668 101.178C122.19 103.353 121.929 105.875 121.581 108.484C120.624 116.137 124.625 123.356 123.32 130.922C120.45 131.618 117.406 131.966 114.275 131.705Z" fill="#DDDBDC"/>
<path d="M114.536 340.867C112.449 339.823 112.884 338.345 113.58 336.605C117.059 328.43 117.493 320.168 114.449 311.819C112.536 306.601 108.883 302.426 105.318 298.252C103.143 295.73 101.056 293.034 98.447 290.859C96.7946 289.468 99.0558 287.468 97.1425 286.424C97.5773 284.859 98.0122 283.293 98.447 281.641C102.448 290.164 109.492 296.165 116.189 302.252C125.408 310.602 125.495 318.516 120.189 329.822C118.537 333.562 115.493 336.605 114.536 340.867Z" fill="#DDDBDC"/>
<path d="M76.4436 197.889C77.9221 192.41 79.6615 186.931 80.0963 181.278C80.7051 173.972 82.7054 166.754 82.5315 159.361C82.4445 156.317 82.8794 153.708 86.5321 152.491C88.6194 151.795 88.7933 149.447 88.2715 147.272C87.8366 145.446 87.9236 143.707 90.3588 143.098C93.7506 148.838 93.4897 155.1 93.2288 161.362C91.7503 161.448 89.8369 161.796 89.663 163.275C89.4021 165.536 88.2715 167.449 87.9236 169.624C87.2278 173.885 86.706 178.147 85.5754 182.321C84.2709 187.278 81.9227 192.149 82.0097 197.454C80.1833 198.237 78.3569 198.324 76.4436 197.889Z" fill="#CAC8C8"/>
<path d="M74.4433 237.721C73.4867 246.331 69.8339 253.549 63.3982 259.376C62.0067 260.681 60.2673 261.029 58.3539 260.42C57.6582 260.159 57.1364 260.159 57.1364 258.855C57.3103 251.984 59.9194 245.548 60.2673 238.765C60.3542 236.938 60.7891 235.199 61.137 233.459C61.7457 230.155 64.007 228.676 66.9639 228.241C70.0948 227.719 71.7473 229.72 72.9648 232.155C73.8345 233.894 74.6173 235.721 74.4433 237.721ZM58.3539 255.289C62.7894 248.853 61.6588 241.113 63.4851 234.155C59.7454 240.678 60.963 248.418 58.3539 255.289Z" fill="#CFCECD"/>
<path d="M209.594 170.232C203.245 164.145 196.288 158.578 191.07 151.36C190.113 150.055 188.895 148.838 189.591 147.185C190.374 145.272 192.287 145.968 193.766 145.968C201.245 145.794 208.724 146.49 216.204 147.359C211.073 154.143 209.333 161.883 209.594 170.232Z" fill="#F4F4F6"/>
<path d="M201.593 200.063C196.114 191.105 191.939 181.452 185.33 173.189C181.59 168.493 177.589 164.058 173.241 159.883C171.589 158.231 169.849 156.665 168.892 154.491C171.502 152.143 173.502 152.665 175.937 155.1C185.069 164.579 194.375 173.972 201.419 185.191C202.463 186.931 203.419 188.67 204.289 190.496C207.159 196.323 207.159 196.323 201.593 200.063Z" fill="#CFCECD"/>
<path d="M60.3542 230.589C58.3539 226.241 60.8761 222.24 61.3979 218.153C62.2676 211.717 63.833 205.455 65.0506 199.019C68.6164 199.367 72.1821 199.628 75.8349 199.976C75.5739 203.542 74.0955 206.847 73.3997 210.325C72.3561 215.978 70.0949 221.371 70.4427 227.198C66.3552 226.241 63.0503 227.719 60.3542 230.589Z" fill="#DDDBDC"/>
<path d="M219.074 189.801C218.378 192.236 216.204 191.975 214.378 192.236C209.159 193.018 209.159 192.932 206.985 188.148C201.593 176.581 193.853 166.754 184.721 158.057C183.068 156.491 181.677 155.013 182.721 152.578C183.59 152.665 184.634 152.404 185.243 153.186C189.678 157.883 194.374 162.318 198.462 167.275C201.767 171.276 205.594 174.146 210.464 175.798C212.116 179.799 213.073 184.061 216.378 187.192L216.291 187.105C216.9 188.409 217.508 189.627 219.074 189.801Z" fill="#CFCECD"/>
<path d="M123.407 130.835C124.625 123.182 120.624 116.05 121.668 108.397C122.016 105.788 122.277 103.353 123.755 101.092C126.103 102.657 128.365 104.222 130.713 105.788C132.974 107.266 135.061 109.093 138.018 108.832C137.409 111.615 137.322 114.485 135.148 116.833C131.582 120.486 130.452 125.53 127.93 129.792C126.451 130.487 124.973 130.835 123.407 130.835Z" fill="#CAC8C8"/>
<path d="M127.843 129.705C130.278 125.443 131.496 120.399 135.061 116.746C137.236 114.485 137.322 111.528 137.931 108.745C142.193 104.483 142.28 98.0476 138.018 92.3076C138.975 91.177 138.54 89.7855 138.54 88.4809C138.54 86.6546 139.149 85.263 141.062 84.8282C143.584 85.35 144.541 87.6982 146.106 89.3506C146.889 90.2203 145.932 90.6552 145.498 91.2639C140.975 97.1779 141.062 110.049 146.019 115.702C147.672 117.529 147.15 118.398 145.845 119.703C140.801 124.834 134.974 128.4 127.843 129.705Z" fill="#CFCECD"/>
<path d="M88.3585 327.039C92.0113 331.213 95.577 335.301 100.447 338.084C104.448 340.258 108.536 341.998 113.145 342.78C105.057 348.607 87.6628 345.824 81.8358 337.91C84.3579 335.388 85.6625 332.344 85.8364 328.865C85.9234 327.039 87.054 326.952 88.3585 327.039Z" fill="#CFCECD"/>
<path d="M121.929 134.488C120.798 135.358 120.45 134.227 120.276 133.705C119.928 132.748 120.885 132.662 121.494 132.662C127.843 131.966 133.844 130.226 139.41 127.269C140.018 126.922 140.627 126.835 141.323 127.269C149.411 132.922 157.238 138.836 164.979 145.62C162.544 146.403 160.891 148.142 158.63 148.055C157.152 148.055 156.108 147.098 155.064 146.316C151.064 143.011 146.976 139.88 143.236 136.401C140.888 134.227 138.192 133.27 135.322 133.705C130.887 134.488 126.364 134.14 121.929 134.488Z" fill="#CFCECD"/>
<path d="M221.509 150.316C222.205 151.621 223.596 151.534 224.727 151.795C228.554 152.752 231.858 154.839 235.163 156.752C236.729 157.709 238.12 159.274 237.337 161.188C236.555 163.275 235.946 165.71 232.989 166.058C227.336 166.667 222.292 165.101 217.682 162.144C213.682 159.448 215.247 152.143 220.031 149.968C220.552 150.055 221.074 150.229 221.509 150.316Z" fill="#CFCECD"/>
<path d="M181.242 148.577C181.068 150.229 180.894 151.882 180.633 154.317C169.762 144.489 158.456 136.14 146.976 128.052C156.021 128.835 164.979 129.357 173.85 131.096C173.676 131.444 173.502 131.966 173.241 132.227C171.675 133.444 168.545 132.662 168.458 135.705C168.371 138.141 170.98 138.923 172.11 140.75C172.284 141.011 172.371 141.532 172.632 141.619C174.545 142.141 174.893 144.837 177.242 144.75C179.416 145.098 178.72 148.403 181.242 148.577Z" fill="#CFCECD"/>
<path d="M223.77 166.928C231.511 168.493 238.903 167.971 245.513 163.275C246.556 169.45 245.948 171.102 240.729 174.059C235.424 177.103 229.684 177.712 223.77 176.407C222.292 173.189 223.944 170.058 223.77 166.928Z" fill="#CFCECD"/>
<path d="M216.378 187.192C216.987 186.148 216.03 185.539 215.595 184.843C209.594 174.146 209.768 163.362 214.639 152.317C214.899 152.491 215.16 152.752 215.334 152.925C213.16 159.97 213.16 160.057 219.335 164.927C219.77 165.275 219.683 165.71 219.596 166.145L219.683 166.058C219.074 166.319 218.813 166.754 218.987 167.449V167.362C216.639 169.885 217.856 172.494 218.9 175.016C219.248 175.885 220.118 176.407 219.509 177.712C217.161 183.017 218.9 186.496 224.553 188.235C225.597 188.583 226.727 188.757 227.771 189.279C224.814 189.975 222.031 192.41 218.813 189.627L218.9 189.714C218.465 188.67 218.117 187.192 216.378 187.192Z" fill="#CFCECD"/>
<path d="M201.506 202.672C202.289 201.889 203.158 201.107 203.941 200.411C207.42 197.28 207.42 197.193 208.811 201.628C210.203 206.064 211.247 210.499 212.029 215.022C212.29 216.326 212.29 217.196 210.551 217.109C206.202 216.935 201.767 216.935 197.418 216.935C197.158 215.37 198.288 214.587 199.158 213.543C201.593 210.238 202.115 206.586 201.506 202.672Z" fill="#CFCECD"/>
<path d="M82.0098 197.454C81.9228 192.149 84.184 187.278 85.5755 182.321C86.7061 178.06 87.2279 173.885 87.9237 169.624C88.2716 167.449 89.4022 165.536 89.6631 163.275C89.837 161.796 91.7504 161.448 93.2289 161.362C93.2289 170.667 90.8807 179.538 89.0543 188.496C88.7934 189.627 88.2716 190.67 88.2716 191.714C88.0976 195.888 85.7495 197.454 82.0098 197.454Z" fill="#CFCECD"/>
<path d="M240.555 163.275C241.425 158.144 240.208 155.274 236.642 153.969L236.729 154.056C237.077 153.273 236.642 153.186 236.033 153.36L236.12 153.447C236.381 152.752 235.946 152.665 235.424 152.752L235.511 152.838C235.337 151.621 234.468 151.36 233.424 151.447L233.511 151.534C232.815 150.055 231.424 149.795 230.032 149.447L230.119 149.534C225.771 146.838 221.596 147.185 217.509 150.142C217.335 149.795 217.161 149.534 216.987 149.186C218.813 146.055 221.77 144.663 224.988 143.446C228.119 142.315 230.206 144.837 232.728 145.446C236.381 146.316 239.686 148.055 242.556 150.403C247.339 154.317 246.469 161.448 241.077 163.884C240.816 163.536 240.729 163.449 240.555 163.275Z" fill="#CFCECD"/>
<path d="M225.771 178.495C232.989 178.842 239.773 177.973 245.165 172.146C244.904 182.756 232.815 190.235 223.683 185.974C224.379 183.452 225.075 181.017 225.771 178.495Z" fill="#CFCECD"/>
<path d="M141.062 85.0021C139.149 85.5239 138.54 86.8285 138.54 88.6549C138.54 89.9594 138.975 91.2639 138.018 92.4815C133.67 89.1767 128.713 87.3503 123.581 85.6109C123.755 83.4367 124.277 81.3494 125.582 79.697C126.538 78.4794 127.321 77.4358 127.06 75.7833C132.452 77.8706 137.496 80.3058 141.062 85.0021Z" fill="#CAC8C8"/>
<path d="M70.4428 227.285C70.0949 221.371 72.3561 215.978 73.3997 210.412C74.0955 206.934 75.574 203.629 75.8349 200.063C77.9221 199.802 79.9224 199.454 82.0097 199.193C81.314 201.02 80.4443 202.846 79.9224 204.759C78.6179 209.543 77.8352 214.5 76.1828 219.109C75.2261 221.892 75.1391 224.762 74.4434 227.545C74.1825 228.676 74.0085 230.068 75.6609 230.589C74.4434 231.459 73.7476 231.024 72.8779 229.894C72.1821 228.937 71.2255 228.154 70.4428 227.285Z" fill="#CAC8C8"/>
<path d="M121.929 134.488C126.364 134.14 130.8 134.575 135.322 133.792C138.192 133.27 140.888 134.227 143.236 136.488C146.976 139.967 151.064 143.098 155.151 146.229C156.195 147.012 157.239 147.968 158.717 147.968C157.673 148.925 156.63 149.882 155.586 150.838C153.76 150.838 152.542 149.882 151.238 148.664C147.063 144.75 142.889 140.924 137.757 138.228C135.148 136.836 132.452 135.966 129.495 136.923C127.234 137.619 125.147 135.879 122.886 136.488C122.19 135.966 121.233 135.532 121.929 134.488Z" fill="#CAC8C8"/>
<path d="M75.6609 230.589C74.0085 230.068 74.1824 228.676 74.4434 227.545C75.0521 224.762 75.1391 221.892 76.1828 219.109C77.7482 214.413 78.6179 209.543 79.9224 204.759C80.4443 202.846 81.314 201.02 82.0097 199.193C83.4012 198.411 84.8797 197.976 86.88 197.802C85.5755 202.411 84.4449 206.76 83.1403 211.195C81.4879 216.761 79.6615 222.327 77.8352 227.893C77.4003 228.937 77.2264 230.328 75.6609 230.589Z" fill="#CFCECD"/>
<path d="M181.242 148.577C178.72 148.403 179.329 145.011 177.154 144.576C176.894 142.663 175.415 141.619 174.11 140.402C170.893 137.358 171.327 135.705 175.589 134.575C177.154 134.14 179.068 134.314 179.155 131.879C182.025 132.227 184.895 132.662 188.287 133.096C184.634 137.967 182.72 143.185 181.242 148.577Z" fill="#DDDBDC"/>
<path d="M88.3583 327.039C87.0538 326.952 85.9232 327.039 85.8362 328.865C85.6623 332.431 84.3577 335.475 81.8356 337.91C77.1392 330.431 77.748 323.299 83.662 316.342C85.2274 319.907 86.7929 323.473 88.3583 327.039Z" fill="#CAC8C8"/>
<path d="M65.3986 91.003C64.4419 87.0024 61.137 86.4806 57.8322 85.9588C57.1364 84.6542 57.6582 83.1758 57.3973 81.7842C58.267 81.4364 59.4846 81.7842 59.3976 82.393C58.5279 86.8285 62.4416 85.7849 64.2679 86.3067C66.3552 86.9155 68.0946 85.437 68.6164 82.8279C68.8773 81.4364 70.4428 80.5667 71.7473 79.9579C72.617 79.523 73.2258 79.7839 73.7476 80.5667C75.9219 83.9585 71.9213 96.0473 67.8337 97.8736C68.7904 96.0473 69.6601 94.3949 70.7907 92.3076C68.8773 92.4815 68.7904 94.2209 67.6598 94.4818C66.7031 93.5252 67.5728 91.2639 65.3986 91.003ZM71.2255 91.2639C71.1386 91.003 71.0516 90.8291 70.9646 90.6552C70.7907 90.8291 70.4428 91.003 70.3558 91.2639C70.2689 91.3509 70.4428 91.6118 70.5298 91.7858C70.7907 91.6118 71.0516 91.4379 71.2255 91.2639Z" fill="#CFCECD"/>
<path d="M201.506 202.672C202.202 206.586 201.68 210.238 199.245 213.456C198.462 214.5 197.332 215.283 197.505 216.848C194.549 217.022 191.679 217.196 188.722 217.37C188.809 215.022 189.765 212.761 189.504 210.412C193.505 207.89 197.679 205.542 201.506 202.672Z" fill="#CAC8C8"/>
<path d="M127.147 75.6964C127.408 77.2618 126.625 78.3924 125.668 79.61C124.364 81.2624 123.842 83.4367 123.668 85.5239C121.146 84.9152 118.537 84.2194 116.015 83.6106C115.406 81.8712 116.015 80.3927 116.798 78.8273C117.754 76.9139 118.624 75.0006 118.45 72.8264C121.494 73.1742 124.364 74.3049 127.147 75.6964Z" fill="#DDDBDC"/>
<path d="M150.803 96.4821C151.064 97.0039 151.499 97.4388 151.499 97.9606C151.846 102.483 155.238 104.744 159.326 103.092C159.674 102.918 160.283 102.483 160.283 102.309C159.848 100.744 160.717 100.483 161.935 100.831C163.326 101.265 164.283 102.222 164.283 103.788C164.283 105.266 163.587 106.397 162.109 106.745C160.978 107.005 160.63 106.832 160.022 105.353C159.326 103.701 156.543 103.875 154.977 104.396C154.195 104.657 151.759 105.614 152.629 108.223C153.325 110.136 151.933 113.354 150.542 113.267C148.281 113.18 148.368 110.223 148.02 108.223C149.411 106.918 148.716 105.44 148.629 103.962C148.368 101.265 147.759 98.3085 150.803 96.4821Z" fill="#CFCECD"/>
<path d="M210.464 175.798C205.594 174.233 201.767 171.276 198.462 167.275C194.375 162.318 189.678 157.883 185.243 153.186C184.547 152.491 183.59 152.752 182.721 152.578C182.721 151.447 182.547 150.316 183.243 149.273C184.808 149.186 185.591 150.49 186.547 151.447C191.505 156.404 196.462 161.188 200.984 166.58C203.593 169.624 206.724 171.885 210.203 173.885C210.203 174.494 210.377 175.103 210.464 175.798Z" fill="#CAC8C8"/>
<path d="M159.5 154.926C158.021 154.839 156.282 155.187 155.847 153.795C155.325 152.404 156.804 151.447 157.934 150.664C159.152 149.795 160.282 149.012 161.587 148.316C165.935 146.055 167.849 146.577 170.806 150.403C171.849 151.708 170.893 151.882 170.11 152.23C166.631 153.621 163.065 154.578 159.5 154.926Z" fill="#F4F4F6"/>
<path d="M48.5263 262.681C44.5257 263.203 41.0469 261.464 37.4812 260.333C36.5245 260.072 36.3506 259.289 36.5245 258.507C36.6984 257.028 37.5681 255.985 38.9597 255.55C41.6557 254.767 44.0909 255.463 45.9172 257.55C47.2218 259.028 48.1784 260.594 48.5263 262.681Z" fill="#CFCECD"/>
<path d="M150.803 96.4821C147.759 98.2215 148.368 101.178 148.455 103.962C148.542 105.44 149.237 107.005 147.846 108.223C147.237 107.179 147.672 105.788 146.367 104.918C145.15 108.397 147.324 111.441 147.324 114.746C144.715 112.398 144.889 109.18 144.628 106.136C144.367 103.005 144.802 99.8739 145.932 96.83C146.367 95.5255 146.889 93.873 148.281 93.7861C149.759 93.6991 150.368 95.3515 150.803 96.4821Z" fill="#CAC8C8"/>
<path d="M189.417 210.412C189.765 212.761 188.722 215.022 188.635 217.37C185.156 217.805 181.677 218.327 178.111 218.762C177.763 217.892 177.416 217.022 177.068 216.152V216.239C177.242 216.065 177.502 215.892 177.676 215.805C178.807 215.283 179.851 214.761 180.981 214.239C183.851 212.935 186.634 211.63 189.417 210.412Z" fill="#DDDBDC"/>
<path d="M179.242 131.879C179.155 134.314 177.242 134.14 175.676 134.575C171.415 135.705 170.98 137.358 174.198 140.402C175.502 141.619 176.981 142.663 177.242 144.576C174.893 144.75 174.546 141.967 172.632 141.445C172.371 141.358 172.284 140.924 172.11 140.576C170.98 138.836 168.371 138.054 168.458 135.532C168.545 132.488 171.676 133.27 173.241 132.053C173.589 131.792 173.676 131.27 173.85 130.922C175.676 131.357 177.416 131.618 179.242 131.879Z" fill="#CAC8C8"/>
<path d="M34.9591 259.376C31.0455 257.811 27.8276 255.898 25.4794 252.767C24.9576 252.071 24.1749 251.375 24.9576 250.418C25.6534 249.549 26.5231 249.81 27.3928 249.984C31.7412 250.94 34.4373 254.158 34.9591 259.376Z" fill="#CFCECD"/>
<path d="M223.77 166.928C223.857 170.058 222.292 173.189 223.77 176.32C220.466 176.581 219.335 174.581 219.074 171.798C218.9 170.406 219.074 168.928 219.074 167.536V167.623C219.596 167.275 220.379 167.102 219.77 166.232L219.683 166.319C221.161 166.058 222.553 166.319 223.77 166.928Z" fill="#CAC8C8"/>
<path d="M225.771 178.495C225.075 181.017 224.379 183.452 223.596 185.974C222.205 185.626 221.161 184.93 220.291 183.8C218.9 182.06 219.248 180.234 220.205 178.408C221.161 176.581 222.553 177.886 223.77 177.973C224.553 178.06 225.162 178.321 225.771 178.495Z" fill="#CAC8C8"/>
<path d="M94.0985 149.273C95.0552 149.273 95.2291 150.055 95.577 150.838C96.9685 154.491 97.2294 158.405 97.3164 162.231C96.5337 162.144 95.664 162.144 94.8812 162.057C94.8812 157.796 94.7073 153.534 94.0985 149.273Z" fill="#CAC8C8"/>
<path d="M221.509 150.316C220.987 150.142 220.552 150.055 220.031 149.882C221.944 147.707 224.466 148.49 226.727 148.751C227.771 148.838 228.728 149.795 229.858 149.273L229.771 149.186C229.771 151.099 231.424 150.838 232.467 151.36C232.467 151.882 232.467 152.404 232.467 152.925C228.989 151.969 225.336 150.838 221.509 150.316Z" fill="#CAC8C8"/>
<path d="M110.971 133.009C105.578 133.27 100.621 131.531 95.6639 129.965C100.795 130.661 105.926 131.27 111.058 131.792C110.971 132.227 110.971 132.662 110.971 133.009Z" fill="#CFCECD"/>
<path d="M65.3985 91.003C67.5727 91.2639 66.6161 93.5252 67.6597 94.5688C66.79 95.8733 66.0943 97.3518 64.4418 97.7867C63.833 97.9606 63.7461 97.0909 63.6591 96.4821C63.3982 94.3949 63.2243 92.2206 65.3985 91.003Z" fill="#CAC8C8"/>
<path d="M73.2258 137.706C77.6612 136.488 82.0967 135.271 86.4452 138.054C86.1842 138.228 86.0103 138.488 85.7494 138.662C81.6618 137.01 77.6612 137.88 73.6606 139.097C73.6606 138.575 72.7909 138.315 73.2258 137.706Z" fill="#CFCECD"/>
<path d="M57.4842 81.7842C57.7451 83.1758 57.2233 84.6542 57.9191 85.9588C57.8321 86.3067 57.7451 86.5676 57.6582 86.9155C57.1363 87.0024 56.5276 87.1764 56.0057 87.2633C53.6576 84.3933 54.0924 83.0018 57.4842 81.7842Z" fill="#DDDBDC"/>
<path d="M181.068 214.152C179.938 214.674 178.894 215.196 177.763 215.718C177.589 215.892 177.329 216.065 177.155 216.152V216.065C175.763 216.326 174.459 217.37 172.284 216.413C175.589 215.109 178.459 213.978 181.329 212.848C181.242 213.282 181.155 213.717 181.068 214.152Z" fill="#CFCECD"/>
<path d="M232.641 153.012C232.641 152.491 232.641 151.969 232.641 151.447C232.902 151.36 233.163 151.36 233.424 151.273L233.337 151.186C233.772 151.969 234.468 152.491 235.424 152.578L235.337 152.491C235.337 153.012 235.598 153.186 236.033 153.186L235.946 153.099C235.946 153.534 236.207 153.795 236.642 153.795L236.555 153.708C236.729 154.752 238.12 155.187 237.947 156.404C236.207 155.448 234.381 154.23 232.641 153.012Z" fill="#CFCECD"/>
<path d="M238.642 158.057C240.121 159.1 239.077 160.405 238.903 161.622C238.903 160.492 238.816 159.274 238.642 158.057Z" fill="#CFCECD"/>
<path d="M190.722 219.022C190.461 220.327 189.504 220.327 188.548 220.24C188.548 219.892 188.635 219.457 188.635 219.109C189.33 218.762 190.026 218.762 190.722 219.022Z" fill="#CAC8C8"/>
<path d="M188.635 219.109C188.635 219.457 188.548 219.892 188.548 220.24C187.591 220.153 186.46 220.501 185.852 219.283C186.808 219.283 187.678 219.196 188.635 219.109Z" fill="#F4F4F6"/>
<path d="M56.0057 87.2633C56.5276 87.1764 57.1363 87.0024 57.6582 86.9155C57.6582 87.1764 57.8321 87.6982 57.7451 87.6982C57.0494 87.9591 56.4406 87.8721 56.0057 87.2633Z" fill="#CFCECD"/>
<path d="M235.859 223.632C235.337 223.371 235.25 222.849 235.25 222.327C236.642 222.327 235.772 223.197 235.859 223.632Z" fill="#CFCECD"/>
<path d="M216.117 151.621C215.856 152.056 215.682 152.491 215.421 152.925C215.16 152.752 214.899 152.491 214.725 152.317C214.986 151.882 215.247 151.447 215.508 151.012C215.682 151.186 215.943 151.447 216.117 151.621Z" fill="#CFCECD"/>
<path d="M56.2666 256.767C56.5275 256.941 56.7884 257.028 56.8753 257.115C56.8753 257.289 56.7884 257.463 56.7014 257.724C56.6144 258.072 56.3535 258.072 56.2666 257.724C56.1796 257.463 56.2666 257.202 56.2666 256.767Z" fill="#CFCECD"/>
<path d="M238.729 158.057C238.12 157.796 237.946 157.361 238.033 156.752C238.816 156.926 238.816 157.448 238.729 158.057Z" fill="#CFCECD"/>
<path d="M237.338 164.145C237.251 164.232 237.164 164.405 237.077 164.492C237.077 164.405 237.077 164.318 237.164 164.318C237.164 164.232 237.251 164.232 237.338 164.145Z" fill="#CFCECD"/>
<path d="M240.99 163.71C240.729 163.797 240.555 163.884 240.295 163.971C240.382 163.71 240.468 163.536 240.555 163.275C240.729 163.449 240.816 163.536 240.99 163.71Z" fill="#CFCECD"/>
<path d="M238.033 163.449C238.033 163.884 237.859 164.145 237.338 164.145L237.424 164.232C237.424 163.71 237.598 163.449 238.033 163.449Z" fill="#CFCECD"/>
<path d="M238.033 163.536C238.12 163.362 238.12 163.188 238.207 163.014C238.294 163.101 238.381 163.188 238.468 163.275C238.294 163.275 238.207 163.362 238.033 163.536Z" fill="#CFCECD"/>
<path d="M215.421 151.012C215.682 150.751 215.856 150.229 216.291 150.577C216.726 150.925 216.291 151.273 216.117 151.621C215.943 151.447 215.682 151.186 215.421 151.012Z" fill="#CFCECD"/>
<path d="M232.554 266.16C232.467 266.247 232.467 266.421 232.38 266.508C232.38 266.421 232.38 266.334 232.38 266.334C232.467 266.334 232.554 266.247 232.554 266.16Z" fill="#CFCECD"/>
<path d="M217.335 149.882C217.074 149.968 216.639 150.142 216.552 150.055C216.204 149.621 216.465 149.273 216.813 148.925C216.987 149.273 217.161 149.621 217.335 149.882Z" fill="#CFCECD"/>
<path d="M148.107 115.442L148.194 115.528V115.355L148.107 115.442Z" fill="#CAC8C8"/>
<path d="M147.411 114.746C148.02 114.572 148.02 115.007 148.107 115.355L148.194 115.268C147.585 115.615 147.498 115.268 147.411 114.746Z" fill="#CAC8C8"/>
<path d="M115.928 83.6106C118.45 84.2194 121.059 84.9152 123.581 85.5239C128.626 87.2633 133.67 89.0897 138.018 92.3945C142.28 98.0476 142.193 104.483 137.931 108.832C134.974 109.093 132.887 107.266 130.626 105.788C128.278 104.222 126.016 102.657 123.668 101.092C119.755 98.3085 116.102 95.0906 110.884 95.1776C109.753 94.047 108.362 93.96 106.883 93.873C102.1 93.6121 97.4904 94.5688 92.9679 95.8733C90.6197 96.5691 88.2716 97.3518 85.8364 97.9606C79.4876 99.787 78.0091 98.2215 79.6616 91.7858C81.4879 84.6542 84.097 82.3061 91.4894 81.5233C99.8385 80.6536 107.84 82.393 115.928 83.6106ZM93.5767 88.133C93.4028 86.8285 92.707 85.8718 91.2285 85.8718C89.837 85.8718 88.8804 86.8285 88.8804 88.133C88.8804 89.4376 89.7501 90.4812 91.1416 90.4812C92.707 90.4812 93.4028 89.5245 93.5767 88.133ZM128.452 93.6991C127.147 93.873 126.277 94.4818 126.19 95.9603C126.103 97.2649 126.973 98.1345 128.191 98.2215C129.582 98.3955 130.539 97.6127 130.713 96.2212C130.887 94.6558 130.017 93.873 128.452 93.6991Z" fill="#0F2548"/>
<path d="M109.579 112.137C110.536 112.224 111.579 112.224 110.449 113.615C109.84 114.398 109.231 115.181 108.622 115.963C105.318 117.268 105.318 117.268 101.317 112.05C104.187 112.224 106.97 114.311 109.579 112.137Z" fill="#2252A0"/>
<path d="M150.977 230.589C150.629 230.937 150.281 231.372 149.759 230.85C149.759 230.85 150.194 230.328 150.455 230.068C150.629 230.242 150.803 230.415 150.977 230.589Z" fill="#CFCECD"/>
<path d="M86.3582 138.054C86.7061 138.315 87.6627 138.315 87.1409 139.01C86.7061 139.532 86.1842 138.923 85.7494 138.575C85.9233 138.488 86.1842 138.228 86.3582 138.054Z" fill="#CFCECD"/>
<path d="M58.354 255.289C60.9631 248.505 59.7455 240.678 63.4852 234.155C61.6589 241.113 62.7895 248.853 58.354 255.289Z" fill="#2252A0"/>
<path d="M216.378 187.105C218.117 187.192 218.465 188.67 219.161 189.888C217.509 189.627 216.9 188.409 216.378 187.105Z" fill="#2252A0"/>
<path d="M219.857 166.145C220.466 167.015 219.683 167.275 219.161 167.536C218.9 166.841 219.248 166.406 219.857 166.145Z" fill="#2252A0"/>
<path d="M233.337 151.36C233.076 151.447 232.815 151.447 232.554 151.534C231.511 151.012 229.858 151.186 229.858 149.36C231.25 149.534 232.641 149.882 233.337 151.36Z" fill="#2252A0"/>
<path d="M146.019 324.517C148.455 324.517 150.89 324.517 153.325 324.517C189.852 324.256 226.379 325.125 262.646 329.126C274.039 330.431 285.432 331.909 296.477 335.301C298.912 336.084 301.434 336.953 303.435 338.606C305.435 340.171 305.348 341.824 303.435 343.302C301.173 345.041 298.477 345.998 295.781 346.781C282.649 350.608 269.082 352.086 255.514 353.478C235.685 355.478 215.769 356.087 195.853 357.13C177.502 358.087 159.152 358.435 140.801 357.565C114.449 356.261 88.0976 355.652 61.9197 352.173C52.3531 350.868 42.6994 349.564 33.3937 346.781C31.1325 346.085 28.8712 345.302 26.8709 343.998C23.4791 341.824 23.4791 340.171 26.784 337.997C30.1758 335.823 34.0025 334.866 37.8291 333.909C49.1352 331.213 60.6152 329.648 72.1821 328.604C74.2694 328.43 75.3131 327.908 75.6609 325.56C76.3567 319.907 80.2703 315.907 83.2273 311.384C91.5764 298.6 96.6206 284.511 99.5776 269.552C100.099 267.117 99.3167 265.899 98.0991 264.334C90.9676 254.332 86.7061 242.939 82.5315 231.459C82.1837 230.589 81.9227 229.72 81.5749 228.937C81.4879 228.763 81.227 228.763 80.7921 228.415C78.444 235.112 76.0088 241.722 73.0518 248.07C70.1818 254.245 66.0943 259.637 60.3543 263.551C55.484 266.856 50.1788 268.247 44.3518 267.204C39.3076 266.334 34.5243 264.681 30.0888 262.246C22.9573 258.333 18.9567 252.245 18.174 244.157C17.4782 236.503 18.6958 229.111 20.957 221.805C28.7843 196.41 39.8294 172.668 56.7885 151.969C59.4846 148.664 62.5285 145.62 65.9203 143.011C67.1379 142.054 67.9206 140.924 68.3555 139.445C70.1818 133.879 72.9649 128.835 77.1394 124.66C78.7049 123.095 78.1831 122.486 76.7046 121.529C71.3124 117.877 66.877 113.267 63.8331 107.44C61.3979 102.744 60.2673 97.6997 61.05 92.3945C61.3979 89.8724 61.7458 88.307 58.354 89.7855C56.0058 90.7421 53.9185 89.6985 52.44 87.6982C50.9615 85.6979 50.7876 83.5236 52.1791 81.3494C53.4837 79.2621 55.6579 78.4794 58.0061 78.8273C59.8325 79.0882 61.137 80.1318 61.9197 81.6973C62.7894 83.4367 63.7461 83.6106 64.9637 82.1321C76.7915 67.0864 93.1418 64.3903 110.623 66.4776C127.06 68.3909 140.801 75.6094 150.542 89.6985C152.455 92.3945 154.369 94.9167 155.064 98.2215C155.499 100.222 156.369 101.265 158.543 99.5261C161.413 97.3518 164.544 97.7867 166.631 100.309C168.458 102.483 168.284 105.614 166.196 107.614C163.935 109.875 160.978 110.049 158.369 107.788C156.891 106.571 155.673 105.875 155.325 108.397C154.455 115.094 149.498 118.833 145.411 123.182C144.802 123.791 143.758 123.965 143.584 125.182C152.977 125.965 162.37 126.661 171.762 127.617C189.504 129.357 207.072 131.966 224.205 137.01C230.554 138.923 236.642 141.532 242.469 144.924C247.339 147.794 249.948 151.969 249.6 157.709C249.513 159.883 249.513 161.97 249.6 164.145C250.122 177.712 244.034 186.67 231.163 191.105C225.162 193.192 218.9 193.888 212.551 194.236C211.682 194.323 210.812 194.41 209.681 194.497C212.029 201.368 213.682 208.325 214.378 215.37C214.552 217.283 215.769 217.109 216.987 217.196C224.118 217.544 231.163 218.153 238.12 219.544C242.73 220.501 247.339 221.718 251.514 224.067C258.297 227.893 260.559 233.112 260.298 240.852C259.95 254.506 251.862 262.072 240.729 267.638C228.989 273.465 216.117 275.379 203.332 277.64C195.157 279.118 186.808 280.075 178.546 280.771C176.981 280.858 175.85 281.293 174.98 282.771C166.544 297.208 157.152 310.949 146.106 323.473C146.019 323.647 146.106 323.908 146.019 324.517ZM148.107 115.442C148.02 115.094 148.02 114.572 147.411 114.746C147.411 111.441 145.237 108.397 146.454 104.918C147.759 105.701 147.237 107.179 147.933 108.223C148.281 110.223 148.194 113.267 150.455 113.267C151.846 113.267 153.238 110.136 152.542 108.223C151.672 105.614 154.021 104.657 154.89 104.396C156.456 103.875 159.326 103.701 159.935 105.353C160.543 106.832 160.891 107.005 162.022 106.745C163.5 106.397 164.196 105.266 164.196 103.788C164.196 102.222 163.326 101.265 161.848 100.831C160.63 100.483 159.848 100.744 160.195 102.309C160.282 102.483 159.674 102.918 159.239 103.092C155.151 104.744 151.759 102.483 151.412 97.9606C151.412 97.4388 150.977 97.0039 150.716 96.4821C150.194 95.2645 149.672 93.6991 148.281 93.7861C146.889 93.873 146.367 95.5255 145.932 96.83C144.889 99.8739 144.367 102.918 144.628 106.136C144.889 109.18 144.715 112.398 147.324 114.746C147.498 115.268 147.585 115.615 148.107 115.442ZM238.033 163.536C237.512 163.536 237.338 163.797 237.338 164.232C237.251 164.232 237.164 164.318 237.077 164.318C237.077 164.318 237.077 164.405 236.99 164.492C237.077 164.405 237.164 164.232 237.251 164.145C237.772 164.145 238.033 163.884 238.033 163.536C238.12 163.362 238.294 163.362 238.468 163.275C238.381 163.188 238.294 163.101 238.207 163.014C238.12 163.101 238.12 163.275 238.033 163.536ZM215.421 151.012C215.16 151.447 214.899 151.882 214.639 152.317C209.681 163.275 209.507 174.146 215.595 184.843C216.03 185.539 216.987 186.148 216.378 187.191C213.073 184.061 212.116 179.799 210.464 175.798C210.29 175.19 210.203 174.494 210.029 173.885C209.855 172.668 209.681 171.45 209.507 170.232C209.246 161.883 210.986 154.143 216.117 147.359C218.378 145.185 220.987 143.533 224.64 142.228C213.073 138.228 201.941 135.792 190.722 133.705C189.504 133.444 188.895 134.14 188.287 135.01C185.504 139.445 183.416 144.055 183.155 149.36C182.547 150.403 182.634 151.534 182.634 152.665C181.59 155.1 182.982 156.578 184.634 158.144C193.853 166.841 201.506 176.668 206.898 188.235C209.159 193.018 209.072 193.105 214.291 192.323C216.117 192.062 218.291 192.323 218.987 189.888C222.118 192.671 224.988 190.235 227.945 189.54C226.901 188.931 225.771 188.844 224.727 188.496C219.074 186.757 217.335 183.278 219.683 177.973C220.292 176.668 219.335 176.146 219.074 175.277C218.03 172.755 216.726 170.145 219.161 167.623C219.161 169.102 218.987 170.493 219.161 171.885C219.422 174.668 220.639 176.668 223.857 176.407C229.771 177.712 235.511 177.103 240.816 174.059C246.035 171.102 246.643 169.537 245.6 163.275C238.903 168.058 231.511 168.493 223.857 166.928C222.553 166.319 221.248 166.058 219.77 166.232C219.857 165.797 219.944 165.362 219.509 165.014C213.247 160.057 213.247 160.057 215.508 153.012C215.769 152.578 215.943 152.143 216.204 151.708C216.378 151.36 216.813 151.012 216.378 150.664C215.856 150.229 215.682 150.751 215.421 151.012ZM188.635 219.109C187.678 219.196 186.808 219.283 185.852 219.283C185.156 219.022 184.547 219.109 183.938 219.457C176.981 219.718 170.284 221.545 163.674 223.806C163.413 223.545 163.239 223.284 162.979 223.023C167.849 221.197 172.98 219.805 178.111 218.675C181.59 218.24 185.069 217.718 188.635 217.283C191.592 217.109 194.462 216.935 197.419 216.761C201.767 216.848 206.202 216.848 210.551 216.935C212.29 217.022 212.29 216.152 212.029 214.848C211.247 210.325 210.116 205.803 208.812 201.455C207.42 197.106 207.42 197.106 203.941 200.237C203.159 201.02 202.289 201.715 201.506 202.498C197.679 205.455 193.505 207.716 189.417 210.238C186.634 211.543 183.851 212.761 181.068 214.065C181.155 213.63 181.242 213.195 181.329 212.761C182.025 212.413 182.721 211.978 183.503 211.63C185.417 211.195 186.895 209.891 188.287 208.586C193.505 206.847 197.505 203.281 201.68 199.976C207.159 196.149 207.246 196.149 204.376 190.496C203.506 188.67 202.55 186.844 201.506 185.191C194.462 173.972 185.156 164.579 176.024 155.1C173.589 152.578 171.589 152.143 168.979 154.491C166.109 155.187 163.239 155.795 160.369 156.491C156.717 155.795 153.064 155.361 150.194 158.578C146.889 160.318 143.845 162.492 141.062 164.84C139.062 166.58 138.192 166.406 137.149 163.884C133.496 155.187 129.234 146.838 123.581 139.184C120.276 134.749 116.711 131.966 110.971 132.922C110.971 132.488 111.058 132.14 111.058 131.705C112.188 131.705 113.232 131.618 114.362 131.618C117.493 131.879 120.45 131.531 123.494 130.748C125.06 130.748 126.538 130.4 127.93 129.618C135.061 128.313 140.888 124.747 145.932 119.703C147.237 118.398 147.759 117.529 146.106 115.702C141.149 110.136 141.062 97.1779 145.585 91.2639C146.019 90.6552 146.976 90.2203 146.193 89.3506C144.715 87.6982 143.671 85.35 141.149 84.8282C137.583 80.1318 132.452 77.6967 127.147 75.6094C124.364 74.2179 121.494 73.0873 118.363 72.7394C105.231 69.0867 92.1852 68.9127 79.4876 74.3049C77.1394 75.2615 74.5303 76.1312 77.0525 79.523C77.6612 80.3058 77.5743 81.6973 77.4873 82.8279C76.9655 89.3506 74.4434 95.0036 69.834 99.7C68.7034 100.831 67.4858 101.961 65.8334 102.048C64.007 102.135 64.1809 102.918 64.6158 104.222C66.1812 108.31 68.4425 111.789 71.3994 115.007C77.2264 121.355 84.5318 125.443 92.8809 128.661C90.9676 128.835 91.0546 130.487 89.924 131.096C90.0979 125.791 84.5318 127.704 82.3576 125.269C81.314 124.138 80.2703 124.573 79.4006 125.791C76.7046 129.444 74.3564 133.357 73.1388 137.793C72.7909 138.402 73.6606 138.662 73.5737 139.184C63.7461 144.228 57.2234 152.838 51.2225 161.883C48.6134 165.797 49.1352 167.536 53.5706 169.102C54.9622 169.624 56.3537 169.972 57.8321 170.145C60.3543 170.493 62.2676 169.624 63.5722 167.102C68.7903 156.578 76.3567 148.142 86.3582 141.967C87.4018 141.358 87.8367 140.75 87.8367 139.184C87.9237 136.401 87.1409 133.096 90.0979 131.009C88.0976 135.792 88.9673 140.228 92.2721 144.142C92.8809 145.881 93.4897 147.62 94.0985 149.36C94.7073 153.621 94.8812 157.883 94.8812 162.144C94.7073 164.145 94.5334 166.145 94.3594 168.145C92.3591 186.322 87.8367 203.977 82.9664 221.545C82.5315 223.11 81.7488 224.675 82.5315 226.415C83.9231 229.72 85.0537 233.112 86.3582 236.503C86.7931 237.547 87.1409 238.591 88.5324 238.765C92.5331 239.112 96.5337 239.721 100.534 238.852C101.578 239.112 102.535 239.112 103.491 238.678C106.361 238.678 109.318 238.591 112.101 237.721C112.449 237.721 112.797 237.634 113.145 237.634C113.493 237.547 113.928 237.46 114.275 237.373C117.754 237.112 121.233 236.242 124.538 235.286C124.451 235.634 124.451 236.068 124.364 236.416C119.146 237.634 113.841 238.851 108.622 240.069C107.753 239.895 106.97 240.069 106.187 240.417C103.056 240.504 99.9255 240.591 96.7946 240.765C93.9246 240.504 91.0546 240.156 87.7497 239.808C90.2718 246.418 93.3158 252.419 96.7076 258.159C100.882 265.377 106.883 270.248 114.797 273.031C126.016 276.944 137.67 278.075 149.411 278.249C174.632 278.51 199.419 273.987 224.118 269.291C229.249 268.334 232.206 265.377 234.207 260.942C236.468 257.289 237.859 253.375 238.381 249.201C239.599 240.504 240.121 231.807 235.859 223.632C235.685 223.197 236.642 222.24 235.25 222.327C234.381 221.632 233.511 221.023 232.38 220.849C218.726 218.762 205.072 218.414 191.331 218.935C191.157 218.848 190.896 218.848 190.722 218.935C190.026 218.761 189.33 218.762 188.635 219.109ZM238.642 158.057C238.816 157.448 238.816 156.839 238.033 156.665C238.207 155.448 236.816 155.013 236.642 153.969C240.208 155.274 241.425 158.144 240.555 163.275C240.468 163.536 240.382 163.71 240.295 163.971C240.555 163.884 240.729 163.797 240.99 163.71C246.382 161.275 247.165 154.056 242.469 150.229C239.599 147.881 236.294 146.142 232.641 145.272C230.032 144.663 227.945 142.141 224.901 143.272C221.683 144.489 218.726 145.881 216.9 149.012C216.552 149.36 216.291 149.708 216.639 150.142C216.726 150.229 217.161 150.055 217.422 149.968C221.509 147.012 225.684 146.664 230.032 149.36C228.902 149.882 227.945 148.925 226.901 148.838C224.553 148.577 222.118 147.794 220.205 149.968C215.334 152.143 213.769 159.535 217.856 162.144C222.466 165.188 227.51 166.667 233.163 166.058C236.12 165.71 236.729 163.275 237.512 161.188C238.294 159.187 236.99 157.622 235.337 156.752C232.032 154.839 228.728 152.752 224.901 151.795C223.77 151.534 222.379 151.621 221.683 150.316C225.51 150.751 229.162 151.969 232.815 153.012C234.642 154.23 236.468 155.448 238.207 156.665C237.946 157.361 238.12 157.796 238.642 158.057C238.816 159.187 238.816 160.405 238.903 161.622C239.077 160.492 240.121 159.1 238.642 158.057ZM57.6582 86.9155C57.7452 86.5676 57.8322 86.3067 57.9191 85.9588C61.224 86.4806 64.5288 87.0024 65.4855 91.003C63.2243 92.3076 63.4852 94.3948 63.7461 96.4821C63.8331 97.0039 63.92 97.8736 64.5288 97.7867C66.1812 97.4388 66.877 95.8733 67.7467 94.5688C68.8773 94.2209 68.9643 92.4815 70.8776 92.3945C69.747 94.4818 68.8773 96.1342 67.9206 97.9606C72.0082 96.1342 76.0088 83.9585 73.8346 80.6536C73.3127 79.8709 72.704 79.61 71.8343 80.0449C70.5297 80.7406 68.9643 81.6103 68.7034 82.9149C68.1815 85.5239 66.4421 87.0024 64.3549 86.3936C62.5285 85.8718 58.6149 86.9155 59.4846 82.48C59.5715 81.8712 58.354 81.5233 57.4843 81.8712C54.0925 83.0888 53.6576 84.5673 56.0058 87.3503C56.4406 87.9591 57.0494 88.0461 57.7452 87.7852C57.7452 87.6112 57.6582 87.1764 57.6582 86.9155ZM179.242 131.879C177.415 131.618 175.589 131.27 173.763 131.009C164.979 129.27 155.934 128.835 146.889 127.965C158.369 136.053 169.762 144.402 180.546 154.23C180.807 151.795 180.981 150.142 181.155 148.49C182.547 143.098 184.547 137.88 188.374 133.009C184.982 132.662 182.112 132.314 179.242 131.879ZM75.6609 230.589C77.2264 230.328 77.4003 228.937 77.7482 227.806C79.5746 222.24 81.4009 216.674 83.0534 211.108C84.3579 206.76 85.4885 202.324 86.7931 197.715C84.7927 197.889 83.3143 198.324 81.9228 199.106C79.8355 199.367 77.8352 199.715 75.7479 199.976C72.1821 199.628 68.6164 199.367 64.9637 199.019C55.31 195.888 44.4388 195.193 38.3509 184.843C33.9155 193.888 30.4367 202.846 27.3058 211.978C25.4794 217.37 25.5664 217.544 30.0018 221.284C38.264 228.067 48.4394 229.807 58.267 232.59C60.0064 233.112 59.9194 231.633 60.2673 230.589C63.0503 227.632 66.2682 226.241 70.3558 227.285C71.2255 228.154 72.1821 228.937 72.8779 229.894C73.7476 230.937 74.5303 231.459 75.6609 230.589ZM225.771 178.495C225.162 178.321 224.466 178.06 223.857 177.973C222.64 177.886 221.248 176.581 220.292 178.408C219.335 180.234 218.987 182.06 220.378 183.8C221.248 184.843 222.292 185.626 223.683 185.974C232.902 190.322 244.904 182.756 245.165 172.146C239.773 177.973 232.989 178.929 225.771 178.495ZM121.929 134.488C121.233 135.532 122.19 135.966 122.712 136.488C129.147 144.489 134.452 153.099 138.279 162.666C138.627 163.536 138.888 164.927 140.279 163.623C145.063 159.013 152.803 157.883 155.499 150.838C156.543 149.882 157.586 148.925 158.63 147.968C160.978 148.055 162.544 146.316 164.979 145.533C157.239 138.749 149.411 132.835 141.323 127.182C140.714 126.748 140.105 126.835 139.41 127.182C133.757 130.139 127.756 131.879 121.494 132.575C120.885 132.662 119.929 132.662 120.276 133.618C120.45 134.227 120.885 135.358 121.929 134.488ZM81.8358 337.91C87.6628 345.824 105.057 348.52 113.145 342.78C108.622 341.911 104.448 340.258 100.447 338.084C95.577 335.388 91.9243 331.213 88.3585 327.039C86.7931 323.473 85.2276 319.907 83.6621 316.341C77.7482 323.299 77.1394 330.431 81.8358 337.91ZM82.0097 197.454C85.7494 197.367 88.0976 195.888 88.2715 191.801C88.2715 190.67 88.8803 189.627 89.0543 188.583C90.8806 179.625 93.2288 170.667 93.2288 161.448C93.4897 155.187 93.7506 148.838 90.3588 143.185C89.837 141.358 88.9673 141.619 87.6628 142.489C80.7921 147.098 74.7043 152.491 70.1818 159.535C67.9206 161.448 66.7031 164.145 65.1376 166.493C62.0937 171.363 60.0064 172.32 54.4403 170.58C52.0921 169.798 49.9179 168.667 48.2655 166.058C45.6564 170.928 43.1343 175.277 40.7861 179.712C38.7858 183.539 39.2206 185.887 42.3515 188.844C43.7431 190.148 45.3085 191.279 47.1349 191.975C53.3097 194.497 59.5715 196.41 66.1812 197.454C69.5731 198.15 72.7909 199.802 76.3567 197.976C78.357 198.324 80.1834 198.237 82.0097 197.454ZM232.554 266.16C244.556 264.595 254.036 254.332 256.645 242.33C259.428 229.372 247.339 223.11 236.99 222.414C242.382 237.721 242.991 252.506 232.554 266.16C232.554 266.247 232.467 266.247 232.38 266.334C232.38 266.334 232.38 266.421 232.38 266.508C232.467 266.421 232.554 266.334 232.554 266.16ZM97.2294 286.424C94.1855 295.904 90.5328 305.122 85.1406 313.645C84.5318 314.515 84.4449 315.385 84.7928 316.428C89.5761 329.996 99.4037 337.736 112.971 341.215C113.493 341.389 114.102 341.389 114.536 340.867L114.623 340.78C115.406 342.171 116.624 342.171 117.754 341.476C121.494 339.301 125.495 337.649 128.625 334.692C147.933 320.603 161.065 301.296 174.372 281.293C172.98 281.38 172.284 281.38 171.589 281.467C156.282 282.249 140.975 282.423 125.929 279.205C117.145 277.379 108.796 274.335 101.578 268.682C100.708 269.987 100.708 271.117 100.621 272.248C99.9255 275.379 99.1427 278.51 98.447 281.641C98.0121 283.206 97.5773 284.772 97.2294 286.424ZM21.7397 238.938C21.7397 241.982 22.0876 245.026 23.0443 247.896C23.2182 248.505 23.1312 249.375 24.4358 249.114C29.3931 247.809 32.8718 249.897 35.22 254.245C35.5679 254.854 35.4809 255.724 36.7855 255.202C44.004 252.593 46.2652 253.549 49.3091 260.855C50.3528 263.377 51.6573 262.594 53.2228 262.159C54.9621 261.725 56.2667 261.203 55.0491 258.941C54.5273 257.985 54.8752 256.941 55.2231 255.985C57.6582 249.81 57.8321 243.287 58.7888 236.851C59.0497 235.025 58.6149 233.894 56.7015 233.894C54.3534 233.981 52.44 232.764 50.3528 232.155C41.6558 229.633 33.3067 226.415 26.61 220.066C25.1315 218.675 24.6097 219.718 24.3488 220.936C23.3052 226.937 21.7397 232.851 21.7397 238.938ZM74.4434 237.721C74.6173 235.721 73.8346 233.894 73.0518 232.155C71.8343 229.72 70.1818 227.719 67.0509 228.241C64.094 228.763 61.7458 230.242 61.224 233.459C60.8761 235.199 60.4412 237.025 60.3543 238.765C60.0064 245.548 57.3973 251.984 57.2234 258.855C57.2234 260.072 57.7452 260.159 58.4409 260.42C60.3543 261.029 62.0937 260.681 63.4852 259.376C69.834 253.636 73.4867 246.331 74.4434 237.721ZM159.5 154.926C163.065 154.665 166.631 153.621 170.023 152.23C170.893 151.882 171.762 151.708 170.719 150.403C167.762 146.577 165.848 146.055 161.5 148.316C160.195 149.012 158.978 149.795 157.847 150.664C156.717 151.447 155.325 152.317 155.76 153.795C156.282 155.187 158.108 154.839 159.5 154.926ZM48.5264 262.681C48.1785 260.594 47.1349 259.028 45.9173 257.55C44.0909 255.376 41.6558 254.767 38.9597 255.55C37.5682 255.985 36.6985 257.028 36.5246 258.507C36.4376 259.376 36.6115 260.072 37.4812 260.333C41.134 261.464 44.5258 263.203 48.5264 262.681ZM34.9591 259.376C34.4373 254.158 31.6543 250.94 27.3928 249.984C26.5231 249.81 25.5664 249.549 24.9576 250.418C24.2618 251.375 24.9576 252.071 25.4794 252.767C27.9146 255.898 31.1325 257.811 34.9591 259.376ZM56.2667 256.767C56.2667 257.115 56.1797 257.376 56.2667 257.637C56.3537 257.985 56.5276 257.985 56.7015 257.637C56.7885 257.463 56.8755 257.289 56.8755 257.028C56.7885 257.028 56.6146 256.941 56.2667 256.767Z" fill="#2252A0"/>
<path d="M235.337 152.665C234.381 152.578 233.685 152.056 233.25 151.273C234.294 151.186 235.163 151.447 235.337 152.665Z" fill="#2252A0"/>
<path d="M236.729 154.056C236.294 153.969 236.033 153.795 236.033 153.36C236.642 153.186 236.99 153.273 236.729 154.056Z" fill="#2252A0"/>
<path d="M236.033 153.36C235.598 153.36 235.25 153.099 235.337 152.665C235.859 152.578 236.294 152.665 236.033 153.36Z" fill="#2252A0"/>
<path d="M71.2254 91.2639C70.9645 91.4379 70.7906 91.6118 70.5297 91.7858C70.4427 91.6118 70.2688 91.3509 70.3557 91.2639C70.5297 91.003 70.7906 90.8291 70.9645 90.6552C71.0515 90.9161 71.1385 91.09 71.2254 91.2639Z" fill="#2252A0"/>
<path d="M177.155 216.152C177.329 215.978 177.59 215.805 177.763 215.718C177.59 215.892 177.329 216.065 177.155 216.152Z" fill="#F4F4F6"/>
<path d="M93.5767 88.133C93.4027 89.6115 92.62 90.4812 91.2285 90.4812C89.75 90.4812 88.8803 89.5246 88.9673 88.133C88.9673 86.8285 89.837 85.7849 91.3155 85.8718C92.707 85.8718 93.4027 86.8285 93.5767 88.133Z" fill="#DDDBDC"/>
<path d="M128.452 93.6991C129.93 93.96 130.8 94.7427 130.713 96.1342C130.626 97.6127 129.582 98.3085 128.191 98.1346C126.973 97.9606 126.19 97.1779 126.19 95.8733C126.277 94.4818 127.234 93.7861 128.452 93.6991Z" fill="#F4F4F6"/>
</g>
<path d="M189.667 50.0288C190.983 50.358 192.925 50.8188 194.868 51.3455C220.904 58.1591 246.941 64.9728 272.978 71.7865C277.191 72.9056 278.804 75.6377 277.685 79.8838C276.796 83.2742 275.907 86.6646 275.019 90.022C273.998 93.7745 271.101 95.4861 267.415 94.4986C244.11 88.4091 220.806 82.3196 197.534 76.2302C193.452 75.1768 189.403 74.0906 185.322 73.0373C181.207 71.984 179.496 69.1532 180.549 65.0386C181.438 61.5166 182.359 58.0275 183.314 54.5054C184.071 51.7405 186.276 50.0288 189.667 50.0288ZM239.502 71.1281C239.403 71.6219 239.304 72.0169 239.206 72.4119C238.547 74.9793 237.856 77.5468 237.198 80.1472C236.671 82.188 237.757 83.3071 239.831 82.9121C241.971 82.4842 244.077 81.9905 246.184 81.6284C246.612 81.5626 247.237 81.7272 247.599 81.9905C249.212 83.3071 250.759 84.7225 252.339 86.0721C254.183 87.685 255.598 87.2242 256.223 84.8542C256.98 81.9576 257.77 79.0609 258.527 76.0985C260.305 76.5593 261.984 76.9872 263.662 77.4151C265.209 77.8101 266.23 77.3822 266.559 76.1314C266.888 74.9464 266.164 73.9918 264.65 73.5639C262.28 72.9385 259.877 72.346 257.507 71.7206C250.167 69.8115 242.859 67.9023 235.519 65.9603C235.223 65.8945 234.959 65.7957 234.663 65.7628C233.544 65.6311 232.655 66.2236 232.425 67.2769C232.195 68.2644 232.721 69.2519 233.84 69.5811C235.717 70.1406 237.56 70.6015 239.502 71.1281Z" fill="#AC1269"/>
<path d="M188.443 105.766C187.687 105.569 186.933 105.371 186.178 105.174C183.912 104.581 181.645 103.988 179.323 103.395L178.841 103.272L178.716 103.754C178.222 105.646 177.736 107.506 177.251 109.365L177.251 109.366L177.251 109.367C176.765 111.226 176.28 113.086 175.786 114.978L175.663 115.451L176.133 115.585C176.583 115.714 176.871 115.81 177.165 115.908L177.181 115.913L177.197 115.917C185.327 118.04 193.449 120.163 201.571 122.286C209.693 124.409 217.815 126.533 225.946 128.656L225.946 128.656C233.78 130.697 241.613 132.737 249.413 134.81C250.71 135.156 251.96 135.216 253.127 134.914C254.298 134.611 255.354 133.952 256.269 132.914C259.411 129.374 257.652 123.786 252.43 122.454C238.212 118.812 223.995 115.082 209.776 111.351C202.666 109.486 195.555 107.621 188.443 105.766ZM188.443 105.766L188.317 106.25M188.443 105.766L188.317 106.25M188.317 106.25C195.427 108.104 202.537 109.969 209.647 111.835C223.867 115.565 238.087 119.296 252.306 122.938L249.541 134.327C241.74 132.254 233.906 130.213 226.072 128.172C217.942 126.049 209.819 123.926 201.697 121.803C193.575 119.679 185.453 117.556 177.323 115.433C177.027 115.335 176.731 115.236 176.27 115.104C176.764 113.212 177.249 111.352 177.735 109.492C178.22 107.632 178.706 105.773 179.199 103.88C181.52 104.472 183.785 105.065 186.05 105.657C186.805 105.855 187.56 106.052 188.317 106.25Z" fill="#E9B6D3" stroke="#AC1269"/>
<path d="M263.784 45.1187L263.91 44.6358L263.427 44.509C251.635 41.4133 239.894 38.3514 228.143 35.2871C223.525 34.083 218.907 32.8786 214.283 31.6715L213.8 31.5456L213.673 32.0276C211.994 38.3814 210.381 44.5704 208.735 50.8903L208.609 51.3744L209.093 51.5002C219.379 54.1746 229.601 56.8489 239.822 59.5233C245.956 61.1279 252.089 62.7326 258.237 64.3374L258.719 64.4633L258.846 63.9814C260.525 57.6276 262.138 51.4385 263.784 45.1187ZM220.074 42.2126C226.291 43.8469 232.48 45.4626 238.678 47.0805C243.51 48.342 248.348 49.6048 253.208 50.8789C252.945 51.8718 252.714 52.791 252.471 53.7615C246.257 52.1278 240.07 50.5128 233.874 48.8956C229.039 47.6334 224.199 46.37 219.337 45.0952C219.581 44.1208 219.812 43.2032 220.074 42.2126Z" fill="#E9B6D3" stroke="#AC1269"/>
<path d="M173.11 96.4078L172.616 96.3329C172.514 97.003 172.666 97.62 173.084 98.1194C173.49 98.6043 174.108 98.9329 174.859 99.1298L174.86 99.13C189.178 102.849 203.495 106.601 217.814 110.354L217.815 110.354L217.815 110.354C219.869 110.892 221.921 111.429 223.973 111.966C233.86 114.555 243.733 117.14 253.628 119.703C255.805 120.27 257.643 121.398 258.982 123.203L258.983 123.205C261.39 126.424 261.484 130.669 259.265 133.983C256.988 137.349 253.031 138.797 248.779 137.695C226.923 132 205.067 126.273 183.21 120.545L183.21 120.545C178.799 119.393 174.354 118.241 169.911 117.089L169.909 117.088C168.941 116.842 168.033 117.027 167.416 117.59C166.794 118.158 166.549 119.033 166.763 119.987L166.763 119.987L166.764 119.992C166.93 120.696 167.319 121.135 167.801 121.416C168.212 121.655 168.693 121.778 169.092 121.881C169.129 121.89 169.164 121.899 169.199 121.908C180.07 124.746 190.941 127.59 201.815 130.435C215.536 134.025 229.261 137.616 242.997 141.197C244.901 141.696 246.829 142.149 248.366 142.512C249.064 142.676 249.681 142.821 250.179 142.943L250.238 142.958H250.298C259.336 142.958 265.709 136.605 265.709 128.732L265.709 128.729C265.675 122.134 261.227 116.682 254.639 114.95L254.638 114.95C243.504 112.039 232.362 109.128 221.22 106.217L221.195 106.21C210.045 103.297 198.895 100.384 187.753 97.4712C185.81 96.9608 183.876 96.4587 181.942 95.9568L181.942 95.9567C180.008 95.4547 178.075 94.9529 176.134 94.443L176.134 94.4429L176.128 94.4415C175.265 94.2259 174.457 94.2522 173.813 94.5796C173.149 94.917 172.735 95.5364 172.615 96.3336L173.11 96.4078ZM173.11 96.4078C173.307 95.0911 174.427 94.5316 176.007 94.9265L253.755 119.219C243.859 116.656 233.987 114.071 224.099 111.482C222.047 110.945 219.995 110.408 217.942 109.871L217.94 109.87C203.622 106.118 189.304 102.365 174.986 98.6461C173.604 98.284 172.945 97.494 173.11 96.4078Z" fill="#E9B6D3" stroke="#AC1269"/>
<path d="M201.413 80.8485L200.928 80.7215L200.802 81.2065C199.486 86.2757 198.202 91.2117 196.853 96.2791L196.724 96.7649L197.21 96.8916C207.065 99.4591 216.885 102.026 226.704 104.594C233.25 106.306 239.797 108.017 246.354 109.729L246.837 109.855L246.964 109.372C247.605 106.933 248.23 104.54 248.852 102.164C249.539 99.5353 250.222 96.9266 250.914 94.2967L251.041 93.8122L250.556 93.6857C246.655 92.6673 242.759 91.6508 238.866 90.6348C226.399 87.3817 213.954 84.1342 201.413 80.8485ZM208.568 85.7663L208.569 85.7667C218.649 88.3314 228.675 90.9503 238.723 93.5747C239.763 93.8464 240.803 94.1181 241.844 94.3898C243.443 94.8089 244.643 95.6295 245.393 96.6918C246.14 97.7517 246.462 99.0857 246.249 100.583C245.861 103.231 243.549 105.227 240.521 105.159C240.413 105.135 240.277 105.11 240.135 105.085C240.078 105.075 240.02 105.065 239.962 105.054C239.721 105.01 239.45 104.956 239.175 104.879L239.175 104.879L239.168 104.877C233.588 103.413 228.009 101.956 222.429 100.499L222.427 100.499C216.848 99.0423 211.27 97.5861 205.692 96.1217L205.691 96.1212C203.095 95.4495 201.487 93.4611 201.457 90.9377L201.457 90.9374C201.426 88.5306 202.918 86.3276 205.16 85.7672L205.16 85.7672L205.163 85.7663C206.233 85.4911 207.497 85.4911 208.568 85.7663Z" fill="#E9B6D3" stroke="#AC1269"/>
<path d="M203.346 28.7611L203.218 29.2531C202.395 32.4136 201.572 35.5493 200.749 38.6845C199.926 41.8198 199.104 44.9546 198.281 48.114L198.155 48.5995L197.67 48.4715C196.967 48.2862 196.268 48.1111 195.572 47.9371C193.95 47.5311 192.352 47.131 190.795 46.62M203.346 28.7611L190.951 46.1447M203.346 28.7611L202.853 28.6412C201.86 28.4001 200.889 28.1488 199.932 27.9011C198.702 27.5829 197.496 27.2707 196.297 26.9942C193.084 26.2448 189.825 28.0992 188.891 31.2222L188.891 31.2222L188.89 31.2265C188.097 33.9685 187.404 36.7095 186.777 39.482M203.346 28.7611L187.264 39.5944M190.795 46.62C190.795 46.6199 190.795 46.6199 190.795 46.6198L190.951 46.1447M190.795 46.62C190.795 46.6201 190.796 46.6201 190.796 46.6202L190.951 46.1447M190.795 46.62C187.817 45.6509 186.06 42.5322 186.777 39.482M190.951 46.1447C188.218 45.256 186.606 42.3923 187.264 39.5944M186.777 39.482C186.777 39.4827 186.776 39.4834 186.776 39.4841L187.264 39.5944M186.777 39.482C186.777 39.4813 186.777 39.4806 186.777 39.4799L187.264 39.5944" fill="#E9B6D3" stroke="#AC1269"/>
<path d="M269.207 67.1712L269.334 66.6884C271.013 60.3365 272.625 54.1491 274.271 47.8291L274.398 47.3408L274.886 47.4724C275.585 47.6615 276.287 47.8386 276.987 48.0153C278.686 48.4442 280.376 48.8706 282.002 49.46L282.003 49.46C284.887 50.5058 286.418 53.4946 285.778 56.5182L285.776 56.5237L285.776 56.5237C285.149 59.3321 284.421 62.1416 283.595 64.8861L269.207 67.1712ZM269.207 67.1712L269.689 67.2993M269.207 67.1712L269.689 67.2993M269.689 67.2993C270.503 67.5155 271.293 67.727 272.073 67.9357C273.307 68.2661 274.515 68.5893 275.745 68.9121C276.138 69.0191 276.561 69.0892 276.947 69.1243M269.689 67.2993L276.947 69.1243M276.947 69.1243C279.951 69.4069 282.728 67.7761 283.595 64.8866L276.947 69.1243Z" fill="#E9B6D3" stroke="#AC1269"/>
<path d="M186.271 94.0244L185.786 93.8957C184.784 93.6299 183.787 93.3699 182.793 93.111C180.597 92.5388 178.422 91.9718 176.265 91.3588L176.26 91.3575L176.26 91.3575C175.599 91.163 175.082 90.7854 174.788 90.2374C174.497 89.6935 174.463 89.0486 174.634 88.3836L186.271 94.0244ZM186.271 94.0244L186.398 93.5389M186.271 94.0244L186.398 93.5389M186.398 93.5389C186.837 91.8613 187.275 90.1905 187.714 88.5194C188.592 85.1758 189.47 81.8312 190.348 78.4288L190.473 77.9455L189.99 77.8199C188.854 77.5246 187.739 77.2284 186.637 76.936C184.558 76.3839 182.529 75.845 180.503 75.3495L180.503 75.3494M186.398 93.5389L180.503 75.3494M180.503 75.3494L180.496 75.3477M180.503 75.3494L180.496 75.3477M180.496 75.3477C179.809 75.1907 179.161 75.2812 178.629 75.6378C178.104 75.9896 177.752 76.5597 177.565 77.2508M180.496 75.3477L177.565 77.2508M177.565 77.2508C176.544 80.9742 175.588 84.6638 174.634 88.3834L177.565 77.2508Z" fill="#E9B6D3" stroke="#AC1269"/>
<path d="M257.451 112.114L257.324 112.599L257.81 112.725C258.936 113.015 260.052 113.31 261.164 113.604C263.194 114.14 265.208 114.672 267.231 115.162C267.937 115.334 268.593 115.271 269.133 114.931C269.668 114.595 270.014 114.035 270.201 113.362L270.201 113.362L270.202 113.356C270.373 112.711 270.545 112.067 270.716 111.423C271.531 108.357 272.343 105.303 273.133 102.227L273.133 102.226C273.318 101.505 273.292 100.839 272.96 100.276C272.632 99.7214 272.062 99.3608 271.358 99.1263L271.344 99.1215L271.329 99.1175C271.085 99.0523 270.848 98.9871 270.609 98.9212L270.608 98.9209C270.37 98.8552 270.13 98.7889 269.881 98.7225L269.88 98.7224C268.128 98.2566 266.374 97.8053 264.602 97.3494C263.743 97.1284 262.88 96.9062 262.01 96.6809L261.529 96.556L261.402 97.037C260.373 100.926 259.382 104.721 258.386 108.535C258.075 109.725 257.764 110.917 257.451 112.114ZM269.752 99.2057C269.999 99.2715 270.237 99.3373 270.476 99.4032C270.715 99.469 270.953 99.5348 271.2 99.6007C272.484 100.029 272.978 100.819 272.648 102.102C271.86 105.176 271.048 108.228 270.233 111.294C270.062 111.938 269.89 112.582 269.719 113.228L269.752 99.2057Z" fill="#E9B6D3" stroke="#AC1269"/>
<path d="M210.789 31.2609L210.916 30.7753L210.429 30.6506C209.787 30.4858 209.169 30.3293 208.552 30.173L208.552 30.173C207.934 30.0166 207.318 29.8604 206.677 29.696L206.194 29.5721L206.069 30.055C204.423 36.4073 202.81 42.5952 201.164 48.8818L201.04 49.3565L201.512 49.4897C202.803 49.8536 203.96 50.1512 205.244 50.4803L205.726 50.604L205.852 50.1219C206.674 46.9625 207.497 43.8277 208.32 40.6924L208.32 40.6922C209.143 37.5571 209.966 34.4214 210.789 31.2609Z" fill="#E9B6D3" stroke="#AC1269"/>
<path d="M265.801 66.3107L266.29 66.4451L266.418 65.9546C266.92 64.0256 267.422 62.1052 267.924 60.1881C269.065 55.8269 270.202 51.4824 271.323 47.0913L271.447 46.6044L270.959 46.4826C269.645 46.1539 268.495 45.8582 267.246 45.5295L266.761 45.402L266.635 45.8871C266.118 47.8721 265.604 49.8473 265.092 51.8178C263.973 56.1213 262.859 60.4023 261.73 64.7145L261.603 65.2007L262.09 65.3255C263.371 65.654 264.487 65.9495 265.801 66.3107Z" fill="#E9B6D3" stroke="#AC1269"/>
<path d="M249.88 110.14L249.753 110.628L250.243 110.751C251.558 111.079 252.708 111.375 253.957 111.704L254.439 111.83L254.567 111.349C255.668 107.215 256.724 103.168 257.791 99.0856C258.032 98.1607 258.274 97.2339 258.517 96.3038L258.645 95.8178L258.158 95.693C257.738 95.5854 257.33 95.4816 256.928 95.3791C256.094 95.1671 255.283 94.9608 254.441 94.7392L253.959 94.6124L253.831 95.0941C252.481 100.165 251.197 105.07 249.88 110.14Z" fill="#E9B6D3" stroke="#AC1269"/>
<path d="M193.84 78.8728L193.356 78.7489L193.231 79.2322C192.676 81.386 192.119 83.5135 191.565 85.6324C190.808 88.5257 190.055 91.4029 189.314 94.3093L189.191 94.7931L189.674 94.9171C190.094 95.0247 190.502 95.1285 190.904 95.2309C191.738 95.443 192.549 95.6493 193.391 95.8709L193.876 95.9986L194.002 95.5131C195.319 90.444 196.602 85.5069 197.919 80.4711L198.046 79.9851L197.559 79.8603C196.921 79.6967 196.315 79.5329 195.706 79.3682L195.704 79.3679C195.096 79.2035 194.485 79.0382 193.84 78.8728Z" fill="#E9B6D3" stroke="#AC1269"/>
<path d="M241.773 78.4026C242.366 76.1643 242.859 74.2223 243.419 72.1485C247.204 73.136 250.891 74.0906 254.676 75.0781C254.117 77.1847 253.623 79.1597 253.031 81.3651C251.846 80.3118 250.693 79.423 249.673 78.4026C248.686 77.448 247.665 77.086 246.283 77.481C244.933 77.8759 243.485 78.0734 241.773 78.4026Z" fill="#AC1269"/>
<path d="M240.363 102.092L240.407 102.104L240.452 102.107C241.188 102.162 241.847 102.029 242.359 101.674C242.878 101.313 243.188 100.762 243.288 100.105C243.385 99.4824 243.292 98.911 242.99 98.4324C242.69 97.958 242.217 97.6278 241.649 97.4196L241.648 97.4191C241.381 97.322 241.089 97.251 240.833 97.1888C240.721 97.1614 240.615 97.1358 240.522 97.1104L240.518 97.1093C237.835 96.4014 235.16 95.7018 232.486 95.0024C229.811 94.3029 227.137 93.6036 224.455 92.896L224.453 92.8954C218.857 91.4471 213.262 89.9991 207.668 88.5183L207.661 88.5164L207.654 88.5147C207.111 88.388 206.543 88.3564 206.036 88.5166C205.506 88.6839 205.077 89.0508 204.839 89.6359L204.836 89.6437L204.833 89.6517C204.546 90.4309 204.678 91.4535 204.969 92.1827L204.969 92.1827L204.972 92.1893C205.057 92.3925 205.202 92.5459 205.342 92.6582C205.484 92.7726 205.647 92.8659 205.806 92.9419C206.123 93.0931 206.478 93.2012 206.757 93.2711C212.528 94.8072 218.3 96.3143 224.071 97.821C226.956 98.5742 229.841 99.3274 232.725 100.084C235.326 100.775 237.96 101.467 240.363 102.092Z" fill="#E9B6D3" stroke="#AC1269"/>
<path d="M181.445 22.0046L166.832 4.48664M188.669 13.8953L184.068 5.36467" stroke="#A1A0A0" stroke-width="3.43125" stroke-linecap="round" stroke-linejoin="round"/>
<path d="M280.963 124.178L293.018 138.975M274.841 130.892L278.608 138.073" stroke="#A1A0A0" stroke-width="2.87065" stroke-linecap="round" stroke-linejoin="round"/>
<defs>
<clipPath id="clip0_1764_1904">
<rect width="299.439" height="108" fill="white" transform="translate(0 250)"/>
</clipPath>
<clipPath id="clip1_1764_1904">
<rect width="287" height="292.044" fill="white" transform="translate(18 65.9558)"/>
</clipPath>
</defs>
</svg>
