<svg width="300" height="359" viewBox="0 0 300 359" fill="none" xmlns="http://www.w3.org/2000/svg">
<g clip-path="url(#clip0_1764_1903)">
<path d="M254.99 286.17C256.341 286.902 257.054 288.103 257.466 289.491C257.748 290.392 257.917 291.33 257.935 292.287C258.967 294.295 258.592 296.377 258.161 298.441C257.71 300.618 256.772 302.644 255.928 304.708C255.309 306.19 255.421 306.322 257.035 306.397C257.992 306.434 258.949 306.491 259.906 306.603C268.218 307.598 271.182 312.251 271.82 319.887C272.064 322.758 271.951 325.666 270.131 328.162C269.118 329.025 267.842 329.457 266.754 330.207C266.003 330.732 265.347 330.601 264.653 329.963C263.377 328.762 262.889 327.355 263.133 325.591C263.508 322.965 263.639 320.338 262.926 317.73C261.632 312.87 257.785 311.726 253.939 314.99C251.199 317.298 250.017 320.357 249.567 323.79C249.173 326.773 248.798 327.092 245.814 327.13C244.257 327.149 242.7 327.017 241.142 327.243C239.379 327.505 237.878 328.312 236.489 329.438C235.045 330.62 234.256 330.32 233.956 328.462C233.637 326.454 233.375 324.428 233.112 322.402C232.812 320.188 232.305 318.049 231.536 315.947C231.179 314.99 230.917 313.808 229.735 313.696C228.459 313.564 227.971 314.765 227.445 315.685C225.832 318.536 224.894 321.632 224.425 324.86C223.974 327.824 223.824 330.826 223.58 333.81C223.543 334.279 223.562 334.767 223.449 335.236C223.205 336.268 222.661 336.53 221.798 335.817C221.197 335.311 220.747 334.654 220.128 334.185C219.096 333.416 218.477 333.622 218.214 334.86C217.914 336.174 218.139 337.487 218.439 338.782C218.927 340.771 219.603 342.685 220.428 344.561C220.71 345.199 221.141 345.855 220.728 346.606C220.072 346.625 219.415 346.681 218.758 346.681C205.568 346.681 192.359 346.681 179.168 346.662C178.624 346.662 178.099 346.625 177.555 346.606C177.367 346.362 177.329 346.099 177.423 345.799C177.799 345.011 178.568 344.58 179.149 343.998C180.444 342.722 181.495 341.315 181.983 339.514C182.977 335.686 181.983 333.19 178.587 331.164C176.11 329.682 176.016 329.382 177.311 326.773C178.474 324.409 179.769 322.101 179.844 319.381C179.956 315.797 178.718 314.596 175.097 314.915C173.183 315.084 171.344 315.666 169.524 316.266C168.849 316.491 168.192 316.81 167.441 316.773C167.047 316.716 166.71 316.548 166.522 316.172C166.222 315.272 166.691 314.54 167.029 313.789C168.173 311.144 169.336 308.498 169.862 305.646C170.218 303.77 170.687 301.744 168.905 300.28C167.179 298.873 165.246 299.398 163.445 300.13C158.698 302.044 155.339 305.609 152.675 309.83C150.329 313.546 150.367 313.639 146.821 311.088C144.55 309.455 142.243 309.624 139.822 310.543C136.295 311.876 135.919 311.613 135.919 307.748C135.919 304.671 135.507 301.65 135 298.629C134.681 296.734 134.024 294.914 133.049 293.244C131.21 290.129 128.095 288.628 124.53 289.116C120.196 289.716 116.631 291.818 113.498 294.726C110.683 297.334 108.15 300.205 105.824 303.282C105.542 303.526 105.261 303.77 104.942 303.995C104.773 304.089 104.585 304.164 104.398 304.202C101.827 304.164 101.564 303.995 100.757 301.744C100.195 300.092 100.27 298.31 99.8569 296.64C99.5191 295.252 99.2752 293.826 98.3934 292.644C98.1682 292.381 97.9618 292.118 97.6053 292.024C97.4364 291.968 97.2863 291.874 97.1175 291.78C96.7234 291.499 96.4045 291.124 96.1793 290.711C93.7401 286.395 89.8374 285.251 85.278 285.851C81.2252 286.377 77.5476 287.953 74.4142 290.655C72.6317 292.193 72.0313 292.006 71.4121 289.735C70.6803 286.996 69.6109 286.152 66.6651 286.208C65.4079 286.227 64.6574 285.757 64.6574 284.5C64.6574 281.48 64.2821 278.515 63.4753 275.625C63.344 275.138 63.4378 274.669 63.7755 274.274C63.7193 272.53 64.0195 270.803 64.2446 269.077C64.6762 265.568 65.3516 262.097 66.3836 258.701C67.0778 256.393 67.9222 254.161 68.9917 252.003C69.3294 251.309 69.7234 250.614 70.1175 249.958C70.5115 249.282 70.9993 248.682 71.5622 248.138C73.8138 245.942 76.9284 246.092 78.861 247.312C80.0994 248.081 81.1689 249.019 82.107 250.145C83.0452 251.252 83.7957 252.472 84.4149 253.785C84.7714 254.536 85.1091 255.305 85.4093 256.093C86.9854 260.183 88.4677 264.293 89.7248 268.495C90.3065 270.391 90.9069 272.267 91.5073 274.162C91.6199 274.5 91.7325 274.837 91.8638 275.175C92.1453 275.926 92.6143 276.019 93.196 275.4C93.7214 274.837 94.228 274.218 94.6783 273.599C95.5789 272.323 96.4232 271.01 97.3426 269.753C98.0368 268.777 98.7874 267.839 99.5566 266.919C100.063 266.338 100.645 265.812 101.245 265.325C101.658 264.987 102.127 264.705 102.615 264.48C103.891 263.88 105.167 263.955 106.424 264.612C107.4 265.137 108.169 265.906 108.713 266.844C109.257 267.782 109.707 268.758 110.195 269.715C110.571 270.466 110.927 271.216 111.302 271.967C111.377 272.098 111.678 272.154 111.771 272.042C111.846 271.948 111.94 271.873 112.015 271.779C112.109 271.629 112.203 271.479 112.297 271.31C115.712 265.212 120.196 260.033 125.468 255.474C127.382 253.823 129.334 252.247 131.398 250.802C132.767 249.845 134.193 248.944 135.713 248.194C137.12 247.481 138.584 246.993 140.16 246.805C142.73 246.468 145.038 247.106 147.065 248.719C147.721 249.245 148.284 249.864 148.81 250.521C149.86 251.853 150.686 253.297 151.399 254.836C152.262 256.694 152.937 258.607 153.482 260.577C154.12 262.885 154.682 265.212 155.302 267.539C155.452 268.12 155.602 268.702 155.808 269.265C155.902 269.565 156.183 269.753 156.484 269.79C156.84 269.828 157.197 269.809 157.553 269.771C158.81 269.603 160.067 269.584 161.325 269.621C164.345 269.696 167.104 270.578 169.618 272.229C170.462 272.792 171.269 273.43 172.095 274.031C172.864 274.593 173.633 275.175 174.421 275.738C174.59 275.869 174.965 275.794 175.078 275.625C175.209 275.419 175.341 275.213 175.434 275.006C178.061 269.04 182.489 264.818 188.174 261.816C190.801 260.427 193.578 259.527 196.468 258.926C200.127 258.176 203.842 257.969 207.557 258.101C210.446 258.213 213.279 258.739 216.038 259.602C218.852 260.484 221.573 261.591 224.162 262.979C229.622 265.925 233.675 270.203 236.302 275.813C237.39 278.158 238.215 280.598 238.816 283.112C239.322 285.213 239.792 287.315 240.298 289.416C240.373 289.698 240.486 289.979 240.598 290.261C240.655 290.392 240.917 290.429 241.049 290.317C242.099 289.416 243.131 288.516 244.182 287.615C246.715 285.251 249.811 284.801 253.095 284.951C253.939 284.988 254.352 285.739 254.99 286.17Z" fill="#A1A0A0"/>
<path d="M63.7943 274.256C63.8131 274.931 64.0758 275.532 64.2634 276.17C64.5261 277.145 64.9013 278.102 64.9201 279.134C65.3704 280.767 65.2578 282.455 65.2766 284.125C65.2766 284.425 65.2766 284.726 65.2953 285.026C65.3329 285.514 65.6706 285.814 66.1397 285.664C66.8339 285.438 67.5469 285.438 68.2787 285.438C68.8416 285.438 69.3669 285.607 69.7985 285.926C71.0931 286.883 72.0125 288.103 72.1251 289.792C72.1626 290.279 72.2001 290.748 72.5191 291.142C72.5754 291.218 72.763 291.274 72.8193 291.236C73.0632 291.067 73.3259 290.899 73.5135 290.692C74.7331 289.322 76.253 288.403 77.8666 287.577C79.0487 286.977 80.2682 286.508 81.4878 286.001C82.032 285.776 82.6324 285.664 83.214 285.532C85.1466 285.101 86.7227 284.894 88.7304 285.101C90.9632 285.326 93.0459 286.039 94.7158 287.671C95.5789 288.516 96.3669 289.397 96.8172 290.542C97.0049 290.992 97.2863 291.368 97.7366 291.593C98.9375 294.313 98.7123 297.165 98.5059 300.017C98.4684 300.43 98.337 300.843 98.337 301.256C98.3558 301.875 97.8304 302.776 98.4872 303.057C99.2564 303.395 100.101 302.944 100.645 302.231C100.833 302.006 101.001 301.744 101.264 301.612C101.621 301.912 101.583 302.325 101.639 302.738C101.696 303.132 101.94 303.357 102.334 303.395C103.197 303.451 104.003 303.883 104.904 303.826C107.456 304.164 109.557 306.735 109.82 309.849C110.064 312.833 109.501 315.685 108.657 318.536C108.056 320.563 108.094 320.582 110.158 320.788C113.104 321.107 115.092 322.814 116.5 325.272C117.194 326.473 117.7 326.567 118.789 325.648C121.491 323.321 124.08 323.058 126.707 324.616C129.146 326.06 130.722 329.607 130.178 332.552C129.821 334.541 128.94 336.324 127.607 337.825C126.65 338.894 126.163 339.945 126.632 341.39C126.857 342.122 126.801 342.928 126.669 343.716C126.35 345.668 125.243 346.662 123.292 346.794C123.048 346.812 122.804 346.794 122.579 346.794C100.101 346.794 77.6227 346.794 55.1445 346.794C54.8443 346.794 54.5441 346.794 54.2439 346.737C53.5872 346.7 52.9305 346.662 52.2738 346.662C46.5136 346.662 40.7533 346.737 35.0118 346.644C29.0076 346.55 23.0222 346.568 17.0181 346.493C14.4475 346.456 11.8582 346.437 9.2877 346.4C8.79986 346.4 8.33079 346.4 7.84295 346.362C7.52398 346.343 7.22377 346.212 7.12995 345.912C6.96109 345.368 6.60459 344.974 6.26685 344.58C5.25365 343.398 4.22168 342.215 3.24601 341.015C2.17651 339.701 1.35094 338.256 0.67547 336.699C0.112579 335.404 -0.075051 334.054 0.0187642 332.665C0.150105 330.676 1.35094 329.175 3.26477 328.575C3.84642 328.387 4.42808 328.331 5.02849 328.274C6.15428 328.181 7.29882 328.031 8.4246 327.88C8.64976 327.843 8.87492 327.73 9.10007 327.655C9.30647 327.58 9.47533 327.243 9.40028 327.074C9.2877 326.792 9.19389 326.511 9.02502 326.267C8.64976 325.723 8.23697 325.197 7.86171 324.672C7.35511 323.94 6.79222 323.227 6.34191 322.439C3.54621 317.429 5.14107 312.195 8.55594 309.174C10.0195 307.879 11.6894 307.222 13.6595 307.316C14.8791 307.372 16.0424 307.598 17.1682 307.992C18.2377 308.367 19.3072 308.78 20.3767 309.155C20.7144 309.268 21.0709 309.361 21.4086 309.436C21.4461 309.455 21.5962 309.268 21.5962 309.192C21.5587 308.967 21.4649 308.742 21.3711 308.517C19.8701 305.421 18.8568 302.175 18.2189 298.798C17.8436 296.846 17.6748 294.876 17.8061 292.887C18.0125 289.585 19.007 286.546 21.0709 283.9C22.6282 281.93 24.5796 280.485 26.9625 279.622C29.139 278.834 31.2967 278.853 33.4732 279.603C34.3926 279.922 35.2557 280.316 36.0813 280.823C37.2446 281.555 38.4079 282.305 39.5525 283.074C41.335 284.294 43.0987 285.532 44.8812 286.752C45.0313 286.846 45.1814 286.94 45.3315 287.033C45.5754 287.183 45.9319 287.033 46.0257 286.714C46.1008 286.489 46.1571 286.264 46.2321 286.02C46.476 285.101 46.7012 284.163 46.9639 283.243C47.6393 280.842 48.6901 278.646 50.2099 276.676C51.2794 275.288 52.5365 274.087 53.9812 273.111C54.4316 272.811 54.8819 272.53 55.3697 272.286C57.7714 271.104 60.0229 271.423 62.1056 273.036C62.4809 273.336 62.7999 273.693 63.1564 274.031C63.3252 274.237 63.5504 274.256 63.7943 274.256Z" fill="#CFCECD"/>
<path d="M54.2627 346.775C54.9194 346.737 55.5761 346.681 56.2328 346.681C63.8506 346.681 71.4684 346.681 79.0862 346.681C92.5205 346.681 105.955 346.7 119.37 346.719C120.571 346.719 121.772 346.681 122.973 346.625C124.699 346.531 125.994 345.293 126.181 343.548C126.313 342.328 126.275 341.146 125.543 340.095C125.3 339.757 125.393 339.401 125.656 339.12C126.05 338.669 126.482 338.256 126.876 337.806C128.114 336.38 128.996 334.785 129.446 332.928C129.84 331.389 129.596 329.944 129.052 328.537C128.846 327.974 128.527 327.468 128.208 326.961C127.42 325.666 126.2 324.897 124.793 324.484C123.742 324.165 122.654 324.184 121.622 324.616C120.44 325.104 119.427 325.835 118.601 326.811C118.301 327.167 117.963 327.505 117.625 327.862C117.532 327.956 117.213 327.899 117.138 327.787C117.006 327.599 116.856 327.411 116.744 327.186C116.425 326.605 116.143 326.023 115.843 325.423C115.486 324.728 114.999 324.109 114.455 323.546C113.141 322.195 111.527 321.482 109.651 321.464C108.994 321.464 108.338 321.482 107.681 321.482C107.456 321.482 107.268 321.22 107.325 320.976C107.55 320.113 107.812 319.249 108.038 318.368C108.357 317.148 108.638 315.928 108.957 314.709C109.37 313.114 109.388 311.5 109.257 309.887C109.088 307.804 108.131 306.134 106.405 304.915C105.917 304.577 105.336 304.37 104.96 303.864H104.942C105.111 303.639 105.035 303.263 105.373 303.151C106.274 301.969 107.156 300.73 108.094 299.586C110.27 296.94 112.634 294.482 115.393 292.437C116.894 291.33 118.489 290.373 120.215 289.66C121.716 289.041 123.292 288.647 124.906 288.516C126.181 288.403 127.42 288.572 128.639 288.91C130.366 289.397 131.773 290.392 132.861 291.818C133.705 292.925 134.325 294.145 134.812 295.439C135.244 296.621 135.563 297.841 135.788 299.079C135.994 300.318 136.107 301.575 136.276 302.813C136.539 304.783 136.576 306.753 136.67 308.723C136.707 309.436 136.82 310.149 136.914 310.862C136.933 311.013 137.214 311.144 137.345 311.069C137.608 310.937 137.871 310.787 138.133 310.656C139.316 310.056 140.554 309.605 141.849 309.361C143.762 308.986 145.545 309.286 147.121 310.525C147.871 311.125 148.641 311.707 149.391 312.288C150.292 312.964 150.386 312.945 150.855 312.026C151.024 311.707 151.174 311.388 151.343 311.069C151.53 310.694 151.737 310.337 151.943 309.962C154.044 306.228 156.953 303.263 160.518 300.918C162.038 299.924 163.707 299.267 165.509 298.967C166.353 298.835 167.179 298.854 168.004 299.079C169.618 299.511 170.593 300.58 170.762 302.231C170.875 303.376 170.856 304.502 170.612 305.628C170.35 306.791 170.068 307.973 169.637 309.08C168.98 310.75 168.304 312.42 167.629 314.09C167.366 314.746 167.085 315.422 166.803 316.079C166.728 316.867 167.141 316.641 167.535 316.435C169.637 315.553 171.794 314.859 174.046 314.465C174.759 314.334 175.472 314.296 176.185 314.259C176.598 314.24 177.029 314.277 177.442 314.352C179.187 314.634 180.219 315.666 180.463 317.429C180.632 318.687 180.594 319.944 180.294 321.182C179.975 322.533 179.506 323.828 178.906 325.066C178.305 326.304 177.686 327.543 177.086 328.781C176.992 328.987 176.935 329.231 176.898 329.457C176.879 329.55 176.954 329.7 177.029 329.776C177.217 329.907 177.442 330.038 177.648 330.113C178.38 330.395 179.056 330.77 179.712 331.202C180.744 331.858 181.551 332.74 182.17 333.791C182.677 334.635 182.94 335.536 182.977 336.511C183.127 340.395 181.27 343.792 177.911 345.799C177.817 345.855 177.705 345.931 177.611 345.987C177.104 346.418 176.466 346.493 175.828 346.531C175.209 346.606 174.571 346.362 173.99 346.7C173.089 346.719 172.188 346.719 171.288 346.737C170.387 346.756 169.505 346.737 168.605 346.962C168.042 347.113 167.423 347.056 166.822 347.056C162.45 347.056 158.06 347.056 153.688 347.056C143.368 347.056 133.067 347.075 122.748 347.075C106.499 347.075 90.2502 347.075 74.0014 347.075C67.8847 347.075 61.7679 347.075 55.6512 347.075C55.1821 346.981 54.6942 347.094 54.2627 346.775Z" fill="#A1A0A0"/>
<path d="M269.794 327.918C270.788 325.892 271.182 323.753 271.238 321.501C271.332 318.63 270.6 315.947 269.606 313.302C269.043 311.782 267.974 310.656 266.735 309.699C264.99 308.367 263.001 307.598 260.806 307.391C260.506 307.354 260.206 307.354 259.924 307.279C259.155 307.072 258.386 307.054 257.616 307.035C257.204 307.035 256.772 307.016 256.359 307.016C254.295 306.997 254.051 307.166 255.065 305.046C255.834 303.432 256.509 301.762 257.072 300.055C257.71 298.104 258.029 296.115 257.935 294.051C257.917 293.45 257.935 292.869 257.954 292.268C258.48 292.4 258.498 292.4 258.648 292.043C259.211 290.58 259.755 289.135 260.318 287.671C261.669 284.144 263.058 280.635 264.596 277.183C266.21 273.562 267.974 270.015 269.944 266.582C271.97 263.035 274.222 259.639 276.473 256.243C278.875 252.641 281.277 249.076 283.697 245.492C284.71 243.991 285.723 242.509 286.755 241.045C287.131 240.501 287.562 239.994 287.975 239.488C288.088 239.357 288.238 239.244 288.388 239.15C288.857 238.812 289.532 239.038 289.682 239.6C289.739 239.826 289.795 240.088 289.758 240.295C289.626 240.933 289.476 241.589 289.288 242.208C288.707 244.16 287.975 246.074 287.225 247.969C285.799 251.59 284.354 255.211 282.947 258.851C282.384 260.296 281.84 261.76 281.333 263.242C280.132 266.694 278.894 270.147 277.787 273.618C276.06 278.984 274.391 284.369 272.927 289.81C271.839 293.807 270.713 297.785 269.606 301.762C269.456 302.288 269.362 302.813 269.25 303.338C269.231 303.376 269.287 303.451 269.325 303.489C269.362 303.526 269.437 303.545 269.475 303.526C269.681 303.432 269.925 303.338 270.094 303.188C271.951 301.518 274.165 300.449 276.436 299.492C279.776 298.104 283.247 297.165 286.737 296.34C289.307 295.739 291.878 295.158 294.448 294.576C294.917 294.464 295.386 294.351 295.874 294.426C296.212 294.482 296.512 294.914 296.362 295.252C296.268 295.458 296.156 295.702 295.987 295.852C295.386 296.434 294.767 296.997 294.111 297.541C293.454 298.085 292.891 298.685 292.328 299.304C290.133 301.687 288.144 304.239 286.061 306.716C284.41 308.686 282.703 310.637 281.033 312.589C280.676 313.001 280.376 313.433 280.057 313.883C279.888 314.127 280.113 314.502 280.432 314.521C280.545 314.521 280.676 314.559 280.789 314.54C282.271 314.352 283.753 314.108 285.123 313.452C286.755 312.664 288.294 311.782 289.626 310.506C290.32 309.849 291.09 309.268 291.84 308.667C292.178 308.386 292.722 308.555 292.891 308.967C293.004 309.249 293.135 309.53 293.135 309.812C293.154 310.525 293.191 311.256 293.097 311.969C292.797 314.108 292.403 316.229 291.878 318.33C291.653 319.268 291.427 320.188 291.221 321.126C291.127 321.539 291.296 321.783 291.765 321.876C292.122 321.951 292.478 322.083 292.816 322.083C293.923 322.064 294.955 322.439 295.931 322.871C296.906 323.302 297.863 323.809 298.839 324.297C298.989 324.372 299.12 324.503 299.252 324.634C299.496 324.86 299.571 325.366 299.383 325.629C299.177 325.929 298.97 326.211 298.707 326.454C297.375 327.712 296.362 329.175 295.518 330.77C294.448 332.796 293.51 334.86 292.76 337.018C292.478 337.806 292.215 338.613 291.915 339.401C291.315 341.052 290.883 342.722 290.958 344.486C290.958 344.73 290.958 344.974 290.902 345.199C290.771 345.968 290.508 346.268 289.72 346.268C287.731 346.268 285.761 346.268 283.772 346.268C283.059 346.268 282.327 346.306 281.614 346.325C279.175 346.512 276.736 346.343 274.278 346.418C273.209 346.437 273.058 345.874 273.715 345.274C275.742 343.454 275.854 341.315 275.066 338.913C274.803 338.106 275.047 337.243 275.254 336.436C275.535 335.329 275.629 334.204 275.61 333.059C275.573 329.794 274.428 328.593 271.126 328.293C270.619 328.331 270.131 328.331 269.794 327.918Z" fill="#CFCECD"/>
<path d="M269.794 327.918C269.981 327.918 270.169 327.956 270.319 327.88C271.407 327.393 272.439 327.768 273.471 328.031C274.128 328.199 274.672 328.593 275.085 329.119C275.76 329.982 276.267 330.92 276.267 332.046C276.267 332.815 276.267 333.603 276.267 334.372C276.267 334.917 276.192 335.442 276.023 335.967C275.854 336.53 275.704 337.112 275.573 337.694C275.441 338.294 275.423 338.894 275.742 339.438C276.248 340.302 276.286 341.259 276.267 342.215C276.248 343.172 275.892 343.96 275.235 344.617C274.766 345.086 274.278 345.499 273.79 345.949C273.771 345.968 273.771 346.062 273.79 346.099C273.809 346.137 273.846 346.212 273.903 346.212C274.203 346.231 274.503 346.268 274.803 346.268C276.53 346.268 278.275 346.268 280.001 346.268C280.545 346.268 281.07 346.325 281.614 346.343C281.389 346.418 281.164 346.55 280.939 346.568C280.526 346.606 280.095 346.587 279.682 346.587C272.42 346.606 265.178 346.625 257.917 346.625C257.072 346.625 256.247 346.606 255.421 346.85C255.027 346.962 254.596 346.944 254.164 346.944C248.235 346.944 242.306 346.944 236.358 346.944C235.945 346.944 235.495 346.962 235.101 346.85C234.331 346.643 233.562 346.644 232.774 346.644C229.416 346.644 226.057 346.644 222.698 346.644C222.042 346.644 221.385 346.606 220.728 346.587C220.559 346.212 220.409 345.818 220.203 345.443C219.19 343.585 218.552 341.596 217.97 339.57C217.689 338.594 217.539 337.581 217.407 336.568C217.295 335.78 217.426 335.01 217.576 334.26C217.614 334.035 217.726 333.81 217.839 333.603C218.327 332.759 219.171 332.552 219.978 333.059C220.503 333.378 220.916 333.81 221.291 334.279C221.666 334.748 222.004 335.236 222.379 335.705C222.436 335.78 222.567 335.817 222.68 335.836C222.83 335.855 222.886 335.761 222.905 335.611C222.924 335.142 222.961 334.654 222.98 334.185C223.092 332.215 223.167 330.226 223.355 328.274C223.637 325.235 224.068 322.214 225.119 319.306C225.644 317.842 226.263 316.397 227.014 315.047C227.295 314.521 227.652 314.033 228.027 313.564C228.215 313.339 228.459 313.151 228.703 312.983C229.303 312.57 230.147 312.682 230.71 313.17C231.217 313.621 231.536 314.183 231.798 314.803C232.324 316.022 232.718 317.279 233.018 318.555C233.262 319.606 233.506 320.657 233.656 321.726C233.975 323.865 234.219 326.004 234.519 328.143C234.594 328.669 234.726 329.194 234.857 329.7C234.876 329.757 235.101 329.813 235.157 329.776C235.401 329.588 235.607 329.382 235.833 329.175C237.615 327.524 239.716 326.623 242.156 326.53C243.056 326.492 243.957 326.53 244.858 326.53C245.814 326.53 246.771 326.548 247.728 326.53C248.179 326.53 248.516 326.229 248.629 325.779C248.742 325.254 248.817 324.728 248.873 324.184C249.042 322.571 249.361 320.994 249.961 319.475C250.918 317.054 252.457 315.122 254.596 313.658C255.14 313.283 255.721 312.964 256.341 312.757C258.404 312.063 260.224 312.438 261.763 314.033C262.439 314.728 262.908 315.572 263.227 316.473C263.658 317.673 263.902 318.893 263.958 320.169C264.033 321.914 263.958 323.64 263.789 325.366C263.733 326.023 263.696 326.68 263.639 327.336C263.583 327.843 263.677 328.293 264.165 328.575C264.746 328.931 265.009 329.569 265.403 330.095C265.497 330.226 265.741 330.245 265.891 330.132C265.985 330.057 266.097 330.001 266.172 329.926C267.242 328.987 268.443 328.331 269.794 327.918Z" fill="#F6F6F6"/>
<path d="M254.99 286.17C254.821 286.133 254.614 286.133 254.483 286.039C253.207 285.307 251.837 285.363 250.468 285.589C248.573 285.908 246.734 286.433 245.026 287.334C244.764 287.465 244.464 287.502 244.182 287.596C244.276 287.183 244.332 286.771 244.464 286.377C245.327 283.769 246.377 281.217 247.428 278.665C249.117 274.575 250.899 270.522 252.776 266.507C254.352 263.092 255.89 259.639 257.448 256.206C257.635 255.774 257.804 255.305 258.179 254.986C258.367 254.817 258.892 254.93 258.93 255.174C258.967 255.399 259.024 255.662 258.949 255.868C258.761 256.431 258.536 256.994 258.311 257.538C257.185 260.202 256.509 262.979 256.097 265.831C255.909 267.126 255.721 268.439 255.534 269.734C255.515 269.903 255.459 270.09 255.459 270.259C255.402 272.286 254.99 274.293 254.99 276.338C254.99 277.051 254.877 277.764 254.802 278.477C254.783 278.721 254.746 278.946 254.746 279.19C254.708 281.048 254.671 282.905 254.633 284.763C254.596 285.307 254.727 285.757 254.99 286.17Z" fill="#CFCECD"/>
</g>
<path d="M32.6946 327.918C31.7001 325.892 31.3061 323.753 31.2498 321.501C31.156 318.63 31.8878 315.947 32.8822 313.302C33.4451 311.782 34.5146 310.656 35.753 309.699C37.4979 308.367 39.4868 307.598 41.6821 307.391C41.9823 307.354 42.2825 307.354 42.5639 307.279C43.3332 307.072 44.1025 307.054 44.8718 307.035C45.2846 307.035 45.7161 307.016 46.1289 307.016C48.1928 306.997 48.4368 307.166 47.4236 305.046C46.6543 303.432 45.9788 301.762 45.4159 300.055C44.778 298.104 44.459 296.115 44.5528 294.051C44.5716 293.45 44.5528 292.869 44.534 292.268C44.0087 292.4 43.9899 292.4 43.8398 292.043C43.2769 290.58 42.7328 289.135 42.1699 287.671C40.819 284.144 39.4305 280.635 37.892 277.183C36.2783 273.562 34.5146 270.015 32.5445 266.582C30.5181 263.035 28.2665 259.639 26.0149 256.243C23.6133 252.641 21.2116 249.076 18.7912 245.492C17.778 243.991 16.7648 242.509 15.7328 241.045C15.3575 240.501 14.926 239.994 14.5132 239.488C14.4006 239.357 14.2505 239.244 14.1004 239.15C13.6313 238.812 12.9559 239.038 12.8058 239.6C12.7495 239.826 12.6932 240.088 12.7307 240.295C12.862 240.933 13.0122 241.589 13.1998 242.208C13.7814 244.16 14.5132 246.074 15.2637 247.969C16.6897 251.59 18.1345 255.211 19.5417 258.851C20.1046 260.296 20.6487 261.76 21.1553 263.242C22.3561 266.694 23.5945 270.147 24.7015 273.618C26.4277 278.984 28.0976 284.369 29.5612 289.81C30.6494 293.807 31.7752 297.785 32.8822 301.762C33.0323 302.288 33.1261 302.813 33.2387 303.338C33.2575 303.376 33.2012 303.451 33.1637 303.489C33.1261 303.526 33.0511 303.545 33.0136 303.526C32.8072 303.432 32.5632 303.338 32.3944 303.188C30.5368 301.518 28.3228 300.449 26.0525 299.492C22.7126 298.104 19.2415 297.165 15.7516 296.34C13.181 295.739 10.6105 295.158 8.03995 294.576C7.57088 294.464 7.1018 294.351 6.61396 294.426C6.27623 294.482 5.97603 294.914 6.12613 295.252C6.21995 295.458 6.33252 295.702 6.50139 295.852C7.10181 296.434 7.72099 296.997 8.37769 297.541C9.0344 298.085 9.59729 298.685 10.1602 299.304C12.3555 301.687 14.3443 304.239 16.427 306.716C18.0782 308.686 19.7856 310.637 21.4555 312.589C21.812 313.001 22.1122 313.433 22.4312 313.883C22.6001 314.127 22.3749 314.502 22.0559 314.521C21.9434 314.521 21.812 314.559 21.6994 314.54C20.2172 314.352 18.7349 314.108 17.3652 313.452C15.7328 312.664 14.1942 311.782 12.8621 310.506C12.1678 309.849 11.3985 309.268 10.648 308.667C10.3103 308.386 9.76616 308.555 9.59729 308.967C9.48471 309.249 9.35336 309.53 9.35336 309.812C9.3346 310.525 9.29709 311.256 9.3909 311.969C9.69111 314.108 10.0851 316.229 10.6105 318.33C10.8357 319.268 11.0608 320.188 11.2672 321.126C11.361 321.539 11.1922 321.783 10.7231 321.876C10.3666 321.951 10.0101 322.083 9.67235 322.083C8.56533 322.064 7.53337 322.439 6.55769 322.871C5.58201 323.302 4.6251 323.809 3.64942 324.297C3.49932 324.372 3.36796 324.503 3.23662 324.634C2.9927 324.86 2.91766 325.366 3.10529 325.629C3.31168 325.929 3.51807 326.211 3.78075 326.454C5.11293 327.712 6.12613 329.175 6.97047 330.77C8.03996 332.796 8.9781 334.86 9.72862 337.018C10.0101 337.806 10.2728 338.613 10.573 339.401C11.1734 341.052 11.6049 342.722 11.5299 344.486C11.5299 344.73 11.5299 344.974 11.5862 345.199C11.7175 345.968 11.9802 346.268 12.7682 346.268C14.7571 346.268 16.7272 346.268 18.7161 346.268C19.4291 346.268 20.1609 346.306 20.8739 346.325C23.3131 346.512 25.7523 346.343 28.2102 346.418C29.2797 346.437 29.4298 345.874 28.7731 345.274C26.7467 343.454 26.6341 341.315 27.4222 338.913C27.6849 338.106 27.4409 337.243 27.2345 336.436C26.9531 335.329 26.8593 334.204 26.878 333.059C26.9156 329.794 28.0601 328.593 31.3624 328.293C31.869 328.331 32.3568 328.331 32.6946 327.918Z" fill="#A1A0A0"/>
<path d="M113.306 44.8449C108.269 41.3184 126.349 22.6497 115.057 19.5472C103.765 16.4446 37.8354 65.9308 43.3239 100.823C48.8124 135.716 103.853 90.4436 108.373 97.6177C112.893 104.792 29.2722 166.904 61.2346 193.97C93.197 221.036 138.727 161.432 145.863 169.91C153 178.389 105.978 207.909 148.897 235.502C182.076 256.833 269.991 174.42 263.677 155.164C257.363 135.909 225.872 164.783 221.544 157.788C217.215 150.792 275.491 94.5283 259.348 67.136C243.205 39.7437 186.091 89.4471 182.076 85.1387C178.06 80.8303 232.305 41.5578 211.155 19.5472C190.004 -2.46347 118.342 48.3713 113.306 44.8449Z" fill="#E0ECFF"/>
<g clip-path="url(#clip1_1764_1903)">
<path d="M86.3237 107.798C88.0073 104.599 88.8491 101.4 85.8185 98.538C82.7879 95.6758 79.4206 95.6758 75.8849 97.3595C75.1273 97.6962 74.6222 97.7804 73.7804 97.4436C68.8978 95.6758 65.9514 96.5176 63.0892 100.643C62.1631 101.99 61.4055 102.831 59.4693 102.747C56.7754 102.579 55.1759 104.431 54.6709 106.788C53.4923 112.344 51.051 117.479 48.7781 122.614C46.1684 128.507 45.6633 134.821 47.2627 141.219C48.2729 145.26 47.9362 149.721 50.7142 153.341C51.4719 154.351 50.4617 155.867 50.2092 157.129C47.0102 171.02 45.074 184.994 46.4209 199.305C46.8418 204.019 47.7678 208.565 49.2831 213.027C55.0076 229.779 69.3187 239.039 88.1757 238.198C90.7012 238.113 93.2266 237.777 95.5838 237.271C97.7725 236.766 98.3618 237.187 98.2776 239.544C97.7725 249.478 98.3618 259.412 99.7929 269.177C102.318 287.192 107.285 304.534 113.599 321.539C114.357 323.475 114.946 325.411 115.788 327.347C116.798 329.789 116.293 330.63 113.515 330.799C101.224 331.556 89.0175 332.987 76.8952 335.429C72.1809 336.355 67.5508 337.449 63.1733 339.47C61.1529 340.396 58.5433 341.322 58.4591 343.931C58.4591 346.625 60.9846 347.551 63.0892 348.477C70.6656 351.844 78.7472 353.191 86.8287 354.37C119.997 359.168 153.333 359.673 186.67 358.579C206.705 357.906 226.741 356.559 246.44 352.518C251.07 351.592 255.616 350.582 259.825 348.477C261.845 347.467 264.455 346.625 264.371 343.931C264.286 341.237 261.677 340.396 259.656 339.47C253.006 336.523 245.934 335.26 238.863 334.082C234.149 333.324 229.35 332.651 224.636 332.146C222.953 331.977 222.7 331.472 223.205 329.957C225.899 321.454 227.246 312.784 227.919 303.944C228.088 302.008 228.677 301.671 230.529 302.008C246.86 304.702 257.973 298.304 263.95 282.899C268.411 271.45 269.169 259.496 268.748 247.458C267.738 215.889 255.784 188.193 238.021 162.685C229.014 149.721 218.743 137.936 207.295 127.076C205.527 125.392 205.442 124.635 207.21 122.867C212.851 116.722 216.555 109.566 216.134 100.811C216.05 98.7906 216.723 98.538 218.491 99.2957C221.858 100.727 224.299 99.9691 225.731 97.3595C227.077 95.0023 226.404 92.3085 224.215 90.709C221.69 88.9412 219.08 89.2779 216.807 92.0559C215.629 93.487 214.618 93.6554 213.861 92.0559C209.399 82.7116 201.823 76.9872 192.394 73.5357C181.787 69.6633 170.927 68.9056 159.9 71.6837C152.407 73.5357 145.42 76.5663 139.443 81.4489C130.772 88.4361 124.964 97.0227 125.048 108.724C125.048 110.408 124.374 111.502 122.438 110.829C121.596 110.576 120.754 110.492 119.828 110.66C117.05 111.25 115.451 113.017 115.03 115.796C114.693 118.153 115.703 119.92 117.976 120.678C120.67 121.52 122.943 120.762 124.543 118.405C126.563 115.543 126.563 115.543 128.163 118.658C129.678 121.604 131.614 124.214 134.055 126.487C135.318 127.581 135.234 128.255 133.887 129.181C124.038 136.505 114.862 144.502 106.443 153.341C105.181 154.688 104.844 154.015 104.255 152.836C101.982 148.206 99.372 143.828 96.0889 139.872C95.0787 138.609 95.247 137.683 95.8363 136.336C98.0251 131.285 98.1934 125.982 97.2674 120.594C96.0889 113.607 93.1425 110.324 86.3237 107.798ZM210.409 107.209C210.578 107.461 210.83 107.714 210.999 107.967C211.083 108.219 211.251 108.472 211.335 108.64C211.083 108.556 210.83 108.472 210.578 108.387C210.325 108.219 210.073 107.967 209.904 107.798C209.652 107.546 209.147 107.377 209.567 106.872C209.904 106.535 210.157 106.956 210.409 107.209ZM52.9872 146.943C53.4081 146.943 53.9132 146.943 54.3341 146.943C54.3341 144.923 51.8086 145.007 51.3877 143.239C49.8724 135.999 48.5255 128.76 51.2194 121.099C52.3137 122.614 53.2397 123.877 54.2499 125.14C56.6912 128.339 61.0688 130.443 63.931 128.928C67.2983 127.16 70.6656 125.561 74.1171 124.045C76.9793 122.783 78.8314 123.372 81.441 123.372C79.8416 125.897 77.2319 125.561 75.2957 126.487C72.9386 127.581 71.9284 129.686 70.7498 131.79C70.6656 132.211 70.5814 132.716 70.4973 133.137C70.0763 137.851 71.1707 141.976 74.7906 145.26C78.2421 148.374 82.5354 149.216 87.3338 149.048C83.2089 151.657 77.9053 152.752 72.7702 152.163C68.561 152.499 64.6886 151.321 60.9846 149.469C58.5433 149.3 57.1122 146.438 54.4183 146.775C54.5025 148.206 55.8494 148.458 56.7754 149.048C59.4693 151.068 62.6682 152.078 65.6146 153.509C68.6452 154.015 71.6758 154.688 74.7906 154.688C83.1247 153.762 90.3644 150.226 96.7623 144.502C100.214 151.742 103.076 158.813 104.676 166.389C106.275 169.588 106.359 173.04 106.696 176.576C106.78 176.744 106.78 176.997 106.948 177.165C107.79 178.428 107.538 176.997 107.538 176.912C108.632 171.272 108.127 165.716 107.201 160.076C107.033 158.813 107.033 157.803 107.959 156.793C114.525 149.637 121.26 142.818 128.836 136.757C129.257 136.336 129.678 136.252 130.183 136.505C129.93 136.757 129.678 137.094 129.509 137.346C111.073 165.043 102.15 195.938 99.1194 228.769C98.9511 230.705 98.1934 231.463 96.5098 231.884C91.7113 233.147 86.9129 233.82 81.9461 233.147C72.9386 232.726 65.1095 229.863 59.1326 222.792C55.1759 218.499 52.7346 213.364 51.2194 207.723C48.1046 196.19 48.2729 184.489 49.5357 172.703C50.2092 166.895 51.051 161.086 52.3979 155.361C54.755 156.708 56.8596 157.971 59.0484 159.15C59.9744 159.066 60.8162 159.823 61.9948 159.15C59.1325 157.466 56.3545 155.951 54.7551 152.499C57.1122 153.089 58.9642 154.183 60.9846 154.099C61.2371 152.415 59.7218 152.668 58.88 152.247C56.3545 150.984 53.5765 150.058 52.9872 146.943C52.5663 147.027 52.5663 146.859 52.7346 146.522C52.8188 146.606 52.903 146.775 52.9872 146.943ZM208.136 101.064C207.547 101.905 208.641 102.916 207.463 104.431C205.695 99.6324 204.264 95.2549 205.611 90.4565C206.032 89.0253 206.958 88.5202 208.221 89.8672C209.147 90.2039 209.988 91.0457 210.157 91.8876C211.083 96.0967 214.198 95.5916 217.228 95.4232C217.817 94.9181 219.501 94.9181 219.164 94.1605C218.491 92.8978 218.659 92.4768 219.922 92.2243C221.269 91.9717 222.279 92.561 222.868 93.6554C223.542 95.0865 223.373 96.4334 222.027 97.3595C221.353 97.8646 220.006 98.4538 219.922 97.4436C219.669 95.0865 218.07 96.9385 217.312 96.3493C210.999 97.6962 214.871 103.252 213.019 106.872C210.999 105.188 209.988 103 208.726 101.064H208.389H208.136ZM75.2957 129.265C75.3799 129.096 75.5482 129.012 75.6324 128.844C75.6324 128.928 75.6324 129.012 75.7166 129.096C75.5482 129.096 75.3799 129.181 75.2957 129.265C74.959 133.726 74.7906 138.104 79.3365 140.966C81.6094 141.808 83.9665 142.65 86.4078 142.397C87.6706 142.313 87.1655 141.808 86.492 141.387C85.2293 141.555 84.1349 140.966 83.1247 140.545C80.5992 139.535 78.4104 138.02 78.4946 134.989C78.4946 131.454 79.6732 128.423 82.7038 126.403C83.3772 125.982 83.8823 126.234 84.3874 126.739C86.6604 126.739 89.0175 126.992 91.2904 125.477C89.27 125.224 87.5022 126.15 85.7344 125.308C81.7778 123.456 80.4308 114.533 83.714 111.839C84.3874 111.25 85.1451 111.418 85.8185 111.839C89.6068 112.428 91.9639 115.038 93.4792 118.237C96.3414 124.551 96.7623 131.033 94.2368 137.515C93.8159 138.693 92.8057 139.703 93.1425 141.135L93.0583 141.219C94.321 143.744 92.3848 144.839 90.7012 145.512C87.1655 147.027 83.714 146.354 80.5992 144.249C73.7804 142.061 71.0023 134.232 75.2957 129.265ZM80.515 99.9691C82.5354 100.39 84.7242 100.727 85.1451 103.252C85.4818 105.609 84.9767 107.714 82.3671 108.724C81.2727 109.145 80.8518 110.492 80.4308 111.586C79.5048 113.859 79.7574 116.216 79.7574 118.658C79.7574 119.5 81.2727 120.846 79.5048 121.183C78.2421 121.436 76.5584 121.267 76.6426 119.079C76.7268 117.395 76.39 115.796 75.464 114.449C74.3697 112.765 74.538 111.334 75.6324 109.65C76.9793 107.63 77.9053 105.273 77.3161 102.831C76.3059 99.2957 77.9895 99.2957 80.515 99.9691ZM73.2753 119.415C72.8544 121.52 71.3391 122.025 69.4871 122.193C67.4667 122.362 67.3825 120.678 66.6248 119.668C65.2779 118.068 66.2039 116.637 66.8774 115.206C69.0661 109.987 68.8136 106.199 65.5305 104.347C62.8366 102.831 64.2677 102.158 65.6146 101.148C66.2881 100.643 66.9616 100.053 67.9718 100.137C72.686 99.464 75.7166 102.074 74.7064 106.535C73.9488 109.987 72.7702 113.354 74.0329 116.974C74.2855 117.732 73.9488 118.742 73.2753 119.415ZM61.4897 106.283C65.1095 106.451 66.2881 107.546 66.1198 110.997C66.0356 112.597 65.6988 114.28 65.1937 115.796C64.5203 117.9 64.0152 119.836 64.6044 122.109C65.2779 124.635 63.5943 126.571 60.9004 126.739C58.5433 126.908 56.6071 126.15 55.4285 123.961C53.7449 122.53 52.5663 120.846 53.4081 118.658C54.755 115.122 56.3545 111.671 57.954 108.219C58.6275 106.704 59.7218 105.862 61.4897 106.283ZM147.861 330.378C150.976 330.041 154.091 329.704 157.206 329.452C157.879 329.368 158.974 328.778 159.226 330.209C159.647 332.567 156.869 337.702 154.512 338.375C151.902 339.133 149.377 339.975 146.599 339.806C142.726 340.648 138.77 340.901 134.813 339.975C124.206 339.722 118.145 334.166 118.229 324.485C121.933 326.337 125.805 327.263 129.594 328.526C135.571 329.789 141.716 330.462 147.861 330.378ZM147.777 298.725C151.229 308.574 154.933 318.424 159.9 328.021C155.522 328.105 151.818 329.031 147.946 328.61L147.777 328.694L147.609 328.61C140.874 328.61 134.14 328.61 127.573 326.505C126.058 326.421 124.627 325.916 123.196 325.327C120.502 324.569 117.724 324.064 116.377 321.118C109.811 303.86 105.602 286.098 103.413 267.83C102.824 263.031 102.318 258.233 102.571 253.014C105.938 255.202 108.969 257.054 111.915 258.991C113.683 259.833 115.367 260.674 117.135 261.516C119.997 262.526 122.775 263.621 125.637 264.631C127.994 265.136 130.267 265.641 132.624 266.062C133.298 266.146 134.308 266.483 134.56 265.557C134.813 264.463 133.719 264.463 133.045 264.294C130.52 263.621 127.91 263.116 125.637 261.6C121.596 260.927 118.566 258.233 115.114 256.549C113.262 255.792 111.579 254.613 110.147 253.266C107.622 252.004 105.686 249.815 103.497 248.047C102.403 247.205 102.318 246.111 102.318 244.848C103.329 223.718 105.602 202.756 111.831 182.384C112.505 180.111 113.262 177.838 114.02 175.565C114.441 174.387 115.283 173.629 115.956 175.06C117.64 178.764 121.26 179.269 124.29 180.785C125.974 181.206 127.657 181.542 129.341 181.963C134.224 182.468 139.191 183.058 143.905 181.037C144.073 180.532 144.157 180.111 144.326 179.606C144.494 177.502 143.147 176.323 141.548 175.565C139.527 174.555 137.338 173.798 135.234 172.956C132.456 172.451 129.678 171.861 126.9 171.356C123.785 171.609 120.502 171.104 117.64 172.703C116.798 173.124 115.956 173.713 115.283 173.04C114.609 172.366 115.451 171.44 115.703 170.683C120.165 158.56 125.974 147.112 133.214 136.505C137.759 129.854 137.759 129.854 144.747 134.063C147.777 135.073 150.808 136.168 153.923 137.01C158.889 138.272 158.889 138.188 156.195 142.818C151.565 153.089 148.703 163.696 149.545 175.06C149.882 172.619 150.218 170.178 150.639 167.821C152.323 160.076 153.249 152.163 156.953 145.007C156.953 144.165 157.29 143.408 158.047 142.987C158.132 141.219 159.142 139.788 160.068 138.357C160.068 138.02 160.152 137.683 160.152 137.346C159.31 137.178 158.3 137.431 157.627 136.757C147.946 135.158 139.864 130.864 133.129 123.119C135.739 123.035 137.254 122.109 138.096 120.089C140.453 114.701 138.012 103.084 132.961 100.053C129.173 97.7804 130.772 96.1809 132.203 93.9921C132.961 92.8136 133.971 91.8034 134.897 90.709C140.958 83.2167 149.124 79.3443 158.216 76.903C162.004 75.4719 166.045 75.1352 170.086 74.8826C181.871 73.9566 192.899 76.0612 202.58 83.1325C204.348 84.3953 206.789 85.658 203.338 87.8468C203.001 88.0151 202.917 88.6044 202.749 89.0253C200.476 94.7498 204.432 107.293 209.904 110.071C212.598 111.418 212.093 112.597 211.167 114.533C206.705 123.119 199.297 128.928 190.374 133.053C190.879 133.137 191.3 133.221 191.805 133.306C198.287 135.747 202.749 140.714 207.126 145.765C208.305 147.112 206.621 147.532 206.032 148.206C199.465 156.288 195.088 165.295 193.825 175.734C193.657 179.017 193.32 182.216 193.236 185.499C192.478 207.639 195.004 229.611 198.708 251.414C199.886 258.317 199.971 258.233 193.236 260.422C190.205 261.685 187.175 262.947 183.976 263.452C179.346 265.136 174.547 266.23 169.581 266.651C164.445 267.746 159.226 267.577 154.091 267.409C153.249 267.409 151.734 266.736 151.565 267.914C151.397 269.429 153.081 269.093 154.007 269.177C158.553 269.766 163.098 269.85 167.644 269.766C168.234 269.429 168.823 269.429 169.496 269.598C170.591 269.514 171.769 269.429 172.864 269.345C177.41 268.503 182.04 267.662 186.586 266.82C189.027 266.146 191.384 265.473 193.825 264.799C195.425 264.21 197.108 263.705 198.708 263.031C200.307 262.358 200.981 262.695 201.318 264.463C201.738 266.904 202.328 269.345 203.085 271.786C206.116 282.141 210.83 291.401 220.006 297.799C221.942 299.146 225.31 299.062 225.646 301.924C225.983 304.281 225.057 306.891 224.72 309.332C224.72 309.585 224.552 309.753 224.552 309.921C224.384 312.194 224.047 314.383 223.289 316.488C223.289 318.255 222.784 319.855 222.111 321.454C221.774 323.391 222.111 325.748 219.754 326.674C213.103 329.283 206.368 331.725 199.129 332.314C198.708 332.398 198.371 332.482 197.95 332.567C197.445 332.651 197.024 332.735 196.519 332.735C192.815 333.661 189.111 333.829 185.407 333.577C181.114 333.914 176.989 333.577 172.864 332.482C168.065 332.482 164.193 330.967 162.593 325.916C162.257 324.906 161.499 324.064 160.994 323.054C156.28 314.215 152.071 305.207 149.461 295.442C149.713 294.516 148.619 294.095 148.619 293.253C148.03 292.664 148.535 290.98 146.935 291.654C145.757 292.159 146.683 293.085 146.767 293.842C146.767 294.179 146.851 294.432 146.851 294.768C147.525 295.863 147.356 297.378 147.777 298.725ZM215.881 261.264C220.595 261.937 223.373 264.799 224.552 269.261C225.899 274.48 225.225 279.7 223.71 284.835C223.458 287.36 222.363 289.633 221.521 291.906C221.101 293.085 220.595 293.674 218.912 293.59C215.881 293.422 214.534 291.401 213.356 289.465C208.726 282.225 207.547 274.144 208.221 265.725C208.473 261.6 211.419 260.085 215.881 261.264ZM188.438 335.345C199.381 334.924 209.736 332.146 220.006 327.6C219.501 330.462 218.407 332.314 217.649 334.334C215.292 340.48 210.746 343.847 204.264 344.941C200.476 345.531 196.772 346.12 192.983 346.288C180.861 348.225 171.012 343.089 166.971 332.482C174.126 334.503 181.282 335.008 188.438 335.345ZM233.644 298.136C229.856 298.22 226.488 296.62 223.205 294.937C222.195 294.432 221.858 293.842 222.363 292.664C224.131 288.707 225.394 284.498 226.151 280.289C226.404 279.11 226.825 278.605 228.172 279.026C231.455 280.036 234.822 279.868 238.105 280.289C246.945 279.952 254.942 277.174 262.519 271.955C260.161 289.381 248.713 299.651 233.644 298.136ZM206.116 212.438C202.833 212.017 200.476 209.828 197.782 208.313C196.603 207.639 196.267 206.713 196.182 205.366C195.593 197.2 195.341 189.119 195.93 180.953C196.519 173.208 197.193 165.379 201.738 158.56C202.917 155.698 204.685 153.341 206.537 150.9C208.978 147.701 209.062 147.701 211.251 150.9C212.514 152.752 213.692 154.688 214.871 156.624C218.828 161.844 221.353 167.821 224.636 173.461C225.731 175.481 226.825 177.502 228.593 178.933C230.529 180.448 232.802 181.037 234.907 179.69C237.011 178.343 238.695 176.071 238.021 173.545C237.685 172.114 238.19 171.188 238.358 170.009C238.19 169.504 238.021 168.999 238.442 168.494C238.611 168.831 238.863 169.167 239.031 169.504C246.524 180.364 251.911 192.318 256.794 204.524C257.299 205.787 256.626 206.376 255.784 206.881C246.103 213.448 235.748 217.573 223.794 216.731C217.565 216.647 211.504 215.805 206.116 212.438ZM214.45 259.159C208.389 258.991 206.621 262.947 206.032 268.251C200.981 248.72 198.034 229.106 196.351 208.818C200.139 211.175 203.675 213.364 207.463 214.963C213.271 217.573 219.501 218.415 225.731 218.751C227.246 218.751 228.845 219.088 230.276 218.751C239.368 216.562 248.292 213.784 255.784 207.892C257.383 206.629 257.636 207.471 258.057 208.818C264.286 227.927 266.391 247.458 263.445 267.493C263.276 268.672 263.192 269.85 261.929 270.608C253.427 275.911 244.419 279.363 234.233 278.353C233.139 278.353 232.044 278.269 231.034 278.269C227.835 278.1 226.32 277.09 226.488 273.218C226.657 264.968 222.784 260.927 214.45 259.159ZM237.264 171.609C236.927 174.218 237.011 177.838 233.56 178.849C229.856 180.027 228.256 176.744 226.657 174.134C226.572 173.966 226.488 173.713 226.32 173.545C221.858 164.79 217.144 156.203 211.083 148.458C210.578 147.785 209.904 147.196 210.999 146.354C214.787 143.239 219.922 142.987 222.532 146.606C226.151 151.657 230.108 156.456 233.812 161.423C235.917 164.369 237.095 167.568 237.264 171.609ZM193.32 132.716C197.193 130.864 200.307 126.908 203.338 127.076C206.621 127.244 208.978 131.959 211.756 134.737C212.682 135.663 213.608 136.589 214.45 137.599C215.629 139.03 217.312 140.124 217.986 142.145C215.039 141.976 212.514 142.818 210.493 144.502C209.147 145.512 208.473 145.344 207.379 144.165C203.422 139.619 199.045 135.831 193.32 132.716ZM134.14 110.66C134.224 111.671 134.224 112.765 134.308 113.775C134.308 114.954 134.392 116.132 134.308 117.395C134.224 118.068 134.56 119.079 133.634 119.415C132.624 119.836 132.035 118.91 131.446 118.321C130.856 117.732 129.93 116.722 130.099 116.216C130.856 114.028 129.594 114.196 128.163 114.196C126.058 114.28 123.196 113.775 122.606 116.216C122.27 117.479 122.186 117.984 121.091 118.153C119.913 118.321 118.987 117.732 118.482 116.637C117.976 115.375 118.229 114.28 119.239 113.354C120.081 112.597 121.091 112.007 121.428 113.943C121.428 114.028 122.186 114.112 122.606 114.112C126.984 113.523 128.752 110.997 128.078 106.451C127.91 105.525 128.163 104.515 128.331 103.589C128.752 101.737 129.762 101.316 131.362 102.579C135.318 105.525 138.012 114.785 136.16 119.668C136.076 116.385 135.992 113.354 134.14 110.66ZM124.711 172.956C129.93 173.124 135.066 174.05 139.864 176.323C140.958 176.828 142.726 177.333 142.474 178.849C142.221 180.364 140.537 180.28 139.275 180.448C133.971 181.037 128.836 180.28 123.869 178.596C121.596 177.838 117.892 177.249 118.313 174.639C118.65 172.451 122.354 173.208 124.711 172.956ZM207.884 103.757C209.231 104.599 209.82 105.273 209.231 106.535C208.221 106.03 207.8 105.357 207.884 103.757Z" fill="#2252A0"/>
<path d="M135.234 172.787C137.338 173.629 139.527 174.387 141.548 175.397C143.147 176.155 144.494 177.333 144.326 179.438C147.356 180.953 148.872 179.69 149.208 176.239C150.134 177.838 150.387 179.354 149.713 180.616C148.956 182.047 147.44 181.29 146.178 181.206C145.42 181.121 144.662 180.953 143.905 180.869C139.106 182.889 134.224 182.3 129.341 181.795C129.762 183.31 129.509 184.741 129.089 186.257C127.657 191.476 126.647 196.779 125.216 201.915C123.701 207.471 122.943 213.364 122.101 219.088C121.175 225.402 120.334 231.715 119.913 238.029C119.66 242.491 118.987 246.868 118.229 251.162C117.892 253.098 117.892 255.708 115.114 256.381C118.65 258.065 121.68 260.759 125.637 261.432C127.91 257.391 130.183 253.266 132.372 249.225C134.308 245.69 135.992 244.848 139.948 245.521C141.8 245.858 143.652 246.027 145.336 244.932C147.188 243.669 149.124 243.501 151.229 244.343C153.081 245.101 155.017 245.1 157.037 245.016C158.637 244.932 159.984 245.437 161.331 246.279C165.708 248.805 167.392 252.845 167.644 257.644C167.813 260.674 167.055 264.042 169.581 266.567C174.547 266.146 179.346 265.052 183.976 263.368C183.892 262.611 183.976 261.853 183.723 261.095C181.114 253.182 180.188 245.101 180.019 236.851C179.935 230.705 179.598 224.476 180.693 218.33C181.871 211.68 181.787 204.945 182.797 198.379C183.807 191.644 185.154 184.994 186.501 178.343C188.774 166.726 193.152 156.288 202.243 148.206C203.843 146.775 204.685 146.859 205.948 148.206C206.537 147.448 208.22 147.112 207.042 145.765C202.664 140.798 198.203 135.831 191.721 133.306C189.448 134.821 187.006 135.663 183.302 135.915C186.08 134.316 188.101 133.642 190.29 133.137C199.297 128.928 206.705 123.119 211.251 114.112C212.177 112.26 212.682 111.081 209.988 109.65C204.516 106.872 200.56 94.3289 202.833 88.6044C203.001 88.1835 203.085 87.6784 203.422 87.4259C206.874 85.2371 204.432 83.9744 202.664 82.7116C192.899 75.7244 181.871 73.5357 170.17 74.4617C166.213 74.7984 162.172 75.1352 158.3 76.4821C159.142 77.9974 159.394 79.5127 157.879 80.8596C157.037 81.6172 156.448 82.6274 156.532 83.7218C156.869 87.51 155.859 91.1299 154.512 94.5814C155.185 94.3289 155.943 94.1605 156.616 93.8238C165.035 90.2881 173.705 89.0253 182.797 90.5406C188.185 91.3825 193.404 92.8978 197.698 96.6018C199.634 98.2855 200.728 103.505 199.634 105.694C198.203 108.387 195.593 107.882 193.32 107.714C190.037 107.377 186.838 106.956 183.639 106.535C173.621 105.02 164.024 105.525 155.859 112.681C157.711 117.058 159.899 121.352 162.593 125.308C164.109 124.298 165.876 125.645 167.897 124.214C166.971 125.561 166.466 126.318 165.876 127.076C168.318 130.022 170.927 132.885 171.938 136.841C172.611 139.703 171.264 140.882 169.16 141.387C165.624 142.145 161.92 142.397 158.3 142.818C157.542 143.323 157.29 143.997 157.206 144.839C162.93 144.839 168.57 142.987 174.379 143.492C178.925 143.913 182.04 148.795 180.103 152.836C177.746 157.887 172.948 158.392 168.402 159.15C164.698 159.739 161.583 160.665 159.984 164.706C158.889 167.568 156.532 169.167 153.165 167.821C152.491 167.568 151.65 167.652 150.892 167.568C150.555 170.009 150.218 172.451 149.798 174.808C148.956 163.443 151.818 152.752 156.448 142.566C154.007 143.239 151.734 143.576 149.124 142.902C146.262 142.229 144.157 143.323 143.231 146.438C141.884 150.984 140.453 155.446 138.77 159.907C137.002 164.201 135.823 168.41 135.234 172.787Z" fill="#F4F4F6"/>
<path d="M169.496 266.567C166.971 263.957 167.729 260.674 167.56 257.644C167.308 252.845 165.708 248.805 161.246 246.279C159.9 245.521 158.553 244.932 156.953 245.016C155.017 245.185 152.997 245.101 151.144 244.343C149.04 243.501 147.188 243.754 145.252 244.932C143.568 246.027 141.716 245.774 139.864 245.521C135.907 244.848 134.14 245.69 132.287 249.225C130.099 253.35 127.826 257.391 125.553 261.432C127.826 262.947 130.435 263.452 132.961 264.126C133.634 264.294 134.729 264.294 134.476 265.389C134.224 266.315 133.214 266.062 132.54 265.894C130.183 265.473 127.91 264.968 125.553 264.463C125.553 270.44 125.721 276.332 125.553 282.309C125.3 292.916 126.142 303.271 128.499 313.625C129.425 317.582 130.015 322.296 127.405 326.253C133.887 328.357 140.706 328.357 147.44 328.357C147.104 327.6 146.599 326.758 146.514 326C145.757 319.013 145.673 312.11 145.925 305.123C145.925 304.702 145.925 304.281 145.925 303.86C144.326 300.914 145.504 297.715 145.167 294.684C142.642 291.485 141.884 287.781 141.884 283.74C141.884 281.636 142.474 279.952 144.41 279.195C146.514 278.353 147.525 280.121 148.535 281.636C151.902 286.687 155.522 291.569 158.637 296.789C162.004 302.429 166.634 307.059 170.422 312.363C172.864 315.73 175.473 318.676 179.851 319.771C184.313 320.865 184.986 320.528 184.565 315.983C184.481 315.225 184.228 314.551 183.976 313.794C182.545 309.921 180.861 306.049 178.42 302.766C173.705 296.368 172.948 288.455 170.254 281.299C168.907 277.595 166.718 273.975 167.644 269.766C163.098 269.766 158.553 269.766 154.007 269.177C153.081 269.093 151.397 269.345 151.565 267.914C151.734 266.736 153.165 267.325 154.091 267.409C159.142 267.493 164.361 267.746 169.496 266.567Z" fill="#FEFEFE"/>
<path d="M104.507 166.474C102.908 158.897 100.13 151.826 96.594 144.586C90.196 150.395 82.9563 153.846 74.6222 154.772C74.7906 156.372 73.8646 157.214 72.5176 157.634C69.7396 158.56 68.3085 161.086 67.635 163.359C65.8672 169.336 63.4259 175.06 63.3417 181.542C63.1733 191.055 61.7422 200.484 64.6886 209.912C66.4565 215.468 71.0865 219.341 76.9793 218.667C88.2598 217.404 92.1323 213.784 95.247 203.598C98.6143 192.486 101.477 181.037 102.066 169.336C102.15 167.905 102.571 166.558 104.507 166.474Z" fill="#F4F4F6"/>
<path d="M234.317 278.353C244.588 279.363 253.595 275.911 262.013 270.608C263.192 269.85 263.36 268.672 263.529 267.493C266.475 247.542 264.371 228.011 258.141 208.818C257.72 207.471 257.383 206.629 255.868 207.892C248.376 213.784 239.452 216.562 230.361 218.751C228.929 219.088 227.33 218.751 225.815 218.751C225.731 220.014 226.067 221.108 226.404 222.287C227.583 226.075 228.761 229.863 229.687 233.736C231.96 243.08 234.149 252.34 234.906 261.937C235.327 267.493 235.748 272.965 234.317 278.353Z" fill="#F4F4F6"/>
<path d="M167.56 269.766C166.634 274.059 168.823 277.595 170.17 281.299C172.864 288.455 173.621 296.368 178.336 302.766C180.777 306.133 182.461 309.921 183.892 313.794C184.144 314.467 184.397 315.225 184.481 315.983C184.986 320.613 184.228 320.949 179.767 319.771C175.389 318.676 172.779 315.73 170.338 312.363C166.55 307.059 161.92 302.429 158.553 296.789C155.438 291.569 151.902 286.687 148.451 281.636C147.44 280.205 146.43 278.437 144.326 279.195C142.389 279.952 141.8 281.636 141.8 283.74C141.8 287.781 142.558 291.485 145.083 294.684C145.504 294.684 145.925 294.684 146.346 294.684C146.346 294.348 146.262 294.095 146.262 293.758C146.178 293.001 145.252 292.075 146.43 291.569C147.946 290.98 147.525 292.664 148.114 293.169C148.956 290.138 150.724 291.738 151.565 292.748C154.68 296.536 157.542 300.577 160.573 304.534C164.53 309.753 167.56 315.73 173.369 319.266C177.746 321.96 181.45 325.158 184.06 329.704C184.733 330.883 185.154 331.977 185.07 333.324C188.858 333.577 192.562 333.408 196.182 332.482C196.519 331.22 196.94 331.051 197.613 332.314C198.034 332.23 198.371 332.146 198.792 332.061C199.045 330.125 198.371 328.61 197.024 327.095C195.509 325.411 194.415 323.391 193.741 321.118C193.068 318.508 195.256 313.373 197.613 311.942C200.307 310.258 203.254 310.932 206.2 313.457C207.715 314.72 208.641 316.488 210.157 317.75C213.608 320.697 217.733 320.613 221.774 321.202C222.447 319.602 222.953 318.003 222.953 316.235C217.312 317.077 213.692 314.215 210.914 309.753C209.399 307.312 207.631 304.786 205.19 303.608C201.233 301.671 199.465 298.557 198.203 294.684C197.698 293.001 197.024 291.401 196.351 289.802C192.983 282.057 189.7 274.312 186.333 266.567C181.787 267.409 177.157 268.251 172.611 269.093C171.601 271.197 170.422 270.608 169.244 269.345C168.739 269.429 168.149 269.345 167.56 269.766Z" fill="#F4F4F6"/>
<path d="M223.794 216.899C235.748 217.741 246.103 213.616 255.784 207.05C256.626 206.461 257.299 205.955 256.794 204.693C251.911 192.486 246.524 180.532 239.031 169.673C238.779 169.841 238.611 170.009 238.358 170.178C238.19 171.356 237.685 172.282 238.021 173.713C238.695 176.323 237.011 178.512 234.906 179.859C232.802 181.206 230.529 180.616 228.593 179.101C226.741 177.67 225.731 175.565 224.636 173.629C221.437 167.989 218.828 162.012 214.871 156.793C213.945 159.234 214.029 161.759 213.945 164.369C213.524 177.333 216.807 189.624 219.922 201.999C221.185 206.881 223.794 211.512 223.794 216.899Z" fill="#F4F4F6"/>
<path d="M104.507 166.474C102.655 166.558 102.234 167.905 102.15 169.42C101.561 181.206 98.6985 192.57 95.3312 203.683C92.2164 213.953 88.344 217.573 77.0635 218.751C71.1707 219.425 66.4565 215.552 64.7728 209.996C61.8264 200.568 63.2575 191.139 63.4259 181.627C63.5101 175.144 65.9514 169.42 67.7192 163.443C68.3927 161.17 69.908 158.645 72.6018 157.719C73.9487 157.298 74.8748 156.456 74.7064 154.856C71.5916 154.856 68.561 154.183 65.5305 153.678C64.1835 155.614 62.584 154.941 60.9846 154.183C58.88 154.183 57.1122 153.173 54.755 152.583C56.3545 156.035 59.1325 157.55 61.9948 159.234C60.8162 159.907 59.9744 159.066 59.0484 159.234C58.7958 160.412 59.7218 161.507 59.3851 162.77C57.7856 168.157 58.1224 173.966 56.8596 179.354C54.8392 188.277 56.8596 196.779 57.5331 205.45C57.954 210.67 59.9744 215.552 60.732 220.687C60.9846 222.287 60.9004 222.96 59.2167 222.876C65.1937 229.948 73.0227 232.81 82.0303 233.231C82.0303 230.537 84.2191 229.358 86.0711 228.096C91.2062 224.56 94.4052 219.593 96.3414 213.953C100.214 202.672 103.076 191.139 103.665 179.185C103.749 177.333 104.423 175.986 106.78 176.66C106.191 173.124 106.022 169.673 104.507 166.474Z" fill="#DDDBDC"/>
<path d="M234.317 278.353C235.748 272.965 235.327 267.493 234.906 261.937C234.149 252.34 231.96 242.996 229.687 233.736C228.761 229.863 227.498 226.075 226.404 222.287C226.067 221.108 225.731 220.014 225.815 218.751C219.501 218.415 213.356 217.573 207.547 214.963C208.389 219.341 209.736 223.718 210.073 228.18C210.493 234.241 212.009 240.05 213.019 246.027C213.777 250.404 214.703 254.697 214.618 259.159C222.952 260.843 226.825 264.968 226.657 273.133C226.572 277.006 228.003 278.016 231.202 278.184C232.128 278.269 233.223 278.353 234.317 278.353Z" fill="#DDDBDC"/>
<path d="M206.032 148.206C204.769 146.943 203.927 146.775 202.328 148.206C193.236 156.288 188.774 166.726 186.501 178.259C185.239 184.91 183.807 191.644 182.797 198.295C181.787 204.945 181.871 211.68 180.693 218.246C179.598 224.392 179.935 230.621 180.019 236.766C180.188 245.016 181.114 253.182 183.723 261.011C183.976 261.685 183.892 262.526 183.976 263.284C187.259 262.779 190.29 261.516 193.236 260.253C191.552 259.412 191.047 257.812 190.542 256.128C189.111 251.246 189.448 246.111 189.616 241.312C189.953 234.073 189.448 226.833 189.448 219.677C189.448 209.491 189.111 199.389 189.7 189.203C189.953 185.078 192.226 181.542 191.805 177.333C191.721 176.155 192.647 175.65 193.741 175.565C195.004 165.295 199.381 156.203 206.032 148.206Z" fill="#DDDBDC"/>
<path d="M223.794 216.899C223.71 211.596 221.1 206.881 219.838 201.915C216.723 189.54 213.44 177.249 213.861 164.285C213.945 161.675 213.861 159.15 214.787 156.708C213.608 154.772 212.43 152.836 211.167 150.984C208.978 147.785 208.894 147.785 206.453 150.984C204.601 153.341 202.833 155.782 201.654 158.645C204.096 158.476 205.022 159.655 204.769 162.012C204.18 169.42 202.749 176.744 204.011 184.236C205.106 191.055 205.527 197.958 205.948 204.861C206.116 207.387 207.715 209.912 206.032 212.438C211.504 215.805 217.565 216.647 223.794 216.899Z" fill="#DDDBDC"/>
<path d="M124.29 180.532C121.175 179.101 117.555 178.512 115.956 174.808C115.283 173.377 114.441 174.134 114.02 175.313C113.262 177.586 112.505 179.859 111.831 182.132C105.601 202.504 103.329 223.465 102.318 244.595C102.234 245.858 102.403 246.953 103.497 247.794C105.686 249.562 107.538 251.751 110.147 253.014C111.41 252.424 111.915 251.33 111.915 250.151C111.831 243.669 112.673 237.271 113.683 230.789C114.946 222.539 115.451 214.121 116.545 205.787C116.714 204.777 117.219 203.682 117.724 202.756C121.596 195.853 122.017 187.94 124.29 180.532Z" fill="#CFCECD"/>
<path d="M106.527 176.576C104.255 175.902 103.581 177.249 103.413 179.101C102.739 191.055 99.9612 202.588 96.0888 213.869C94.1526 219.509 90.9536 224.56 85.8185 228.011C83.9665 229.274 81.8619 230.453 81.7777 233.147C86.7445 233.82 91.5429 233.147 96.3414 231.884C98.025 231.463 98.7827 230.705 98.951 228.769C101.982 195.938 110.905 165.043 129.341 137.346C129.089 137.178 128.92 136.925 128.668 136.757C121.091 142.734 114.357 149.637 107.79 156.793C106.864 157.803 106.78 158.729 107.033 160.076C107.959 165.632 108.464 171.272 107.369 176.912C107.369 176.997 107.538 178.428 106.78 177.165C106.612 176.997 106.612 176.828 106.527 176.576Z" fill="#CFCECD"/>
<path d="M214.45 259.159C214.534 254.697 213.608 250.404 212.851 246.027C211.84 240.134 210.325 234.241 209.904 228.18C209.567 223.718 208.305 219.341 207.379 214.963C203.59 213.364 200.055 211.259 196.267 208.818C198.034 229.106 200.897 248.636 205.948 268.251C206.621 263.031 208.389 258.991 214.45 259.159Z" fill="#CFCECD"/>
<path d="M124.29 180.532C122.017 187.94 121.596 195.853 117.64 202.756C117.135 203.682 116.629 204.693 116.461 205.787C115.367 214.121 114.862 222.539 113.599 230.789C112.589 237.271 111.747 243.585 111.831 250.151C111.831 251.414 111.326 252.509 110.063 253.014C111.494 254.445 113.178 255.539 115.03 256.297C117.808 255.623 117.808 252.93 118.145 251.077C118.902 246.7 119.576 242.407 119.828 237.945C120.249 231.631 121.091 225.318 122.017 219.004C122.859 213.279 123.617 207.387 125.132 201.83C126.563 196.611 127.573 191.308 129.004 186.172C129.425 184.657 129.678 183.226 129.257 181.711C127.657 181.374 125.974 180.953 124.29 180.532Z" fill="#DDDBDC"/>
<path d="M58.9642 222.792C60.6478 222.876 60.732 222.203 60.4795 220.603C59.7218 215.468 57.7014 210.585 57.2805 205.366C56.6071 196.695 54.5867 188.193 56.6071 179.269C57.8698 173.882 57.5331 168.073 59.1326 162.685C59.4693 161.423 58.5433 160.412 58.7958 159.15C56.6913 157.887 54.5025 156.708 52.1454 155.361C50.7143 161.086 49.8724 166.895 49.2831 172.703C48.0204 184.489 47.7678 196.19 50.9668 207.723C52.5663 213.364 55.0076 218.499 58.9642 222.792Z" fill="#CFCECD"/>
<path d="M150.639 167.736C151.397 167.821 152.239 167.736 152.912 167.989C156.28 169.336 158.637 167.736 159.731 164.874C161.331 160.918 164.361 159.907 168.149 159.318C172.695 158.56 177.578 157.971 179.851 153.004C181.787 148.879 178.588 143.997 174.126 143.66C168.318 143.155 162.762 145.007 156.953 145.007C153.249 151.994 152.407 159.992 150.639 167.736Z" fill="#FEFEFE"/>
<path d="M127.573 326.337C130.183 322.296 129.594 317.666 128.668 313.71C126.311 303.355 125.469 292.916 125.721 282.394C125.89 276.417 125.721 270.524 125.721 264.547C122.859 263.537 120.081 262.442 117.219 261.432C117.471 269.345 116.882 277.258 117.808 285.172C118.818 293.506 119.997 301.84 121.596 310.09C122.438 314.215 123.617 318.255 124.795 322.38C125.216 323.896 125.048 324.99 123.28 325.243C124.543 325.832 125.974 326.337 127.573 326.337Z" fill="#F4F4F6"/>
<path d="M193.741 175.65C192.647 175.734 191.721 176.239 191.805 177.417C192.226 181.542 189.869 185.162 189.7 189.287C189.111 199.473 189.448 209.575 189.448 219.761C189.448 227.001 189.953 234.157 189.616 241.396C189.363 246.279 189.111 251.33 190.542 256.213C191.047 257.896 191.552 259.412 193.236 260.338C199.971 258.233 199.886 258.233 198.708 251.33C195.004 229.527 192.478 207.639 193.236 185.415C193.32 182.216 193.573 178.933 193.741 175.65Z" fill="#CFCECD"/>
<path d="M224.384 309.837C224.468 309.669 224.552 309.416 224.552 309.248C224.889 306.807 225.815 304.197 225.478 301.84C225.141 298.978 221.774 299.062 219.838 297.715C210.662 291.317 205.948 282.057 202.917 271.702C202.244 269.261 201.57 266.904 201.149 264.378C200.812 262.526 200.139 262.19 198.539 262.947C196.94 263.621 195.256 264.126 193.657 264.715C193.236 270.103 195.761 274.985 197.613 279.7C200.56 287.36 204.348 294.684 210.073 300.83C214.113 305.123 218.238 308.995 224.384 309.837Z" fill="#CFCECD"/>
<path d="M206.116 212.438C207.8 209.912 206.116 207.302 206.032 204.861C205.695 197.958 205.274 191.055 204.096 184.236C202.833 176.66 204.264 169.336 204.853 162.012C205.022 159.655 204.096 158.476 201.738 158.645C197.193 165.463 196.519 173.292 195.93 181.037C195.341 189.119 195.509 197.285 196.182 205.45C196.267 206.713 196.603 207.723 197.782 208.397C200.476 209.744 202.833 212.017 206.116 212.438Z" fill="#CFCECD"/>
<path d="M237.264 171.609C237.179 167.568 236.001 164.369 233.812 161.507C230.108 156.54 226.151 151.742 222.532 146.691C219.922 142.987 214.787 143.323 210.914 146.438C209.904 147.28 210.493 147.869 210.999 148.543C217.06 156.288 221.858 164.874 226.236 173.629C226.32 173.798 226.404 174.05 226.572 174.218C228.172 176.828 229.771 180.111 233.475 178.933C237.011 177.838 236.927 174.218 237.264 171.609Z" fill="#F4F4F6"/>
<path d="M144.831 133.895C137.844 129.686 137.844 129.686 133.298 136.336C126.058 147.027 120.249 158.476 115.788 170.514C115.535 171.272 114.609 172.198 115.367 172.872C116.04 173.545 116.966 172.956 117.724 172.535C120.67 170.935 123.869 171.44 126.984 171.188C130.099 159.823 133.129 148.543 141.211 139.367C142.558 137.767 144.915 136.589 144.831 133.895Z" fill="#CFCECD"/>
<path d="M233.644 298.136C248.712 299.651 260.161 289.381 262.518 271.871C255.026 277.09 246.945 279.868 238.105 280.205C237.937 283.067 237.179 285.929 236.759 288.791C236.169 292.075 233.812 294.684 233.644 298.136Z" fill="#CFCECD"/>
<path d="M134.981 90.4565C134.055 91.5508 133.129 92.561 132.287 93.7396C130.772 95.9283 129.257 97.5278 133.045 99.8008C138.096 102.831 140.453 114.449 138.18 119.836C137.338 121.857 135.823 122.783 133.214 122.867C139.948 130.696 148.114 134.905 157.711 136.505C157.963 133.895 157.121 131.874 155.101 129.938C152.576 127.413 149.629 124.803 148.703 121.183C148.198 119.247 147.272 117.9 145.925 116.637C143.484 116.132 142.137 114.449 141.043 112.344C138.938 108.303 140.201 105.104 143.231 102.158C143.821 100.306 142.558 98.6222 141.8 97.4436C140.032 94.6656 139.443 90.5406 134.981 90.4565Z" fill="#CFCECD"/>
<path d="M123.196 325.158C124.964 324.906 125.132 323.812 124.711 322.296C123.617 318.255 122.354 314.215 121.512 310.006C119.913 301.756 118.734 293.422 117.724 285.087C116.798 277.174 117.387 269.261 117.135 261.348C115.367 260.506 113.683 259.664 111.915 258.822C110.4 264.883 111.158 271.113 111.494 277.258C111.831 285.087 113.599 292.832 114.357 300.577C114.946 306.301 116.124 311.858 117.64 317.414C118.061 318.845 118.145 320.276 116.461 321.034C117.724 323.896 120.502 324.485 123.196 325.158Z" fill="#DDDBDC"/>
<path d="M116.377 321.034C118.061 320.276 117.976 318.845 117.555 317.414C116.04 311.858 114.862 306.301 114.272 300.577C113.431 292.748 111.747 285.003 111.41 277.258C111.158 271.197 110.4 264.968 111.831 258.822C108.885 256.886 105.854 255.034 102.487 252.845C102.234 258.149 102.739 262.947 103.329 267.662C105.602 286.013 109.811 303.776 116.377 321.034Z" fill="#CFCECD"/>
<path d="M224.384 309.837C218.238 308.995 214.113 305.123 210.157 300.83C204.348 294.684 200.644 287.36 197.698 279.7C195.846 274.985 193.404 270.187 193.741 264.715C191.3 265.389 188.943 266.062 186.501 266.736C189.869 274.48 193.236 282.225 196.519 289.97C197.193 291.569 197.782 293.169 198.371 294.853C199.634 298.641 201.402 301.84 205.358 303.776C207.8 304.955 209.567 307.48 211.083 309.921C213.861 314.383 217.481 317.245 223.121 316.403C223.879 314.299 224.215 312.11 224.384 309.837Z" fill="#DDDBDC"/>
<path d="M221.942 321.37C217.902 320.865 213.777 320.865 210.325 317.919C208.81 316.656 207.884 314.888 206.368 313.625C203.422 311.1 200.476 310.511 197.782 312.11C195.425 313.541 193.236 318.676 193.909 321.286C194.499 323.559 195.677 325.579 197.193 327.263C198.539 328.778 199.213 330.294 198.96 332.23C206.2 331.641 212.935 329.199 219.585 326.59C221.858 325.664 221.521 323.306 221.942 321.37Z" fill="#FEFEFE"/>
<path d="M144.831 133.895C144.999 136.589 142.558 137.767 141.211 139.367C133.129 148.543 130.099 159.823 126.984 171.188C129.762 171.693 132.54 172.282 135.318 172.787C135.907 168.41 137.086 164.201 138.601 159.992C140.285 155.614 141.716 151.068 143.063 146.522C143.989 143.408 146.093 142.313 148.956 142.987C151.481 143.576 153.838 143.323 156.28 142.65C158.973 138.02 158.973 138.104 154.007 136.841C150.892 136.084 147.861 134.905 144.831 133.895Z" fill="#DDDBDC"/>
<path d="M85.7344 125.224C87.5022 126.066 89.3542 125.14 91.2904 125.392C89.0175 126.908 86.7445 126.739 84.3874 126.655C84.4716 127.581 84.2191 128.423 83.5456 128.928C81.7778 130.275 81.7778 132.127 81.6936 134.147C81.6094 137.767 84.7241 139.03 86.4078 141.387C87.0813 141.808 87.5864 142.313 86.3236 142.397C83.7981 142.566 81.5252 141.808 79.2523 140.966C78.1579 142.65 80.9359 142.818 80.515 144.249C83.714 146.354 87.0813 147.027 90.617 145.512C92.3006 144.754 94.1526 143.744 92.9741 141.219L92.8899 141.135L93.0583 141.219C92.7215 139.788 93.7317 138.777 94.1526 137.599C96.6781 131.033 96.2572 124.551 93.395 118.321C91.8797 115.038 89.6068 112.512 85.7344 111.923C84.3874 116.216 85.3134 120.762 85.7344 125.224Z" fill="#CFCECD"/>
<path d="M145.925 116.553C147.272 117.816 148.198 119.163 148.703 121.099C149.629 124.803 152.576 127.329 155.101 129.854C157.121 131.874 157.963 133.811 157.711 136.42C158.468 137.094 159.394 136.841 160.236 137.01C163.183 136.589 165.876 137.683 168.739 137.936C165.876 138.272 163.014 138.525 160.068 138.02C159.058 139.451 158.132 140.882 158.047 142.65C161.667 142.229 165.371 141.976 168.907 141.219C171.012 140.798 172.443 139.535 171.685 136.673C170.675 132.716 168.065 129.938 165.624 126.908C163.772 127.749 162.762 127.076 162.341 125.14C159.563 121.183 157.458 116.974 155.606 112.512C152.239 113.438 149.545 116.301 145.925 116.553Z" fill="#DDDBDC"/>
<path d="M134.981 90.4565C139.443 90.5406 140.032 94.6656 141.8 97.3595C142.558 98.538 143.821 100.222 143.231 102.074C146.599 99.0431 150.555 96.9385 154.428 94.6656C155.859 91.2141 156.785 87.6784 156.448 83.806C156.364 82.7116 157.037 81.7014 157.795 80.9438C159.31 79.5969 159.058 78.1657 158.216 76.5663C149.208 79.0918 140.958 82.9642 134.981 90.4565Z" fill="#DDDBDC"/>
<path d="M193.068 346.204C196.856 346.036 200.644 345.447 204.348 344.857C210.83 343.763 215.376 340.396 217.733 334.25C218.491 332.23 219.585 330.378 220.09 327.516C209.82 332.061 199.381 334.84 188.522 335.26C188.437 336.102 189.111 336.607 189.363 337.281C190.71 340.311 192.983 342.837 193.068 346.204Z" fill="#CFCECD"/>
<path d="M70.7498 131.79C71.9284 129.686 72.9386 127.581 75.2957 126.487C77.3161 125.561 79.8416 125.897 81.441 123.372C78.8314 123.372 76.8952 122.783 74.1171 124.045C70.6656 125.561 67.2983 127.244 63.931 128.928C61.0688 130.443 56.6913 128.255 54.25 125.14C53.2398 123.877 52.3138 122.614 51.2194 121.099C48.5255 128.76 49.8724 135.999 51.3877 143.239C51.7245 145.007 54.3341 144.923 54.3341 146.943L54.25 146.859C56.9438 146.522 58.3749 149.3 60.8162 149.553C61.153 147.532 61.0688 145.849 60.0586 143.828C56.7754 137.599 60.4795 131.874 67.4667 131.874C68.561 131.79 69.6554 131.79 70.7498 131.79Z" fill="#CFCECD"/>
<path d="M149.124 295.442C151.734 305.123 155.943 314.215 160.657 323.054C161.162 323.98 161.92 324.906 162.257 325.916C163.856 330.967 167.729 332.482 172.527 332.482C173.621 330.799 173.2 329.452 172.19 327.684C167.729 319.771 162.509 312.363 157.963 304.449C155.943 300.914 153.333 297.21 149.124 295.442Z" fill="#CFCECD"/>
<path d="M215.881 261.264C211.419 260.085 208.473 261.516 208.136 265.81C207.463 274.144 208.641 282.309 213.271 289.549C214.534 291.485 215.881 293.506 218.828 293.674C220.595 293.758 221.016 293.169 221.437 291.99C222.279 289.633 223.373 287.36 223.626 284.919C223.289 284.582 222.953 284.33 222.7 283.993C222.111 286.013 221.437 288.118 220.848 290.138C220.764 289.97 220.595 289.886 220.511 289.717C220.427 289.633 220.427 289.549 220.343 289.465C217.902 288.371 217.817 285.845 217.228 283.825C215.292 276.417 215.965 268.84 215.881 261.264Z" fill="#CFCECD"/>
<path d="M149.124 295.442C153.333 297.21 155.943 300.914 157.963 304.449C162.509 312.278 167.729 319.771 172.19 327.684C173.2 329.368 173.621 330.799 172.527 332.482C176.652 333.577 180.861 333.914 185.07 333.577C185.239 332.23 184.818 331.135 184.06 329.957C181.45 325.411 177.746 322.212 173.369 319.518C167.56 315.983 164.53 310.006 160.573 304.786C157.627 300.83 154.764 296.789 151.565 293.001C150.639 291.906 148.956 290.307 148.114 293.422C148.282 294.095 149.377 294.516 149.124 295.442Z" fill="#DDDBDC"/>
<path d="M233.644 298.136C233.812 294.768 236.169 292.075 236.759 288.707C237.179 285.845 238.021 283.067 238.105 280.121C234.822 279.7 231.371 279.868 228.172 278.858C226.909 278.437 226.404 278.942 226.151 280.121C225.394 284.414 224.131 288.539 222.363 292.495C221.858 293.674 222.195 294.263 223.205 294.768C226.488 296.62 229.771 298.22 233.644 298.136Z" fill="#CFCECD"/>
<path d="M193.068 346.204C192.983 342.753 190.71 340.227 189.364 337.281C189.027 336.607 188.438 336.102 188.522 335.26C181.366 334.924 174.211 334.419 167.055 332.398C171.096 343.089 180.945 348.225 193.068 346.204Z" fill="#CFCECD"/>
<path d="M193.32 132.716C199.045 135.831 203.422 139.703 207.295 144.081C208.389 145.344 209.062 145.512 210.409 144.418C212.514 142.818 214.955 141.892 217.902 142.061C217.228 140.04 215.544 138.946 214.366 137.515C213.524 136.505 212.598 135.579 211.672 134.652C208.894 131.874 206.621 127.244 203.254 126.992C200.307 126.908 197.193 130.864 193.32 132.716Z" fill="#F4F4F6"/>
<path d="M72.6018 152.163C77.8212 152.752 83.1247 151.657 87.1655 149.048C82.367 149.132 78.0737 148.374 74.6222 145.26C71.0865 141.976 69.908 137.851 70.3289 133.137C69.8238 133.137 69.2345 133.053 68.7294 133.137C61.4055 134.063 59.0484 139.198 63.5942 145.007C65.3621 147.28 67.2983 149.721 70.6656 150.226C71.6758 150.395 72.6018 150.9 72.6018 152.163Z" fill="#F4F4F6"/>
<path d="M146.009 303.944C146.009 304.365 146.009 304.786 146.009 305.207C147.356 305.46 147.272 306.554 147.188 307.48C146.767 314.551 148.03 321.539 147.861 328.526C151.65 328.947 155.438 328.021 159.815 327.937C154.849 318.34 151.144 308.49 147.693 298.641C145.252 299.819 147.609 302.513 146.009 303.944Z" fill="#CFCECD"/>
<path d="M222.784 283.993C223.121 284.33 223.458 284.582 223.71 284.919C225.225 279.784 225.899 274.565 224.552 269.345C223.373 264.883 220.595 262.021 215.881 261.348C215.881 268.924 215.292 276.501 217.312 283.909C217.902 286.013 217.986 288.455 220.427 289.549C222.195 281.047 222.532 272.628 219.501 264.294C222.195 270.608 224.805 276.922 222.784 283.993Z" fill="#CFCECD"/>
<path d="M134.813 339.975C138.77 340.901 142.642 340.648 146.599 339.806C146.346 336.523 147.946 333.577 147.861 330.294C141.716 330.378 135.655 329.789 129.594 328.526C130.099 329.62 130.52 330.715 131.109 331.725C132.624 334.419 134.645 336.776 134.813 339.975Z" fill="#CFCECD"/>
<path d="M134.813 339.975C134.729 336.776 132.624 334.419 131.109 331.809C130.52 330.799 130.099 329.62 129.594 328.61C125.805 327.347 121.849 326.421 118.229 324.569C118.145 334.166 124.206 339.722 134.813 339.975Z" fill="#CFCECD"/>
<path d="M55.3443 124.045C56.5229 126.234 58.4591 126.992 60.8162 126.823C63.4259 126.655 65.1937 124.719 64.5202 122.193C63.931 119.92 64.4361 117.984 65.1095 115.88C65.6146 114.364 65.9513 112.681 66.0355 111.081C66.2881 107.63 65.1095 106.535 61.4055 106.367C60.8162 110.997 58.2065 114.954 57.1121 119.415C56.7754 121.015 56.9438 122.867 55.3443 124.045Z" fill="#CFCECD"/>
<path d="M134.14 110.66C136.076 113.354 136.16 116.385 136.244 119.668C138.096 114.785 135.402 105.525 131.446 102.579C129.846 101.4 128.836 101.737 128.415 103.589C128.163 104.515 127.994 105.525 128.163 106.451C128.836 110.913 127.068 113.523 122.691 114.112C122.27 114.196 121.596 114.112 121.512 113.943C121.175 112.007 120.165 112.681 119.323 113.354C118.313 114.196 117.976 115.375 118.566 116.637C119.071 117.816 119.913 118.321 121.175 118.153C122.27 117.984 122.354 117.479 122.691 116.216C123.28 113.775 126.142 114.28 128.247 114.196C129.594 114.112 130.856 114.028 130.183 116.216C130.015 116.722 130.941 117.648 131.53 118.321C132.119 118.91 132.708 119.752 133.719 119.415C134.56 119.079 134.308 118.068 134.392 117.395C134.476 116.216 134.392 115.038 134.392 113.775C134.224 112.765 134.14 111.755 134.14 110.66Z" fill="#CFCECD"/>
<path d="M124.711 172.956C122.354 173.124 118.566 172.451 118.229 174.555C117.808 177.081 121.512 177.67 123.785 178.512C128.752 180.195 133.887 180.953 139.191 180.364C140.453 180.195 142.221 180.28 142.389 178.764C142.558 177.333 140.874 176.828 139.78 176.239C135.066 174.05 130.015 173.124 124.711 172.956Z" fill="#F4F4F6"/>
<path d="M147.861 330.378C147.946 333.577 146.346 336.607 146.599 339.89C149.377 340.059 151.902 339.217 154.512 338.459C156.869 337.702 159.647 332.651 159.226 330.294C158.973 328.863 157.963 329.452 157.206 329.536C154.091 329.704 150.976 330.041 147.861 330.378Z" fill="#CFCECD"/>
<path d="M73.2753 119.415C73.9487 118.742 74.2013 117.732 73.9487 116.974C72.686 113.354 73.8645 110.071 74.6222 106.535C75.5482 102.074 72.6018 99.464 67.8876 100.137C67.8876 102.326 68.8978 104.347 69.487 106.367C70.2447 108.724 70.3289 110.997 69.3187 113.354C67.5508 117.732 68.561 119.331 73.2753 119.415Z" fill="#CFCECD"/>
<path d="M72.6018 152.163C72.6018 150.9 71.5916 150.395 70.6656 150.311C67.3825 149.805 65.3621 147.364 63.5942 145.091C59.0484 139.198 61.4055 134.147 68.7294 133.221C69.2345 133.137 69.8238 133.221 70.3289 133.221C70.4131 132.8 70.4972 132.295 70.5814 131.874C69.487 131.874 68.3927 131.874 67.2983 131.874C60.3111 131.874 56.6912 137.599 59.8902 143.828C60.9004 145.849 61.0687 147.617 60.6478 149.553C64.6044 151.321 68.3927 152.499 72.6018 152.163Z" fill="#DDDBDC"/>
<path d="M217.228 95.4232C214.197 95.5916 211.083 96.0967 210.157 91.8876C209.988 91.0457 209.146 90.2881 208.22 89.8672C206.537 93.1503 206.705 96.4334 208.136 99.7166C208.81 99.9691 208.81 100.558 208.81 101.064C210.073 103 210.999 105.188 213.103 106.872C214.955 103.252 211.083 97.6962 217.396 96.3493C217.228 96.0967 217.228 95.76 217.228 95.4232Z" fill="#F4F4F6"/>
<path d="M80.515 99.9691C77.9895 99.2115 76.3059 99.2115 77.2319 102.831C77.9053 105.188 76.8951 107.63 75.5482 109.65C74.4538 111.334 74.2855 112.765 75.3798 114.449C76.3059 115.88 76.7268 117.395 76.5584 119.079C76.39 121.267 78.1579 121.436 79.4206 121.183C81.1885 120.846 79.6732 119.5 79.6732 118.658C77.8211 115.88 77.0635 112.765 78.4946 109.734C80.0941 106.62 80.6834 103.421 80.515 99.9691Z" fill="#CFCECD"/>
<path d="M73.2753 119.415C68.561 119.331 67.5508 117.732 69.3187 113.438C70.3289 111.165 70.1605 108.808 69.487 106.451C68.8978 104.431 67.8876 102.41 67.8876 100.222C66.9615 100.137 66.2039 100.643 65.5304 101.232C64.1835 102.242 62.7524 102.916 65.4463 104.431C68.7294 106.283 68.9819 110.071 66.7932 115.29C66.2039 116.806 65.1937 118.153 66.5406 119.752C67.3825 120.762 67.4666 122.446 69.4028 122.278C71.4232 122.025 72.8544 121.436 73.2753 119.415Z" fill="#CFCECD"/>
<path d="M55.3443 124.045C56.9437 122.867 56.7754 121.015 57.1963 119.415C58.2907 114.954 60.9845 110.997 61.4896 106.367C59.7218 105.946 58.5432 106.788 57.8698 108.303C56.3545 111.755 54.755 115.206 53.3239 118.742C52.5662 120.931 53.6606 122.614 55.3443 124.045Z" fill="#CFCECD"/>
<path d="M80.515 99.9691C80.6833 103.421 80.0941 106.535 78.4946 109.734C77.0635 112.765 77.8211 115.88 79.6731 118.658C79.589 116.301 79.4206 113.943 80.3466 111.586C80.7675 110.492 81.1884 109.145 82.2828 108.724C84.8925 107.63 85.4818 105.609 85.0609 103.252C84.8083 100.811 82.6195 100.39 80.515 99.9691Z" fill="#CFCECD"/>
<path d="M86.4919 141.387C84.8083 139.114 81.6935 137.767 81.7777 134.147C81.8619 132.127 81.8619 130.275 83.6297 128.928C84.3874 128.339 84.5557 127.497 84.4716 126.655C83.9665 126.15 83.4614 125.897 82.7879 126.318C79.6731 128.339 78.4946 131.369 78.4946 134.905C78.4104 138.02 80.5991 139.451 83.1246 140.461C84.1348 140.966 85.2292 141.555 86.4919 141.387Z" fill="#CFCECD"/>
<path d="M85.7343 125.224C85.3134 120.762 84.3032 116.216 85.8185 111.755C85.145 111.418 84.3874 111.25 83.7139 111.755C80.4308 114.449 81.7777 123.372 85.7343 125.224Z" fill="#CFCECD"/>
<path d="M80.515 144.249C81.0201 142.818 78.1579 142.65 79.2523 140.966C74.7064 138.104 74.8748 133.726 75.2115 129.181L75.2957 129.265C71.0023 134.232 73.7804 142.061 80.515 144.249Z" fill="#CFCECD"/>
<path d="M147.945 328.526C148.114 321.454 146.851 314.467 147.272 307.48C147.356 306.554 147.44 305.46 146.093 305.207C145.841 312.194 145.925 319.181 146.683 326.084C146.767 326.926 147.272 327.684 147.609 328.442L147.777 328.526H147.945Z" fill="#DDDBDC"/>
<path d="M208.052 99.7166C206.621 96.4334 206.453 93.1503 208.136 89.8672C206.958 88.5202 205.948 89.0253 205.527 90.4565C204.264 95.2549 205.611 99.6324 207.379 104.431C208.557 103 207.463 101.99 208.052 101.064C208.136 100.643 208.052 100.137 208.052 99.7166Z" fill="#CFCECD"/>
<path d="M60.9004 154.183C62.4998 154.941 64.1835 155.614 65.4462 153.678C62.4998 152.247 59.3009 151.152 56.607 149.216C55.7652 148.543 54.3341 148.374 54.2499 146.943L54.3341 147.027C53.9132 147.027 53.4081 147.027 52.9872 147.027L53.0713 146.943C53.6606 150.226 56.4387 151.068 58.7958 152.415C59.5534 152.752 61.1529 152.415 60.9004 154.183Z" fill="#CFCECD"/>
<path d="M217.228 95.4232C217.228 95.76 217.228 96.0125 217.312 96.3493C218.07 96.9385 219.669 95.0865 219.922 97.4436C220.006 98.4538 221.353 97.8646 222.027 97.3595C223.373 96.3493 223.542 95.0023 222.868 93.6554C222.279 92.4768 221.269 91.9717 219.922 92.2243C218.659 92.4768 218.491 92.8978 219.164 94.1605C219.501 94.9181 217.817 94.9181 217.228 95.4232Z" fill="#DDDBDC"/>
<path d="M146.009 303.944C147.609 302.513 145.252 299.819 147.693 298.725C147.272 297.378 147.525 295.947 146.514 294.768C146.094 294.768 145.673 294.768 145.252 294.768C145.673 297.799 144.494 300.998 146.009 303.944Z" fill="#DDDBDC"/>
<path d="M143.905 180.869C144.662 181.037 145.42 181.121 146.178 181.206C147.44 181.374 148.956 182.132 149.713 180.616C150.387 179.354 150.134 177.838 149.208 176.239C148.872 179.69 147.44 180.869 144.326 179.438C144.241 179.943 144.073 180.364 143.905 180.869Z" fill="#CFCECD"/>
<path d="M160.152 138.188C163.014 138.693 165.876 138.441 168.823 138.104C165.961 137.851 163.183 136.757 160.32 137.178C160.236 137.515 160.152 137.851 160.152 138.188Z" fill="#CFCECD"/>
<path d="M190.374 133.053C188.185 133.558 186.165 134.316 183.387 135.831C187.091 135.579 189.532 134.737 191.805 133.221C191.3 133.221 190.879 133.137 190.374 133.053Z" fill="#CFCECD"/>
<path d="M169.328 269.598C170.591 270.86 171.769 271.45 172.695 269.345C171.601 269.429 170.507 269.514 169.328 269.598Z" fill="#FEFEFE"/>
<path d="M207.884 103.757C207.884 105.273 208.221 106.03 209.231 106.535C209.82 105.357 209.231 104.599 207.884 103.757Z" fill="#CFCECD"/>
<path d="M197.782 332.482C197.108 331.22 196.687 331.388 196.351 332.651C196.856 332.567 197.277 332.567 197.782 332.482Z" fill="#FEFEFE"/>
<path d="M239.116 169.588C238.947 169.252 238.695 168.915 238.526 168.578C238.105 169.083 238.274 169.588 238.442 170.094C238.611 169.925 238.863 169.757 239.116 169.588Z" fill="#F4F4F6"/>
<path d="M129.341 137.431C129.594 137.178 129.846 136.841 130.015 136.589C129.509 136.252 129.089 136.336 128.668 136.841C128.92 137.01 129.089 137.262 129.341 137.431Z" fill="#CFCECD"/>
<path d="M208.052 99.7166C208.052 100.137 208.052 100.643 208.136 101.064H208.473H208.81C208.726 100.558 208.726 99.9691 208.052 99.7166Z" fill="#CFCECD"/>
<path d="M75.2115 129.181C75.3798 129.181 75.5482 129.181 75.7166 129.181C75.7166 129.096 75.7166 129.012 75.6324 128.928C75.5482 128.928 75.3798 129.096 75.2115 129.181Z" fill="#CFCECD"/>
<path d="M52.9872 146.943C52.903 146.775 52.8188 146.606 52.7346 146.522C52.4821 146.859 52.5663 147.027 52.9872 146.943Z" fill="#CFCECD"/>
<path d="M210.578 108.472C210.83 108.556 211.083 108.64 211.335 108.724C211.251 108.472 211.083 108.219 210.999 108.051C210.83 108.135 210.746 108.303 210.578 108.472Z" fill="#CFCECD"/>
<path d="M209.904 107.798C210.157 107.967 210.409 108.219 210.578 108.387C210.746 108.219 210.83 108.135 210.999 107.967C210.83 107.714 210.578 107.461 210.409 107.209C210.241 107.377 210.073 107.63 209.904 107.798Z" fill="#CFCECD"/>
<path d="M210.409 107.209C210.157 106.956 209.904 106.451 209.483 106.956C209.062 107.377 209.567 107.63 209.82 107.882C210.073 107.63 210.241 107.377 210.409 107.209Z" fill="#CFCECD"/>
<path d="M154.428 94.6656C150.555 96.9385 146.599 99.0431 143.231 102.074C140.201 104.936 138.938 108.135 141.043 112.26C142.137 114.449 143.4 116.132 145.925 116.553C149.629 116.301 152.239 113.438 155.69 112.681C163.772 105.525 173.369 105.02 183.471 106.535C186.67 107.04 189.953 107.461 193.152 107.714C195.509 107.967 198.119 108.472 199.465 105.694C200.56 103.505 199.465 98.2855 197.529 96.6018C193.236 92.8978 188.017 91.3825 182.629 90.5406C173.621 89.0253 164.866 90.3723 156.448 93.8238C155.859 94.2447 155.101 94.4131 154.428 94.6656ZM148.535 106.283C148.451 104.768 149.208 103.926 150.387 103.757C151.734 103.589 152.66 104.515 152.744 105.862C152.828 107.125 152.155 107.967 150.892 108.051C149.461 108.219 148.703 107.377 148.535 106.283ZM185.659 99.6324C185.996 98.4538 186.501 97.6962 187.932 97.6962C189.195 97.6962 190.121 98.3696 190.037 99.6324C190.037 100.979 189.195 101.821 187.68 101.737C186.333 101.737 185.828 100.811 185.659 99.6324Z" fill="#0F2548"/>
<path d="M162.509 125.392C162.93 127.329 163.94 128.002 165.792 127.16C166.297 126.403 166.887 125.645 167.813 124.298C165.792 125.645 164.024 124.382 162.509 125.392Z" fill="#2252A0"/>
<path d="M93.0582 141.135L92.8899 141.05C92.8899 141.05 92.974 141.135 93.0582 141.135Z" fill="#2252A0"/>
<path d="M222.784 283.993C224.805 276.922 222.195 270.524 219.501 264.21C222.532 272.544 222.111 281.047 220.427 289.465C220.511 289.549 220.511 289.633 220.595 289.717C220.68 289.886 220.848 289.97 220.932 290.138C221.521 288.118 222.111 286.098 222.784 283.993Z" fill="#2252A0"/>
<path d="M148.535 106.283C148.703 107.461 149.461 108.219 150.892 108.135C152.155 108.051 152.828 107.125 152.744 105.946C152.66 104.599 151.734 103.673 150.387 103.842C149.208 103.926 148.451 104.683 148.535 106.283Z" fill="#CFCECD"/>
<path d="M185.659 99.6324C185.828 100.811 186.333 101.737 187.68 101.821C189.195 101.905 190.037 101.064 190.037 99.7166C190.037 98.4538 189.195 97.7804 187.932 97.7804C186.501 97.612 185.912 98.4538 185.659 99.6324Z" fill="#CFCECD"/>
</g>
<g clip-path="url(#clip2_1764_1903)">
<path d="M77.2844 9.25142H71.7156V139.562H77.2844V9.25142Z" fill="#AC1269"/>
<path d="M79.3806 10.4116C79.3806 10.6413 79.2083 10.8135 78.9787 10.8135H70.0214C69.7917 10.8135 69.6194 10.6413 69.6194 10.4116V8.40193C69.6194 8.17226 69.7917 8 70.0214 8H78.9787C79.2083 8 79.3806 8.17226 79.3806 8.40193V10.4116Z" fill="#AC1269"/>
<path d="M105.963 80.1785L118.018 94.975M99.8413 86.8925L103.608 94.0734" stroke="#A1A0A0" stroke-width="2.87065" stroke-linecap="round" stroke-linejoin="round"/>
</g>
<path d="M109.519 61.2038C112.444 41.5361 98.8715 23.2212 79.2038 20.2962C59.5361 17.3712 41.2212 30.9438 38.2962 50.6114C35.3712 70.2791 48.9438 88.5941 68.6115 91.5191C88.2791 94.4441 106.594 80.8715 109.519 61.2038Z" fill="#AC1269"/>
<path d="M73.9304 89.1593C92.2982 89.1593 107.188 74.2693 107.188 55.9015C107.188 37.5337 92.2982 22.6436 73.9304 22.6436C55.5626 22.6436 40.6725 37.5337 40.6725 55.9015C40.6725 74.2693 55.5626 89.1593 73.9304 89.1593Z" fill="#F1F1F1"/>
<path d="M73.9304 87.0235C91.1186 87.0235 105.052 73.0897 105.052 55.9015C105.052 38.7132 91.1186 24.7794 73.9304 24.7794C56.7422 24.7794 42.8084 38.7132 42.8084 55.9015C42.8084 73.0897 56.7422 87.0235 73.9304 87.0235Z" fill="#E9B6D3"/>
<g clip-path="url(#clip3_1764_1903)">
<path d="M80.0058 68.9779C80.0058 72.5713 77.0968 75.4803 73.5033 75.4803C69.9099 75.4803 67.0009 72.5713 67.0009 68.9779C67.0009 65.3844 69.9099 62.4754 73.5033 62.4754C77.0968 62.4754 80.0058 65.3844 80.0058 68.9779ZM97.6241 52.749C99.349 51.1816 99.4722 48.519 97.9048 46.7941C94.8452 43.4265 91.1969 40.7776 87.0696 38.909C82.7916 36.9788 78.2262 36 73.5033 36C68.7736 36 64.2082 36.9788 59.9303 38.9159C55.8029 40.7776 52.1547 43.4334 49.0951 46.801C47.5276 48.5258 47.6577 51.1884 49.3757 52.7559C51.1006 54.3233 53.7632 54.1933 55.3306 52.4752C59.9782 47.3622 66.6039 44.4258 73.5033 44.4258C80.4028 44.4258 87.0217 47.3622 91.6692 52.4684C92.5043 53.3856 93.6405 53.851 94.7904 53.851C95.8034 53.851 96.8165 53.4883 97.6241 52.749ZM87.7335 61.7361C89.4584 60.1687 89.5816 57.5061 88.0141 55.7812C84.3043 51.7018 79.0133 49.3609 73.4965 49.3609C67.9797 49.3609 62.6887 51.7018 58.9789 55.7812C57.4114 57.5061 57.5415 60.1687 59.2595 61.7361C60.9844 63.3036 63.6469 63.1735 65.2144 61.4555C67.3294 59.1283 70.3479 57.7936 73.4965 57.7936C76.6451 57.7936 79.6567 59.1283 81.7786 61.4555C82.6137 62.3727 83.7499 62.8381 84.8998 62.8381C85.9128 62.8313 86.9258 62.4685 87.7335 61.7361Z" fill="#AC1269"/>
</g>
<path d="M45.4449 22.0046L30.832 4.48664M52.669 13.8953L48.0679 5.36467" stroke="#A1A0A0" stroke-width="3.43125" stroke-linecap="round" stroke-linejoin="round"/>
<defs>
<clipPath id="clip0_1764_1903">
<rect width="299.439" height="108" fill="white" transform="translate(0 239)"/>
</clipPath>
<clipPath id="clip1_1764_1903">
<rect width="222.748" height="289" fill="white" transform="matrix(-1 0 0 1 268.748 70)"/>
</clipPath>
<clipPath id="clip2_1764_1903">
<rect width="85" height="130.081" fill="white" transform="translate(32 1)"/>
</clipPath>
<clipPath id="clip3_1764_1903">
<rect width="51" height="39.4803" fill="white" transform="translate(48 36)"/>
</clipPath>
</defs>
</svg>
