<svg width="281" height="7" viewBox="0 0 281 7" fill="none" xmlns="http://www.w3.org/2000/svg">
<g clip-path="url(#clip0_1341_4858)">
<path fill-rule="evenodd" clip-rule="evenodd" d="M37.6899 5.65239C34.4051 5.65239 31.2696 5.67372 28.1128 5.67372C25.3826 5.67372 22.6737 5.69505 19.9435 5.69505C16.7013 5.69505 13.4592 5.71638 10.1957 5.69505C7.50813 5.69505 4.8419 5.69505 2.17566 5.65239C-0.490576 5.60973 -0.149298 5.60973 0.23464 5.24713C0.34129 5.16181 0.575919 5.07649 0.789218 4.99117C1.36512 4.75654 1.89837 4.54324 2.58093 4.32994C3.22083 4.11664 4.13801 3.96733 5.78041 3.96733C6.29233 3.75403 6.74026 3.56206 7.2735 3.37009C7.55079 3.26345 7.89207 3.17813 8.31867 3.09281C8.46798 3.07148 8.89458 3.05015 9.17187 3.05015C10.4517 3.05015 11.7315 3.07148 13.0112 3.07148C14.7176 3.07148 16.4454 3.07148 18.1731 3.05015C18.877 3.05015 19.5809 3.00749 20.3061 3.00749C20.3487 2.96483 20.3701 2.9435 20.4127 2.90084C21.6925 2.9435 23.0576 2.85818 24.2734 2.96483C23.2283 2.96483 22.1831 2.96483 21.1593 2.96483C21.1593 2.98616 21.1593 2.98616 21.1593 3.00749C22.8017 3.02882 24.4227 3.00749 26.1078 2.98616C25.9158 2.98616 25.7239 2.96483 25.5319 2.96483C25.2973 2.96483 25.0626 2.96483 24.5507 2.96483C24.9347 2.92217 25.0626 2.90084 25.2119 2.90084C25.7025 2.87951 26.2145 2.85818 26.705 2.83685C27.0463 2.83685 27.4303 2.81552 27.7715 2.81552C29.094 2.85818 30.3738 2.79419 31.6749 2.79419C32.1442 2.79419 32.6347 2.75153 33.0827 2.70887C33.5519 2.66621 33.9785 2.66621 34.4904 2.70887C34.1065 2.70887 33.7226 2.7302 33.3386 2.7302C33.3386 2.7302 33.3386 2.75153 33.3386 2.77286C33.7226 2.77286 34.0852 2.79419 34.4691 2.79419C35.0877 2.79419 35.7276 2.79419 36.3461 2.79419C36.7727 2.79419 37.4126 2.81552 37.4126 2.68754C37.4126 2.68754 37.7539 2.66621 37.9459 2.66621C40.2708 2.66621 42.5958 2.66621 44.9208 2.66621C45.3047 2.66621 45.6886 2.66621 46.0939 2.66621C44.9634 2.70887 43.7476 2.66621 42.6598 2.75153C44.8781 2.75153 47.0751 2.75153 49.2934 2.75153C49.4 2.75153 49.528 2.7302 49.8693 2.68754C48.8668 2.68754 48.1416 2.68754 47.395 2.68754C47.395 2.66621 47.395 2.66621 47.395 2.64488C48.3549 2.64488 49.2934 2.64488 50.2532 2.64488C50.4879 2.58089 50.6798 2.5169 50.8931 2.45291C50.3599 2.41025 49.784 2.43158 49.2721 2.43158C46.2006 2.45291 43.1291 2.49557 40.0576 2.47424C36.7941 2.47424 33.4879 2.45291 30.2885 2.32493C29.4353 2.28227 28.6034 2.26094 27.7715 2.19695C26.4917 2.13296 25.8732 1.96232 26.0865 1.72769C26.1078 1.68503 26.2571 1.6637 26.4064 1.64237C27.7929 1.42907 27.7929 1.42907 28.1555 1.15179C28.5394 1.13046 28.9233 1.10913 29.3926 1.0878C29.2006 1.04514 29.03 1.00248 28.8807 0.981147C28.902 0.981147 28.8807 0.959817 28.902 0.959817C29.5419 0.917157 30.1818 0.874497 30.843 0.831837C31.227 0.810507 31.6962 0.853167 31.9949 0.767848C32.0588 0.746518 32.3575 0.746518 32.5708 0.746518C34.4265 0.725188 36.2822 0.703858 38.1379 0.682528C39.1404 0.682528 40.1429 0.703858 41.124 0.703858C42.8731 0.703858 44.6221 0.703858 46.3712 0.682528C47.395 0.661198 48.3975 0.618538 49.4427 0.639868C50.0186 0.661198 50.5945 0.682528 51.1704 0.661198C51.7677 0.661198 52.3649 0.618538 52.9835 0.618538C54.6045 0.597208 56.2469 0.597208 57.868 0.597208C58.8279 0.597208 59.809 0.554549 60.7262 0.575879C61.9207 0.597208 63.0512 0.533219 64.2457 0.554549C64.9282 0.575879 65.6321 0.575879 66.336 0.575879C66.8692 0.575879 67.4025 0.554549 67.9357 0.554549C69.5141 0.533219 71.0926 0.511889 72.671 0.511889C72.7776 0.511889 72.9482 0.490559 73.0122 0.511889C73.8228 0.618538 74.6546 0.554549 75.5078 0.533219C77.5982 0.490559 79.6885 0.469229 81.7788 0.511889C82.0988 0.511889 82.4614 0.490559 82.8027 0.490559C83.3146 0.490559 83.9971 0.426569 84.2744 0.469229C84.829 0.533219 85.2129 0.469229 85.6609 0.469229C86.1728 0.469229 86.7274 0.490559 87.1753 0.469229C88.9243 0.383909 90.7374 0.469229 92.5078 0.426569C93.361 0.405239 94.2995 0.426569 95.1953 0.426569C95.6219 0.426569 96.0485 0.426569 96.4751 0.426569C96.8164 0.426569 97.179 0.426569 97.5203 0.447899C98.1175 0.469229 98.6934 0.533219 99.2053 0.426569C99.2693 0.405239 99.504 0.405239 99.6533 0.405239C101.125 0.405239 102.597 0.383909 104.047 0.426569C104.666 0.426569 105.199 0.383909 105.839 0.405239C106.5 0.426569 107.247 0.405239 107.951 0.405239C108.633 0.405239 109.316 0.405239 109.998 0.405239C111.747 0.405239 113.518 0.383909 115.267 0.383909C116.973 0.405239 118.658 0.36258 120.386 0.383909C123.01 0.405239 125.654 0.36258 128.278 0.36258C130.454 0.36258 132.651 0.36258 134.826 0.34125C137.13 0.31992 139.455 0.29859 141.758 0.29859C142.868 0.29859 143.977 0.29859 145.107 0.27726C147.731 0.25593 150.376 0.2346 153.021 0.21327C156.583 0.19194 160.124 0.170611 163.686 0.170611C166.053 0.149281 168.442 0.149281 170.81 0.127951C172.921 0.106621 175.033 0.085291 177.123 0.085291C179.064 0.0639611 181.005 0.085291 182.968 0.0639611C183.757 0.0639611 184.568 0.0426312 185.357 0.0426312C186.295 0.0426312 187.255 0.0426312 188.194 0.0426312C190.263 0.0426312 192.332 0.0426312 194.401 0.0426312C197.024 0.0426312 199.648 0.0426312 202.25 0.0426312C204.148 0.0426312 206.047 0.0213013 207.945 0.0213013C209.63 0.0213013 211.337 0.0426312 213.043 0.0426312C214.003 0.0426312 214.941 0.0213013 215.901 0.0213013C217.373 0.0213013 218.823 0.0213013 220.295 0.0213013C225.649 0.0213013 230.981 0.0426312 236.335 0.0426312C237.999 0.0426312 239.684 0.085291 241.326 0.0639611C242.777 0.0426312 244.142 0.085291 245.571 0.106621C247.107 0.106621 248.643 0.085291 250.178 0.085291C250.584 0.085291 251.01 0.106621 251.479 0.127951C252.183 -0.0640183 253.292 0.0639611 254.295 0.0639611C254.167 0.149281 254.722 0.2346 254.359 0.31992C254.231 0.34125 254.231 0.383909 254.082 0.426569C253.612 0.511889 253.229 0.597208 253.378 0.703858C252.311 0.874497 252.695 1.15179 251.437 1.3011C251.373 1.3011 251.33 1.32242 251.309 1.32242C251.117 1.42907 250.925 1.51439 250.712 1.64237C251.778 1.6637 252.951 1.68503 254.124 1.68503C257.175 1.70636 260.246 1.72769 263.296 1.77035C265.003 1.79168 266.688 1.83434 268.394 1.83434C269.034 1.83434 269.653 1.83434 270.292 1.83434C270.463 1.83434 270.612 1.83434 270.783 1.83434C271.914 1.85567 273.044 1.877 274.174 1.91966C275.198 1.94099 275.646 2.0903 275.07 2.23961C274.494 2.36759 274.196 2.5169 273.876 2.66621C273.684 2.75153 273.236 2.83685 272.959 2.92217C272.745 2.98616 272.596 3.07148 272.34 3.1568C272.383 3.19946 272.745 3.19946 273.108 3.19946C274.686 3.19946 276.265 3.19946 277.822 3.19946C277.993 3.19946 278.142 3.19946 278.291 3.19946C279.187 3.19946 280.083 3.22079 281 3.22079C280.936 3.34876 280.744 3.47674 280.126 3.58339C279.635 3.66871 279.486 3.79669 279.144 3.90334C278.931 3.96733 278.675 4.03132 278.419 4.11664C277.609 4.30861 276.755 4.52191 275.988 4.71388C275.71 4.7992 275.348 4.82053 274.814 4.82053C272.98 4.7992 271.146 4.7992 269.311 4.7992C267.775 4.7992 266.218 4.82053 264.683 4.82053C262.955 4.82053 261.227 4.82053 259.521 4.84186C257.004 4.84186 254.466 4.86319 251.949 4.86319C248.024 4.88452 244.121 4.92718 240.196 4.94851C239.983 4.94851 239.769 4.96984 239.577 4.99117C240.068 4.99117 240.559 4.99117 241.049 5.0125C243.438 5.03383 245.827 5.0125 248.195 5.07649C249.666 5.09782 251.138 5.07649 252.589 5.09782C253.932 5.11915 255.276 5.09782 256.599 5.16181C256.833 5.18314 257.175 5.14048 257.452 5.14048C259.542 5.20447 261.654 5.26846 263.744 5.33245C263.808 5.33245 263.851 5.35378 263.851 5.35378C263.638 5.41776 263.467 5.50308 263.254 5.56707C262.656 5.75904 262.038 5.95101 261.419 6.14298C261.206 6.20697 260.993 6.27096 260.758 6.33495C260.353 6.4416 259.947 6.54825 259.564 6.6549C259.308 6.71889 258.945 6.76155 258.39 6.74022C257.686 6.71889 256.983 6.71889 256.257 6.71889C255.553 6.71889 254.828 6.74022 254.124 6.74022C252.61 6.74022 251.096 6.74022 249.581 6.74022C248.237 6.74022 246.872 6.76155 245.507 6.76155C244.035 6.76155 242.542 6.78288 241.07 6.78288C239.151 6.78288 237.21 6.76155 235.311 6.78288C230.555 6.84687 225.798 6.80421 221.042 6.80421C217.522 6.80421 213.981 6.80421 210.462 6.80421C208.073 6.80421 205.684 6.78288 203.295 6.78288C201.738 6.78288 200.181 6.78288 198.603 6.78288C197.963 6.78288 197.344 6.78288 196.704 6.78288C193.953 6.78288 191.222 6.76155 188.471 6.76155C185.314 6.76155 182.157 6.74022 179 6.74022C176.462 6.74022 173.903 6.71889 171.364 6.69756C169.146 6.69756 166.906 6.69756 164.667 6.67623C161.915 6.6549 159.142 6.63357 156.391 6.63357C152.125 6.63357 147.859 6.61224 143.572 6.61224C140.607 6.61224 137.663 6.59091 134.698 6.59091C131.03 6.56958 127.361 6.56958 123.692 6.54825C118.21 6.52692 112.707 6.50559 107.225 6.48426C105.156 6.48426 103.087 6.46293 100.997 6.46293C94.2568 6.46293 87.5379 6.4416 80.7976 6.4416C78.558 6.4416 76.3397 6.46293 74.1001 6.46293C72.9056 6.46293 71.7111 6.4416 70.5166 6.4416C69.8767 6.4416 69.2582 6.46293 68.6183 6.46293C66.528 6.46293 64.4589 6.48426 62.3686 6.48426C58.8065 6.48426 55.2444 6.50559 51.6823 6.50559C47.7576 6.50559 43.8329 6.52692 39.9082 6.52692C39.2257 6.52692 38.5431 6.52692 37.8606 6.50559C36.6448 6.48426 36.1968 6.37761 36.6234 6.20697C36.9221 6.07899 37.2633 5.95101 37.5833 5.82303C37.6899 5.73771 37.6686 5.69505 37.6899 5.65239ZM42.2332 2.79419C42.2332 2.77286 42.2332 2.77286 42.2332 2.75153C41.2734 2.70887 39.7376 2.70887 38.4151 2.79419C39.6736 2.79419 40.9534 2.79419 42.2332 2.79419Z" fill="#6F8EC1"/>
</g>
<defs>
<clipPath id="clip0_1341_4858">
<rect width="281" height="6.74025" fill="white"/>
</clipPath>
</defs>
</svg>
