<svg width="300" height="345" viewBox="0 0 300 345" fill="none" xmlns="http://www.w3.org/2000/svg">
<g clip-path="url(#clip0_1764_1900)">
<path d="M254.99 272.17C256.341 272.902 257.054 274.103 257.466 275.491C257.748 276.392 257.917 277.33 257.935 278.287C258.967 280.295 258.592 282.377 258.161 284.441C257.71 286.618 256.772 288.644 255.928 290.708C255.309 292.19 255.421 292.322 257.035 292.397C257.992 292.434 258.949 292.491 259.906 292.603C268.218 293.598 271.182 298.251 271.82 305.887C272.064 308.758 271.951 311.666 270.131 314.162C269.118 315.025 267.842 315.457 266.754 316.207C266.003 316.732 265.347 316.601 264.653 315.963C263.377 314.762 262.889 313.355 263.133 311.591C263.508 308.965 263.639 306.338 262.926 303.73C261.632 298.87 257.785 297.726 253.939 300.99C251.199 303.298 250.017 306.357 249.567 309.79C249.173 312.773 248.798 313.092 245.814 313.13C244.257 313.149 242.7 313.017 241.142 313.243C239.379 313.505 237.878 314.312 236.489 315.438C235.045 316.62 234.256 316.32 233.956 314.462C233.637 312.454 233.375 310.428 233.112 308.402C232.812 306.188 232.305 304.049 231.536 301.947C231.179 300.99 230.917 299.808 229.735 299.696C228.459 299.564 227.971 300.765 227.445 301.685C225.832 304.536 224.894 307.632 224.425 310.86C223.974 313.824 223.824 316.826 223.58 319.81C223.543 320.279 223.562 320.767 223.449 321.236C223.205 322.268 222.661 322.53 221.798 321.817C221.197 321.311 220.747 320.654 220.128 320.185C219.096 319.416 218.477 319.622 218.214 320.86C217.914 322.174 218.139 323.487 218.439 324.782C218.927 326.771 219.603 328.685 220.428 330.561C220.71 331.199 221.141 331.855 220.728 332.606C220.072 332.625 219.415 332.681 218.758 332.681C205.568 332.681 192.359 332.681 179.168 332.662C178.624 332.662 178.099 332.625 177.555 332.606C177.367 332.362 177.329 332.099 177.423 331.799C177.799 331.011 178.568 330.58 179.149 329.998C180.444 328.722 181.495 327.315 181.983 325.514C182.977 321.686 181.983 319.19 178.587 317.164C176.11 315.682 176.016 315.382 177.311 312.773C178.474 310.409 179.769 308.101 179.844 305.381C179.956 301.797 178.718 300.596 175.097 300.915C173.183 301.084 171.344 301.666 169.524 302.266C168.849 302.491 168.192 302.81 167.441 302.773C167.047 302.716 166.71 302.548 166.522 302.172C166.222 301.272 166.691 300.54 167.029 299.789C168.173 297.144 169.336 294.498 169.862 291.646C170.218 289.77 170.687 287.744 168.905 286.28C167.179 284.873 165.246 285.398 163.445 286.13C158.698 288.044 155.339 291.609 152.675 295.83C150.329 299.546 150.367 299.639 146.821 297.088C144.55 295.455 142.243 295.624 139.822 296.543C136.295 297.876 135.919 297.613 135.919 293.748C135.919 290.671 135.507 287.65 135 284.629C134.681 282.734 134.024 280.914 133.049 279.244C131.21 276.129 128.095 274.628 124.53 275.116C120.196 275.716 116.631 277.818 113.498 280.726C110.683 283.334 108.15 286.205 105.824 289.282C105.542 289.526 105.261 289.77 104.942 289.995C104.773 290.089 104.585 290.164 104.398 290.202C101.827 290.164 101.564 289.995 100.757 287.744C100.195 286.092 100.27 284.31 99.8569 282.64C99.5191 281.252 99.2752 279.826 98.3934 278.644C98.1682 278.381 97.9618 278.118 97.6053 278.024C97.4364 277.968 97.2863 277.874 97.1175 277.78C96.7234 277.499 96.4045 277.124 96.1793 276.711C93.7401 272.395 89.8374 271.251 85.278 271.851C81.2252 272.377 77.5476 273.953 74.4142 276.655C72.6317 278.193 72.0313 278.006 71.4121 275.735C70.6803 272.996 69.6109 272.152 66.6651 272.208C65.4079 272.227 64.6574 271.757 64.6574 270.5C64.6574 267.48 64.2821 264.515 63.4753 261.625C63.344 261.138 63.4378 260.669 63.7755 260.274C63.7193 258.53 64.0195 256.803 64.2446 255.077C64.6762 251.568 65.3516 248.097 66.3836 244.701C67.0778 242.393 67.9222 240.161 68.9917 238.003C69.3294 237.309 69.7234 236.614 70.1175 235.958C70.5115 235.282 70.9993 234.682 71.5622 234.138C73.8138 231.942 76.9284 232.092 78.861 233.312C80.0994 234.081 81.1689 235.019 82.107 236.145C83.0452 237.252 83.7957 238.472 84.4149 239.785C84.7714 240.536 85.1091 241.305 85.4093 242.093C86.9854 246.183 88.4677 250.293 89.7248 254.495C90.3065 256.391 90.9069 258.267 91.5073 260.162C91.6199 260.5 91.7325 260.837 91.8638 261.175C92.1453 261.926 92.6143 262.019 93.196 261.4C93.7214 260.837 94.228 260.218 94.6783 259.599C95.5789 258.323 96.4232 257.01 97.3426 255.753C98.0368 254.777 98.7874 253.839 99.5566 252.919C100.063 252.338 100.645 251.812 101.245 251.325C101.658 250.987 102.127 250.705 102.615 250.48C103.891 249.88 105.167 249.955 106.424 250.612C107.4 251.137 108.169 251.906 108.713 252.844C109.257 253.782 109.707 254.758 110.195 255.715C110.571 256.466 110.927 257.216 111.302 257.967C111.377 258.098 111.678 258.154 111.771 258.042C111.846 257.948 111.94 257.873 112.015 257.779C112.109 257.629 112.203 257.479 112.297 257.31C115.712 251.212 120.196 246.033 125.468 241.474C127.382 239.823 129.334 238.247 131.398 236.802C132.767 235.845 134.193 234.944 135.713 234.194C137.12 233.481 138.584 232.993 140.16 232.805C142.73 232.468 145.038 233.106 147.065 234.719C147.721 235.245 148.284 235.864 148.81 236.521C149.86 237.853 150.686 239.297 151.399 240.836C152.262 242.694 152.937 244.607 153.482 246.577C154.12 248.885 154.682 251.212 155.302 253.539C155.452 254.12 155.602 254.702 155.808 255.265C155.902 255.565 156.183 255.753 156.484 255.79C156.84 255.828 157.197 255.809 157.553 255.771C158.81 255.603 160.067 255.584 161.325 255.621C164.345 255.696 167.104 256.578 169.618 258.229C170.462 258.792 171.269 259.43 172.095 260.031C172.864 260.593 173.633 261.175 174.421 261.738C174.59 261.869 174.965 261.794 175.078 261.625C175.209 261.419 175.341 261.213 175.434 261.006C178.061 255.04 182.489 250.818 188.174 247.816C190.801 246.427 193.578 245.527 196.468 244.926C200.127 244.176 203.842 243.969 207.557 244.101C210.446 244.213 213.279 244.739 216.038 245.602C218.852 246.484 221.573 247.591 224.162 248.979C229.622 251.925 233.675 256.203 236.302 261.813C237.39 264.158 238.215 266.598 238.816 269.112C239.322 271.213 239.792 273.315 240.298 275.416C240.373 275.698 240.486 275.979 240.598 276.261C240.655 276.392 240.917 276.429 241.049 276.317C242.099 275.416 243.131 274.516 244.182 273.615C246.715 271.251 249.811 270.801 253.095 270.951C253.939 270.988 254.352 271.739 254.99 272.17Z" fill="#A1A0A0"/>
<path d="M63.7943 260.256C63.8131 260.931 64.0758 261.532 64.2634 262.17C64.5261 263.145 64.9013 264.102 64.9201 265.134C65.3704 266.767 65.2578 268.455 65.2766 270.125C65.2766 270.425 65.2766 270.726 65.2953 271.026C65.3329 271.514 65.6706 271.814 66.1397 271.664C66.8339 271.438 67.5469 271.438 68.2787 271.438C68.8416 271.438 69.3669 271.607 69.7985 271.926C71.0931 272.883 72.0125 274.103 72.1251 275.792C72.1626 276.279 72.2001 276.748 72.5191 277.142C72.5754 277.218 72.763 277.274 72.8193 277.236C73.0632 277.067 73.3259 276.899 73.5135 276.692C74.7331 275.322 76.253 274.403 77.8666 273.577C79.0487 272.977 80.2682 272.508 81.4878 272.001C82.032 271.776 82.6324 271.664 83.214 271.532C85.1466 271.101 86.7227 270.894 88.7304 271.101C90.9632 271.326 93.0459 272.039 94.7158 273.671C95.5789 274.516 96.3669 275.397 96.8172 276.542C97.0049 276.992 97.2863 277.368 97.7366 277.593C98.9375 280.313 98.7123 283.165 98.5059 286.017C98.4684 286.43 98.337 286.843 98.337 287.256C98.3558 287.875 97.8304 288.776 98.4872 289.057C99.2564 289.395 100.101 288.944 100.645 288.231C100.833 288.006 101.001 287.744 101.264 287.612C101.621 287.912 101.583 288.325 101.639 288.738C101.696 289.132 101.94 289.357 102.334 289.395C103.197 289.451 104.003 289.883 104.904 289.826C107.456 290.164 109.557 292.735 109.82 295.849C110.064 298.833 109.501 301.685 108.657 304.536C108.056 306.563 108.094 306.582 110.158 306.788C113.104 307.107 115.092 308.814 116.5 311.272C117.194 312.473 117.7 312.567 118.789 311.648C121.491 309.321 124.08 309.058 126.707 310.616C129.146 312.06 130.722 315.607 130.178 318.552C129.821 320.541 128.94 322.324 127.607 323.825C126.65 324.894 126.163 325.945 126.632 327.39C126.857 328.122 126.801 328.928 126.669 329.716C126.35 331.668 125.243 332.662 123.292 332.794C123.048 332.812 122.804 332.794 122.579 332.794C100.101 332.794 77.6227 332.794 55.1445 332.794C54.8443 332.794 54.5441 332.794 54.2439 332.737C53.5872 332.7 52.9305 332.662 52.2738 332.662C46.5136 332.662 40.7533 332.737 35.0118 332.644C29.0076 332.55 23.0222 332.568 17.0181 332.493C14.4475 332.456 11.8582 332.437 9.2877 332.4C8.79986 332.4 8.33079 332.4 7.84295 332.362C7.52398 332.343 7.22377 332.212 7.12995 331.912C6.96109 331.368 6.60459 330.974 6.26685 330.58C5.25365 329.398 4.22168 328.215 3.24601 327.015C2.17651 325.701 1.35094 324.256 0.67547 322.699C0.112579 321.404 -0.075051 320.054 0.0187642 318.665C0.150105 316.676 1.35094 315.175 3.26477 314.575C3.84642 314.387 4.42808 314.331 5.02849 314.274C6.15428 314.181 7.29882 314.031 8.4246 313.88C8.64976 313.843 8.87492 313.73 9.10007 313.655C9.30647 313.58 9.47533 313.243 9.40028 313.074C9.2877 312.792 9.19389 312.511 9.02502 312.267C8.64976 311.723 8.23697 311.197 7.86171 310.672C7.35511 309.94 6.79222 309.227 6.34191 308.439C3.54621 303.429 5.14107 298.195 8.55594 295.174C10.0195 293.879 11.6894 293.222 13.6595 293.316C14.8791 293.372 16.0424 293.598 17.1682 293.992C18.2377 294.367 19.3072 294.78 20.3767 295.155C20.7144 295.268 21.0709 295.361 21.4086 295.436C21.4461 295.455 21.5962 295.268 21.5962 295.192C21.5587 294.967 21.4649 294.742 21.3711 294.517C19.8701 291.421 18.8568 288.175 18.2189 284.798C17.8436 282.846 17.6748 280.876 17.8061 278.887C18.0125 275.585 19.007 272.546 21.0709 269.9C22.6282 267.93 24.5796 266.485 26.9625 265.622C29.139 264.834 31.2967 264.853 33.4732 265.603C34.3926 265.922 35.2557 266.316 36.0813 266.823C37.2446 267.555 38.4079 268.305 39.5525 269.074C41.335 270.294 43.0987 271.532 44.8812 272.752C45.0313 272.846 45.1814 272.94 45.3315 273.033C45.5754 273.183 45.9319 273.033 46.0257 272.714C46.1008 272.489 46.1571 272.264 46.2321 272.02C46.476 271.101 46.7012 270.163 46.9639 269.243C47.6393 266.842 48.6901 264.646 50.2099 262.676C51.2794 261.288 52.5365 260.087 53.9812 259.111C54.4316 258.811 54.8819 258.53 55.3697 258.286C57.7714 257.104 60.0229 257.423 62.1056 259.036C62.4809 259.336 62.7999 259.693 63.1564 260.031C63.3252 260.237 63.5504 260.256 63.7943 260.256Z" fill="#CFCECD"/>
<path d="M54.2627 332.775C54.9194 332.737 55.5761 332.681 56.2328 332.681C63.8506 332.681 71.4684 332.681 79.0862 332.681C92.5205 332.681 105.955 332.7 119.37 332.719C120.571 332.719 121.772 332.681 122.973 332.625C124.699 332.531 125.994 331.293 126.181 329.548C126.313 328.328 126.275 327.146 125.543 326.095C125.3 325.757 125.393 325.401 125.656 325.12C126.05 324.669 126.482 324.256 126.876 323.806C128.114 322.38 128.996 320.785 129.446 318.928C129.84 317.389 129.596 315.944 129.052 314.537C128.846 313.974 128.527 313.468 128.208 312.961C127.42 311.666 126.2 310.897 124.793 310.484C123.742 310.165 122.654 310.184 121.622 310.616C120.44 311.104 119.427 311.835 118.601 312.811C118.301 313.167 117.963 313.505 117.625 313.862C117.532 313.956 117.213 313.899 117.138 313.787C117.006 313.599 116.856 313.411 116.744 313.186C116.425 312.605 116.143 312.023 115.843 311.423C115.486 310.728 114.999 310.109 114.455 309.546C113.141 308.195 111.527 307.482 109.651 307.464C108.994 307.464 108.338 307.482 107.681 307.482C107.456 307.482 107.268 307.22 107.325 306.976C107.55 306.113 107.812 305.249 108.038 304.368C108.357 303.148 108.638 301.928 108.957 300.709C109.37 299.114 109.388 297.5 109.257 295.887C109.088 293.804 108.131 292.134 106.405 290.915C105.917 290.577 105.336 290.37 104.96 289.864H104.942C105.111 289.639 105.035 289.263 105.373 289.151C106.274 287.969 107.156 286.73 108.094 285.586C110.27 282.94 112.634 280.482 115.393 278.437C116.894 277.33 118.489 276.373 120.215 275.66C121.716 275.041 123.292 274.647 124.906 274.516C126.181 274.403 127.42 274.572 128.639 274.91C130.366 275.397 131.773 276.392 132.861 277.818C133.705 278.925 134.325 280.145 134.812 281.439C135.244 282.621 135.563 283.841 135.788 285.079C135.994 286.318 136.107 287.575 136.276 288.813C136.539 290.783 136.576 292.753 136.67 294.723C136.707 295.436 136.82 296.149 136.914 296.862C136.933 297.013 137.214 297.144 137.345 297.069C137.608 296.937 137.871 296.787 138.133 296.656C139.316 296.056 140.554 295.605 141.849 295.361C143.762 294.986 145.545 295.286 147.121 296.525C147.871 297.125 148.641 297.707 149.391 298.288C150.292 298.964 150.386 298.945 150.855 298.026C151.024 297.707 151.174 297.388 151.343 297.069C151.53 296.694 151.737 296.337 151.943 295.962C154.044 292.228 156.953 289.263 160.518 286.918C162.038 285.924 163.707 285.267 165.509 284.967C166.353 284.835 167.179 284.854 168.004 285.079C169.618 285.511 170.593 286.58 170.762 288.231C170.875 289.376 170.856 290.502 170.612 291.628C170.35 292.791 170.068 293.973 169.637 295.08C168.98 296.75 168.304 298.42 167.629 300.09C167.366 300.746 167.085 301.422 166.803 302.079C166.728 302.867 167.141 302.641 167.535 302.435C169.637 301.553 171.794 300.859 174.046 300.465C174.759 300.334 175.472 300.296 176.185 300.259C176.598 300.24 177.029 300.277 177.442 300.352C179.187 300.634 180.219 301.666 180.463 303.429C180.632 304.687 180.594 305.944 180.294 307.182C179.975 308.533 179.506 309.828 178.906 311.066C178.305 312.304 177.686 313.543 177.086 314.781C176.992 314.987 176.935 315.231 176.898 315.457C176.879 315.55 176.954 315.7 177.029 315.776C177.217 315.907 177.442 316.038 177.648 316.113C178.38 316.395 179.056 316.77 179.712 317.202C180.744 317.858 181.551 318.74 182.17 319.791C182.677 320.635 182.94 321.536 182.977 322.511C183.127 326.395 181.27 329.792 177.911 331.799C177.817 331.855 177.705 331.931 177.611 331.987C177.104 332.418 176.466 332.493 175.828 332.531C175.209 332.606 174.571 332.362 173.99 332.7C173.089 332.719 172.188 332.719 171.288 332.737C170.387 332.756 169.505 332.737 168.605 332.962C168.042 333.113 167.423 333.056 166.822 333.056C162.45 333.056 158.06 333.056 153.688 333.056C143.368 333.056 133.067 333.075 122.748 333.075C106.499 333.075 90.2502 333.075 74.0014 333.075C67.8847 333.075 61.7679 333.075 55.6512 333.075C55.1821 332.981 54.6942 333.094 54.2627 332.775Z" fill="#A1A0A0"/>
<path d="M269.794 313.918C270.788 311.892 271.182 309.753 271.238 307.501C271.332 304.63 270.6 301.947 269.606 299.302C269.043 297.782 267.974 296.656 266.735 295.699C264.99 294.367 263.001 293.598 260.806 293.391C260.506 293.354 260.206 293.354 259.924 293.279C259.155 293.072 258.386 293.054 257.616 293.035C257.204 293.035 256.772 293.016 256.359 293.016C254.295 292.997 254.051 293.166 255.065 291.046C255.834 289.432 256.509 287.762 257.072 286.055C257.71 284.104 258.029 282.115 257.935 280.051C257.917 279.45 257.935 278.869 257.954 278.268C258.48 278.4 258.498 278.4 258.648 278.043C259.211 276.58 259.755 275.135 260.318 273.671C261.669 270.144 263.058 266.635 264.596 263.183C266.21 259.562 267.974 256.015 269.944 252.582C271.97 249.035 274.222 245.639 276.473 242.243C278.875 238.641 281.277 235.076 283.697 231.492C284.71 229.991 285.723 228.509 286.755 227.045C287.131 226.501 287.562 225.994 287.975 225.488C288.088 225.357 288.238 225.244 288.388 225.15C288.857 224.812 289.532 225.038 289.682 225.6C289.739 225.826 289.795 226.088 289.758 226.295C289.626 226.933 289.476 227.589 289.288 228.208C288.707 230.16 287.975 232.074 287.225 233.969C285.799 237.59 284.354 241.211 282.947 244.851C282.384 246.296 281.84 247.76 281.333 249.242C280.132 252.694 278.894 256.147 277.787 259.618C276.06 264.984 274.391 270.369 272.927 275.81C271.839 279.807 270.713 283.785 269.606 287.762C269.456 288.288 269.362 288.813 269.25 289.338C269.231 289.376 269.287 289.451 269.325 289.489C269.362 289.526 269.437 289.545 269.475 289.526C269.681 289.432 269.925 289.338 270.094 289.188C271.951 287.518 274.165 286.449 276.436 285.492C279.776 284.104 283.247 283.165 286.737 282.34C289.307 281.739 291.878 281.158 294.448 280.576C294.917 280.464 295.386 280.351 295.874 280.426C296.212 280.482 296.512 280.914 296.362 281.252C296.268 281.458 296.156 281.702 295.987 281.852C295.386 282.434 294.767 282.997 294.111 283.541C293.454 284.085 292.891 284.685 292.328 285.304C290.133 287.687 288.144 290.239 286.061 292.716C284.41 294.686 282.703 296.637 281.033 298.589C280.676 299.001 280.376 299.433 280.057 299.883C279.888 300.127 280.113 300.502 280.432 300.521C280.545 300.521 280.676 300.559 280.789 300.54C282.271 300.352 283.753 300.108 285.123 299.452C286.755 298.664 288.294 297.782 289.626 296.506C290.32 295.849 291.09 295.268 291.84 294.667C292.178 294.386 292.722 294.555 292.891 294.967C293.004 295.249 293.135 295.53 293.135 295.812C293.154 296.525 293.191 297.256 293.097 297.969C292.797 300.108 292.403 302.229 291.878 304.33C291.653 305.268 291.427 306.188 291.221 307.126C291.127 307.539 291.296 307.783 291.765 307.876C292.122 307.951 292.478 308.083 292.816 308.083C293.923 308.064 294.955 308.439 295.931 308.871C296.906 309.302 297.863 309.809 298.839 310.297C298.989 310.372 299.12 310.503 299.252 310.634C299.496 310.86 299.571 311.366 299.383 311.629C299.177 311.929 298.97 312.211 298.707 312.454C297.375 313.712 296.362 315.175 295.518 316.77C294.448 318.796 293.51 320.86 292.76 323.018C292.478 323.806 292.215 324.613 291.915 325.401C291.315 327.052 290.883 328.722 290.958 330.486C290.958 330.73 290.958 330.974 290.902 331.199C290.771 331.968 290.508 332.268 289.72 332.268C287.731 332.268 285.761 332.268 283.772 332.268C283.059 332.268 282.327 332.306 281.614 332.325C279.175 332.512 276.736 332.343 274.278 332.418C273.209 332.437 273.058 331.874 273.715 331.274C275.742 329.454 275.854 327.315 275.066 324.913C274.803 324.106 275.047 323.243 275.254 322.436C275.535 321.329 275.629 320.204 275.61 319.059C275.573 315.794 274.428 314.593 271.126 314.293C270.619 314.331 270.131 314.331 269.794 313.918Z" fill="#CFCECD"/>
<path d="M269.794 313.918C269.981 313.918 270.169 313.956 270.319 313.88C271.407 313.393 272.439 313.768 273.471 314.031C274.128 314.199 274.672 314.593 275.085 315.119C275.76 315.982 276.267 316.92 276.267 318.046C276.267 318.815 276.267 319.603 276.267 320.372C276.267 320.917 276.192 321.442 276.023 321.967C275.854 322.53 275.704 323.112 275.573 323.694C275.441 324.294 275.423 324.894 275.742 325.438C276.248 326.302 276.286 327.259 276.267 328.215C276.248 329.172 275.892 329.96 275.235 330.617C274.766 331.086 274.278 331.499 273.79 331.949C273.771 331.968 273.771 332.062 273.79 332.099C273.809 332.137 273.846 332.212 273.903 332.212C274.203 332.231 274.503 332.268 274.803 332.268C276.53 332.268 278.275 332.268 280.001 332.268C280.545 332.268 281.07 332.325 281.614 332.343C281.389 332.418 281.164 332.55 280.939 332.568C280.526 332.606 280.095 332.587 279.682 332.587C272.42 332.606 265.178 332.625 257.917 332.625C257.072 332.625 256.247 332.606 255.421 332.85C255.027 332.962 254.596 332.944 254.164 332.944C248.235 332.944 242.306 332.944 236.358 332.944C235.945 332.944 235.495 332.962 235.101 332.85C234.331 332.643 233.562 332.644 232.774 332.644C229.416 332.644 226.057 332.644 222.698 332.644C222.042 332.644 221.385 332.606 220.728 332.587C220.559 332.212 220.409 331.818 220.203 331.443C219.19 329.585 218.552 327.596 217.97 325.57C217.689 324.594 217.539 323.581 217.407 322.568C217.295 321.78 217.426 321.01 217.576 320.26C217.614 320.035 217.726 319.81 217.839 319.603C218.327 318.759 219.171 318.552 219.978 319.059C220.503 319.378 220.916 319.81 221.291 320.279C221.666 320.748 222.004 321.236 222.379 321.705C222.436 321.78 222.567 321.817 222.68 321.836C222.83 321.855 222.886 321.761 222.905 321.611C222.924 321.142 222.961 320.654 222.98 320.185C223.092 318.215 223.167 316.226 223.355 314.274C223.637 311.235 224.068 308.214 225.119 305.306C225.644 303.842 226.263 302.397 227.014 301.047C227.295 300.521 227.652 300.033 228.027 299.564C228.215 299.339 228.459 299.151 228.703 298.983C229.303 298.57 230.147 298.682 230.71 299.17C231.217 299.621 231.536 300.183 231.798 300.803C232.324 302.022 232.718 303.279 233.018 304.555C233.262 305.606 233.506 306.657 233.656 307.726C233.975 309.865 234.219 312.004 234.519 314.143C234.594 314.669 234.726 315.194 234.857 315.7C234.876 315.757 235.101 315.813 235.157 315.776C235.401 315.588 235.607 315.382 235.833 315.175C237.615 313.524 239.716 312.623 242.156 312.53C243.056 312.492 243.957 312.53 244.858 312.53C245.814 312.53 246.771 312.548 247.728 312.53C248.179 312.53 248.516 312.229 248.629 311.779C248.742 311.254 248.817 310.728 248.873 310.184C249.042 308.571 249.361 306.994 249.961 305.475C250.918 303.054 252.457 301.122 254.596 299.658C255.14 299.283 255.721 298.964 256.341 298.757C258.404 298.063 260.224 298.438 261.763 300.033C262.439 300.728 262.908 301.572 263.227 302.473C263.658 303.673 263.902 304.893 263.958 306.169C264.033 307.914 263.958 309.64 263.789 311.366C263.733 312.023 263.696 312.68 263.639 313.336C263.583 313.843 263.677 314.293 264.165 314.575C264.746 314.931 265.009 315.569 265.403 316.095C265.497 316.226 265.741 316.245 265.891 316.132C265.985 316.057 266.097 316.001 266.172 315.926C267.242 314.987 268.443 314.331 269.794 313.918Z" fill="#F6F6F6"/>
<path d="M254.99 272.17C254.821 272.133 254.614 272.133 254.483 272.039C253.207 271.307 251.837 271.363 250.468 271.589C248.573 271.908 246.734 272.433 245.026 273.334C244.764 273.465 244.464 273.502 244.182 273.596C244.276 273.183 244.332 272.771 244.464 272.377C245.327 269.769 246.377 267.217 247.428 264.665C249.117 260.575 250.899 256.522 252.776 252.507C254.352 249.092 255.89 245.639 257.448 242.206C257.635 241.774 257.804 241.305 258.179 240.986C258.367 240.817 258.892 240.93 258.93 241.174C258.967 241.399 259.024 241.662 258.949 241.868C258.761 242.431 258.536 242.994 258.311 243.538C257.185 246.202 256.509 248.979 256.097 251.831C255.909 253.126 255.721 254.439 255.534 255.734C255.515 255.903 255.459 256.09 255.459 256.259C255.402 258.286 254.99 260.293 254.99 262.338C254.99 263.051 254.877 263.764 254.802 264.477C254.783 264.721 254.746 264.946 254.746 265.19C254.708 267.048 254.671 268.905 254.633 270.763C254.596 271.307 254.727 271.757 254.99 272.17Z" fill="#CFCECD"/>
</g>
<path d="M32.6945 313.918C31.7001 311.892 31.3061 309.753 31.2498 307.501C31.156 304.63 31.8877 301.947 32.8822 299.302C33.4451 297.782 34.5146 296.656 35.7529 295.699C37.4979 294.367 39.4868 293.598 41.682 293.391C41.9823 293.354 42.2825 293.354 42.5639 293.279C43.3332 293.072 44.1025 293.054 44.8718 293.035C45.2845 293.035 45.7161 293.016 46.1289 293.016C48.1928 292.997 48.4367 293.166 47.4235 291.046C46.6542 289.432 45.9788 287.762 45.4159 286.055C44.7779 284.104 44.459 282.115 44.5528 280.051C44.5716 279.45 44.5528 278.869 44.534 278.268C44.0087 278.4 43.9899 278.4 43.8398 278.043C43.2769 276.58 42.7328 275.135 42.1699 273.671C40.8189 270.144 39.4305 266.635 37.8919 263.183C36.2783 259.562 34.5146 256.015 32.5445 252.582C30.518 249.035 28.2665 245.639 26.0149 242.243C23.6132 238.641 21.2116 235.076 18.7911 231.492C17.7779 229.991 16.7647 228.509 15.7328 227.045C15.3575 226.501 14.926 225.994 14.5132 225.488C14.4006 225.357 14.2505 225.244 14.1004 225.15C13.6313 224.812 12.9558 225.038 12.8057 225.6C12.7494 225.826 12.6932 226.088 12.7307 226.295C12.862 226.933 13.0121 227.589 13.1998 228.208C13.7814 230.16 14.5132 232.074 15.2637 233.969C16.6897 237.59 18.1344 241.211 19.5417 244.851C20.1046 246.296 20.6487 247.76 21.1553 249.242C22.3561 252.694 23.5945 256.147 24.7015 259.618C26.4277 264.984 28.0976 270.369 29.5611 275.81C30.6494 279.807 31.7752 283.785 32.8822 287.762C33.0323 288.288 33.1261 288.813 33.2387 289.338C33.2574 289.376 33.2011 289.451 33.1636 289.489C33.1261 289.526 33.0511 289.545 33.0135 289.526C32.8071 289.432 32.5632 289.338 32.3943 289.188C30.5368 287.518 28.3228 286.449 26.0524 285.492C22.7126 284.104 19.2415 283.165 15.7515 282.34C13.181 281.739 10.6105 281.158 8.03992 280.576C7.57085 280.464 7.10177 280.351 6.61393 280.426C6.2762 280.482 5.976 280.914 6.1261 281.252C6.21992 281.458 6.33249 281.702 6.50136 281.852C7.10178 282.434 7.72096 282.997 8.37766 283.541C9.03437 284.085 9.59726 284.685 10.1602 285.304C12.3554 287.687 14.3443 290.239 16.427 292.716C18.0782 294.686 19.7856 296.637 21.4555 298.589C21.812 299.001 22.1122 299.433 22.4312 299.883C22.6 300.127 22.3749 300.502 22.0559 300.521C21.9433 300.521 21.812 300.559 21.6994 300.54C20.2171 300.352 18.7349 300.108 17.3652 299.452C15.7328 298.664 14.1942 297.782 12.862 296.506C12.1678 295.849 11.3985 295.268 10.648 294.667C10.3103 294.386 9.76613 294.555 9.59726 294.967C9.48468 295.249 9.35333 295.53 9.35333 295.812C9.33457 296.525 9.29706 297.256 9.39087 297.969C9.69108 300.108 10.0851 302.229 10.6105 304.33C10.8356 305.268 11.0608 306.188 11.2672 307.126C11.361 307.539 11.1921 307.783 10.723 307.876C10.3665 307.951 10.0101 308.083 9.67232 308.083C8.5653 308.064 7.53334 308.439 6.55766 308.871C5.58198 309.302 4.62507 309.809 3.64939 310.297C3.49929 310.372 3.36793 310.503 3.23659 310.634C2.99267 310.86 2.91763 311.366 3.10526 311.629C3.31165 311.929 3.51804 312.211 3.78072 312.454C5.1129 313.712 6.1261 315.175 6.97044 316.77C8.03993 318.796 8.97807 320.86 9.72859 323.018C10.01 323.806 10.2727 324.613 10.5729 325.401C11.1733 327.052 11.6049 328.722 11.5299 330.486C11.5299 330.73 11.5299 330.974 11.5861 331.199C11.7175 331.968 11.9802 332.268 12.7682 332.268C14.7571 332.268 16.7272 332.268 18.7161 332.268C19.4291 332.268 20.1608 332.306 20.8738 332.325C23.313 332.512 25.7522 332.343 28.2102 332.418C29.2797 332.437 29.4298 331.874 28.7731 331.274C26.7467 329.454 26.6341 327.315 27.4221 324.913C27.6848 324.106 27.4409 323.243 27.2345 322.436C26.9531 321.329 26.8592 320.204 26.878 319.059C26.9155 315.794 28.0601 314.593 31.3624 314.293C31.869 314.331 32.3568 314.331 32.6945 313.918Z" fill="#A1A0A0"/>
<path d="M113.306 30.8449C108.269 27.3184 126.349 8.64967 115.057 5.54716C103.765 2.44465 37.8354 51.9308 43.3239 86.8233C48.8124 121.716 103.853 76.4436 108.373 83.6177C112.893 90.7919 29.2722 152.904 61.2346 179.97C93.197 207.036 138.727 147.432 145.863 155.91C153 164.389 105.978 193.909 148.897 221.502C182.076 242.833 269.991 160.42 263.677 141.164C257.363 121.909 225.872 150.783 221.544 143.788C217.215 136.792 275.491 80.5283 259.348 53.136C243.205 25.7437 186.091 75.4471 182.076 71.1387C178.06 66.8303 232.305 27.5578 211.155 5.54716C190.004 -16.4635 118.342 34.3713 113.306 30.8449Z" fill="#E0ECFF"/>
<g clip-path="url(#clip1_1764_1900)">
<path d="M221.424 93.7981C219.741 90.5992 218.899 87.4002 221.93 84.538C224.96 81.6758 228.327 81.6758 231.863 83.3595C232.621 83.6962 233.126 83.7804 233.968 83.4436C238.85 81.6758 241.797 82.5176 244.659 86.6426C245.585 87.9895 246.343 88.8313 248.279 88.7472C250.973 88.5788 252.572 90.4308 253.077 92.7879C254.256 98.344 256.697 103.479 258.97 108.614C261.58 114.507 262.085 120.821 260.485 127.219C259.475 131.26 259.812 135.721 257.034 139.341C256.276 140.351 257.286 141.867 257.539 143.129C260.738 157.02 262.674 170.994 261.327 185.305C260.906 190.019 259.98 194.565 258.465 199.027C252.74 215.779 238.429 225.039 219.572 224.198C217.047 224.113 214.521 223.777 212.164 223.271C209.976 222.766 209.386 223.187 209.47 225.544C209.976 235.478 209.386 245.412 207.955 255.177C205.43 273.192 200.463 290.534 194.149 307.539C193.391 309.475 192.802 311.411 191.96 313.347C190.95 315.789 191.455 316.63 194.233 316.799C206.524 317.556 218.731 318.987 230.853 321.429C235.567 322.355 240.197 323.449 244.575 325.47C246.595 326.396 249.205 327.322 249.289 329.931C249.289 332.625 246.763 333.551 244.659 334.477C237.082 337.844 229.001 339.191 220.919 340.37C187.751 345.168 154.415 345.673 121.078 344.579C101.043 343.906 81.0073 342.559 61.3085 338.518C56.6784 337.592 52.1325 336.582 47.9234 334.477C45.903 333.467 43.2933 332.625 43.3775 329.931C43.4617 327.237 46.0714 326.396 48.0918 325.47C54.7422 322.523 61.8136 321.26 68.8849 320.082C73.5992 319.324 78.3976 318.651 83.1119 318.146C84.7955 317.977 85.0481 317.472 84.543 315.957C81.8491 307.454 80.5022 298.784 79.8287 289.944C79.6604 288.008 79.0711 287.671 77.2191 288.008C60.8876 290.702 49.7754 284.304 43.7984 268.899C39.3367 257.45 38.5791 245.496 39 233.458C40.0102 201.889 51.9642 174.193 69.7268 148.685C78.7343 135.721 89.0047 123.936 100.454 113.076C102.221 111.392 102.306 110.635 100.538 108.867C94.8975 102.722 91.1934 95.566 91.6143 86.811C91.6985 84.7906 91.0251 84.538 89.2572 85.2957C85.8899 86.7268 83.4486 85.9691 82.0175 83.3595C80.6706 81.0023 81.344 78.3085 83.5328 76.709C86.0583 74.9412 88.6679 75.2779 90.9409 78.0559C92.1194 79.487 93.1296 79.6554 93.8873 78.0559C98.349 68.7116 105.925 62.9872 115.354 59.5357C125.961 55.6633 136.821 54.9056 147.849 57.6837C155.341 59.5357 162.328 62.5663 168.305 67.4489C176.976 74.4361 182.784 83.0227 182.7 94.7242C182.7 96.4078 183.374 97.5022 185.31 96.8287C186.152 96.5762 186.994 96.492 187.92 96.6604C190.698 97.2496 192.297 99.0175 192.718 101.796C193.055 104.153 192.045 105.92 189.772 106.678C187.078 107.52 184.805 106.762 183.205 104.405C181.185 101.543 181.185 101.543 179.585 104.658C178.07 107.604 176.134 110.214 173.693 112.487C172.43 113.581 172.514 114.255 173.861 115.181C183.71 122.505 192.886 130.502 201.305 139.341C202.567 140.688 202.904 140.015 203.493 138.836C205.766 134.206 208.376 129.828 211.659 125.872C212.669 124.609 212.501 123.683 211.912 122.336C209.723 117.285 209.555 111.982 210.481 106.594C211.659 99.6068 214.606 96.3236 221.424 93.7981ZM97.3388 93.2089C97.1704 93.4614 96.9179 93.714 96.7495 93.9665C96.6653 94.2191 96.4969 94.4716 96.4128 94.64C96.6653 94.5558 96.9179 94.4716 97.1704 94.3874C97.423 94.2191 97.6755 93.9665 97.8439 93.7981C98.0964 93.5456 98.6015 93.3772 98.1806 92.8721C97.8439 92.5354 97.5913 92.9563 97.3388 93.2089ZM254.761 132.943C254.34 132.943 253.835 132.943 253.414 132.943C253.414 130.923 255.939 131.007 256.36 129.239C257.876 121.999 259.223 114.76 256.529 107.099C255.434 108.614 254.508 109.877 253.498 111.14C251.057 114.339 246.679 116.443 243.817 114.928C240.45 113.16 237.082 111.561 233.631 110.045C230.769 108.783 228.917 109.372 226.307 109.372C227.906 111.897 230.516 111.561 232.452 112.487C234.809 113.581 235.82 115.686 236.998 117.79C237.082 118.211 237.167 118.716 237.251 119.137C237.672 123.851 236.577 127.976 232.957 131.26C229.506 134.374 225.213 135.216 220.414 135.048C224.539 137.657 229.843 138.752 234.978 138.163C239.187 138.499 243.059 137.321 246.763 135.469C249.205 135.3 250.636 132.438 253.33 132.775C253.246 134.206 251.899 134.458 250.973 135.048C248.279 137.068 245.08 138.078 242.133 139.509C239.103 140.015 236.072 140.688 232.957 140.688C224.623 139.762 217.384 136.226 210.986 130.502C207.534 137.742 204.672 144.813 203.073 152.389C201.473 155.588 201.389 159.04 201.052 162.576C200.968 162.744 200.968 162.997 200.8 163.165C199.958 164.428 200.21 162.997 200.21 162.912C199.116 157.272 199.621 151.716 200.547 146.076C200.715 144.813 200.715 143.803 199.789 142.793C193.223 135.637 186.488 128.818 178.912 122.757C178.491 122.336 178.07 122.252 177.565 122.505C177.818 122.757 178.07 123.094 178.239 123.346C196.675 151.043 205.598 181.938 208.629 214.769C208.797 216.705 209.555 217.463 211.238 217.884C216.037 219.147 220.835 219.82 225.802 219.147C234.809 218.726 242.639 215.863 248.615 208.792C252.572 204.499 255.013 199.364 256.529 193.723C259.643 182.19 259.475 170.489 258.212 158.703C257.539 152.895 256.697 147.086 255.35 141.361C252.993 142.708 250.888 143.971 248.7 145.15C247.774 145.066 246.932 145.823 245.753 145.15C248.616 143.466 251.394 141.951 252.993 138.499C250.636 139.089 248.784 140.183 246.763 140.099C246.511 138.415 248.026 138.668 248.868 138.247C251.394 136.984 254.172 136.058 254.761 132.943C255.182 133.027 255.182 132.859 255.013 132.522C254.929 132.606 254.845 132.775 254.761 132.943ZM99.6117 87.0635C100.201 87.9053 99.1066 88.9155 100.285 90.4308C102.053 85.6324 103.484 81.2549 102.137 76.4565C101.716 75.0253 100.79 74.5202 99.5275 75.8672C98.6015 76.2039 97.7597 77.0457 97.5913 77.8876C96.6653 82.0967 93.5505 81.5916 90.52 81.4232C89.9307 80.9181 88.247 80.9181 88.5838 80.1605C89.2572 78.8978 89.0888 78.4768 87.8261 78.2243C86.4792 77.9717 85.469 78.561 84.8797 79.6554C84.2062 81.0865 84.3746 82.4334 85.7215 83.3595C86.395 83.8646 87.7419 84.4538 87.8261 83.4436C88.0787 81.0865 89.6781 82.9385 90.4358 82.3493C96.7495 83.6962 92.8771 89.2523 94.7291 92.8721C96.7495 91.1885 97.7597 88.9997 99.0224 87.0635H99.3592H99.6117ZM232.452 115.265C232.368 115.096 232.2 115.012 232.116 114.844C232.116 114.928 232.116 115.012 232.031 115.096C232.2 115.096 232.368 115.181 232.452 115.265C232.789 119.726 232.957 124.104 228.412 126.966C226.139 127.808 223.782 128.65 221.34 128.397C220.077 128.313 220.583 127.808 221.256 127.387C222.519 127.555 223.613 126.966 224.623 126.545C227.149 125.535 229.338 124.02 229.253 120.989C229.253 117.454 228.075 114.423 225.044 112.403C224.371 111.982 223.866 112.234 223.361 112.739C221.088 112.739 218.731 112.992 216.458 111.477C218.478 111.224 220.246 112.15 222.014 111.308C225.97 109.456 227.317 100.533 224.034 97.8389C223.361 97.2496 222.603 97.418 221.93 97.8389C218.141 98.4282 215.784 101.038 214.269 104.237C211.407 110.551 210.986 117.033 213.511 123.515C213.932 124.693 214.942 125.703 214.606 127.135L214.69 127.219C213.427 129.744 215.363 130.839 217.047 131.512C220.583 133.027 224.034 132.354 227.149 130.249C233.968 128.061 236.746 120.232 232.452 115.265ZM227.233 85.9691C225.213 86.39 223.024 86.7268 222.603 89.2523C222.266 91.6094 222.771 93.714 225.381 94.7242C226.475 95.1451 226.896 96.492 227.317 97.5864C228.243 99.8593 227.991 102.216 227.991 104.658C227.991 105.5 226.475 106.846 228.243 107.183C229.506 107.436 231.19 107.267 231.105 105.079C231.021 103.395 231.358 101.796 232.284 100.449C233.378 98.7649 233.21 97.3338 232.116 95.6502C230.769 93.6298 229.843 91.2727 230.432 88.8313C231.442 85.2957 229.759 85.2957 227.233 85.9691ZM234.473 105.415C234.894 107.52 236.409 108.025 238.261 108.193C240.281 108.362 240.366 106.678 241.123 105.668C242.47 104.068 241.544 102.637 240.871 101.206C238.682 95.9869 238.934 92.1987 242.218 90.3466C244.911 88.8313 243.48 88.1579 242.133 87.1477C241.46 86.6426 240.786 86.0533 239.776 86.1375C235.062 85.464 232.031 88.0737 233.042 92.5354C233.799 95.9869 234.978 99.3542 233.715 102.974C233.463 103.732 233.799 104.742 234.473 105.415ZM246.258 92.2828C242.639 92.4512 241.46 93.5456 241.628 96.9971C241.712 98.5966 242.049 100.28 242.554 101.796C243.228 103.9 243.733 105.836 243.144 108.109C242.47 110.635 244.154 112.571 246.848 112.739C249.205 112.908 251.141 112.15 252.32 109.961C254.003 108.53 255.182 106.846 254.34 104.658C252.993 101.122 251.394 97.6706 249.794 94.2191C249.121 92.7038 248.026 91.8619 246.258 92.2828ZM159.887 316.378C156.772 316.041 153.657 315.704 150.542 315.452C149.869 315.368 148.775 314.778 148.522 316.209C148.101 318.567 150.879 323.702 153.236 324.375C155.846 325.133 158.371 325.975 161.149 325.806C165.022 326.648 168.978 326.901 172.935 325.975C183.542 325.722 189.603 320.166 189.519 310.485C185.815 312.337 181.943 313.263 178.154 314.526C172.177 315.789 166.032 316.462 159.887 316.378ZM159.971 284.725C156.519 294.574 152.815 304.424 147.849 314.021C152.226 314.105 155.93 315.031 159.803 314.61L159.971 314.694L160.139 314.61C166.874 314.61 173.608 314.61 180.175 312.505C181.69 312.421 183.121 311.916 184.552 311.327C187.246 310.569 190.024 310.064 191.371 307.118C197.937 289.86 202.147 272.098 204.335 253.83C204.925 249.031 205.43 244.233 205.177 239.014C201.81 241.202 198.779 243.054 195.833 244.991C194.065 245.833 192.381 246.674 190.613 247.516C187.751 248.526 184.973 249.621 182.111 250.631C179.754 251.136 177.481 251.641 175.124 252.062C174.45 252.146 173.44 252.483 173.188 251.557C172.935 250.463 174.029 250.463 174.703 250.294C177.228 249.621 179.838 249.116 182.111 247.6C186.152 246.927 189.182 244.233 192.634 242.549C194.486 241.792 196.17 240.613 197.601 239.266C200.126 238.004 202.062 235.815 204.251 234.047C205.345 233.205 205.43 232.111 205.43 230.848C204.419 209.718 202.147 188.756 195.917 168.384C195.244 166.111 194.486 163.838 193.728 161.565C193.307 160.387 192.465 159.629 191.792 161.06C190.108 164.764 186.488 165.269 183.458 166.785C181.774 167.206 180.091 167.542 178.407 167.963C173.524 168.468 168.558 169.058 163.843 167.037C163.675 166.532 163.591 166.111 163.422 165.606C163.254 163.502 164.601 162.323 166.2 161.565C168.221 160.555 170.41 159.798 172.514 158.956C175.292 158.451 178.07 157.861 180.848 157.356C183.963 157.609 187.246 157.104 190.108 158.703C190.95 159.124 191.792 159.713 192.465 159.04C193.139 158.366 192.297 157.44 192.045 156.683C187.583 144.56 181.774 133.112 174.535 122.505C169.989 115.854 169.989 115.854 163.001 120.063C159.971 121.073 156.94 122.168 153.826 123.01C148.859 124.272 148.859 124.188 151.553 128.818C156.183 139.089 159.045 149.696 158.203 161.06C157.866 158.619 157.53 156.178 157.109 153.821C155.425 146.076 154.499 138.163 150.795 131.007C150.795 130.165 150.458 129.408 149.701 128.987C149.616 127.219 148.606 125.788 147.68 124.357C147.68 124.02 147.596 123.683 147.596 123.346C148.438 123.178 149.448 123.431 150.121 122.757C159.803 121.158 167.884 116.864 174.619 109.119C172.009 109.035 170.494 108.109 169.652 106.089C167.295 100.701 169.736 89.0839 174.787 86.0533C178.575 83.7804 176.976 82.1809 175.545 79.9921C174.787 78.8136 173.777 77.8034 172.851 76.709C166.79 69.2167 158.624 65.3443 149.532 62.903C145.744 61.4719 141.703 61.1352 137.662 60.8826C125.877 59.9566 114.849 62.0612 105.168 69.1325C103.4 70.3953 100.959 71.658 104.41 73.8468C104.747 74.0151 104.831 74.6044 104.999 75.0253C107.272 80.7498 103.316 93.293 97.8439 96.0711C95.15 97.418 95.6551 98.5966 96.5811 100.533C101.043 109.119 108.451 114.928 117.374 119.053C116.869 119.137 116.448 119.221 115.943 119.306C109.461 121.747 104.999 126.714 100.622 131.765C99.4433 133.112 101.127 133.532 101.716 134.206C108.283 142.288 112.66 151.295 113.923 161.734C114.091 165.017 114.428 168.216 114.512 171.499C115.27 193.639 112.744 215.611 109.04 237.414C107.862 244.317 107.777 244.233 114.512 246.422C117.543 247.685 120.573 248.947 123.772 249.452C128.402 251.136 133.201 252.23 138.167 252.651C143.303 253.746 148.522 253.577 153.657 253.409C154.499 253.409 156.014 252.736 156.183 253.914C156.351 255.429 154.667 255.093 153.741 255.177C149.195 255.766 144.65 255.85 140.104 255.766C139.514 255.429 138.925 255.429 138.252 255.598C137.157 255.514 135.979 255.429 134.884 255.345C130.338 254.503 125.708 253.662 121.163 252.82C118.721 252.146 116.364 251.473 113.923 250.799C112.323 250.21 110.64 249.705 109.04 249.031C107.441 248.358 106.767 248.695 106.431 250.463C106.01 252.904 105.42 255.345 104.663 257.786C101.632 268.141 96.9179 277.401 87.7419 283.799C85.8057 285.146 82.4384 285.062 82.1017 287.924C81.7649 290.281 82.6909 292.891 83.0277 295.332C83.0277 295.585 83.196 295.753 83.196 295.921C83.3644 298.194 83.7011 300.383 84.4588 302.488C84.4588 304.255 84.9639 305.855 85.6373 307.454C85.9741 309.391 85.6374 311.748 87.9945 312.674C94.6449 315.283 101.38 317.725 108.619 318.314C109.04 318.398 109.377 318.482 109.798 318.567C110.303 318.651 110.724 318.735 111.229 318.735C114.933 319.661 118.637 319.829 122.341 319.577C126.634 319.914 130.759 319.577 134.884 318.482C139.683 318.482 143.555 316.967 145.155 311.916C145.491 310.906 146.249 310.064 146.754 309.054C151.468 300.215 155.678 291.207 158.287 281.442C158.035 280.516 159.129 280.095 159.129 279.253C159.718 278.664 159.213 276.98 160.813 277.654C161.991 278.159 161.065 279.085 160.981 279.842C160.981 280.179 160.897 280.432 160.897 280.768C160.223 281.863 160.392 283.378 159.971 284.725ZM91.8669 247.264C87.1526 247.937 84.3746 250.799 83.196 255.261C81.8491 260.48 82.5226 265.7 84.0379 270.835C84.2904 273.36 85.3848 275.633 86.2266 277.906C86.6475 279.085 87.1526 279.674 88.8363 279.59C91.8669 279.422 93.2138 277.401 94.3924 275.465C99.0224 268.225 100.201 260.144 99.5275 251.725C99.275 247.6 96.3286 246.085 91.8669 247.264ZM119.311 321.345C108.367 320.924 98.0122 318.146 87.7419 313.6C88.247 316.462 89.3414 318.314 90.099 320.334C92.4562 326.48 97.002 329.847 103.484 330.941C107.272 331.531 110.976 332.12 114.765 332.288C126.887 334.225 136.736 329.089 140.777 318.482C133.622 320.503 126.466 321.008 119.311 321.345ZM74.1043 284.136C77.8925 284.22 81.2598 282.62 84.543 280.937C85.5532 280.432 85.8899 279.842 85.3848 278.664C83.617 274.707 82.3542 270.498 81.5966 266.289C81.344 265.11 80.9231 264.605 79.5762 265.026C76.293 266.036 72.9257 265.868 69.6426 266.289C60.8034 265.952 52.806 263.174 45.2295 257.955C47.5867 275.381 59.0355 285.651 74.1043 284.136ZM101.632 198.438C104.915 198.017 107.272 195.828 109.966 194.313C111.145 193.639 111.481 192.713 111.566 191.366C112.155 183.2 112.408 175.119 111.818 166.953C111.229 159.208 110.555 151.379 106.01 144.56C104.831 141.698 103.063 139.341 101.211 136.9C98.7699 133.701 98.6857 133.701 96.4969 136.9C95.2342 138.752 94.0556 140.688 92.8771 142.624C88.9205 147.844 86.395 153.821 83.1119 159.461C82.0175 161.481 80.9231 163.502 79.1553 164.933C77.2191 166.448 74.9461 167.037 72.8415 165.69C70.737 164.343 69.0533 162.071 69.7268 159.545C70.0635 158.114 69.5584 157.188 69.39 156.009C69.5584 155.504 69.7268 154.999 69.3059 154.494C69.1375 154.831 68.8849 155.167 68.7166 155.504C61.2243 166.364 55.8366 178.318 50.954 190.524C50.4489 191.787 51.1223 192.376 51.9642 192.881C61.6452 199.448 71.9997 203.573 83.9537 202.731C90.1832 202.647 96.2444 201.805 101.632 198.438ZM93.298 245.159C99.3592 244.991 101.127 248.947 101.716 254.251C106.767 234.72 109.714 215.106 111.397 194.818C107.609 197.175 104.073 199.364 100.285 200.963C94.4766 203.573 88.247 204.415 82.0175 204.751C80.5022 204.751 78.9027 205.088 77.4716 204.751C68.3798 202.562 59.4565 199.784 51.9642 193.892C50.3647 192.629 50.1122 193.471 49.6912 194.818C43.4617 213.927 41.3571 233.458 44.3035 253.493C44.4719 254.672 44.5561 255.85 45.8188 256.608C54.3213 261.911 63.3289 265.363 73.515 264.353C74.6094 264.353 75.7038 264.269 76.714 264.269C79.9129 264.1 81.4282 263.09 81.2598 259.218C81.0915 250.968 84.9639 246.927 93.298 245.159ZM70.4844 157.609C70.8212 160.218 70.737 163.838 74.1885 164.849C77.8925 166.027 79.492 162.744 81.0915 160.134C81.1757 159.966 81.2598 159.713 81.4282 159.545C85.8899 150.79 90.6041 142.203 96.6653 134.458C97.1704 133.785 97.8439 133.196 96.7495 132.354C92.9613 129.239 87.8261 128.987 85.2164 132.606C81.5966 137.657 77.64 142.456 73.9359 147.423C71.8313 150.369 70.6528 153.568 70.4844 157.609ZM114.428 118.716C110.555 116.864 107.441 112.908 104.41 113.076C101.127 113.244 98.7699 117.959 95.9918 120.737C95.0658 121.663 94.1398 122.589 93.298 123.599C92.1194 125.03 90.4358 126.124 89.7623 128.145C92.7087 127.976 95.2342 128.818 97.2546 130.502C98.6015 131.512 99.275 131.344 100.369 130.165C104.326 125.619 108.703 121.831 114.428 118.716ZM173.608 96.6604C173.524 97.6706 173.524 98.7649 173.44 99.7751C173.44 100.954 173.356 102.132 173.44 103.395C173.524 104.068 173.188 105.079 174.114 105.415C175.124 105.836 175.713 104.91 176.302 104.321C176.892 103.732 177.818 102.722 177.649 102.216C176.892 100.028 178.154 100.196 179.585 100.196C181.69 100.28 184.552 99.7751 185.142 102.216C185.478 103.479 185.562 103.984 186.657 104.153C187.835 104.321 188.761 103.732 189.267 102.637C189.772 101.375 189.519 100.28 188.509 99.3542C187.667 98.5966 186.657 98.0073 186.32 99.9435C186.32 100.028 185.562 100.112 185.142 100.112C180.764 99.5226 178.996 96.9971 179.67 92.4512C179.838 91.5252 179.585 90.515 179.417 89.589C178.996 87.737 177.986 87.3161 176.387 88.5788C172.43 91.5252 169.736 100.785 171.588 105.668C171.672 102.385 171.756 99.3542 173.608 96.6604ZM183.037 158.956C177.818 159.124 172.682 160.05 167.884 162.323C166.79 162.828 165.022 163.333 165.274 164.849C165.527 166.364 167.211 166.28 168.473 166.448C173.777 167.037 178.912 166.28 183.879 164.596C186.152 163.838 189.856 163.249 189.435 160.639C189.098 158.451 185.394 159.208 183.037 158.956ZM99.8643 89.7574C98.5173 90.5992 97.9281 91.2727 98.5173 92.5354C99.5275 92.0303 99.9484 91.3568 99.8643 89.7574Z" fill="#2252A0"/>
<path d="M172.514 158.787C170.41 159.629 168.221 160.387 166.2 161.397C164.601 162.155 163.254 163.333 163.422 165.438C160.392 166.953 158.876 165.69 158.54 162.239C157.614 163.838 157.361 165.354 158.035 166.616C158.792 168.047 160.308 167.29 161.57 167.206C162.328 167.121 163.086 166.953 163.843 166.869C168.642 168.889 173.524 168.3 178.407 167.795C177.986 169.31 178.239 170.741 178.659 172.257C180.091 177.476 181.101 182.779 182.532 187.915C184.047 193.471 184.805 199.364 185.647 205.088C186.573 211.402 187.415 217.715 187.835 224.029C188.088 228.491 188.761 232.868 189.519 237.162C189.856 239.098 189.856 241.708 192.634 242.381C189.098 244.065 186.068 246.759 182.111 247.432C179.838 243.391 177.565 239.266 175.376 235.225C173.44 231.69 171.756 230.848 167.8 231.521C165.948 231.858 164.096 232.027 162.412 230.932C160.56 229.669 158.624 229.501 156.519 230.343C154.667 231.101 152.731 231.1 150.711 231.016C149.111 230.932 147.764 231.437 146.417 232.279C142.04 234.805 140.356 238.845 140.104 243.644C139.935 246.674 140.693 250.042 138.168 252.567C133.201 252.146 128.402 251.052 123.772 249.368C123.856 248.611 123.772 247.853 124.025 247.095C126.634 239.182 127.56 231.101 127.729 222.851C127.813 216.705 128.15 210.476 127.055 204.33C125.877 197.68 125.961 190.945 124.951 184.379C123.941 177.644 122.594 170.994 121.247 164.343C118.974 152.726 114.596 142.288 105.505 134.206C103.905 132.775 103.063 132.859 101.8 134.206C101.211 133.448 99.5275 133.112 100.706 131.765C105.084 126.798 109.545 121.831 116.027 119.306C118.3 120.821 120.742 121.663 124.446 121.915C121.668 120.316 119.647 119.642 117.458 119.137C108.451 114.928 101.043 109.119 96.497 100.112C95.5709 98.2598 95.0658 97.0813 97.7597 95.6502C103.232 92.8721 107.188 80.3289 104.915 74.6044C104.747 74.1835 104.663 73.6784 104.326 73.4259C100.874 71.2371 103.316 69.9744 105.084 68.7116C114.849 61.7244 125.877 59.5357 137.578 60.4617C141.535 60.7984 145.576 61.1352 149.448 62.4821C148.606 63.9974 148.354 65.5127 149.869 66.8596C150.711 67.6172 151.3 68.6274 151.216 69.7218C150.879 73.51 151.889 77.1299 153.236 80.5814C152.563 80.3289 151.805 80.1605 151.132 79.8238C142.713 76.2881 134.043 75.0253 124.951 76.5406C119.563 77.3825 114.344 78.8978 110.05 82.6018C108.114 84.2855 107.02 89.5048 108.114 91.6936C109.545 94.3874 112.155 93.8823 114.428 93.714C117.711 93.3772 120.91 92.9563 124.109 92.5354C134.127 91.0201 143.724 91.5252 151.889 98.6807C150.037 103.058 147.849 107.352 145.155 111.308C143.639 110.298 141.872 111.645 139.851 110.214C140.777 111.561 141.282 112.318 141.872 113.076C139.43 116.022 136.821 118.885 135.81 122.841C135.137 125.703 136.484 126.882 138.588 127.387C142.124 128.145 145.828 128.397 149.448 128.818C150.206 129.323 150.458 129.997 150.542 130.839C144.818 130.839 139.178 128.987 133.369 129.492C128.823 129.913 125.708 134.795 127.645 138.836C130.002 143.887 134.8 144.392 139.346 145.15C143.05 145.739 146.165 146.665 147.764 150.706C148.859 153.568 151.216 155.167 154.583 153.821C155.257 153.568 156.098 153.652 156.856 153.568C157.193 156.009 157.53 158.451 157.95 160.808C158.792 149.443 155.93 138.752 151.3 128.566C153.741 129.239 156.014 129.576 158.624 128.902C161.486 128.229 163.591 129.323 164.517 132.438C165.864 136.984 167.295 141.446 168.978 145.907C170.746 150.201 171.925 154.41 172.514 158.787Z" fill="#F4F4F6"/>
<path d="M138.252 252.567C140.777 249.957 140.02 246.674 140.188 243.644C140.44 238.845 142.04 234.805 146.502 232.279C147.849 231.521 149.195 230.932 150.795 231.016C152.731 231.185 154.752 231.101 156.604 230.343C158.708 229.501 160.56 229.754 162.496 230.932C164.18 232.027 166.032 231.774 167.884 231.521C171.841 230.848 173.609 231.69 175.461 235.225C177.649 239.35 179.922 243.391 182.195 247.432C179.922 248.947 177.313 249.452 174.787 250.126C174.114 250.294 173.019 250.294 173.272 251.389C173.524 252.315 174.535 252.062 175.208 251.894C177.565 251.473 179.838 250.968 182.195 250.463C182.195 256.44 182.027 262.332 182.195 268.309C182.448 278.916 181.606 289.271 179.249 299.625C178.323 303.582 177.733 308.296 180.343 312.253C173.861 314.357 167.042 314.357 160.308 314.357C160.644 313.6 161.149 312.758 161.234 312C161.991 305.013 162.075 298.11 161.823 291.123C161.823 290.702 161.823 290.281 161.823 289.86C163.422 286.914 162.244 283.715 162.581 280.684C165.106 277.485 165.864 273.781 165.864 269.74C165.864 267.636 165.274 265.952 163.338 265.195C161.234 264.353 160.223 266.121 159.213 267.636C155.846 272.687 152.226 277.569 149.111 282.789C145.744 288.429 141.114 293.059 137.326 298.363C134.884 301.73 132.275 304.676 127.897 305.771C123.435 306.865 122.762 306.528 123.183 301.983C123.267 301.225 123.52 300.551 123.772 299.794C125.203 295.921 126.887 292.049 129.328 288.766C134.043 282.368 134.8 274.455 137.494 267.299C138.841 263.595 141.03 259.975 140.104 255.766C144.65 255.766 149.195 255.766 153.741 255.177C154.667 255.093 156.351 255.345 156.183 253.914C156.014 252.736 154.583 253.325 153.657 253.409C148.606 253.493 143.387 253.746 138.252 252.567Z" fill="#FEFEFE"/>
<path d="M203.241 152.474C204.84 144.897 207.618 137.826 211.154 130.586C217.552 136.395 224.792 139.846 233.126 140.772C232.957 142.372 233.883 143.214 235.23 143.634C238.008 144.56 239.44 147.086 240.113 149.359C241.881 155.336 244.322 161.06 244.406 167.542C244.575 177.055 246.006 186.484 243.059 195.912C241.292 201.468 236.662 205.341 230.769 204.667C219.488 203.404 215.616 199.784 212.501 189.598C209.134 178.486 206.271 167.037 205.682 155.336C205.598 153.905 205.177 152.558 203.241 152.474Z" fill="#F4F4F6"/>
<path d="M73.4309 264.353C63.1605 265.363 54.153 261.911 45.7347 256.608C44.5561 255.85 44.3877 254.672 44.2194 253.493C41.273 233.542 43.3775 214.011 49.6071 194.818C50.028 193.471 50.3647 192.629 51.88 193.892C59.3723 199.784 68.2957 202.562 77.3874 204.751C78.8186 205.088 80.418 204.751 81.9333 204.751C82.0175 206.014 81.6808 207.108 81.344 208.287C80.1655 212.075 78.9869 215.863 78.0609 219.736C75.788 229.08 73.5992 238.34 72.8416 247.937C72.4207 253.493 71.9997 258.965 73.4309 264.353Z" fill="#F4F4F6"/>
<path d="M140.188 255.766C141.114 260.059 138.925 263.595 137.578 267.299C134.884 274.455 134.127 282.368 129.412 288.766C126.971 292.133 125.288 295.921 123.856 299.794C123.604 300.467 123.351 301.225 123.267 301.983C122.762 306.613 123.52 306.949 127.981 305.771C132.359 304.676 134.969 301.73 137.41 298.363C141.198 293.059 145.828 288.429 149.195 282.789C152.31 277.569 155.846 272.687 159.297 267.636C160.308 266.205 161.318 264.437 163.422 265.195C165.359 265.952 165.948 267.636 165.948 269.74C165.948 273.781 165.19 277.485 162.665 280.684C162.244 280.684 161.823 280.684 161.402 280.684C161.402 280.348 161.486 280.095 161.486 279.758C161.57 279.001 162.496 278.075 161.318 277.569C159.803 276.98 160.223 278.664 159.634 279.169C158.792 276.138 157.024 277.738 156.183 278.748C153.068 282.536 150.206 286.577 147.175 290.534C143.218 295.753 140.188 301.73 134.379 305.266C130.002 307.96 126.298 311.158 123.688 315.704C123.015 316.883 122.594 317.977 122.678 319.324C118.89 319.577 115.186 319.408 111.566 318.482C111.229 317.22 110.808 317.051 110.135 318.314C109.714 318.23 109.377 318.146 108.956 318.061C108.703 316.125 109.377 314.61 110.724 313.095C112.239 311.411 113.334 309.391 114.007 307.118C114.68 304.508 112.492 299.373 110.135 297.942C107.441 296.258 104.494 296.932 101.548 299.457C100.033 300.72 99.1066 302.488 97.5913 303.75C94.1398 306.697 90.0149 306.613 85.9741 307.202C85.3006 305.602 84.7955 304.003 84.7955 302.235C90.4358 303.077 94.0557 300.215 96.8337 295.753C98.349 293.312 100.117 290.786 102.558 289.608C106.515 287.671 108.283 284.557 109.545 280.684C110.05 279.001 110.724 277.401 111.397 275.802C114.765 268.057 118.048 260.312 121.415 252.567C125.961 253.409 130.591 254.251 135.137 255.093C136.147 257.197 137.326 256.608 138.504 255.345C139.009 255.429 139.599 255.345 140.188 255.766Z" fill="#F4F4F6"/>
<path d="M83.9537 202.899C71.9997 203.741 61.6452 199.616 51.9642 193.05C51.1223 192.461 50.4489 191.955 50.954 190.693C55.8366 178.486 61.2243 166.532 68.7166 155.673C68.9691 155.841 69.1375 156.009 69.39 156.178C69.5584 157.356 70.0635 158.282 69.7268 159.713C69.0533 162.323 70.737 164.512 72.8415 165.859C74.9461 167.206 77.2191 166.616 79.1553 165.101C81.0073 163.67 82.0175 161.565 83.1119 159.629C86.3108 153.989 88.9205 148.012 92.8771 142.793C93.8031 145.234 93.7189 147.759 93.8031 150.369C94.224 163.333 90.9409 175.624 87.8261 187.999C86.5634 192.881 83.9537 197.512 83.9537 202.899Z" fill="#F4F4F6"/>
<path d="M203.241 152.474C205.093 152.558 205.514 153.905 205.598 155.42C206.187 167.206 209.05 178.57 212.417 189.683C215.532 199.953 219.404 203.573 230.685 204.751C236.577 205.425 241.292 201.552 242.975 195.996C245.922 186.568 244.491 177.139 244.322 167.627C244.238 161.144 241.797 155.42 240.029 149.443C239.355 147.17 237.84 144.645 235.146 143.719C233.799 143.298 232.873 142.456 233.042 140.856C236.156 140.856 239.187 140.183 242.218 139.678C243.565 141.614 245.164 140.941 246.763 140.183C248.868 140.183 250.636 139.173 252.993 138.583C251.394 142.035 248.616 143.55 245.753 145.234C246.932 145.907 247.774 145.066 248.7 145.234C248.952 146.412 248.026 147.507 248.363 148.77C249.962 154.157 249.626 159.966 250.888 165.354C252.909 174.277 250.888 182.779 250.215 191.45C249.794 196.67 247.774 201.552 247.016 206.687C246.763 208.287 246.848 208.96 248.531 208.876C242.554 215.948 234.725 218.81 225.718 219.231C225.718 216.537 223.529 215.358 221.677 214.096C216.542 210.56 213.343 205.593 211.407 199.953C207.534 188.672 204.672 177.139 204.083 165.185C203.999 163.333 203.325 161.986 200.968 162.66C201.557 159.124 201.726 155.673 203.241 152.474Z" fill="#DDDBDC"/>
<path d="M73.4308 264.353C71.9997 258.965 72.4206 253.493 72.8415 247.937C73.5992 238.34 75.7879 228.996 78.0609 219.736C78.9869 215.863 80.2496 212.075 81.344 208.287C81.6807 207.108 82.0175 206.014 81.9333 204.751C88.247 204.415 94.3924 203.573 100.201 200.963C99.3592 205.341 98.0122 209.718 97.6755 214.18C97.2546 220.241 95.7393 226.05 94.7291 232.027C93.9715 236.404 93.0454 240.697 93.1296 245.159C84.7955 246.843 80.9231 250.968 81.0915 259.133C81.1757 263.006 79.7445 264.016 76.5456 264.184C75.6196 264.269 74.5252 264.353 73.4308 264.353Z" fill="#DDDBDC"/>
<path d="M101.716 134.206C102.979 132.943 103.821 132.775 105.42 134.206C114.512 142.288 118.974 152.726 121.247 164.259C122.509 170.91 123.941 177.644 124.951 184.295C125.961 190.945 125.877 197.68 127.055 204.246C128.15 210.392 127.813 216.621 127.729 222.766C127.56 231.016 126.634 239.182 124.025 247.011C123.772 247.685 123.856 248.526 123.772 249.284C120.489 248.779 117.459 247.516 114.512 246.253C116.196 245.412 116.701 243.812 117.206 242.128C118.637 237.246 118.3 232.111 118.132 227.312C117.795 220.073 118.3 212.833 118.3 205.677C118.3 195.491 118.637 185.389 118.048 175.203C117.795 171.078 115.522 167.542 115.943 163.333C116.027 162.155 115.101 161.65 114.007 161.565C112.744 151.295 108.367 142.203 101.716 134.206Z" fill="#DDDBDC"/>
<path d="M83.9537 202.899C84.0379 197.596 86.6476 192.881 87.9103 187.915C91.0251 175.54 94.3082 163.249 93.8873 150.285C93.8031 147.675 93.8873 145.15 92.9613 142.708C94.1398 140.772 95.3184 138.836 96.5811 136.984C98.7699 133.785 98.8541 133.785 101.295 136.984C103.147 139.341 104.915 141.782 106.094 144.645C103.653 144.476 102.726 145.655 102.979 148.012C103.568 155.42 104.999 162.744 103.737 170.236C102.642 177.055 102.221 183.958 101.8 190.861C101.632 193.387 100.033 195.912 101.716 198.438C96.2444 201.805 90.1832 202.647 83.9537 202.899Z" fill="#DDDBDC"/>
<path d="M183.458 166.532C186.573 165.101 190.193 164.512 191.792 160.808C192.466 159.377 193.307 160.134 193.728 161.313C194.486 163.586 195.244 165.859 195.917 168.132C202.147 188.504 204.419 209.465 205.43 230.595C205.514 231.858 205.346 232.953 204.251 233.794C202.062 235.562 200.21 237.751 197.601 239.014C196.338 238.424 195.833 237.33 195.833 236.151C195.917 229.669 195.075 223.271 194.065 216.789C192.802 208.539 192.297 200.121 191.203 191.787C191.034 190.777 190.529 189.682 190.024 188.756C186.152 181.853 185.731 173.94 183.458 166.532Z" fill="#CFCECD"/>
<path d="M201.221 162.576C203.493 161.902 204.167 163.249 204.335 165.101C205.009 177.055 207.787 188.588 211.659 199.869C213.595 205.509 216.794 210.56 221.93 214.011C223.782 215.274 225.886 216.453 225.97 219.147C221.004 219.82 216.205 219.147 211.407 217.884C209.723 217.463 208.965 216.705 208.797 214.769C205.766 181.938 196.843 151.043 178.407 123.346C178.66 123.178 178.828 122.925 179.08 122.757C186.657 128.734 193.392 135.637 199.958 142.793C200.884 143.803 200.968 144.729 200.715 146.076C199.789 151.632 199.284 157.272 200.379 162.912C200.379 162.997 200.21 164.428 200.968 163.165C201.136 162.997 201.136 162.828 201.221 162.576Z" fill="#CFCECD"/>
<path d="M93.298 245.159C93.2138 240.697 94.1398 236.404 94.8975 232.027C95.9077 226.134 97.423 220.241 97.8439 214.18C98.1806 209.718 99.4434 205.341 100.369 200.963C104.158 199.364 107.693 197.259 111.482 194.818C109.714 215.106 106.851 234.636 101.8 254.251C101.127 249.031 99.3592 244.991 93.298 245.159Z" fill="#CFCECD"/>
<path d="M183.458 166.532C185.731 173.94 186.152 181.853 190.108 188.756C190.614 189.682 191.119 190.693 191.287 191.787C192.381 200.121 192.886 208.539 194.149 216.789C195.159 223.271 196.001 229.585 195.917 236.151C195.917 237.414 196.422 238.509 197.685 239.014C196.254 240.445 194.57 241.539 192.718 242.297C189.94 241.623 189.94 238.93 189.603 237.077C188.846 232.7 188.172 228.407 187.92 223.945C187.499 217.631 186.657 211.318 185.731 205.004C184.889 199.279 184.131 193.387 182.616 187.83C181.185 182.611 180.175 177.308 178.744 172.172C178.323 170.657 178.07 169.226 178.491 167.711C180.091 167.374 181.774 166.953 183.458 166.532Z" fill="#DDDBDC"/>
<path d="M248.784 208.792C247.1 208.876 247.016 208.203 247.269 206.603C248.026 201.468 250.047 196.585 250.468 191.366C251.141 182.695 253.161 174.193 251.141 165.269C249.878 159.882 250.215 154.073 248.615 148.685C248.279 147.423 249.205 146.412 248.952 145.15C251.057 143.887 253.246 142.708 255.603 141.361C257.034 147.086 257.876 152.895 258.465 158.703C259.728 170.489 259.98 182.19 256.781 193.723C255.182 199.364 252.74 204.499 248.784 208.792Z" fill="#CFCECD"/>
<path d="M157.109 153.736C156.351 153.821 155.509 153.736 154.836 153.989C151.468 155.336 149.111 153.736 148.017 150.874C146.417 146.918 143.387 145.907 139.599 145.318C135.053 144.56 130.17 143.971 127.897 139.004C125.961 134.879 129.16 129.997 133.622 129.66C139.43 129.155 144.986 131.007 150.795 131.007C154.499 137.994 155.341 145.992 157.109 153.736Z" fill="#FEFEFE"/>
<path d="M180.175 312.337C177.565 308.296 178.154 303.666 179.08 299.71C181.438 289.355 182.279 278.916 182.027 268.394C181.858 262.417 182.027 256.524 182.027 250.547C184.889 249.537 187.667 248.442 190.529 247.432C190.277 255.345 190.866 263.258 189.94 271.172C188.93 279.506 187.751 287.84 186.152 296.09C185.31 300.215 184.131 304.255 182.953 308.38C182.532 309.896 182.7 310.99 184.468 311.243C183.205 311.832 181.774 312.337 180.175 312.337Z" fill="#F4F4F6"/>
<path d="M114.007 161.65C115.101 161.734 116.027 162.239 115.943 163.417C115.522 167.542 117.879 171.162 118.048 175.287C118.637 185.473 118.3 195.575 118.3 205.761C118.3 213.001 117.795 220.157 118.132 227.396C118.385 232.279 118.637 237.33 117.206 242.213C116.701 243.896 116.196 245.412 114.512 246.338C107.777 244.233 107.862 244.233 109.04 237.33C112.744 215.527 115.27 193.639 114.512 171.415C114.428 168.216 114.175 164.933 114.007 161.65Z" fill="#CFCECD"/>
<path d="M83.3644 295.837C83.2802 295.669 83.1961 295.416 83.1961 295.248C82.8593 292.807 81.9333 290.197 82.2701 287.84C82.6068 284.978 85.9741 285.062 87.9103 283.715C97.0862 277.317 101.8 268.057 104.831 257.702C105.505 255.261 106.178 252.904 106.599 250.378C106.936 248.526 107.609 248.19 109.209 248.947C110.808 249.621 112.492 250.126 114.091 250.715C114.512 256.103 111.987 260.985 110.135 265.7C107.188 273.36 103.4 280.684 97.6755 286.83C93.6347 291.123 89.5098 294.995 83.3644 295.837Z" fill="#CFCECD"/>
<path d="M101.632 198.438C99.9485 195.912 101.632 193.302 101.716 190.861C102.053 183.958 102.474 177.055 103.653 170.236C104.915 162.66 103.484 155.336 102.895 148.012C102.726 145.655 103.653 144.476 106.01 144.645C110.556 151.463 111.229 159.292 111.818 167.037C112.408 175.119 112.239 183.285 111.566 191.45C111.482 192.713 111.145 193.723 109.966 194.397C107.272 195.744 104.915 198.017 101.632 198.438Z" fill="#CFCECD"/>
<path d="M70.4844 157.609C70.5686 153.568 71.7472 150.369 73.9359 147.507C77.64 142.54 81.5966 137.742 85.2164 132.691C87.8261 128.987 92.9613 129.323 96.8337 132.438C97.8439 133.28 97.2546 133.869 96.7495 134.543C90.6883 142.288 85.8899 150.874 81.5124 159.629C81.4282 159.798 81.344 160.05 81.1757 160.218C79.5762 162.828 77.9767 166.111 74.2727 164.933C70.737 163.838 70.8212 160.218 70.4844 157.609Z" fill="#F4F4F6"/>
<path d="M162.917 119.895C169.904 115.686 169.904 115.686 174.45 122.336C181.69 133.027 187.499 144.476 191.96 156.514C192.213 157.272 193.139 158.198 192.381 158.872C191.708 159.545 190.782 158.956 190.024 158.535C187.078 156.935 183.879 157.44 180.764 157.188C177.649 145.823 174.619 134.543 166.537 125.367C165.19 123.767 162.833 122.589 162.917 119.895Z" fill="#CFCECD"/>
<path d="M74.1043 284.136C59.0356 285.651 47.5867 275.381 45.2296 257.871C52.7218 263.09 60.8034 265.868 69.6426 266.205C69.811 269.067 70.5686 271.929 70.9895 274.791C71.5788 278.075 73.9359 280.684 74.1043 284.136Z" fill="#CFCECD"/>
<path d="M172.767 76.4565C173.693 77.5508 174.619 78.561 175.461 79.7396C176.976 81.9283 178.491 83.5278 174.703 85.8008C169.652 88.8313 167.295 100.449 169.568 105.836C170.41 107.857 171.925 108.783 174.535 108.867C167.8 116.696 159.634 120.905 150.037 122.505C149.785 119.895 150.627 117.874 152.647 115.938C155.172 113.413 158.119 110.803 159.045 107.183C159.55 105.247 160.476 103.9 161.823 102.637C164.264 102.132 165.611 100.449 166.706 98.344C168.81 94.3032 167.547 91.1043 164.517 88.1579C163.927 86.3059 165.19 84.6222 165.948 83.4436C167.716 80.6656 168.305 76.5406 172.767 76.4565Z" fill="#CFCECD"/>
<path d="M184.552 311.158C182.784 310.906 182.616 309.812 183.037 308.296C184.131 304.255 185.394 300.215 186.236 296.006C187.835 287.756 189.014 279.422 190.024 271.087C190.95 263.174 190.361 255.261 190.613 247.348C192.381 246.506 194.065 245.664 195.833 244.822C197.348 250.883 196.59 257.113 196.254 263.258C195.917 271.087 194.149 278.832 193.392 286.577C192.802 292.301 191.624 297.858 190.108 303.414C189.687 304.845 189.603 306.276 191.287 307.034C190.024 309.896 187.246 310.485 184.552 311.158Z" fill="#DDDBDC"/>
<path d="M191.371 307.034C189.687 306.276 189.772 304.845 190.193 303.414C191.708 297.858 192.886 292.301 193.476 286.577C194.318 278.748 196.001 271.003 196.338 263.258C196.59 257.197 197.348 250.968 195.917 244.822C198.863 242.886 201.894 241.034 205.261 238.845C205.514 244.149 205.009 248.947 204.419 253.662C202.147 272.013 197.937 289.776 191.371 307.034Z" fill="#CFCECD"/>
<path d="M83.3644 295.837C89.5098 294.995 93.6347 291.123 97.5913 286.83C103.4 280.684 107.104 273.36 110.05 265.7C111.902 260.985 114.344 256.187 114.007 250.715C116.448 251.389 118.805 252.062 121.247 252.736C117.879 260.48 114.512 268.225 111.229 275.97C110.555 277.569 109.966 279.169 109.377 280.853C108.114 284.641 106.346 287.84 102.39 289.776C99.9485 290.955 98.1806 293.48 96.6653 295.921C93.8873 300.383 90.2674 303.245 84.6272 302.403C83.8695 300.299 83.5328 298.11 83.3644 295.837Z" fill="#DDDBDC"/>
<path d="M85.8057 307.37C89.8465 306.865 93.9715 306.865 97.423 303.919C98.9383 302.656 99.8643 300.888 101.38 299.625C104.326 297.1 107.272 296.511 109.966 298.11C112.323 299.541 114.512 304.676 113.839 307.286C113.249 309.559 112.071 311.579 110.556 313.263C109.209 314.778 108.535 316.294 108.788 318.23C101.548 317.641 94.8133 315.199 88.1628 312.59C85.8899 311.664 86.2266 309.306 85.8057 307.37Z" fill="#FEFEFE"/>
<path d="M162.917 119.895C162.749 122.589 165.19 123.767 166.537 125.367C174.619 134.543 177.649 145.823 180.764 157.188C177.986 157.693 175.208 158.282 172.43 158.787C171.841 154.41 170.662 150.201 169.147 145.992C167.463 141.614 166.032 137.068 164.685 132.522C163.759 129.408 161.655 128.313 158.792 128.987C156.267 129.576 153.91 129.323 151.468 128.65C148.775 124.02 148.775 124.104 153.741 122.841C156.856 122.084 159.887 120.905 162.917 119.895Z" fill="#DDDBDC"/>
<path d="M222.014 111.224C220.246 112.066 218.394 111.14 216.458 111.392C218.731 112.908 221.004 112.739 223.361 112.655C223.276 113.581 223.529 114.423 224.202 114.928C225.97 116.275 225.97 118.127 226.054 120.147C226.139 123.767 223.024 125.03 221.34 127.387C220.667 127.808 220.162 128.313 221.424 128.397C223.95 128.566 226.223 127.808 228.496 126.966C229.59 128.65 226.812 128.818 227.233 130.249C224.034 132.354 220.667 133.027 217.131 131.512C215.447 130.754 213.595 129.744 214.774 127.219L214.858 127.135L214.69 127.219C215.027 125.788 214.016 124.777 213.595 123.599C211.07 117.033 211.491 110.551 214.353 104.321C215.868 101.038 218.141 98.5124 222.014 97.9231C223.361 102.216 222.435 106.762 222.014 111.224Z" fill="#CFCECD"/>
<path d="M161.823 102.553C160.476 103.816 159.55 105.163 159.045 107.099C158.119 110.803 155.172 113.329 152.647 115.854C150.627 117.874 149.785 119.811 150.037 122.42C149.28 123.094 148.354 122.841 147.512 123.01C144.565 122.589 141.872 123.683 139.009 123.936C141.872 124.272 144.734 124.525 147.68 124.02C148.69 125.451 149.616 126.882 149.701 128.65C146.081 128.229 142.377 127.976 138.841 127.219C136.736 126.798 135.305 125.535 136.063 122.673C137.073 118.716 139.683 115.938 142.124 112.908C143.976 113.749 144.986 113.076 145.407 111.14C148.185 107.183 150.29 102.974 152.142 98.5124C155.509 99.4384 158.203 102.301 161.823 102.553Z" fill="#DDDBDC"/>
<path d="M172.767 76.4565C168.305 76.5406 167.716 80.6656 165.948 83.3595C165.19 84.538 163.927 86.2217 164.517 88.0737C161.149 85.0431 157.193 82.9385 153.32 80.6656C151.889 77.2141 150.963 73.6784 151.3 69.806C151.384 68.7116 150.711 67.7014 149.953 66.9438C148.438 65.5969 148.69 64.1657 149.532 62.5663C158.54 65.0918 166.79 68.9642 172.767 76.4565Z" fill="#DDDBDC"/>
<path d="M114.68 332.204C110.892 332.036 107.104 331.447 103.4 330.857C96.9179 329.763 92.372 326.396 90.0149 320.25C89.2572 318.23 88.1628 316.378 87.6577 313.516C97.9281 318.061 108.367 320.84 119.226 321.26C119.311 322.102 118.637 322.607 118.385 323.281C117.038 326.311 114.765 328.837 114.68 332.204Z" fill="#CFCECD"/>
<path d="M236.998 117.79C235.82 115.686 234.81 113.581 232.452 112.487C230.432 111.561 227.907 111.897 226.307 109.372C228.917 109.372 230.853 108.783 233.631 110.045C237.082 111.561 240.45 113.244 243.817 114.928C246.679 116.443 251.057 114.255 253.498 111.14C254.508 109.877 255.434 108.614 256.529 107.099C259.223 114.76 257.876 121.999 256.36 129.239C256.024 131.007 253.414 130.923 253.414 132.943L253.498 132.859C250.804 132.522 249.373 135.3 246.932 135.553C246.595 133.532 246.679 131.849 247.689 129.828C250.973 123.599 247.269 117.874 240.281 117.874C239.187 117.79 238.093 117.79 236.998 117.79Z" fill="#CFCECD"/>
<path d="M158.624 281.442C156.014 291.123 151.805 300.215 147.091 309.054C146.586 309.98 145.828 310.906 145.491 311.916C143.892 316.967 140.02 318.482 135.221 318.482C134.127 316.799 134.548 315.452 135.558 313.684C140.02 305.771 145.239 298.363 149.785 290.449C151.805 286.914 154.415 283.21 158.624 281.442Z" fill="#CFCECD"/>
<path d="M91.8669 247.264C96.3286 246.085 99.275 247.516 99.6117 251.81C100.285 260.144 99.1066 268.309 94.4766 275.549C93.2138 277.485 91.8669 279.506 88.9205 279.674C87.1527 279.758 86.7317 279.169 86.3108 277.99C85.469 275.633 84.3746 273.36 84.1221 270.919C84.4588 270.582 84.7955 270.33 85.0481 269.993C85.6374 272.013 86.3108 274.118 86.9001 276.138C86.9843 275.97 87.1527 275.886 87.2368 275.717C87.321 275.633 87.321 275.549 87.4052 275.465C89.8465 274.371 89.9307 271.845 90.52 269.825C92.4562 262.417 91.7827 254.84 91.8669 247.264Z" fill="#CFCECD"/>
<path d="M158.624 281.442C154.415 283.21 151.805 286.914 149.785 290.449C145.239 298.278 140.02 305.771 135.558 313.684C134.548 315.368 134.127 316.799 135.221 318.482C131.096 319.577 126.887 319.914 122.678 319.577C122.509 318.23 122.93 317.135 123.688 315.957C126.298 311.411 130.002 308.212 134.379 305.518C140.188 301.983 143.218 296.006 147.175 290.786C150.121 286.83 152.984 282.789 156.183 279.001C157.109 277.906 158.792 276.307 159.634 279.422C159.466 280.095 158.371 280.516 158.624 281.442Z" fill="#DDDBDC"/>
<path d="M74.1043 284.136C73.9359 280.768 71.5788 278.075 70.9895 274.707C70.5686 271.845 69.7268 269.067 69.6426 266.121C72.9257 265.7 76.3772 265.868 79.5762 264.858C80.8389 264.437 81.344 264.942 81.5966 266.121C82.3542 270.414 83.617 274.539 85.3848 278.495C85.8899 279.674 85.5532 280.263 84.543 280.768C81.2599 282.62 77.9767 284.22 74.1043 284.136Z" fill="#CFCECD"/>
<path d="M114.68 332.204C114.765 328.753 117.038 326.227 118.385 323.281C118.721 322.607 119.311 322.102 119.226 321.26C126.382 320.924 133.537 320.419 140.693 318.398C136.652 329.089 126.803 334.225 114.68 332.204Z" fill="#CFCECD"/>
<path d="M114.428 118.716C108.703 121.831 104.326 125.703 100.454 130.081C99.3592 131.344 98.6857 131.512 97.3388 130.418C95.2342 128.818 92.7929 127.892 89.8465 128.061C90.52 126.04 92.2036 124.946 93.3822 123.515C94.224 122.505 95.15 121.579 96.076 120.652C98.8541 117.874 101.127 113.244 104.494 112.992C107.441 112.908 110.555 116.864 114.428 118.716Z" fill="#F4F4F6"/>
<path d="M235.146 138.163C229.927 138.752 224.623 137.657 220.583 135.048C225.381 135.132 229.674 134.374 233.126 131.26C236.662 127.976 237.84 123.851 237.419 119.137C237.924 119.137 238.514 119.053 239.019 119.137C246.343 120.063 248.7 125.198 244.154 131.007C242.386 133.28 240.45 135.721 237.082 136.226C236.072 136.395 235.146 136.9 235.146 138.163Z" fill="#F4F4F6"/>
<path d="M161.739 289.944C161.739 290.365 161.739 290.786 161.739 291.207C160.392 291.46 160.476 292.554 160.56 293.48C160.981 300.551 159.718 307.539 159.887 314.526C156.098 314.947 152.31 314.021 147.933 313.937C152.9 304.34 156.604 294.49 160.055 284.641C162.496 285.819 160.139 288.513 161.739 289.944Z" fill="#CFCECD"/>
<path d="M84.9639 269.993C84.6272 270.33 84.2904 270.582 84.0379 270.919C82.5226 265.784 81.8491 260.565 83.196 255.345C84.3746 250.883 87.1526 248.021 91.8669 247.348C91.8669 254.924 92.4562 262.501 90.4358 269.909C89.8465 272.013 89.7623 274.455 87.321 275.549C85.5532 267.047 85.2164 258.628 88.247 250.294C85.5532 256.608 82.9435 262.922 84.9639 269.993Z" fill="#CFCECD"/>
<path d="M172.935 325.975C168.978 326.901 165.106 326.648 161.149 325.806C161.402 322.523 159.803 319.577 159.887 316.294C166.032 316.378 172.093 315.789 178.154 314.526C177.649 315.62 177.228 316.715 176.639 317.725C175.124 320.419 173.103 322.776 172.935 325.975Z" fill="#CFCECD"/>
<path d="M172.935 325.975C173.019 322.776 175.124 320.419 176.639 317.809C177.228 316.799 177.649 315.62 178.154 314.61C181.943 313.347 185.899 312.421 189.519 310.569C189.603 320.166 183.542 325.722 172.935 325.975Z" fill="#CFCECD"/>
<path d="M252.404 110.045C251.225 112.234 249.289 112.992 246.932 112.823C244.322 112.655 242.554 110.719 243.228 108.193C243.817 105.92 243.312 103.984 242.639 101.88C242.133 100.364 241.797 98.6807 241.713 97.0813C241.46 93.6298 242.639 92.5354 246.343 92.367C246.932 96.9971 249.542 100.954 250.636 105.415C250.973 107.015 250.804 108.867 252.404 110.045Z" fill="#CFCECD"/>
<path d="M173.609 96.6604C171.672 99.3542 171.588 102.385 171.504 105.668C169.652 100.785 172.346 91.5252 176.302 88.5788C177.902 87.4002 178.912 87.737 179.333 89.589C179.585 90.515 179.754 91.5252 179.585 92.4512C178.912 96.9129 180.68 99.5226 185.057 100.112C185.478 100.196 186.152 100.112 186.236 99.9435C186.573 98.0073 187.583 98.6807 188.425 99.3542C189.435 100.196 189.772 101.375 189.182 102.637C188.677 103.816 187.835 104.321 186.573 104.153C185.478 103.984 185.394 103.479 185.057 102.216C184.468 99.7751 181.606 100.28 179.501 100.196C178.154 100.112 176.892 100.028 177.565 102.216C177.733 102.722 176.807 103.648 176.218 104.321C175.629 104.91 175.04 105.752 174.029 105.415C173.188 105.079 173.44 104.068 173.356 103.395C173.272 102.216 173.356 101.038 173.356 99.7751C173.524 98.7649 173.609 97.7547 173.609 96.6604Z" fill="#CFCECD"/>
<path d="M183.037 158.956C185.394 159.124 189.182 158.451 189.519 160.555C189.94 163.081 186.236 163.67 183.963 164.512C178.996 166.195 173.861 166.953 168.558 166.364C167.295 166.195 165.527 166.28 165.359 164.764C165.19 163.333 166.874 162.828 167.968 162.239C172.683 160.05 177.734 159.124 183.037 158.956Z" fill="#F4F4F6"/>
<path d="M159.887 316.378C159.803 319.577 161.402 322.607 161.149 325.89C158.371 326.059 155.846 325.217 153.236 324.459C150.879 323.702 148.101 318.651 148.522 316.294C148.775 314.863 149.785 315.452 150.542 315.536C153.657 315.704 156.772 316.041 159.887 316.378Z" fill="#CFCECD"/>
<path d="M234.473 105.415C233.799 104.742 233.547 103.732 233.799 102.974C235.062 99.3542 233.884 96.0711 233.126 92.5354C232.2 88.0737 235.146 85.464 239.86 86.1375C239.86 88.3262 238.85 90.3466 238.261 92.367C237.503 94.7241 237.419 96.9971 238.429 99.3542C240.197 103.732 239.187 105.331 234.473 105.415Z" fill="#CFCECD"/>
<path d="M235.146 138.163C235.146 136.9 236.156 136.395 237.082 136.311C240.366 135.805 242.386 133.364 244.154 131.091C248.7 125.198 246.343 120.147 239.019 119.221C238.514 119.137 237.924 119.221 237.419 119.221C237.335 118.8 237.251 118.295 237.167 117.874C238.261 117.874 239.355 117.874 240.45 117.874C247.437 117.874 251.057 123.599 247.858 129.828C246.848 131.849 246.679 133.617 247.1 135.553C243.144 137.321 239.355 138.499 235.146 138.163Z" fill="#DDDBDC"/>
<path d="M90.52 81.4232C93.5505 81.5916 96.6653 82.0967 97.5913 77.8876C97.7597 77.0457 98.6015 76.2881 99.5275 75.8672C101.211 79.1503 101.043 82.4334 99.6117 85.7166C98.9383 85.9691 98.9382 86.5584 98.9382 87.0635C97.6755 88.9997 96.7495 91.1885 94.6449 92.8721C92.7929 89.2523 96.6653 83.6962 90.3516 82.3493C90.52 82.0967 90.52 81.76 90.52 81.4232Z" fill="#F4F4F6"/>
<path d="M227.233 85.9691C229.759 85.2115 231.442 85.2115 230.516 88.8313C229.843 91.1885 230.853 93.6298 232.2 95.6502C233.294 97.3338 233.463 98.7649 232.368 100.449C231.442 101.88 231.021 103.395 231.19 105.079C231.358 107.267 229.59 107.436 228.327 107.183C226.56 106.846 228.075 105.5 228.075 104.658C229.927 101.88 230.685 98.7649 229.253 95.7343C227.654 92.6196 227.065 89.4206 227.233 85.9691Z" fill="#CFCECD"/>
<path d="M234.473 105.415C239.187 105.331 240.197 103.732 238.429 99.4384C237.419 97.1655 237.588 94.8083 238.261 92.4512C238.85 90.4308 239.86 88.4104 239.86 86.2217C240.787 86.1375 241.544 86.6426 242.218 87.2319C243.565 88.2421 244.996 88.9155 242.302 90.4308C239.019 92.2828 238.766 96.0711 240.955 101.29C241.544 102.806 242.554 104.153 241.207 105.752C240.366 106.762 240.281 108.446 238.345 108.278C236.325 108.025 234.894 107.436 234.473 105.415Z" fill="#CFCECD"/>
<path d="M252.404 110.045C250.804 108.867 250.973 107.015 250.552 105.415C249.457 100.954 246.763 96.9971 246.258 92.367C248.026 91.9461 249.205 92.7879 249.878 94.3032C251.394 97.7547 252.993 101.206 254.424 104.742C255.182 106.931 254.087 108.614 252.404 110.045Z" fill="#CFCECD"/>
<path d="M227.233 85.9691C227.065 89.4206 227.654 92.5354 229.253 95.7343C230.685 98.7649 229.927 101.88 228.075 104.658C228.159 102.301 228.327 99.9435 227.401 97.5864C226.981 96.492 226.56 95.1451 225.465 94.7242C222.856 93.6298 222.266 91.6094 222.687 89.2523C222.94 86.811 225.128 86.39 227.233 85.9691Z" fill="#CFCECD"/>
<path d="M221.256 127.387C222.94 125.114 226.055 123.767 225.97 120.147C225.886 118.127 225.886 116.275 224.118 114.928C223.361 114.339 223.192 113.497 223.276 112.655C223.782 112.15 224.287 111.897 224.96 112.318C228.075 114.339 229.253 117.369 229.253 120.905C229.338 124.02 227.149 125.451 224.623 126.461C223.613 126.966 222.519 127.555 221.256 127.387Z" fill="#CFCECD"/>
<path d="M222.014 111.224C222.435 106.762 223.445 102.216 221.93 97.7547C222.603 97.418 223.361 97.2496 224.034 97.7547C227.317 100.449 225.97 109.372 222.014 111.224Z" fill="#CFCECD"/>
<path d="M227.233 130.249C226.728 128.818 229.59 128.65 228.496 126.966C233.042 124.104 232.873 119.726 232.537 115.181L232.452 115.265C236.746 120.232 233.968 128.061 227.233 130.249Z" fill="#CFCECD"/>
<path d="M159.803 314.526C159.634 307.454 160.897 300.467 160.476 293.48C160.392 292.554 160.308 291.46 161.655 291.207C161.907 298.194 161.823 305.181 161.065 312.084C160.981 312.926 160.476 313.684 160.139 314.442L159.971 314.526H159.803Z" fill="#DDDBDC"/>
<path d="M99.6959 85.7166C101.127 82.4334 101.295 79.1503 99.6117 75.8672C100.79 74.5202 101.8 75.0253 102.221 76.4565C103.484 81.2549 102.137 85.6324 100.369 90.4308C99.1908 88.9997 100.285 87.9895 99.6959 87.0635C99.6117 86.6426 99.6959 86.1375 99.6959 85.7166Z" fill="#CFCECD"/>
<path d="M246.848 140.183C245.248 140.941 243.565 141.614 242.302 139.678C245.248 138.247 248.447 137.152 251.141 135.216C251.983 134.543 253.414 134.374 253.498 132.943L253.414 133.027C253.835 133.027 254.34 133.027 254.761 133.027L254.677 132.943C254.087 136.226 251.309 137.068 248.952 138.415C248.195 138.752 246.595 138.415 246.848 140.183Z" fill="#CFCECD"/>
<path d="M90.52 81.4232C90.52 81.76 90.52 82.0125 90.4358 82.3493C89.6781 82.9385 88.0786 81.0865 87.8261 83.4436C87.7419 84.4538 86.395 83.8646 85.7215 83.3595C84.3746 82.3493 84.2062 81.0023 84.8797 79.6554C85.469 78.4768 86.4792 77.9717 87.8261 78.2243C89.0888 78.4768 89.2572 78.8978 88.5837 80.1605C88.247 80.9181 89.9307 80.9181 90.52 81.4232Z" fill="#DDDBDC"/>
<path d="M161.739 289.944C160.139 288.513 162.496 285.819 160.055 284.725C160.476 283.378 160.223 281.947 161.234 280.768C161.655 280.768 162.075 280.768 162.496 280.768C162.075 283.799 163.254 286.998 161.739 289.944Z" fill="#DDDBDC"/>
<path d="M163.843 166.869C163.086 167.037 162.328 167.121 161.57 167.206C160.308 167.374 158.792 168.132 158.035 166.616C157.361 165.354 157.614 163.838 158.54 162.239C158.876 165.69 160.308 166.869 163.422 165.438C163.507 165.943 163.675 166.364 163.843 166.869Z" fill="#CFCECD"/>
<path d="M147.596 124.188C144.734 124.693 141.872 124.441 138.925 124.104C141.787 123.851 144.565 122.757 147.428 123.178C147.512 123.515 147.596 123.851 147.596 124.188Z" fill="#CFCECD"/>
<path d="M117.374 119.053C119.563 119.558 121.583 120.316 124.361 121.831C120.657 121.579 118.216 120.737 115.943 119.221C116.448 119.221 116.869 119.137 117.374 119.053Z" fill="#CFCECD"/>
<path d="M138.42 255.598C137.157 256.86 135.979 257.45 135.053 255.345C136.147 255.429 137.241 255.514 138.42 255.598Z" fill="#FEFEFE"/>
<path d="M99.8643 89.7574C99.8643 91.2726 99.5275 92.0303 98.5173 92.5354C97.9281 91.3568 98.5174 90.5992 99.8643 89.7574Z" fill="#CFCECD"/>
<path d="M109.966 318.482C110.64 317.22 111.061 317.388 111.397 318.651C110.892 318.567 110.471 318.567 109.966 318.482Z" fill="#FEFEFE"/>
<path d="M68.6324 155.588C68.8008 155.252 69.0533 154.915 69.2217 154.578C69.6426 155.083 69.4742 155.588 69.3059 156.094C69.1375 155.925 68.885 155.757 68.6324 155.588Z" fill="#F4F4F6"/>
<path d="M178.407 123.431C178.154 123.178 177.902 122.841 177.733 122.589C178.239 122.252 178.659 122.336 179.08 122.841C178.828 123.01 178.66 123.262 178.407 123.431Z" fill="#CFCECD"/>
<path d="M99.6959 85.7166C99.6959 86.1375 99.6959 86.6426 99.6117 87.0635H99.275H98.9383C99.0224 86.5584 99.0224 85.9691 99.6959 85.7166Z" fill="#CFCECD"/>
<path d="M232.537 115.181C232.368 115.181 232.2 115.181 232.031 115.181C232.031 115.096 232.031 115.012 232.116 114.928C232.2 114.928 232.368 115.096 232.537 115.181Z" fill="#CFCECD"/>
<path d="M254.761 132.943C254.845 132.775 254.929 132.606 255.013 132.522C255.266 132.859 255.182 133.027 254.761 132.943Z" fill="#CFCECD"/>
<path d="M97.1704 94.4716C96.9179 94.5558 96.6653 94.64 96.4128 94.7241C96.497 94.4716 96.6653 94.2191 96.7495 94.0507C96.9179 94.1349 97.0021 94.3032 97.1704 94.4716Z" fill="#CFCECD"/>
<path d="M97.8439 93.7981C97.5913 93.9665 97.3388 94.2191 97.1704 94.3874C97.0021 94.2191 96.9179 94.1349 96.7495 93.9665C96.9179 93.714 97.1704 93.4614 97.3388 93.2089C97.5072 93.3772 97.6755 93.6298 97.8439 93.7981Z" fill="#CFCECD"/>
<path d="M97.3388 93.2089C97.5914 92.9563 97.8439 92.4512 98.2648 92.9563C98.6857 93.3772 98.1806 93.6298 97.9281 93.8823C97.6755 93.6298 97.5072 93.3772 97.3388 93.2089Z" fill="#CFCECD"/>
<path d="M153.32 80.6656C157.193 82.9385 161.149 85.0431 164.517 88.0737C167.547 90.9359 168.81 94.1349 166.706 98.2598C165.611 100.449 164.348 102.132 161.823 102.553C158.119 102.301 155.509 99.4384 152.058 98.6807C143.976 91.5252 134.379 91.0201 124.277 92.5354C121.078 93.0405 117.795 93.4614 114.596 93.714C112.239 93.9665 109.629 94.4716 108.283 91.6936C107.188 89.5048 108.283 84.2855 110.219 82.6018C114.512 78.8978 119.731 77.3825 125.119 76.5406C134.127 75.0253 142.882 76.3723 151.3 79.8238C151.889 80.2447 152.647 80.4131 153.32 80.6656ZM159.213 92.2828C159.297 90.7676 158.54 89.9257 157.361 89.7574C156.014 89.589 155.088 90.515 155.004 91.8619C154.92 93.1247 155.593 93.9665 156.856 94.0507C158.287 94.2191 159.045 93.3772 159.213 92.2828ZM122.089 85.6324C121.752 84.4538 121.247 83.6962 119.816 83.6962C118.553 83.6962 117.627 84.3696 117.711 85.6324C117.711 86.9793 118.553 87.8211 120.068 87.737C121.415 87.737 121.92 86.811 122.089 85.6324Z" fill="#0F2548"/>
<path d="M145.239 111.392C144.818 113.329 143.808 114.002 141.956 113.16C141.451 112.403 140.861 111.645 139.935 110.298C141.956 111.645 143.724 110.382 145.239 111.392Z" fill="#2252A0"/>
<path d="M214.69 127.135L214.858 127.05C214.858 127.05 214.774 127.135 214.69 127.135Z" fill="#2252A0"/>
<path d="M84.9639 269.993C82.9435 262.922 85.5532 256.524 88.247 250.21C85.2164 258.544 85.6373 267.047 87.321 275.465C87.2368 275.549 87.2368 275.633 87.1526 275.717C87.0685 275.886 86.9001 275.97 86.8159 276.138C86.2266 274.118 85.6373 272.098 84.9639 269.993Z" fill="#2252A0"/>
<path d="M159.213 92.2828C159.045 93.4614 158.287 94.2191 156.856 94.1349C155.593 94.0507 154.92 93.1247 155.004 91.9461C155.088 90.5992 156.014 89.6732 157.361 89.8415C158.54 89.9257 159.297 90.6834 159.213 92.2828Z" fill="#CFCECD"/>
<path d="M122.089 85.6324C121.92 86.811 121.415 87.737 120.068 87.8211C118.553 87.9053 117.711 87.0635 117.711 85.7166C117.711 84.4538 118.553 83.7804 119.816 83.7804C121.247 83.612 121.836 84.4538 122.089 85.6324Z" fill="#CFCECD"/>
</g>
<path d="M203.445 33.0046L188.832 15.4866M210.669 24.8953L206.068 16.3647" stroke="#A1A0A0" stroke-width="3.43125" stroke-linecap="round" stroke-linejoin="round"/>
<path d="M283.199 106.687L295.254 121.484M277.077 113.401L280.843 120.582" stroke="#A1A0A0" stroke-width="2.87065" stroke-linecap="round" stroke-linejoin="round"/>
<g clip-path="url(#clip2_1764_1900)">
<path d="M277.248 66.768C273.267 67.9871 269.263 69.1429 265.26 70.2986C261.008 71.5309 256.762 72.779 252.532 74.0746C252.565 74.2226 252.614 74.3651 252.668 74.497C252.897 75.1357 253.157 75.7634 253.433 76.3858C253.444 76.4174 253.391 76.4444 253.38 76.4127C253.072 75.8013 252.781 75.1844 252.489 74.5676C252.424 74.4305 252.359 74.2934 252.283 74.1511C249.4 75.0367 246.538 75.9591 243.672 76.9186C240.884 77.8509 238.707 77.8293 237.24 75.031C236.102 72.881 235.18 70.6124 234.332 68.3272C234.321 68.3485 234.3 68.3646 234.279 68.3807C233.726 68.6508 233.074 68.6623 232.461 68.7582C231.779 68.86 231.107 68.9671 230.414 69.0373C230.382 69.0482 230.371 68.99 230.403 68.9791C231.08 68.8614 231.756 68.7437 232.417 68.5785C233.003 68.4299 233.589 68.1489 234.192 68.1273C234.219 68.127 234.229 68.1322 234.251 68.1426C233.979 67.4037 233.712 66.6542 233.451 65.9205C231.153 59.3433 229.314 52.5817 226.32 46.2707C223.617 40.5236 220.397 35.0515 218.216 29.0717C218.037 29.1422 217.858 29.2658 217.685 29.4581C217.014 30.1583 216.62 31.6397 216.215 32.5228C212.575 40.6555 209.509 49.0423 205.821 57.1649C202.367 64.7822 198.683 72.301 194.766 79.7055C195.905 79.2073 197.125 78.8143 198.265 78.3692C200.27 77.5821 202.28 76.7843 204.356 76.2031C204.477 76.1701 204.574 76.3493 204.448 76.4193C202.703 77.294 200.862 77.9895 199.046 78.6848C197.511 79.2661 195.966 79.9747 194.381 80.44C194.345 80.5145 194.314 80.5784 194.267 80.6477C196.753 82.0327 199.323 83.2475 201.991 84.2336C204.67 85.2249 207.462 85.8497 210.13 86.8623C214.93 88.6913 218.73 92.3253 223.077 94.9478C227.573 97.6695 232.397 99.7737 237.267 101.756C246.088 105.363 255.504 108.075 263.791 112.857C263.283 111.252 263.018 109.528 262.653 107.9C262.227 105.993 261.79 104.08 261.565 102.138C261.553 102 261.759 101.982 261.792 102.104C262.453 104.153 262.897 106.267 263.351 108.36C263.689 109.935 264.181 111.546 264.313 113.165C264.356 113.186 264.382 113.212 264.425 113.233C268.786 105.702 271.875 97.5376 275.64 89.7162C279.759 81.171 283.845 72.6103 287.862 64.0291C288.023 63.6727 288.302 63.5059 288.583 63.4714C288.618 63.3175 288.654 63.1635 288.674 63.0151C284.975 64.5174 281.061 65.5982 277.248 66.768Z" fill="#E9B6D3"/>
<path d="M235.196 65.0988C236.263 68.1234 237.415 71.163 238.909 74.014C239.535 75.2156 240.277 75.8282 241.73 75.4965C242.512 75.3249 243.272 75.0104 244.027 74.7596C245.621 74.22 247.216 73.707 248.821 73.1991C255.48 71.0858 262.204 69.1891 268.917 67.2607C272.228 66.3075 275.535 65.365 278.82 64.3856C281.936 63.4554 285.034 62.3719 288.183 61.5103C288.118 61.4527 288.044 61.3898 287.969 61.327C287.686 61.1231 287.351 60.9992 287.038 60.8592C286 60.3924 284.911 60.0056 283.863 59.5602C281.656 58.6279 279.496 57.5999 277.367 56.508C272.833 54.1627 268.539 51.5397 263.687 49.8436C259.521 48.3898 255.387 46.9781 251.366 45.1734C247.206 43.3012 243.145 41.2003 239.084 39.1259C235.05 37.0777 231.032 35.0241 226.992 32.9865C224.88 31.9157 222.767 30.8448 220.654 29.774C220.244 29.5607 219.839 29.3104 219.456 29.1499C222.149 35.4585 225.927 41.2165 228.778 47.4441C231.396 53.1497 233.1 59.187 235.196 65.0988Z" fill="#AC1269"/>
<path d="M289.516 60.8567C288.481 59.4683 286.39 59.0011 284.885 58.3587C280.3 56.3846 276.035 53.9202 271.684 51.4937C267.584 49.2025 263.201 47.7614 258.811 46.1456C253.927 44.3545 249.275 42.0315 244.64 39.6766C240.047 37.3424 235.449 35.0189 230.856 32.6847C228.743 31.6139 226.635 30.5324 224.523 29.4616C223.373 28.8741 222.223 28.2866 221.074 27.6991C220.281 27.2988 219.396 26.7088 218.484 26.6328C216.709 26.4908 215.968 28.2245 215.319 29.5548C214.233 31.779 213.28 34.0549 212.359 36.3464C210.471 41.0251 208.561 45.6935 206.54 50.3205C202.041 60.5906 197.1 70.6583 191.792 80.5335C191.501 81.0765 191.698 81.7526 192.231 82.0653C196.805 84.7068 201.632 86.562 206.688 88.0285C209.237 88.7721 211.577 89.7295 213.81 91.1753C215.925 92.5374 217.895 94.0916 220.005 95.4643C228.681 101.123 238.73 104.617 248.367 108.254C253.842 110.32 259.312 112.503 264.289 115.617C264.784 115.925 265.444 115.68 265.726 115.212C270.402 107.44 273.62 98.9297 277.546 90.7783C281.665 82.2332 285.751 73.6725 289.758 65.0861C289.939 64.6871 289.883 64.3169 289.684 64.0222C290.108 62.9642 290.278 61.861 289.516 60.8567ZM220.649 29.7846C222.762 30.8554 224.874 31.9263 226.987 32.9971C231.021 35.0453 235.045 37.0883 239.079 39.1365C243.145 41.2003 247.206 43.3012 251.361 45.184C255.387 47.0046 259.526 48.4056 263.682 49.8542C268.534 51.5503 272.822 54.1575 277.362 56.5186C279.486 57.6211 281.651 58.6385 283.858 59.5707C284.906 60.0162 286 60.3924 287.032 60.8698C287.346 61.0098 287.681 61.1337 287.964 61.3376C288.044 61.3898 288.118 61.4526 288.177 61.5209C285.034 62.3718 281.936 63.4554 278.814 64.3961C275.514 65.381 272.207 66.3235 268.911 67.2713C262.198 69.1997 255.474 71.0964 248.816 73.2097C247.211 73.7175 245.611 74.2413 244.022 74.7702C243.267 75.021 242.507 75.3355 241.725 75.5071C240.261 75.8336 239.53 75.2262 238.904 74.0246C237.41 71.1736 236.268 68.1392 235.191 65.1094C233.106 59.2028 231.39 53.1603 228.778 47.4441C225.927 41.2164 222.149 35.4584 219.451 29.1604C219.834 29.321 220.239 29.5713 220.649 29.7846ZM287.867 64.0184C283.845 72.6103 279.759 81.171 275.645 89.7055C271.875 97.5376 268.791 105.691 264.43 113.222C264.388 113.201 264.361 113.175 264.318 113.154C264.181 111.546 263.694 109.924 263.356 108.349C262.902 106.256 262.463 104.131 261.798 102.093C261.765 101.972 261.553 102 261.57 102.127C261.811 104.063 262.232 105.982 262.658 107.89C263.023 109.518 263.288 111.242 263.796 112.847C255.51 108.064 246.099 105.342 237.273 101.745C232.418 99.7575 227.594 97.6533 223.082 94.9371C218.725 92.3094 214.935 88.6806 210.135 86.8515C207.467 85.839 204.675 85.2142 201.996 84.2229C199.328 83.2368 196.748 82.0168 194.272 80.637C194.308 80.5625 194.339 80.4986 194.386 80.4293C195.966 79.9746 197.516 79.2554 199.052 78.6741C200.877 77.984 202.709 77.2833 204.453 76.4086C204.574 76.3492 204.483 76.1594 204.361 76.1924C202.29 76.763 200.28 77.5607 198.275 78.3478C197.135 78.793 195.916 79.186 194.776 79.6841C198.689 72.2902 202.383 64.7766 205.832 57.1436C209.509 49.0158 212.575 40.629 216.226 32.5014C216.62 31.6132 217.019 30.1476 217.695 29.4367C217.879 29.2496 218.047 29.1209 218.227 29.0503C220.408 35.0302 223.627 40.5022 226.346 46.2439C229.34 52.5549 231.179 59.3165 233.477 65.8937C233.733 66.6381 234.005 67.3769 234.277 68.1158C234.255 68.1054 234.245 68.1002 234.218 68.1005C233.604 68.117 233.03 68.4031 232.443 68.5517C231.783 68.7169 231.101 68.8453 230.429 68.9523C230.397 68.9632 230.398 69.0162 230.44 69.0105C231.123 68.9351 231.805 68.8332 232.487 68.7314C233.095 68.6461 233.752 68.624 234.305 68.3539C234.326 68.3378 234.348 68.3217 234.358 68.3004C235.206 70.5856 236.139 72.8594 237.266 75.0042C238.749 77.797 240.921 77.8293 243.698 76.8918C246.554 75.9271 249.426 75.0099 252.31 74.1243C252.385 74.2666 252.45 74.4037 252.515 74.5408C252.802 75.1683 253.083 75.78 253.406 76.3859C253.417 76.4176 253.481 76.3958 253.459 76.359C253.183 75.7366 252.923 75.1089 252.694 74.4702C252.645 74.3277 252.607 74.1903 252.558 74.0478C256.782 72.7363 261.023 71.4989 265.286 70.2718C269.289 69.1161 273.293 67.9603 277.274 66.7412C281.087 65.5714 285.001 64.4906 288.7 62.9883C288.68 63.1367 288.655 63.2959 288.609 63.4446C288.302 63.5058 288.034 63.6778 287.867 64.0184Z" fill="#AC1269"/>
<path d="M210.221 74.7435C210.194 74.7438 210.211 74.7913 210.227 74.7859C210.512 74.7408 210.798 74.6957 211.078 74.6347C211.104 74.6345 211.088 74.587 211.072 74.5924C210.781 74.6482 210.506 74.6984 210.221 74.7435Z" fill="#AC1269"/>
<path d="M213.713 73.8776C213.734 73.8877 213.744 73.8411 213.718 73.8413C213.697 73.8312 213.682 73.8624 213.713 73.8776Z" fill="#AC1269"/>
<path d="M223.749 71.0288C222.147 71.3407 220.578 71.7211 219.015 72.1968C218.983 72.2077 218.999 72.2552 219.031 72.2443C219.348 72.1618 219.67 72.0687 219.977 71.981L222.899 71.2593C223.195 71.1929 223.475 71.132 223.765 71.0763C223.792 71.076 223.776 71.0285 223.749 71.0288Z" fill="#AC1269"/>
<path d="M228.38 69.6128C228.338 69.6185 228.291 69.6348 228.238 69.6353C228.291 69.6348 228.333 69.6291 228.38 69.6128C228.518 69.6009 228.645 69.5838 228.777 69.556C228.793 69.5506 228.787 69.5348 228.772 69.5402C228.639 69.5679 228.507 69.5957 228.38 69.6128Z" fill="#AC1269"/>
<path d="M227.926 69.7072C227.957 69.6963 227.989 69.6854 228.021 69.6745C227.979 69.6802 227.952 69.6804 227.915 69.6755C227.899 69.6809 227.905 69.7233 227.926 69.7072Z" fill="#AC1269"/>
<path d="M259.421 95.6228C259.405 95.6018 259.374 95.6127 259.379 95.6285C259.498 95.8975 259.612 96.1506 259.731 96.4196C259.747 96.4406 259.779 96.4297 259.773 96.4139C259.654 96.1449 259.546 95.8811 259.421 95.6228Z" fill="#AC1269"/>
<path d="M258.581 93.024C258.601 93.0342 258.611 92.9875 258.586 92.9878C258.565 92.9777 258.56 93.0139 258.581 93.024Z" fill="#AC1269"/>
<path d="M255.409 83.0825C255.398 83.0509 255.35 83.0672 255.361 83.0989C255.464 83.3733 255.578 83.6529 255.682 83.9273L256.694 86.7671C256.792 87.0786 256.906 87.3847 257.005 87.6962C257.016 87.7279 257.063 87.7116 257.052 87.6799C256.582 86.1061 256.032 84.586 255.409 83.0825Z" fill="#AC1269"/>
<path d="M253.878 78.0657C253.872 78.0499 253.851 78.066 253.862 78.0712C253.921 78.1924 253.97 78.3085 254.024 78.4403C254.046 78.4772 254.062 78.5247 254.089 78.5774C254.073 78.5299 254.057 78.4824 254.035 78.4455C253.981 78.3136 253.921 78.1924 253.878 78.0657Z" fill="#AC1269"/>
<path d="M254.171 78.762C254.181 78.7937 254.192 78.8254 254.198 78.8677C254.198 78.8942 254.246 78.8778 254.23 78.8568C254.203 78.8306 254.192 78.7989 254.171 78.762Z" fill="#AC1269"/>
</g>
<defs>
<clipPath id="clip0_1764_1900">
<rect width="299.439" height="108" fill="white" transform="translate(0 225)"/>
</clipPath>
<clipPath id="clip1_1764_1900">
<rect width="222.748" height="289" fill="white" transform="translate(39 56)"/>
</clipPath>
<clipPath id="clip2_1764_1900">
<rect width="83.2037" height="62.7876" fill="white" transform="translate(217.542 25) rotate(26.0178)"/>
</clipPath>
</defs>
</svg>
