<svg width="325" height="359" viewBox="0 0 325 359" fill="none" xmlns="http://www.w3.org/2000/svg">
<g clip-path="url(#clip0_1764_1902)">
<path d="M255.99 284.17C257.341 284.902 258.054 286.103 258.466 287.491C258.748 288.392 258.917 289.33 258.935 290.287C259.967 292.295 259.592 294.377 259.161 296.441C258.71 298.618 257.772 300.644 256.928 302.708C256.309 304.19 256.421 304.322 258.035 304.397C258.992 304.434 259.949 304.491 260.906 304.603C269.218 305.598 272.182 310.251 272.82 317.887C273.064 320.758 272.951 323.666 271.131 326.162C270.118 327.025 268.842 327.457 267.754 328.207C267.003 328.732 266.347 328.601 265.653 327.963C264.377 326.762 263.889 325.355 264.133 323.591C264.508 320.965 264.639 318.338 263.926 315.73C262.632 310.87 258.785 309.726 254.939 312.99C252.199 315.298 251.017 318.357 250.567 321.79C250.173 324.773 249.798 325.092 246.814 325.13C245.257 325.149 243.7 325.017 242.142 325.243C240.379 325.505 238.878 326.312 237.489 327.438C236.045 328.62 235.256 328.32 234.956 326.462C234.637 324.454 234.375 322.428 234.112 320.402C233.812 318.188 233.305 316.049 232.536 313.947C232.179 312.99 231.917 311.808 230.735 311.696C229.459 311.564 228.971 312.765 228.445 313.685C226.832 316.536 225.894 319.632 225.425 322.86C224.974 325.824 224.824 328.826 224.58 331.81C224.543 332.279 224.562 332.767 224.449 333.236C224.205 334.268 223.661 334.53 222.798 333.817C222.197 333.311 221.747 332.654 221.128 332.185C220.096 331.416 219.477 331.622 219.214 332.86C218.914 334.174 219.139 335.487 219.439 336.782C219.927 338.771 220.603 340.685 221.428 342.561C221.71 343.199 222.141 343.855 221.728 344.606C221.072 344.625 220.415 344.681 219.758 344.681C206.568 344.681 193.359 344.681 180.168 344.662C179.624 344.662 179.099 344.625 178.555 344.606C178.367 344.362 178.329 344.099 178.423 343.799C178.799 343.011 179.568 342.58 180.149 341.998C181.444 340.722 182.495 339.315 182.983 337.514C183.977 333.686 182.983 331.19 179.587 329.164C177.11 327.682 177.016 327.382 178.311 324.773C179.474 322.409 180.769 320.101 180.844 317.381C180.956 313.797 179.718 312.596 176.097 312.915C174.183 313.084 172.344 313.666 170.524 314.266C169.849 314.491 169.192 314.81 168.441 314.773C168.047 314.716 167.71 314.548 167.522 314.172C167.222 313.272 167.691 312.54 168.029 311.789C169.173 309.144 170.336 306.498 170.862 303.646C171.218 301.77 171.687 299.744 169.905 298.28C168.179 296.873 166.246 297.398 164.445 298.13C159.698 300.044 156.339 303.609 153.675 307.83C151.329 311.546 151.367 311.639 147.821 309.088C145.55 307.455 143.243 307.624 140.822 308.543C137.295 309.876 136.919 309.613 136.919 305.748C136.919 302.671 136.507 299.65 136 296.629C135.681 294.734 135.024 292.914 134.049 291.244C132.21 288.129 129.095 286.628 125.53 287.116C121.196 287.716 117.631 289.818 114.498 292.726C111.683 295.334 109.15 298.205 106.824 301.282C106.542 301.526 106.261 301.77 105.942 301.995C105.773 302.089 105.585 302.164 105.398 302.202C102.827 302.164 102.564 301.995 101.757 299.744C101.195 298.092 101.27 296.31 100.857 294.64C100.519 293.252 100.275 291.826 99.3934 290.644C99.1682 290.381 98.9618 290.118 98.6053 290.024C98.4364 289.968 98.2863 289.874 98.1175 289.78C97.7234 289.499 97.4045 289.124 97.1793 288.711C94.7401 284.395 90.8374 283.251 86.278 283.851C82.2252 284.377 78.5476 285.953 75.4142 288.655C73.6317 290.193 73.0313 290.006 72.4121 287.735C71.6803 284.996 70.6109 284.152 67.6651 284.208C66.4079 284.227 65.6574 283.757 65.6574 282.5C65.6574 279.48 65.2821 276.515 64.4753 273.625C64.344 273.138 64.4378 272.669 64.7755 272.274C64.7193 270.53 65.0195 268.803 65.2446 267.077C65.6762 263.568 66.3516 260.097 67.3836 256.701C68.0778 254.393 68.9222 252.161 69.9917 250.003C70.3294 249.309 70.7234 248.614 71.1175 247.958C71.5115 247.282 71.9993 246.682 72.5622 246.138C74.8138 243.942 77.9284 244.092 79.861 245.312C81.0994 246.081 82.1689 247.019 83.107 248.145C84.0452 249.252 84.7957 250.472 85.4149 251.785C85.7714 252.536 86.1091 253.305 86.4093 254.093C87.9854 258.183 89.4677 262.293 90.7248 266.495C91.3065 268.391 91.9069 270.267 92.5073 272.162C92.6199 272.5 92.7325 272.837 92.8638 273.175C93.1453 273.926 93.6143 274.019 94.196 273.4C94.7214 272.837 95.228 272.218 95.6783 271.599C96.5789 270.323 97.4232 269.01 98.3426 267.753C99.0368 266.777 99.7874 265.839 100.557 264.919C101.063 264.338 101.645 263.812 102.245 263.325C102.658 262.987 103.127 262.705 103.615 262.48C104.891 261.88 106.167 261.955 107.424 262.612C108.4 263.137 109.169 263.906 109.713 264.844C110.257 265.782 110.707 266.758 111.195 267.715C111.571 268.466 111.927 269.216 112.302 269.967C112.377 270.098 112.678 270.154 112.771 270.042C112.846 269.948 112.94 269.873 113.015 269.779C113.109 269.629 113.203 269.479 113.297 269.31C116.712 263.212 121.196 258.033 126.468 253.474C128.382 251.823 130.334 250.247 132.398 248.802C133.767 247.845 135.193 246.944 136.713 246.194C138.12 245.481 139.584 244.993 141.16 244.805C143.73 244.468 146.038 245.106 148.065 246.719C148.721 247.245 149.284 247.864 149.81 248.521C150.86 249.853 151.686 251.297 152.399 252.836C153.262 254.694 153.937 256.607 154.482 258.577C155.12 260.885 155.682 263.212 156.302 265.539C156.452 266.12 156.602 266.702 156.808 267.265C156.902 267.565 157.183 267.753 157.484 267.79C157.84 267.828 158.197 267.809 158.553 267.771C159.81 267.603 161.067 267.584 162.325 267.621C165.345 267.696 168.104 268.578 170.618 270.229C171.462 270.792 172.269 271.43 173.095 272.031C173.864 272.593 174.633 273.175 175.421 273.738C175.59 273.869 175.965 273.794 176.078 273.625C176.209 273.419 176.341 273.213 176.434 273.006C179.061 267.04 183.489 262.818 189.174 259.816C191.801 258.427 194.578 257.527 197.468 256.926C201.127 256.176 204.842 255.969 208.557 256.101C211.446 256.213 214.279 256.739 217.038 257.602C219.852 258.484 222.573 259.591 225.162 260.979C230.622 263.925 234.675 268.203 237.302 273.813C238.39 276.158 239.215 278.598 239.816 281.112C240.322 283.213 240.792 285.315 241.298 287.416C241.373 287.698 241.486 287.979 241.598 288.261C241.655 288.392 241.917 288.429 242.049 288.317C243.099 287.416 244.131 286.516 245.182 285.615C247.715 283.251 250.811 282.801 254.095 282.951C254.939 282.988 255.352 283.739 255.99 284.17Z" fill="#A1A0A0"/>
<path d="M64.7943 272.256C64.8131 272.931 65.0758 273.532 65.2634 274.17C65.5261 275.145 65.9013 276.102 65.9201 277.134C66.3704 278.767 66.2578 280.455 66.2766 282.125C66.2766 282.425 66.2766 282.726 66.2953 283.026C66.3329 283.514 66.6706 283.814 67.1397 283.664C67.8339 283.438 68.5469 283.438 69.2787 283.438C69.8416 283.438 70.3669 283.607 70.7985 283.926C72.0931 284.883 73.0125 286.103 73.1251 287.792C73.1626 288.279 73.2001 288.748 73.5191 289.142C73.5754 289.218 73.763 289.274 73.8193 289.236C74.0632 289.067 74.3259 288.899 74.5135 288.692C75.7331 287.322 77.253 286.403 78.8666 285.577C80.0487 284.977 81.2682 284.508 82.4878 284.001C83.032 283.776 83.6324 283.664 84.214 283.532C86.1466 283.101 87.7227 282.894 89.7304 283.101C91.9632 283.326 94.0459 284.039 95.7158 285.671C96.5789 286.516 97.3669 287.397 97.8172 288.542C98.0049 288.992 98.2863 289.368 98.7366 289.593C99.9375 292.313 99.7123 295.165 99.5059 298.017C99.4684 298.43 99.337 298.843 99.337 299.256C99.3558 299.875 98.8304 300.776 99.4872 301.057C100.256 301.395 101.101 300.944 101.645 300.231C101.833 300.006 102.001 299.744 102.264 299.612C102.621 299.912 102.583 300.325 102.639 300.738C102.696 301.132 102.94 301.357 103.334 301.395C104.197 301.451 105.003 301.883 105.904 301.826C108.456 302.164 110.557 304.735 110.82 307.849C111.064 310.833 110.501 313.685 109.657 316.536C109.056 318.563 109.094 318.582 111.158 318.788C114.104 319.107 116.092 320.814 117.5 323.272C118.194 324.473 118.7 324.567 119.789 323.648C122.491 321.321 125.08 321.058 127.707 322.616C130.146 324.06 131.722 327.607 131.178 330.552C130.821 332.541 129.94 334.324 128.607 335.825C127.65 336.894 127.163 337.945 127.632 339.39C127.857 340.122 127.801 340.928 127.669 341.716C127.35 343.668 126.243 344.662 124.292 344.794C124.048 344.812 123.804 344.794 123.579 344.794C101.101 344.794 78.6227 344.794 56.1445 344.794C55.8443 344.794 55.5441 344.794 55.2439 344.737C54.5872 344.7 53.9305 344.662 53.2738 344.662C47.5136 344.662 41.7533 344.737 36.0118 344.644C30.0076 344.55 24.0222 344.568 18.0181 344.493C15.4475 344.456 12.8582 344.437 10.2877 344.4C9.79986 344.4 9.33079 344.4 8.84295 344.362C8.52398 344.343 8.22377 344.212 8.12995 343.912C7.96109 343.368 7.60459 342.974 7.26685 342.58C6.25365 341.398 5.22168 340.215 4.24601 339.015C3.17651 337.701 2.35094 336.256 1.67547 334.699C1.11258 333.404 0.924949 332.054 1.01876 330.665C1.15011 328.676 2.35094 327.175 4.26477 326.575C4.84642 326.387 5.42808 326.331 6.02849 326.274C7.15428 326.181 8.29882 326.031 9.4246 325.88C9.64976 325.843 9.87492 325.73 10.1001 325.655C10.3065 325.58 10.4753 325.243 10.4003 325.074C10.2877 324.792 10.1939 324.511 10.025 324.267C9.64976 323.723 9.23697 323.197 8.86171 322.672C8.35511 321.94 7.79222 321.227 7.34191 320.439C4.54621 315.429 6.14107 310.195 9.55594 307.174C11.0195 305.879 12.6894 305.222 14.6595 305.316C15.8791 305.372 17.0424 305.598 18.1682 305.992C19.2377 306.367 20.3072 306.78 21.3767 307.155C21.7144 307.268 22.0709 307.361 22.4086 307.436C22.4461 307.455 22.5962 307.268 22.5962 307.192C22.5587 306.967 22.4649 306.742 22.3711 306.517C20.8701 303.421 19.8568 300.175 19.2189 296.798C18.8436 294.846 18.6748 292.876 18.8061 290.887C19.0125 287.585 20.007 284.546 22.0709 281.9C23.6282 279.93 25.5796 278.485 27.9625 277.622C30.139 276.834 32.2967 276.853 34.4732 277.603C35.3926 277.922 36.2557 278.316 37.0813 278.823C38.2446 279.555 39.4079 280.305 40.5525 281.074C42.335 282.294 44.0987 283.532 45.8812 284.752C46.0313 284.846 46.1814 284.94 46.3315 285.033C46.5754 285.183 46.9319 285.033 47.0257 284.714C47.1008 284.489 47.1571 284.264 47.2321 284.02C47.476 283.101 47.7012 282.163 47.9639 281.243C48.6393 278.842 49.6901 276.646 51.2099 274.676C52.2794 273.288 53.5365 272.087 54.9812 271.111C55.4316 270.811 55.8819 270.53 56.3697 270.286C58.7714 269.104 61.0229 269.423 63.1056 271.036C63.4809 271.336 63.7999 271.693 64.1564 272.031C64.3252 272.237 64.5504 272.256 64.7943 272.256Z" fill="#CFCECD"/>
<path d="M55.2627 344.775C55.9194 344.737 56.5761 344.681 57.2328 344.681C64.8506 344.681 72.4684 344.681 80.0862 344.681C93.5205 344.681 106.955 344.7 120.37 344.719C121.571 344.719 122.772 344.681 123.973 344.625C125.699 344.531 126.994 343.293 127.181 341.548C127.313 340.328 127.275 339.146 126.543 338.095C126.3 337.757 126.393 337.401 126.656 337.12C127.05 336.669 127.482 336.256 127.876 335.806C129.114 334.38 129.996 332.785 130.446 330.928C130.84 329.389 130.596 327.944 130.052 326.537C129.846 325.974 129.527 325.468 129.208 324.961C128.42 323.666 127.2 322.897 125.793 322.484C124.742 322.165 123.654 322.184 122.622 322.616C121.44 323.104 120.427 323.835 119.601 324.811C119.301 325.167 118.963 325.505 118.625 325.862C118.532 325.956 118.213 325.899 118.138 325.787C118.006 325.599 117.856 325.411 117.744 325.186C117.425 324.605 117.143 324.023 116.843 323.423C116.486 322.728 115.999 322.109 115.455 321.546C114.141 320.195 112.527 319.482 110.651 319.464C109.994 319.464 109.338 319.482 108.681 319.482C108.456 319.482 108.268 319.22 108.325 318.976C108.55 318.113 108.812 317.249 109.038 316.368C109.357 315.148 109.638 313.928 109.957 312.709C110.37 311.114 110.388 309.5 110.257 307.887C110.088 305.804 109.131 304.134 107.405 302.915C106.917 302.577 106.336 302.37 105.96 301.864H105.942C106.111 301.639 106.035 301.263 106.373 301.151C107.274 299.969 108.156 298.73 109.094 297.586C111.27 294.94 113.634 292.482 116.393 290.437C117.894 289.33 119.489 288.373 121.215 287.66C122.716 287.041 124.292 286.647 125.906 286.516C127.181 286.403 128.42 286.572 129.639 286.91C131.366 287.397 132.773 288.392 133.861 289.818C134.705 290.925 135.325 292.145 135.812 293.439C136.244 294.621 136.563 295.841 136.788 297.079C136.994 298.318 137.107 299.575 137.276 300.813C137.539 302.783 137.576 304.753 137.67 306.723C137.707 307.436 137.82 308.149 137.914 308.862C137.933 309.013 138.214 309.144 138.345 309.069C138.608 308.937 138.871 308.787 139.133 308.656C140.316 308.056 141.554 307.605 142.849 307.361C144.762 306.986 146.545 307.286 148.121 308.525C148.871 309.125 149.641 309.707 150.391 310.288C151.292 310.964 151.386 310.945 151.855 310.026C152.024 309.707 152.174 309.388 152.343 309.069C152.53 308.694 152.737 308.337 152.943 307.962C155.044 304.228 157.953 301.263 161.518 298.918C163.038 297.924 164.707 297.267 166.509 296.967C167.353 296.835 168.179 296.854 169.004 297.079C170.618 297.511 171.593 298.58 171.762 300.231C171.875 301.376 171.856 302.502 171.612 303.628C171.35 304.791 171.068 305.973 170.637 307.08C169.98 308.75 169.304 310.42 168.629 312.09C168.366 312.746 168.085 313.422 167.803 314.079C167.728 314.867 168.141 314.641 168.535 314.435C170.637 313.553 172.794 312.859 175.046 312.465C175.759 312.334 176.472 312.296 177.185 312.259C177.598 312.24 178.029 312.277 178.442 312.352C180.187 312.634 181.219 313.666 181.463 315.429C181.632 316.687 181.594 317.944 181.294 319.182C180.975 320.533 180.506 321.828 179.906 323.066C179.305 324.304 178.686 325.543 178.086 326.781C177.992 326.987 177.935 327.231 177.898 327.457C177.879 327.55 177.954 327.7 178.029 327.776C178.217 327.907 178.442 328.038 178.648 328.113C179.38 328.395 180.056 328.77 180.712 329.202C181.744 329.858 182.551 330.74 183.17 331.791C183.677 332.635 183.94 333.536 183.977 334.511C184.127 338.395 182.27 341.792 178.911 343.799C178.817 343.855 178.705 343.931 178.611 343.987C178.104 344.418 177.466 344.493 176.828 344.531C176.209 344.606 175.571 344.362 174.99 344.7C174.089 344.719 173.188 344.719 172.288 344.737C171.387 344.756 170.505 344.737 169.605 344.962C169.042 345.113 168.423 345.056 167.822 345.056C163.45 345.056 159.06 345.056 154.688 345.056C144.368 345.056 134.067 345.075 123.748 345.075C107.499 345.075 91.2502 345.075 75.0014 345.075C68.8847 345.075 62.7679 345.075 56.6512 345.075C56.1821 344.981 55.6942 345.094 55.2627 344.775Z" fill="#A1A0A0"/>
<path d="M270.794 325.918C271.788 323.892 272.182 321.753 272.238 319.501C272.332 316.63 271.6 313.947 270.606 311.302C270.043 309.782 268.974 308.656 267.735 307.699C265.99 306.367 264.001 305.598 261.806 305.391C261.506 305.354 261.206 305.354 260.924 305.279C260.155 305.072 259.386 305.054 258.616 305.035C258.204 305.035 257.772 305.016 257.359 305.016C255.295 304.997 255.051 305.166 256.065 303.046C256.834 301.432 257.509 299.762 258.072 298.055C258.71 296.104 259.029 294.115 258.935 292.051C258.917 291.45 258.935 290.869 258.954 290.268C259.48 290.4 259.498 290.4 259.648 290.043C260.211 288.58 260.755 287.135 261.318 285.671C262.669 282.144 264.058 278.635 265.596 275.183C267.21 271.562 268.974 268.015 270.944 264.582C272.97 261.035 275.222 257.639 277.473 254.243C279.875 250.641 282.277 247.076 284.697 243.492C285.71 241.991 286.723 240.509 287.755 239.045C288.131 238.501 288.562 237.994 288.975 237.488C289.088 237.357 289.238 237.244 289.388 237.15C289.857 236.812 290.532 237.038 290.682 237.6C290.739 237.826 290.795 238.088 290.758 238.295C290.626 238.933 290.476 239.589 290.288 240.208C289.707 242.16 288.975 244.074 288.225 245.969C286.799 249.59 285.354 253.211 283.947 256.851C283.384 258.296 282.84 259.76 282.333 261.242C281.132 264.694 279.894 268.147 278.787 271.618C277.06 276.984 275.391 282.369 273.927 287.81C272.839 291.807 271.713 295.785 270.606 299.762C270.456 300.288 270.362 300.813 270.25 301.338C270.231 301.376 270.287 301.451 270.325 301.489C270.362 301.526 270.437 301.545 270.475 301.526C270.681 301.432 270.925 301.338 271.094 301.188C272.951 299.518 275.165 298.449 277.436 297.492C280.776 296.104 284.247 295.165 287.737 294.34C290.307 293.739 292.878 293.158 295.448 292.576C295.917 292.464 296.386 292.351 296.874 292.426C297.212 292.482 297.512 292.914 297.362 293.252C297.268 293.458 297.156 293.702 296.987 293.852C296.386 294.434 295.767 294.997 295.111 295.541C294.454 296.085 293.891 296.685 293.328 297.304C291.133 299.687 289.144 302.239 287.061 304.716C285.41 306.686 283.703 308.637 282.033 310.589C281.676 311.001 281.376 311.433 281.057 311.883C280.888 312.127 281.113 312.502 281.432 312.521C281.545 312.521 281.676 312.559 281.789 312.54C283.271 312.352 284.753 312.108 286.123 311.452C287.755 310.664 289.294 309.782 290.626 308.506C291.32 307.849 292.09 307.268 292.84 306.667C293.178 306.386 293.722 306.555 293.891 306.967C294.004 307.249 294.135 307.53 294.135 307.812C294.154 308.525 294.191 309.256 294.097 309.969C293.797 312.108 293.403 314.229 292.878 316.33C292.653 317.268 292.427 318.188 292.221 319.126C292.127 319.539 292.296 319.783 292.765 319.876C293.122 319.951 293.478 320.083 293.816 320.083C294.923 320.064 295.955 320.439 296.931 320.871C297.906 321.302 298.863 321.809 299.839 322.297C299.989 322.372 300.12 322.503 300.252 322.634C300.496 322.86 300.571 323.366 300.383 323.629C300.177 323.929 299.97 324.211 299.707 324.454C298.375 325.712 297.362 327.175 296.518 328.77C295.448 330.796 294.51 332.86 293.76 335.018C293.478 335.806 293.215 336.613 292.915 337.401C292.315 339.052 291.883 340.722 291.958 342.486C291.958 342.73 291.958 342.974 291.902 343.199C291.771 343.968 291.508 344.268 290.72 344.268C288.731 344.268 286.761 344.268 284.772 344.268C284.059 344.268 283.327 344.306 282.614 344.325C280.175 344.512 277.736 344.343 275.278 344.418C274.209 344.437 274.058 343.874 274.715 343.274C276.742 341.454 276.854 339.315 276.066 336.913C275.803 336.106 276.047 335.243 276.254 334.436C276.535 333.329 276.629 332.204 276.61 331.059C276.573 327.794 275.428 326.593 272.126 326.293C271.619 326.331 271.131 326.331 270.794 325.918Z" fill="#CFCECD"/>
<path d="M270.794 325.918C270.981 325.918 271.169 325.956 271.319 325.88C272.407 325.393 273.439 325.768 274.471 326.031C275.128 326.199 275.672 326.593 276.085 327.119C276.76 327.982 277.267 328.92 277.267 330.046C277.267 330.815 277.267 331.603 277.267 332.372C277.267 332.917 277.192 333.442 277.023 333.967C276.854 334.53 276.704 335.112 276.573 335.694C276.441 336.294 276.423 336.894 276.742 337.438C277.248 338.302 277.286 339.259 277.267 340.215C277.248 341.172 276.892 341.96 276.235 342.617C275.766 343.086 275.278 343.499 274.79 343.949C274.771 343.968 274.771 344.062 274.79 344.099C274.809 344.137 274.846 344.212 274.903 344.212C275.203 344.231 275.503 344.268 275.803 344.268C277.53 344.268 279.275 344.268 281.001 344.268C281.545 344.268 282.07 344.325 282.614 344.343C282.389 344.418 282.164 344.55 281.939 344.568C281.526 344.606 281.095 344.587 280.682 344.587C273.42 344.606 266.178 344.625 258.917 344.625C258.072 344.625 257.247 344.606 256.421 344.85C256.027 344.962 255.596 344.944 255.164 344.944C249.235 344.944 243.306 344.944 237.358 344.944C236.945 344.944 236.495 344.962 236.101 344.85C235.331 344.643 234.562 344.644 233.774 344.644C230.416 344.644 227.057 344.644 223.698 344.644C223.042 344.644 222.385 344.606 221.728 344.587C221.559 344.212 221.409 343.818 221.203 343.443C220.19 341.585 219.552 339.596 218.97 337.57C218.689 336.594 218.539 335.581 218.407 334.568C218.295 333.78 218.426 333.01 218.576 332.26C218.614 332.035 218.726 331.81 218.839 331.603C219.327 330.759 220.171 330.552 220.978 331.059C221.503 331.378 221.916 331.81 222.291 332.279C222.666 332.748 223.004 333.236 223.379 333.705C223.436 333.78 223.567 333.817 223.68 333.836C223.83 333.855 223.886 333.761 223.905 333.611C223.924 333.142 223.961 332.654 223.98 332.185C224.092 330.215 224.167 328.226 224.355 326.274C224.637 323.235 225.068 320.214 226.119 317.306C226.644 315.842 227.263 314.397 228.014 313.047C228.295 312.521 228.652 312.033 229.027 311.564C229.215 311.339 229.459 311.151 229.703 310.983C230.303 310.57 231.147 310.682 231.71 311.17C232.217 311.621 232.536 312.183 232.798 312.803C233.324 314.022 233.718 315.279 234.018 316.555C234.262 317.606 234.506 318.657 234.656 319.726C234.975 321.865 235.219 324.004 235.519 326.143C235.594 326.669 235.726 327.194 235.857 327.7C235.876 327.757 236.101 327.813 236.157 327.776C236.401 327.588 236.607 327.382 236.833 327.175C238.615 325.524 240.716 324.623 243.156 324.53C244.056 324.492 244.957 324.53 245.858 324.53C246.814 324.53 247.771 324.548 248.728 324.53C249.179 324.53 249.516 324.229 249.629 323.779C249.742 323.254 249.817 322.728 249.873 322.184C250.042 320.571 250.361 318.994 250.961 317.475C251.918 315.054 253.457 313.122 255.596 311.658C256.14 311.283 256.721 310.964 257.341 310.757C259.404 310.063 261.224 310.438 262.763 312.033C263.439 312.728 263.908 313.572 264.227 314.473C264.658 315.673 264.902 316.893 264.958 318.169C265.033 319.914 264.958 321.64 264.789 323.366C264.733 324.023 264.696 324.68 264.639 325.336C264.583 325.843 264.677 326.293 265.165 326.575C265.746 326.931 266.009 327.569 266.403 328.095C266.497 328.226 266.741 328.245 266.891 328.132C266.985 328.057 267.097 328.001 267.172 327.926C268.242 326.987 269.443 326.331 270.794 325.918Z" fill="#F6F6F6"/>
<path d="M255.99 284.17C255.821 284.133 255.614 284.133 255.483 284.039C254.207 283.307 252.837 283.363 251.468 283.589C249.573 283.908 247.734 284.433 246.026 285.334C245.764 285.465 245.464 285.502 245.182 285.596C245.276 285.183 245.332 284.771 245.464 284.377C246.327 281.769 247.377 279.217 248.428 276.665C250.117 272.575 251.899 268.522 253.776 264.507C255.352 261.092 256.89 257.639 258.448 254.206C258.635 253.774 258.804 253.305 259.179 252.986C259.367 252.817 259.892 252.93 259.93 253.174C259.967 253.399 260.024 253.662 259.949 253.868C259.761 254.431 259.536 254.994 259.311 255.538C258.185 258.202 257.509 260.979 257.097 263.831C256.909 265.126 256.721 266.439 256.534 267.734C256.515 267.903 256.459 268.09 256.459 268.259C256.402 270.286 255.99 272.293 255.99 274.338C255.99 275.051 255.877 275.764 255.802 276.477C255.783 276.721 255.746 276.946 255.746 277.19C255.708 279.048 255.671 280.905 255.633 282.763C255.596 283.307 255.727 283.757 255.99 284.17Z" fill="#CFCECD"/>
</g>
<path d="M33.6945 325.918C32.7001 323.892 32.3061 321.753 32.2498 319.501C32.156 316.63 32.8877 313.947 33.8822 311.302C34.4451 309.782 35.5146 308.656 36.7529 307.699C38.4979 306.367 40.4868 305.598 42.682 305.391C42.9823 305.354 43.2825 305.354 43.5639 305.279C44.3332 305.072 45.1025 305.054 45.8718 305.035C46.2845 305.035 46.7161 305.016 47.1289 305.016C49.1928 304.997 49.4367 305.166 48.4235 303.046C47.6542 301.432 46.9788 299.762 46.4159 298.055C45.7779 296.104 45.459 294.115 45.5528 292.051C45.5716 291.45 45.5528 290.869 45.534 290.268C45.0087 290.4 44.9899 290.4 44.8398 290.043C44.2769 288.58 43.7328 287.135 43.1699 285.671C41.8189 282.144 40.4305 278.635 38.8919 275.183C37.2783 271.562 35.5146 268.015 33.5445 264.582C31.518 261.035 29.2665 257.639 27.0149 254.243C24.6132 250.641 22.2116 247.076 19.7911 243.492C18.7779 241.991 17.7647 240.509 16.7328 239.045C16.3575 238.501 15.926 237.994 15.5132 237.488C15.4006 237.357 15.2505 237.244 15.1004 237.15C14.6313 236.812 13.9558 237.038 13.8057 237.6C13.7494 237.826 13.6932 238.088 13.7307 238.295C13.862 238.933 14.0121 239.589 14.1998 240.208C14.7814 242.16 15.5132 244.074 16.2637 245.969C17.6897 249.59 19.1344 253.211 20.5417 256.851C21.1046 258.296 21.6487 259.76 22.1553 261.242C23.3561 264.694 24.5945 268.147 25.7015 271.618C27.4277 276.984 29.0976 282.369 30.5611 287.81C31.6494 291.807 32.7752 295.785 33.8822 299.762C34.0323 300.288 34.1261 300.813 34.2387 301.338C34.2574 301.376 34.2011 301.451 34.1636 301.489C34.1261 301.526 34.0511 301.545 34.0135 301.526C33.8071 301.432 33.5632 301.338 33.3943 301.188C31.5368 299.518 29.3228 298.449 27.0524 297.492C23.7126 296.104 20.2415 295.165 16.7515 294.34C14.181 293.739 11.6105 293.158 9.03992 292.576C8.57085 292.464 8.10177 292.351 7.61393 292.426C7.2762 292.482 6.976 292.914 7.1261 293.252C7.21992 293.458 7.33249 293.702 7.50136 293.852C8.10178 294.434 8.72096 294.997 9.37766 295.541C10.0344 296.085 10.5973 296.685 11.1602 297.304C13.3554 299.687 15.3443 302.239 17.427 304.716C19.0782 306.686 20.7856 308.637 22.4555 310.589C22.812 311.001 23.1122 311.433 23.4312 311.883C23.6 312.127 23.3749 312.502 23.0559 312.521C22.9433 312.521 22.812 312.559 22.6994 312.54C21.2171 312.352 19.7349 312.108 18.3652 311.452C16.7328 310.664 15.1942 309.782 13.862 308.506C13.1678 307.849 12.3985 307.268 11.648 306.667C11.3103 306.386 10.7661 306.555 10.5973 306.967C10.4847 307.249 10.3533 307.53 10.3533 307.812C10.3346 308.525 10.2971 309.256 10.3909 309.969C10.6911 312.108 11.0851 314.229 11.6105 316.33C11.8356 317.268 12.0608 318.188 12.2672 319.126C12.361 319.539 12.1921 319.783 11.723 319.876C11.3665 319.951 11.0101 320.083 10.6723 320.083C9.5653 320.064 8.53334 320.439 7.55766 320.871C6.58198 321.302 5.62507 321.809 4.64939 322.297C4.49929 322.372 4.36793 322.503 4.23659 322.634C3.99267 322.86 3.91763 323.366 4.10526 323.629C4.31165 323.929 4.51804 324.211 4.78072 324.454C6.1129 325.712 7.1261 327.175 7.97044 328.77C9.03993 330.796 9.97807 332.86 10.7286 335.018C11.01 335.806 11.2727 336.613 11.5729 337.401C12.1733 339.052 12.6049 340.722 12.5299 342.486C12.5299 342.73 12.5299 342.974 12.5861 343.199C12.7175 343.968 12.9802 344.268 13.7682 344.268C15.7571 344.268 17.7272 344.268 19.7161 344.268C20.4291 344.268 21.1608 344.306 21.8738 344.325C24.313 344.512 26.7522 344.343 29.2102 344.418C30.2797 344.437 30.4298 343.874 29.7731 343.274C27.7467 341.454 27.6341 339.315 28.4221 336.913C28.6848 336.106 28.4409 335.243 28.2345 334.436C27.9531 333.329 27.8592 332.204 27.878 331.059C27.9155 327.794 29.0601 326.593 32.3624 326.293C32.869 326.331 33.3568 326.331 33.6945 325.918Z" fill="#A1A0A0"/>
<path d="M114.306 42.8449C109.269 39.3184 127.349 20.6497 116.057 17.5472C104.765 14.4446 38.8354 63.9308 44.3239 98.8233C49.8124 133.716 104.853 88.4436 109.373 95.6177C113.893 102.792 30.2722 164.904 62.2346 191.97C94.197 219.036 139.727 159.432 146.863 167.91C154 176.389 106.978 205.909 149.897 233.502C183.076 254.833 270.991 172.42 264.677 153.164C258.363 133.909 226.872 162.783 222.544 155.788C218.215 148.792 276.491 92.5283 260.348 65.136C244.205 37.7437 187.091 87.4471 183.076 83.1387C179.06 78.8303 233.305 39.5578 212.155 17.5472C191.004 -4.46347 119.342 46.3713 114.306 42.8449Z" fill="#E0ECFF"/>
<g clip-path="url(#clip1_1764_1902)">
<path d="M121.142 327.226C117.076 318.315 113.788 309.404 111.279 300.233C111.106 299.714 110.933 299.195 110.846 298.589C107.991 287.428 105.569 276.181 99.9449 265.712C94.2347 255.157 91.9852 243.131 91.2931 230.672C87.5728 231.97 84.1121 233.181 80.4783 234.393C69.8366 237.853 59.1948 241.314 47.7744 241.747C45.3519 241.833 42.8429 241.747 40.4204 241.141C36.5271 240.103 33.9315 237.853 32.8933 233.873C32.1146 231.105 31.0764 228.336 30.2112 225.568C27.0966 215.185 29.4326 208.87 38.7765 203.419C51.8408 195.805 64.4724 187.5 76.8445 178.761C94.3212 166.389 111.279 153.325 127.804 139.742C131.351 136.8 134.466 133.426 137.926 130.398C139.484 129.013 139.224 128.408 137.84 127.11C132.13 122.092 127.631 116.122 124.776 109.028C117.941 92.0701 124.257 75.4586 140.695 67.5855C169.073 53.8291 210.515 72.2574 218.821 102.279C220.465 108.336 220.638 114.478 218.907 120.535C218.388 122.351 218.475 123.044 220.724 123.13C223.666 123.217 225.396 125.12 225.742 128.062C226.002 130.657 224.877 132.734 222.368 133.685C219.686 134.724 217.177 134.118 215.62 131.609C214.581 129.879 214.062 129.619 212.678 131.263C209.217 135.329 204.891 138.357 199.873 140.261C197.883 141.039 197.71 141.732 198.489 143.635C205.324 160.506 214.408 176.166 224.445 191.306C230.155 199.958 234.048 209.302 234.654 219.684C234.74 221.155 235.432 222.193 236.384 223.145C241.921 228.596 247.891 233.614 254.812 237.075C264.502 241.92 266.146 252.821 262.772 261.3C259.917 268.481 254.466 273.499 248.064 277.392C236.99 284.227 224.704 286.736 211.899 287.861C204.026 288.553 196.24 288.553 188.366 287.861C186.377 287.688 185.684 288.12 185.684 290.283C185.425 302.05 184.3 313.816 180.32 324.977C179.369 327.746 181.359 327.053 182.57 327.053C198.143 327.746 213.716 328.438 229.203 330.168C240.104 331.379 251.006 332.764 261.647 335.619C264.762 336.484 267.963 337.349 270.732 339.166C273.933 341.242 273.933 343.232 270.818 345.309C268.482 346.866 265.8 347.731 263.118 348.51C246.939 352.922 230.328 354.48 213.63 355.777C172.188 358.806 130.745 358.806 89.3897 355.777C72.9512 354.566 56.5993 353.009 40.5934 348.596C37.7383 347.818 34.9697 346.953 32.5472 345.309C29.5191 343.232 29.5191 341.329 32.5472 339.339C35.4023 337.436 38.6035 336.484 41.8912 335.705C60.2331 331.033 79.0075 329.649 97.7819 328.351C105.482 327.919 113.182 327.573 121.142 327.226ZM119.411 150.037C119.671 149.778 119.844 149.432 120.104 149.172C120.104 148.913 120.277 148.48 120.19 148.393C119.844 148.22 119.758 148.566 119.758 148.826C119.325 148.74 119.065 148.999 118.979 149.345C118.719 149.518 118.46 149.778 118.2 149.951C106.607 159.035 95.0134 168.12 83.4199 177.204C82.7278 177.81 82.1222 178.329 81.9491 179.367C79.6996 190.96 79.3536 202.381 83.939 213.542C85.3233 217.348 87.6593 220.463 91.0335 223.578C91.4661 218.127 91.8987 213.455 92.2448 208.697C93.456 203.679 94.4943 198.661 95.9651 193.729C100.637 177.723 109.029 163.621 118.979 150.47C119.152 150.383 119.325 150.21 119.411 150.037ZM191.741 140.174C196.499 139.482 200.566 137.319 204.545 134.81C205.064 134.464 206.276 134.118 205.324 133.166C202.728 130.571 204.026 127.543 204.459 124.687C205.151 123.13 205.93 121.573 206.622 120.015C208.958 117.506 211.034 114.392 214.581 113.613C216.744 113.094 216.831 111.969 216.658 110.325C215.447 98.4725 209.477 89.388 200.306 82.1205C199.614 81.6879 198.749 81.2553 198.143 80.6497C194.423 76.8429 189.837 74.68 184.992 72.8631C180.147 70.354 175.129 68.5372 169.592 68.7102C168.294 67.3259 166.65 68.5372 165.266 68.1911C156.701 66.0281 148.568 68.0181 140.955 71.7383C127.977 78.0542 122.094 91.2049 126.16 104.875C129.967 117.766 138.445 126.937 150.125 133.426C153.759 136.194 157.999 137.579 162.151 138.963C171.236 141.818 180.407 142.683 189.751 140.693C190.27 140.866 190.789 140.78 191.135 140.347C191.308 140.261 191.481 140.174 191.741 140.174ZM238.46 277.652C245.728 274.277 252.303 269.951 257.062 263.29C263.464 253.426 262.166 242.785 247.977 237.075C249.016 242.612 249.708 248.062 249.362 253.513C248.583 262.857 245.036 270.817 238.028 277.132C237.855 277.306 237.422 277.652 237.422 277.652C237.768 278.171 238.114 277.911 238.46 277.652ZM46.4767 218.127C51.2352 218.041 55.7341 216.829 60.1465 215.359C65.4241 213.628 66.8084 209.908 64.559 204.544C63.6938 202.294 63.3477 199.18 59.887 200.391C53.4846 202.554 47.4284 205.236 42.5833 210.167C41.026 211.811 39.5552 213.715 40.6799 216.137C41.8047 218.733 44.1407 218.473 46.4767 218.127ZM44.4867 221.242C41.6316 220.636 39.0361 219.684 38.2574 216.397C37.4788 213.109 39.2091 210.773 41.4586 208.783C43.0159 207.399 44.8328 206.188 46.6497 205.063C47.861 204.284 48.8127 203.592 47.9475 201.948C45.0059 203.765 42.0642 205.409 39.2091 207.226C32.9798 211.033 30.9034 215.791 32.7203 222.886C33.672 226.779 34.9697 230.586 36.181 234.393C36.9597 236.988 39.0361 238.026 41.3721 238.632C46.0441 239.843 50.7161 239.324 55.388 238.718C57.2914 238.459 56.8588 237.594 55.9937 236.555C53.1386 233.181 51.0621 229.288 50.1104 224.962C49.2452 221.674 47.7744 220.377 44.4867 221.242ZM182.224 216.829C185.511 220.723 188.799 220.723 191.741 216.829C195.028 212.59 196.672 207.572 197.191 202.294C197.797 195.632 194.855 192.518 187.847 192.345C183.694 192.258 181.012 193.815 179.455 197.968C177.119 204.717 177.638 211.033 182.224 216.829ZM155.836 332.158C146.059 334.754 136.542 333.542 126.939 329.216C135.763 345.309 140.349 346.866 150.645 345.741C163.449 346.26 178.936 331.725 177.811 320.045C171.149 325.583 163.795 329.389 155.836 332.158ZM57.1184 235.604C57.8971 237.853 59.3679 238.199 61.6173 237.68C70.8748 235.604 79.9592 232.835 88.9571 229.721C91.6392 228.769 92.2448 226.433 90.3414 224.356C88.611 222.453 86.7941 220.636 84.9773 218.819C83.939 216.829 82.9008 214.926 81.7761 212.936C77.5367 202.035 78.4019 190.874 80.9974 179.107C70.7018 186.634 60.9252 193.642 50.7161 200.131C49.6778 200.823 49.3318 201.775 49.8509 203.159C52.7925 201.775 55.6476 200.304 58.5027 199.007C60.3196 198.228 62.1365 197.882 63.8668 199.18C70.1826 203.852 69.4905 214.234 62.569 217.868C59.887 219.252 56.9454 220.03 53.9172 220.204C51.0621 220.377 50.1104 221.501 51.7543 224.097C52.4464 228.509 54.1768 232.316 57.1184 235.604ZM197.105 175.041C196.932 175.214 196.759 175.474 196.326 175.301C189.751 171.321 187.847 171.58 182.137 177.464C172.015 186.894 163.795 197.622 159.815 211.119C156.787 221.155 157.133 230.759 163.709 239.584C166.391 243.217 169.592 245.467 172.88 246.072C172.62 245.034 172.274 243.996 172.188 242.958C171.149 234.998 173.399 227.644 176.167 220.377C177.292 217.435 177.638 214.926 176.687 211.811C174.004 202.554 177.638 193.989 185.079 190.874C189.145 190.787 193.731 190.355 196.326 193.729C198.835 197.017 201.69 196.844 205.238 196.757C204.805 195.546 204.545 194.508 204.199 193.469C202.036 187.586 201.085 181.184 197.797 175.733C198.576 176.166 199.527 176.858 199.095 175.041C197.71 169.504 196.672 163.88 194.682 158.516C191.827 151.162 189.232 149.259 181.532 148.999C181.445 148.999 181.272 148.74 181.099 148.48C183.521 146.836 186.03 147.961 188.453 148.393C192.173 150.47 194.423 153.671 195.98 157.478C197.624 161.544 198.749 165.784 199.787 170.023C202.296 180.146 204.891 190.182 209.131 199.785C213.716 210.167 213.716 220.636 209.477 231.105C209.217 231.451 209.044 231.71 208.785 232.057C209.304 232.403 209.736 232.316 210.083 231.71C217.437 222.886 221.243 212.503 223.493 201.343C224.098 198.401 223.579 196.238 221.676 193.989C210.688 180.492 203.421 165.091 197.451 148.913C194.942 142.164 195.028 142.164 187.674 143.635C177.638 144.5 167.862 143.289 158.431 139.482C156.874 138.79 155.922 139.309 155.143 140.607C152.202 142.943 150.039 145.884 148.049 148.999C142.079 158.516 140.176 169.331 137.84 180.059C137.407 182.136 138.792 183.347 140.262 184.472C143.637 186.981 147.703 187.932 151.683 189.144C153.327 189.663 154.019 189.317 154.278 187.5C155.143 182.741 156.614 178.156 158.691 173.83C162.671 165.264 168.381 157.91 175.562 151.768C176.427 151.854 177.206 149.778 178.244 151.595C168.294 159.468 161.459 169.504 157.826 181.703C154.192 193.729 155.317 205.842 156.787 218.041C158.085 209.735 160.94 202.035 165.266 194.854C170.284 186.461 177.206 179.8 184.387 173.397C190.183 170.369 193.385 170.802 197.105 175.041ZM193.385 245.034C197.797 242.525 201.344 239.151 204.026 234.825C210.948 223.751 211.64 212.244 206.795 200.218C205.497 196.93 202.815 197.709 200.566 197.882C197.97 198.055 199.787 200.131 199.614 201.256C198.662 209.821 197.451 218.214 188.886 223.059C184.473 224.01 181.705 221.242 179.023 218.041C177.033 222.107 175.821 226 174.61 229.98C173.139 234.739 172.793 239.584 173.745 244.515C174.091 246.332 174.783 247.37 176.773 247.803C182.829 249.187 188.28 248.408 193.385 245.034ZM166.391 325.842C170.371 324.198 173.658 321.516 177.206 319.18C178.936 317.969 179.801 316.585 180.234 314.595C182.051 307.068 182.916 299.368 183.521 291.667C183.868 287.428 182.829 286.649 178.59 287.428C177.811 287.601 177.119 287.861 176.34 288.12C167.862 290.629 159.21 292.533 150.298 293.138C138.705 294.004 127.458 292.965 117.162 286.909C114.566 285.438 112.23 283.535 109.548 281.631C109.894 284.487 110.414 286.909 111.365 289.332C111.625 290.197 111.884 291.148 112.057 292.014C114.913 303.78 119.238 315.114 124.776 325.842C125.208 326.621 125.727 327.313 126.592 327.746C136.715 332.591 146.924 333.196 157.479 329.303C160.767 328.957 163.622 327.486 166.391 325.842ZM209.823 284.66C214.322 284.746 218.648 283.535 223.06 282.756C233.356 280.939 240.018 274.71 244.344 265.626C248.237 257.406 248.497 248.841 247.285 240.016C246.853 236.815 245.555 234.566 242.959 232.576C239.845 230.24 236.903 227.558 234.308 224.702C230.155 220.117 226.434 215.185 224.272 209.302C224.012 208.61 223.406 207.745 224.618 207.399C225.483 207.139 225.656 208.091 225.915 208.697C227.386 212.071 229.29 215.185 231.799 218.214C231.712 212.763 228.078 203.246 224.618 199.526C223.147 211.292 219.08 221.934 212.592 231.71C204.805 242.006 194.855 249.447 182.829 254.119C178.763 255.157 174.956 257.32 170.544 256.974C177.638 255.07 181.012 253.686 182.829 251.956C167.602 250.658 159.815 244.169 155.836 229.288C153.067 218.733 153.067 208.004 153.24 197.19C153.24 195.113 154.192 192.518 153.327 190.96C152.288 189.143 149.26 189.663 147.184 188.97C146.578 188.711 145.886 188.538 145.28 188.365C136.888 185.51 135.677 183.433 137.321 174.781C139.484 163.448 142.858 152.546 150.731 143.721C152.288 141.991 153.932 140.347 155.663 138.617C151.25 136.54 146.924 134.551 143.291 131.609C141.56 130.225 140.608 130.571 139.138 131.955C130.486 140.347 122.699 149.345 116.037 159.381C97.8685 186.808 90.8605 216.483 98.6471 249.014C99.1662 251.004 99.9449 252.388 101.762 253.426C111.798 259.31 122.526 262.857 134.206 263.376C134.985 263.376 135.763 263.549 136.542 263.636C123.305 264.847 111.192 261.732 99.6853 253.253C102.627 262.078 104.617 269.951 110.327 276.267C114.74 282.237 120.709 285.871 127.804 287.947C129.361 288.466 131.005 289.072 132.562 289.418C145.886 292.1 159.037 290.283 172.101 287.169C172.274 287.082 172.447 286.736 172.534 286.563C168.64 285.784 164.747 285.006 160.94 284.227C160.854 281.804 162.498 282.929 163.449 283.016C166.996 283.448 170.544 284.14 174.091 284.573C185.944 285.611 197.883 286.303 209.823 284.66ZM209.131 126.418C213.024 127.11 216.831 126.937 218.302 131.436C218.648 132.474 220.292 132.041 221.33 131.436C222.887 130.484 223.752 129.1 223.233 127.283C222.974 126.331 222.455 124.947 221.416 125.293C217.264 126.937 215.706 124.082 213.976 120.881C212.332 122.784 210.775 124.428 209.131 126.418ZM212.072 128.581C209.563 128.754 208.525 125.812 206.622 127.543C205.93 128.235 205.584 130.484 206.881 131.176C208.871 132.128 210.083 130.311 212.072 128.581Z" fill="#2252A0"/>
<path d="M110.241 276.094C104.53 269.778 102.54 261.905 99.5988 253.08C111.106 261.646 123.218 264.674 136.456 263.463C135.677 263.376 134.898 263.203 134.12 263.203C122.44 262.684 111.711 259.137 101.675 253.253C99.8584 252.215 98.9932 250.831 98.5606 248.841C90.774 216.31 97.782 186.634 115.951 159.208C122.613 149.172 130.399 140.088 139.051 131.782C140.522 130.398 141.474 130.052 143.204 131.436C146.838 134.377 151.164 136.367 155.576 138.444C153.846 140.261 152.115 141.818 150.645 143.548C142.771 152.373 139.397 163.275 137.234 174.608C135.59 183.26 136.802 185.25 145.194 188.192C145.8 188.451 146.492 188.624 147.097 188.797C149.174 189.576 152.202 189.057 153.24 190.787C154.105 192.345 153.24 194.854 153.154 197.017C152.981 207.745 152.981 218.56 155.749 229.115C159.642 243.996 167.429 250.571 182.743 251.783C181.012 253.513 177.552 254.897 170.457 256.801C174.87 257.147 178.676 254.984 182.743 253.946C183.175 258.012 186.55 259.829 189.318 261.905C193.212 264.76 197.537 267.183 201.431 270.038C204.372 272.201 204.199 273.499 201.344 275.662C195.721 280.074 189.405 280.68 182.656 279.468C177.811 278.603 173.053 277.825 168.208 277.219C159.556 276.094 150.818 275.316 143.204 270.298C142.512 269.865 141.733 269.778 140.955 269.865C140.176 269.865 139.311 269.605 138.792 270.384C138.272 271.249 138.878 271.855 139.397 272.461C140.868 274.45 142.425 276.354 143.723 278.43C144.329 279.382 145.713 280.247 144.934 281.631C144.242 283.016 142.771 282.67 141.56 282.583C131.524 282.41 121.834 281.112 112.923 276.094C112.057 275.662 111.279 274.623 110.241 276.094Z" fill="#F4F4F6"/>
<path d="M150.039 133.339C138.445 126.85 129.88 117.679 126.073 104.788C122.094 91.0319 127.977 77.8811 140.868 71.6518C148.482 67.9315 156.614 65.9416 165.18 68.1046C166.65 68.4506 168.208 67.3259 169.506 68.6237C167.343 70.7866 165.872 73.1226 168.208 76.0642C161.632 74.4204 155.057 72.69 148.136 73.2957C143.637 73.7283 140.781 76.2373 138.619 79.871C137.407 81.861 138.272 82.8127 140.349 82.8127C142.944 82.8127 145.453 82.6396 148.049 82.5531C158.085 81.9475 167.516 83.5913 175.821 89.5611C174.264 91.724 174.956 93.8005 175.994 95.8769C178.244 100.376 178.244 105.048 177.206 109.806C174.783 120.708 167.689 126.418 157.133 128.667C154.451 129.359 150.558 129.013 150.039 133.339ZM155.143 98.559C155.663 100.03 156.095 101.155 156.441 102.279C157.566 106 158.777 106.432 161.805 104.096C162.498 103.577 163.017 102.712 163.968 102.798C164.834 102.885 164.92 102.366 164.834 101.847C164.747 101.328 164.487 100.462 163.882 100.722C160.508 102.539 158.172 99.7702 155.143 98.559Z" fill="#FEFEFE"/>
<path d="M110.241 276.094C111.192 274.623 112.057 275.662 113.009 276.181C121.921 281.112 131.611 282.497 141.647 282.67C142.858 282.67 144.242 283.016 145.021 281.718C145.8 280.334 144.415 279.382 143.81 278.517C142.512 276.44 140.955 274.537 139.484 272.547C139.051 271.941 138.359 271.336 138.878 270.471C139.397 269.692 140.262 269.951 141.041 269.951C141.82 269.951 142.598 269.951 143.291 270.384C150.904 275.402 159.642 276.181 168.294 277.306C173.139 277.998 177.984 278.776 182.743 279.555C189.491 280.68 195.807 280.074 201.431 275.748C204.286 273.499 204.545 272.287 201.517 270.125C197.624 267.269 193.298 264.847 189.405 261.992C186.636 259.915 183.262 258.185 182.829 254.032C194.855 249.36 204.805 241.92 212.592 231.624C216.225 233.96 219.859 236.296 223.406 238.718C225.569 240.276 228.251 241.66 229.463 243.823C233.875 251.61 235.346 258.272 229.982 266.664C225.829 273.066 220.638 278.517 213.024 281.112C211.38 281.631 209.477 282.237 209.736 284.66C197.797 286.217 185.857 285.525 173.918 284.313C170.371 283.967 166.823 283.189 163.276 282.756C162.325 282.67 160.594 281.545 160.767 283.967C158.431 283.535 156.268 283.794 153.932 284.14C147.443 285.352 140.868 286.044 134.206 286.39C132.13 286.476 129.188 284.573 127.631 287.688C120.709 285.784 114.653 282.064 110.241 276.094Z" fill="#DDDBDC"/>
<path d="M157.566 329.389C147.011 333.283 136.715 332.677 126.679 327.832C125.814 327.4 125.295 326.707 124.862 325.929C119.325 315.114 114.999 303.867 112.144 292.1C114.826 291.927 116.037 294.696 118.2 295.301C124.689 297.205 131.351 298.329 138.186 298.935C144.675 299.541 151.164 299.541 157.653 299.541C159.21 299.541 160.421 300.233 160.681 301.617C161.546 306.808 161.546 311.826 159.988 317.017C158.777 320.997 157.306 325.064 157.566 329.389Z" fill="#F4F4F6"/>
<path d="M209.823 284.66C209.477 282.237 211.467 281.631 213.111 281.112C220.638 278.517 225.915 273.066 230.068 266.664C235.519 258.358 234.048 251.61 229.549 243.823C228.338 241.66 225.656 240.276 223.493 238.718C219.946 236.209 216.312 233.96 212.678 231.624C219.167 221.847 223.147 211.206 224.704 199.439C228.165 203.073 231.799 212.676 231.885 218.127C229.29 215.099 227.386 211.984 226.002 208.61C225.742 208.004 225.569 207.139 224.704 207.312C223.493 207.658 224.098 208.524 224.358 209.216C226.521 215.099 230.241 220.03 234.394 224.616C236.99 227.471 239.931 230.24 243.046 232.489C245.641 234.479 246.939 236.728 247.372 239.93C248.583 248.755 248.237 257.406 244.43 265.539C240.104 274.71 233.442 280.939 223.147 282.67C218.734 283.535 214.408 284.746 209.823 284.66Z" fill="#CAC8C8"/>
<path d="M175.648 151.681C168.467 157.824 162.757 165.178 158.777 173.743C156.701 178.156 155.23 182.655 154.365 187.413C154.019 189.23 153.327 189.576 151.769 189.057C147.789 187.846 143.723 186.981 140.349 184.385C138.878 183.26 137.494 182.049 137.926 179.973C140.262 169.244 142.166 158.43 148.136 148.913C150.125 145.798 152.288 142.77 155.23 140.52C156.874 141.385 158.864 141.991 160.162 143.202C164.574 147.528 170.025 149.691 175.648 151.681Z" fill="#F4F4F6"/>
<path d="M150.039 133.339C150.558 129.013 154.451 129.273 157.133 128.754C167.689 126.418 174.87 120.794 177.206 109.893C178.244 105.134 178.33 100.462 175.994 95.9634C174.956 93.887 174.351 91.8106 175.821 89.6476C181.618 93.0218 185.684 98.1264 189.924 103.231C192 105.653 193.731 108.509 197.018 109.633C197.364 112.575 196.413 115.084 195.201 117.853C191.741 125.466 186.463 131.176 179.542 135.416C175.129 138.098 170.111 137.492 165.266 137.579C164.055 137.579 162.411 136.973 162.065 139.049C157.826 137.492 153.586 136.108 150.039 133.339Z" fill="#F4F4F6"/>
<path d="M185.079 190.787C177.638 193.989 174.004 202.467 176.687 211.725C177.638 214.839 177.292 217.435 176.167 220.29C173.399 227.558 171.149 234.912 172.188 242.871C172.361 243.91 172.707 244.948 172.88 245.986C169.592 245.467 166.391 243.131 163.709 239.497C157.22 230.759 156.874 221.155 159.815 211.033C163.795 197.536 172.015 186.808 182.137 177.377C182.397 180.405 182.397 183.52 182.483 186.548C182.57 188.97 183.089 190.095 185.079 190.787Z" fill="#F4F4F6"/>
<path d="M184.473 173.224C177.292 179.713 170.371 186.375 165.353 194.681C161.027 201.862 158.172 209.562 156.874 217.868C155.403 205.668 154.278 193.556 157.912 181.53C161.546 169.331 168.381 159.381 178.33 151.422C179.369 152.027 180.666 149.691 180.493 150.816C180.234 152.892 182.137 153.411 182.397 155.142C183.002 159.987 183.348 164.745 182.397 169.59C182.137 171.321 181.964 173.051 184.473 173.224Z" fill="#F4F4F6"/>
<path d="M118.979 150.47C108.943 163.621 100.637 177.723 95.9651 193.729C94.4943 198.66 93.456 203.679 92.2448 208.697C88.438 208.524 86.1885 210.946 83.939 213.542C79.3536 202.381 79.6997 190.96 81.9491 179.367C82.1222 178.415 82.7278 177.81 83.4199 177.204C95.0134 168.12 106.607 159.035 118.2 149.951C118.46 150.124 118.719 150.297 118.979 150.47Z" fill="#F4F4F6"/>
<path d="M187.674 143.721C194.942 142.164 194.942 142.164 197.451 148.999C203.421 165.178 210.688 180.578 221.676 194.075C223.493 196.325 224.098 198.487 223.493 201.429C221.157 212.503 217.437 222.972 210.083 231.797C209.909 231.624 209.65 231.451 209.477 231.191C213.716 220.723 213.716 210.167 209.131 199.872C204.891 190.268 202.296 180.232 199.787 170.109C198.749 165.87 197.624 161.631 195.98 157.564C194.423 153.671 192.173 150.47 188.453 148.48C188.107 146.836 187.415 145.365 187.674 143.721Z" fill="#CAC8C8"/>
<path d="M111.365 289.332C110.414 286.909 109.894 284.487 109.548 281.631C112.23 283.535 114.566 285.352 117.162 286.909C127.458 292.965 138.705 293.917 150.298 293.138C159.21 292.533 167.775 290.629 176.34 288.12C177.119 287.861 177.811 287.601 178.59 287.428C182.829 286.649 183.781 287.515 183.521 291.668C182.916 299.368 182.051 307.068 180.234 314.595C179.801 316.585 178.936 317.969 177.206 319.18C173.658 321.516 170.371 324.198 166.391 325.842C166.131 317.969 169.332 310.615 169.765 302.742C170.025 298.416 169.073 296.859 164.66 296.772C160.767 296.686 156.874 297.032 152.981 297.378C146.492 297.983 140.003 297.378 133.6 296.599C126.766 295.734 119.498 295.301 113.961 290.024C113.182 289.332 112.317 289.418 111.365 289.332Z" fill="#CAC8C8"/>
<path d="M51.7543 224.183C50.1104 221.588 51.0621 220.463 53.9172 220.29C56.9454 220.117 59.887 219.338 62.5691 217.954C69.4905 214.32 70.1827 203.938 63.8668 199.266C62.0499 197.968 60.2331 198.228 58.5027 199.093C55.5611 200.391 52.706 201.862 49.8509 203.246C49.3318 201.862 49.5913 200.91 50.7161 200.218C60.8387 193.729 70.7018 186.721 80.9974 179.194C78.4019 190.96 77.5367 202.121 81.7761 213.023C74.422 216.224 67.4141 220.55 59.2814 221.328C56.2532 221.501 54.1768 223.059 51.7543 224.183Z" fill="#F4F4F6"/>
<path d="M188.972 223.059C197.537 218.214 198.749 209.821 199.7 201.256C199.787 200.131 198.056 198.055 200.652 197.882C202.902 197.795 205.497 196.93 206.881 200.218C211.64 212.244 211.034 223.751 204.113 234.825C201.431 239.064 197.883 242.525 193.471 245.034C191.395 244.083 192.779 242.525 193.298 241.66C196.326 235.863 194.596 231.018 190.443 226.606C189.405 225.568 188.799 224.443 188.972 223.059Z" fill="#CFCECD"/>
<path d="M188.972 223.059C188.799 224.529 189.405 225.568 190.356 226.606C194.509 231.018 196.24 235.863 193.212 241.66C192.779 242.525 191.395 244.083 193.385 245.034C188.28 248.408 182.829 249.187 176.86 247.803C174.783 247.37 174.177 246.332 173.831 244.515C172.88 239.584 173.226 234.739 174.697 229.98C175.908 226 177.119 222.107 179.109 218.041C181.791 221.242 184.56 223.924 188.972 223.059Z" fill="#CAC8C8"/>
<path d="M187.674 143.721C187.328 145.365 188.107 146.836 188.366 148.393C185.944 147.961 183.435 146.836 181.012 148.48C181.185 148.653 181.272 148.999 181.445 148.999C189.145 149.259 191.827 151.162 194.596 158.516C196.672 163.88 197.624 169.504 199.008 175.041C199.441 176.858 198.489 176.166 197.71 175.733L197.797 175.82C197.797 175.387 197.537 175.041 197.018 175.041L197.105 175.128C193.385 170.888 190.183 170.456 184.473 173.311C181.964 173.138 182.137 171.407 182.397 169.677C183.348 164.832 183.002 160.073 182.397 155.228C182.137 153.498 180.234 153.065 180.493 150.902C180.58 149.864 179.282 152.114 178.33 151.508C177.292 149.691 176.513 151.768 175.648 151.681C170.025 149.691 164.574 147.528 160.162 143.289C158.864 141.991 156.874 141.472 155.23 140.607C156.009 139.309 156.96 138.876 158.518 139.482C167.862 143.289 177.638 144.587 187.674 143.721Z" fill="#DDDBDC"/>
<path d="M162.065 138.876C162.411 136.8 163.968 137.406 165.266 137.406C170.111 137.319 175.216 137.925 179.542 135.243C186.55 131.003 191.827 125.207 195.201 117.679C196.413 114.997 197.364 112.488 197.018 109.46C201.863 108.162 205.064 103.491 204.113 98.905C205.584 98.9916 205.843 99.9433 205.843 101.241C205.757 106.519 206.708 111.883 205.238 117.16C204.891 118.372 205.324 119.323 206.535 119.842C205.843 121.4 205.064 122.957 204.372 124.514C203.248 124.514 202.123 124.341 201.344 125.466C199.181 128.667 196.067 131.09 193.644 134.031C192.087 135.935 189.145 137.319 189.664 140.607C180.32 142.683 171.149 141.732 162.065 138.876Z" fill="#DDDBDC"/>
<path d="M111.365 289.332C112.23 289.332 113.182 289.332 113.874 290.024C119.325 295.301 126.592 295.82 133.514 296.599C139.916 297.378 146.405 297.983 152.894 297.378C156.787 297.032 160.681 296.686 164.574 296.772C168.986 296.859 169.938 298.416 169.679 302.742C169.246 310.528 166.045 317.969 166.304 325.842C163.536 327.486 160.681 328.957 157.479 329.303C157.22 324.977 158.691 320.911 159.902 317.017C161.459 311.826 161.373 306.722 160.594 301.617C160.335 300.146 159.123 299.541 157.566 299.541C151.077 299.541 144.588 299.541 138.099 298.935C131.351 298.329 124.689 297.118 118.114 295.301C115.951 294.696 114.74 292.014 112.057 292.1C111.884 291.148 111.625 290.283 111.365 289.332Z" fill="#DDDBDC"/>
<path d="M185.079 190.787C183.089 190.095 182.57 188.97 182.57 186.634C182.57 183.606 182.483 180.492 182.224 177.464C187.934 171.58 189.837 171.321 196.413 175.301C196.845 175.56 196.932 175.301 197.191 175.041L197.105 174.955C197.105 175.214 196.672 175.387 197.018 175.733C197.364 176.079 197.537 175.733 197.797 175.647L197.71 175.56C201.085 181.011 201.95 187.413 204.113 193.296C204.459 194.335 204.805 195.373 205.151 196.584C201.604 196.671 198.749 196.757 196.24 193.556C193.731 190.268 189.145 190.701 185.079 190.787Z" fill="#DDDBDC"/>
<path d="M84.8907 218.819C86.7076 220.636 88.438 222.453 90.2549 224.356C92.1583 226.433 91.5526 228.769 88.8706 229.721C79.8727 232.922 70.7883 235.69 61.5308 237.68C59.2814 238.199 57.8106 237.853 57.0319 235.604C58.1566 234.739 58.9353 233.527 60.06 232.576C64.8185 229.028 70.1827 226.606 75.1142 223.491C78.2288 221.588 81.257 219.511 84.8907 218.819Z" fill="#CAC8C8"/>
<path d="M84.8907 218.819C81.257 219.511 78.2288 221.588 75.2007 223.578C70.2692 226.779 64.8185 229.115 60.1465 232.662C58.9353 233.527 58.1566 234.739 57.1184 235.69C54.2633 232.403 52.5329 228.509 51.7543 224.27C54.1768 223.145 56.2532 221.588 59.2814 221.328C67.4141 220.55 74.422 216.31 81.7761 213.023C82.8143 214.926 83.8525 216.829 84.8907 218.819Z" fill="#DDDBDC"/>
<path d="M155.836 332.158C163.795 329.389 171.149 325.583 177.725 320.045C178.849 331.725 163.449 346.26 150.558 345.741C150.645 344.53 150.472 343.319 151.25 342.194C152.808 339.858 154.278 337.349 155.836 334.927C156.614 333.975 157.047 333.11 155.836 332.158Z" fill="#CFCECD"/>
<path d="M187.934 192.345C194.855 192.518 197.883 195.632 197.278 202.294C196.759 207.572 195.115 212.503 191.827 216.829C188.799 220.723 185.511 220.723 182.31 216.829C184.819 213.196 184.906 209.129 185.252 204.89C185.511 200.65 184.387 195.892 187.934 192.345Z" fill="#CFCECD"/>
<path d="M206.535 119.929C205.324 119.41 204.891 118.458 205.238 117.247C206.708 111.969 205.757 106.605 205.843 101.328C205.843 100.116 205.67 99.0781 204.113 98.9916C203.767 98.3859 203.334 97.6938 202.988 97.0882C204.805 94.4926 203.594 92.4162 202.123 90.1667C200.566 87.7442 198.576 85.2352 200.219 81.9475C209.39 89.215 215.274 98.2994 216.571 110.152C216.744 111.796 216.658 112.921 214.495 113.44C210.948 114.305 208.958 117.42 206.535 119.929Z" fill="#CAC8C8"/>
<path d="M155.836 332.158C157.047 333.11 156.614 333.888 155.922 335.013C154.278 337.349 152.894 339.858 151.337 342.281C150.558 343.405 150.818 344.617 150.645 345.828C140.349 346.953 135.763 345.395 126.939 329.303C136.542 333.542 146.059 334.754 155.836 332.158Z" fill="#CAC8C8"/>
<path d="M200.306 82.034C198.662 85.3217 200.652 87.7442 202.209 90.2532C203.594 92.5027 204.805 94.5791 203.075 97.1747C200.219 93.5409 196.672 90.6858 192.952 88.0903C188.28 84.8026 183.089 82.4666 178.157 79.7845C180.839 77.7946 182.31 74.5934 185.165 72.8631C190.01 74.68 194.596 76.8429 198.316 80.6497C198.749 81.1688 199.527 81.5149 200.306 82.034Z" fill="#DDDBDC"/>
<path d="M249.362 253.513C249.621 248.062 249.016 242.612 247.977 237.075C262.166 242.785 263.551 253.34 257.062 263.29C255.418 259.31 251.006 257.493 249.362 253.513Z" fill="#CFCECD"/>
<path d="M127.717 287.774C129.275 284.66 132.216 286.563 134.293 286.476C140.955 286.044 147.53 285.352 154.019 284.227C156.355 283.794 158.518 283.621 160.854 284.054C164.66 284.833 168.554 285.611 172.447 286.39C172.274 286.563 172.188 286.996 172.015 286.996C158.95 290.197 145.886 291.927 132.476 289.245C130.918 288.899 129.275 288.293 127.717 287.774Z" fill="#CAC8C8"/>
<path d="M249.362 253.513C251.006 257.493 255.505 259.223 257.062 263.29C252.303 269.951 245.728 274.277 238.46 277.652C238.287 277.479 238.201 277.306 238.028 277.132C245.036 270.817 248.583 262.857 249.362 253.513Z" fill="#CAC8C8"/>
<path d="M187.934 192.345C184.387 195.892 185.511 200.65 185.165 204.89C184.819 209.129 184.819 213.196 182.224 216.829C177.638 211.119 177.033 204.717 179.542 198.055C181.099 193.815 183.781 192.258 187.934 192.345Z" fill="#CAC8C8"/>
<path d="M184.992 72.7766C182.137 74.5069 180.666 77.7081 177.984 79.698C174.697 78.4868 171.495 77.2755 168.208 76.0642C165.872 73.1226 167.429 70.7866 169.505 68.6237C175.129 68.4506 180.147 70.2675 184.992 72.7766Z" fill="#F4F4F6"/>
<path d="M189.664 140.607C189.145 137.319 192 135.935 193.644 134.031C196.153 131.09 199.181 128.667 201.344 125.466C202.123 124.341 203.248 124.514 204.372 124.514C203.94 127.456 202.642 130.398 205.238 132.993C206.276 134.031 204.978 134.377 204.459 134.637C200.566 137.233 196.413 139.396 191.654 140.001C191.308 139.482 191.135 139.742 191.049 140.174C190.702 140.693 190.183 140.78 189.664 140.607Z" fill="#CAC8C8"/>
<path d="M83.939 213.455C86.102 210.86 88.438 208.437 92.2448 208.61C91.8987 213.369 91.4661 218.041 91.0335 223.491C87.5728 220.377 85.3233 217.262 83.939 213.455Z" fill="#CAC8C8"/>
<path d="M209.131 126.418C210.775 124.514 212.245 122.784 213.889 120.881C215.62 124.082 217.177 126.937 221.33 125.293C222.368 124.86 222.887 126.331 223.147 127.283C223.666 129.186 222.801 130.484 221.243 131.436C220.205 132.041 218.561 132.388 218.215 131.436C216.831 126.85 213.024 127.023 209.131 126.418Z" fill="#CAC8C8"/>
<path d="M212.072 128.581C210.083 130.311 208.785 132.128 206.881 131.09C205.584 130.398 205.93 128.148 206.622 127.456C208.525 125.812 209.563 128.754 212.072 128.581Z" fill="#CAC8C8"/>
<path d="M209.996 231.71C209.736 232.316 209.217 232.403 208.698 232.057C208.958 231.71 209.131 231.451 209.39 231.105C209.563 231.278 209.823 231.537 209.996 231.71Z" fill="#CAC8C8"/>
<path d="M119.671 148.826C119.758 148.566 119.758 148.22 120.104 148.393C120.19 148.393 120.017 148.913 120.017 149.172C119.931 148.999 119.844 148.913 119.671 148.826Z" fill="#F4F4F6"/>
<path d="M120.104 149.086C119.844 149.345 119.671 149.691 119.412 149.951C119.238 149.691 119.065 149.518 118.892 149.259C118.979 148.826 119.238 148.653 119.671 148.74C119.844 148.913 119.931 148.999 120.104 149.086Z" fill="#F4F4F6"/>
<path d="M119.411 150.037C119.325 150.297 119.238 150.383 118.979 150.47C118.719 150.297 118.46 150.124 118.2 149.951C118.46 149.778 118.719 149.518 118.979 149.345C119.065 149.605 119.238 149.778 119.411 150.037Z" fill="#F4F4F6"/>
<path d="M238.461 277.652C238.114 277.825 237.768 278.171 237.422 277.652C237.422 277.652 237.768 277.306 238.028 277.132C238.114 277.306 238.287 277.479 238.461 277.652Z" fill="#CAC8C8"/>
<path d="M191.135 140.347C191.222 139.915 191.395 139.655 191.741 140.174C191.481 140.174 191.308 140.261 191.135 140.347Z" fill="#DDDBDC"/>
<path d="M168.294 76.0642C171.582 77.2755 174.783 78.4868 178.071 79.698C183.089 82.3801 188.193 84.8026 192.865 88.0038C196.586 90.5993 200.133 93.4544 202.988 97.0882C203.334 97.6938 203.767 98.3859 204.113 98.9916C205.064 103.491 201.863 108.249 197.018 109.547C193.731 108.422 192 105.653 189.924 103.144C185.684 98.1264 181.618 92.9353 175.821 89.5611C167.516 83.5913 157.999 81.9475 148.049 82.5531C145.453 82.7261 142.944 82.8992 140.349 82.8127C138.272 82.8127 137.407 81.861 138.619 79.871C140.781 76.2373 143.637 73.7283 148.136 73.2957C155.057 72.69 161.632 74.4204 168.294 76.0642ZM196.586 100.116C196.586 97.9533 193.038 92.8488 191.049 92.1566C190.529 91.9836 189.924 91.8106 189.578 92.3297C189.145 92.9353 189.751 93.3679 190.183 93.6274C192.433 95.3578 194.077 97.5208 194.682 100.376C194.769 100.981 195.115 101.501 195.807 101.328C196.499 101.328 196.672 100.722 196.586 100.116ZM152.548 76.0642C150.818 76.2373 149.26 76.4103 147.703 76.5834C147.011 76.6699 146.232 76.8429 146.319 77.7081C146.405 78.5733 147.097 78.7463 147.789 78.5733C150.731 77.8811 153.673 77.7081 156.701 78.4002C157.22 78.5733 157.912 78.3137 157.999 77.7081C158.085 77.1025 157.653 76.6699 157.047 76.5834C155.49 76.4103 153.932 76.2373 152.548 76.0642Z" fill="#0F2548"/>
<path d="M155.143 98.559C158.172 99.7702 160.508 102.539 163.882 100.722C164.401 100.462 164.747 101.241 164.834 101.847C164.92 102.452 164.834 102.885 163.968 102.798C162.93 102.712 162.411 103.577 161.805 104.096C158.864 106.432 157.566 106 156.441 102.279C156.095 101.155 155.663 100.03 155.143 98.559Z" fill="#2252A0"/>
<path d="M197.797 175.733C197.537 175.733 197.364 176.166 197.018 175.82C196.672 175.474 197.018 175.301 197.105 175.041C197.537 174.955 197.797 175.301 197.797 175.733Z" fill="#2252A0"/>
<path d="M196.586 100.116C196.586 100.722 196.499 101.241 195.807 101.414C195.115 101.587 194.855 100.981 194.682 100.462C194.077 97.6073 192.433 95.4443 190.183 93.714C189.751 93.3679 189.232 93.0218 189.578 92.4162C189.924 91.8106 190.443 91.9836 191.049 92.2431C193.125 92.8488 196.672 97.9533 196.586 100.116Z" fill="#CFCECD"/>
<path d="M152.548 76.0642C153.932 76.2373 155.49 76.4103 157.047 76.5834C157.653 76.6699 158.085 77.1025 157.999 77.7081C157.912 78.4002 157.306 78.5733 156.701 78.4002C153.759 77.7081 150.731 77.8811 147.789 78.5733C147.097 78.7463 146.319 78.5733 146.319 77.7081C146.232 76.8429 147.011 76.6699 147.703 76.5834C149.26 76.4103 150.818 76.2373 152.548 76.0642Z" fill="#CFCECD"/>
<g clip-path="url(#clip2_1764_1902)">
<path d="M114.639 161.838C139.936 161.838 160.441 172.928 160.441 186.631C160.441 200.335 139.936 211.425 114.639 211.425C109.747 211.425 105.023 211.023 100.601 210.219C100.768 217.59 105.157 223.822 105.291 224.023C97.8196 220.807 91.3866 214.943 90.3144 207.639C77.415 203.25 68.8376 195.477 68.8376 186.631C68.8376 172.928 89.3428 161.838 114.639 161.838Z" fill="#AC1269"/>
<path d="M107.704 226L105.961 223.554C105.794 223.32 101.974 217.892 101.472 211.258C105.727 211.928 110.149 212.296 114.639 212.296C127.003 212.296 138.662 209.683 147.441 204.925C156.353 200.067 161.278 193.567 161.278 186.631C161.278 179.696 156.353 173.196 147.441 168.371C138.662 163.613 127.003 161 114.639 161C102.276 161 90.616 163.613 81.8376 168.371C72.8917 173.196 68 179.696 68 186.631C68 195.51 76.0412 203.552 89.5773 208.276C90.7835 215.01 96.5129 221.175 104.956 224.794L107.704 226ZM99.7294 209.247L99.7629 210.253C99.8634 215.111 101.74 219.5 103.147 222.08C96.4459 218.528 92.0232 213.268 91.1856 207.606V207.07L90.616 206.869C77.5155 202.412 69.7088 194.874 69.7088 186.631C69.6753 173.43 89.8454 162.675 114.639 162.675C139.433 162.675 159.603 173.43 159.603 186.631C159.603 199.832 139.433 210.588 114.639 210.588C109.881 210.588 105.191 210.186 100.735 209.415L99.7294 209.247Z" fill="#AC1269"/>
</g>
<path d="M98.7264 187.841L100.686 178.233H102.89L99.9427 191H97.8203L95.3958 181.678L92.9142 191H90.7835L87.8366 178.233H90.0325L92.0162 187.824L94.457 178.233H96.3101L98.7264 187.841ZM106.405 182.543C107.101 181.737 107.98 181.335 109.041 181.335C111.066 181.335 112.092 182.491 112.119 184.804V191H109.988V184.878C109.988 184.224 109.847 183.762 109.564 183.49C109.281 183.218 108.865 183.082 108.315 183.082C107.461 183.082 106.824 183.463 106.405 184.224V191H104.274V177.531H106.405V182.543ZM119.933 191C119.84 190.82 119.759 190.527 119.688 190.118C119.013 190.82 118.183 191.171 117.198 191.171C116.246 191.171 115.468 190.902 114.864 190.363C114.265 189.819 113.966 189.147 113.966 188.347C113.966 187.335 114.341 186.559 115.092 186.02C115.843 185.476 116.915 185.204 118.309 185.204H119.623V184.584C119.623 184.088 119.484 183.694 119.206 183.4C118.934 183.106 118.515 182.959 117.949 182.959C117.465 182.959 117.068 183.082 116.758 183.327C116.447 183.566 116.292 183.873 116.292 184.249H114.162C114.162 183.727 114.333 183.239 114.676 182.788C115.024 182.336 115.495 181.982 116.088 181.727C116.681 181.465 117.343 181.335 118.072 181.335C119.187 181.335 120.075 181.615 120.733 182.176C121.392 182.731 121.732 183.514 121.753 184.527V188.804C121.753 189.659 121.873 190.341 122.113 190.853V191H119.933ZM117.59 189.465C118.015 189.465 118.412 189.365 118.782 189.163C119.152 188.956 119.432 188.679 119.623 188.331V186.543H118.472C117.683 186.543 117.089 186.682 116.692 186.959C116.295 187.231 116.096 187.62 116.096 188.127C116.096 188.535 116.232 188.861 116.504 189.106C116.777 189.346 117.138 189.465 117.59 189.465ZM126.644 179.204V181.514H128.318V183.09H126.644V188.388C126.644 188.747 126.715 189.008 126.856 189.171C126.998 189.335 127.254 189.416 127.624 189.416C127.869 189.416 128.116 189.386 128.367 189.327V190.976C127.882 191.106 127.417 191.171 126.971 191.171C125.333 191.171 124.514 190.271 124.514 188.469V183.09H122.954V181.514H124.514V179.204H126.644ZM131.927 187.245C131.927 186.467 132.022 185.849 132.213 185.392C132.408 184.929 132.789 184.423 133.355 183.873C133.927 183.318 134.289 182.924 134.441 182.69C134.675 182.331 134.792 181.944 134.792 181.531C134.792 180.981 134.656 180.562 134.384 180.273C134.112 179.985 133.715 179.841 133.192 179.841C132.686 179.841 132.278 179.982 131.968 180.265C131.663 180.548 131.51 180.932 131.51 181.416H129.38C129.396 180.382 129.75 179.563 130.441 178.959C131.132 178.355 132.049 178.053 133.192 178.053C134.368 178.053 135.282 178.352 135.935 178.951C136.593 179.55 136.923 180.382 136.923 181.449C136.923 182.401 136.479 183.34 135.592 184.265L134.515 185.327C134.128 185.767 133.93 186.407 133.919 187.245H131.927ZM131.78 189.971C131.78 189.629 131.886 189.351 132.098 189.139C132.316 188.927 132.61 188.82 132.98 188.82C133.355 188.82 133.649 188.929 133.862 189.147C134.079 189.365 134.188 189.639 134.188 189.971C134.188 190.293 134.082 190.562 133.87 190.78C133.663 190.997 133.366 191.106 132.98 191.106C132.593 191.106 132.297 190.997 132.09 190.78C131.883 190.562 131.78 190.293 131.78 189.971Z" fill="#FCFCFC"/>
</g>
<g clip-path="url(#clip3_1764_1902)">
<path d="M248.321 14.1786V18.4005H237.171C229.032 18.4005 222.381 24.3816 222.381 31.7348V44.1894H181.768C173.63 44.1894 166.978 38.2084 166.978 30.8904V14.1786C166.978 6.86062 173.63 0.879562 181.768 0.879562H233.493C241.631 0.879562 248.321 6.86062 248.321 14.1786Z" fill="#E9B6D3"/>
<path d="M223.32 45.0338H181.768C173.082 45.0338 166 38.6658 166 30.8552V14.1786C166 6.36806 173.082 0 181.768 0H233.493C242.179 0 249.261 6.36806 249.261 14.1786V19.2801H237.092C229.463 19.2801 223.281 24.8742 223.281 31.7348V45.0338H223.32ZM181.768 1.75913C174.177 1.75913 167.956 7.35318 167.956 14.1786V30.82C167.956 37.7158 174.177 43.2747 181.768 43.2747H221.324V31.6996C221.324 23.889 228.406 17.4858 237.092 17.4858H247.304V14.1434C247.343 7.35318 241.122 1.75913 233.493 1.75913H181.768Z" fill="#AC1269"/>
<path d="M270.232 18.4005H248.322V30.8552C248.322 38.1732 241.67 44.1543 233.532 44.1543H222.342V48.3762C222.342 55.6942 228.993 61.6752 237.131 61.6752H253.564C253.604 68.4303 250.082 75.3261 249.965 75.5372C257.242 71.1746 262.955 63.7158 264.442 61.6752H270.193C278.331 61.6752 284.983 55.6942 284.983 48.3762V31.7348C285.022 24.3816 278.37 18.4005 270.232 18.4005Z" fill="#E9B6D3"/>
<path d="M247.656 78L249.104 75.1854C249.261 74.9039 252.352 68.747 252.586 62.59H237.131C228.445 62.59 221.364 56.2219 221.364 48.4114V43.2747H233.493C241.122 43.2747 247.304 37.6807 247.304 30.8552V17.521H270.193C278.879 17.521 285.961 23.889 285.961 31.7348V48.3762C285.961 56.1867 278.879 62.5548 270.193 62.5548H264.989C263.033 65.1583 257.477 72.0893 250.513 76.2761L247.656 78ZM223.32 45.0338V48.3762C223.32 55.2368 229.541 60.7957 237.131 60.7957H254.543V61.6752C254.582 65.9675 253.212 70.2246 252.156 72.9689C257.907 68.747 262.29 63.0122 263.659 61.1827L263.933 60.7957H270.193C277.823 60.7957 284.005 55.2016 284.005 48.3762V31.6996C284.005 24.839 277.784 19.2449 270.193 19.2449H249.261V30.82C249.261 38.6306 242.179 44.9987 233.493 44.9987H223.32V45.0338Z" fill="#AC1269"/>
</g>
<g clip-path="url(#clip4_1764_1902)">
<path d="M87.3234 77.8003C88.7696 77.8003 89.9265 78.8599 89.9265 80.1844C89.9265 81.5088 88.7696 82.5684 87.3234 82.5684C85.8772 82.5684 84.7203 81.5088 84.7203 80.1844C84.7203 78.8599 85.8772 77.8003 87.3234 77.8003Z" fill="#E9B6D3"/>
<path d="M87.3234 83.3962C85.4072 83.3962 83.8164 81.9724 83.8164 80.1844C83.8164 78.4294 85.3711 76.9725 87.3234 76.9725C89.2396 76.9725 90.8303 78.4294 90.8303 80.1844C90.7942 81.9724 89.2396 83.3962 87.3234 83.3962ZM87.3234 78.6281C86.3834 78.6281 85.6241 79.3234 85.6241 80.1844C85.6241 81.0453 86.3834 81.7406 87.3234 81.7406C88.2634 81.7406 89.0226 81.0453 89.0226 80.1844C88.9865 79.3234 88.2272 78.6281 87.3234 78.6281Z" fill="#AC1269"/>
<path d="M92.1319 69.4229C94.5904 69.4229 96.5789 71.2441 96.5789 73.4957C96.5789 75.7473 94.5904 77.5685 92.1319 77.5685C89.6734 77.5685 87.6849 75.7473 87.6849 73.4957C87.6849 71.2441 89.6734 69.4229 92.1319 69.4229Z" fill="#E9B6D3"/>
<path d="M92.1319 78.3963C89.1672 78.3963 86.7811 76.1778 86.7811 73.4957C86.7811 70.7805 89.2034 68.5951 92.1319 68.5951C95.0965 68.5951 97.4827 70.8136 97.4827 73.4957C97.4827 76.2109 95.0965 78.3963 92.1319 78.3963ZM92.1319 70.2507C90.1796 70.2507 88.5888 71.7077 88.5888 73.4957C88.5888 75.2838 90.1796 76.7407 92.1319 76.7407C94.0842 76.7407 95.675 75.2838 95.675 73.4957C95.675 71.7077 94.0842 70.2507 92.1319 70.2507Z" fill="#AC1269"/>
<path d="M132.155 35.6155C136.348 38.3307 139.096 42.834 139.096 47.9001C139.096 56.2112 131.757 62.933 122.682 62.933C120.621 62.933 118.633 62.5687 116.789 61.9396C115.957 65.3833 112.595 67.966 108.546 67.966C106.377 67.966 104.424 67.2375 102.942 66.0124C100.737 67.0058 98.2781 67.5687 95.675 67.5687C91.7342 67.5687 88.0826 66.2773 85.2626 64.1581C83.8164 66.4428 81.1049 67.966 77.9956 67.966C74.2356 67.966 71.0179 65.6813 69.9332 62.5687C68.7763 62.8005 67.5832 62.933 66.3178 62.933C57.2431 62.933 49.9038 56.2112 49.9038 47.9001C49.9038 42.7346 52.76 38.1652 57.0985 35.45C57.6047 27.5362 64.727 21.278 73.4763 21.278C74.9225 21.278 76.3325 21.4436 77.6341 21.7747C80.4179 17.0397 85.8411 13.8278 92.1319 13.8278C97.6273 13.8278 102.508 16.3112 105.473 20.1191C107.678 18.3973 110.534 17.3377 113.68 17.3377C119.79 17.3377 124.888 21.3442 126.044 26.6422C129.66 27.5362 132.299 30.5163 132.299 34.0924C132.335 34.6222 132.263 35.1188 132.155 35.6155Z" fill="#E9B6D3"/>
<path d="M108.582 68.7938C106.485 68.7938 104.46 68.1647 102.834 66.9726C100.592 67.8998 98.1696 68.3965 95.675 68.3965C92.0234 68.3965 88.408 67.3369 85.4795 65.3502C83.7441 67.5024 80.9603 68.7938 77.9956 68.7938C74.1633 68.7938 70.801 66.7078 69.3548 63.4959C68.3425 63.6614 67.3302 63.7277 66.354 63.7277C56.7731 63.7608 49 56.6417 49 47.867C49 42.7346 51.6754 37.9665 56.2308 34.9864C56.9539 26.8077 64.474 20.4502 73.5125 20.4502C74.7779 20.4502 76.0072 20.5827 77.2364 20.8144C80.3095 15.9801 85.9857 13 92.1319 13C97.3743 13 102.364 15.2185 105.654 18.9271C107.967 17.3377 110.787 16.4768 113.716 16.4768C119.971 16.4768 125.394 20.4171 126.84 25.9468C130.636 27.1057 133.239 30.3507 133.239 34.0593C133.239 34.4235 133.203 34.8208 133.167 35.1851C137.469 38.1652 140.036 42.8671 140.036 47.8339C140.036 56.5755 132.263 63.6946 122.718 63.6946C120.911 63.6946 119.139 63.4297 117.44 62.933C116.138 66.4097 112.559 68.7938 108.582 68.7938ZM103.087 65.019L103.557 65.3833C104.93 66.5091 106.702 67.1382 108.582 67.1382C112.089 67.1382 115.162 64.8866 115.921 61.7409L116.138 60.8138L117.114 61.1449C118.886 61.7741 120.766 62.0721 122.682 62.0721C131.251 62.0721 138.192 55.6814 138.192 47.867C138.192 43.2644 135.734 38.9267 131.648 36.2778L131.178 35.9798L131.287 35.45C131.395 34.9864 131.431 34.5559 131.431 34.0924C131.431 30.9798 129.118 28.2315 125.828 27.4369L125.285 27.3044L125.177 26.8077C124.092 21.8078 119.284 18.1655 113.716 18.1655C110.932 18.1655 108.22 19.0926 106.087 20.7482L105.328 21.3442L104.75 20.6158C101.857 16.8741 97.1212 14.6556 92.1319 14.6556C86.4195 14.6556 81.1772 17.5364 78.4656 22.172L78.1402 22.7349L77.4533 22.5694C76.1879 22.2714 74.8502 22.1058 73.5125 22.1058C65.3055 22.1058 58.4724 27.9998 58.0024 35.4831L57.9662 35.8804L57.6047 36.1122C53.3385 38.7943 50.8077 43.1651 50.8077 47.867C50.8077 55.7146 57.7855 62.0721 66.3178 62.0721C67.4386 62.0721 68.5955 61.9396 69.7163 61.7409L70.5117 61.5754L70.7648 62.3038C71.741 65.1846 74.6333 67.1382 77.9595 67.1382C80.5987 67.1382 83.0934 65.8468 84.4672 63.7277L85.0095 62.8999L85.8411 63.529C88.5888 65.6151 92.0957 66.7409 95.675 66.7409C98.0973 66.7409 100.411 66.2442 102.544 65.2839L103.087 65.019Z" fill="#AC1269"/>
</g>
<g clip-path="url(#clip5_1764_1902)">
<path d="M79.9171 140.089C71.8034 155.053 57.8371 160.739 57.8371 160.739C64.0887 154.221 67.2477 143.514 67.2477 143.514C51.8516 148.734 34.5932 144.545 34.5932 144.545L37.453 137.761C31.9662 137.495 16.3041 131.742 19.1638 117.643C22.0569 103.544 33.5624 96.76 33.5624 96.76L35.3913 100.418C62.293 91.5393 78.72 95.9619 78.72 95.9619L77.1571 100.917C77.1571 100.917 92.4867 104.574 97.5412 111.524C102.596 118.474 95.9783 129.98 94.5817 132.407L91.6221 131.543C91.6221 131.576 84.6058 137.894 79.9171 140.089Z" fill="#E9B6D3"/>
<path d="M54.5451 163L57.2385 160.173C61.894 155.319 64.8202 147.936 65.9508 144.811C50.9205 149.3 35.092 145.542 34.3937 145.376L33.4294 145.143L36.2559 138.493C32.4651 137.927 25.3822 135.566 21.159 130.146C18.3325 126.488 17.4014 122.232 18.3658 117.477C21.292 103.178 32.6313 96.3277 33.1301 96.0284L33.8949 95.5629L35.7904 99.387C62.2265 90.841 78.2877 94.9976 78.9528 95.1639L79.7841 95.3966L78.2212 100.351C81.5798 101.249 93.6838 104.84 98.2063 111.059C101.698 115.88 100.7 123.396 95.3132 132.806L94.9475 133.438L91.7884 132.507C90.3253 133.804 84.639 138.692 80.4824 140.72C72.3022 155.585 58.7017 161.271 58.1364 161.504L54.5451 163ZM68.4781 142.217L68.0125 143.747C67.9128 144.112 65.6183 151.794 61.0294 158.145C65.6516 155.452 73.732 149.632 79.1523 139.69L79.2853 139.457L79.5181 139.357C84.0405 137.229 90.9571 131.044 91.0236 130.977L91.3561 130.678L94.1161 131.476C98.8048 123.03 99.7691 116.147 96.8096 112.056C91.9879 105.406 77.0573 101.781 76.9243 101.748L76.0598 101.548L77.6226 96.5937C76.0598 96.2945 72.4352 95.6959 67.0814 95.6959C67.0482 95.6959 67.0149 95.6959 67.0149 95.6959C60.3311 95.6959 49.3908 96.6602 35.6241 101.183L34.959 101.415L33.2299 97.9571C30.6694 99.7528 22.3229 106.337 19.9952 117.809C19.1306 122.066 19.9619 125.856 22.4891 129.082C26.413 134.136 33.7619 136.73 37.5195 136.93L38.7166 136.996L35.7571 143.946C39.5812 144.711 54.0463 147.105 66.9817 142.716L68.4781 142.217Z" fill="#AC1269"/>
</g>
<path d="M38.1102 123.061L39.6204 116.514H41.6939L39.1061 126H37.351L35.3184 119.486L33.3184 126H31.5633L28.9674 116.514H31.049L32.5837 122.996L34.5347 116.514H36.1347L38.1102 123.061ZM45.2133 117.543C45.9099 116.737 46.7888 116.335 47.8501 116.335C49.8745 116.335 50.9004 117.491 50.9276 119.804V126H48.797V119.878C48.797 119.224 48.6555 118.762 48.3725 118.49C48.0895 118.218 47.6732 118.082 47.1235 118.082C46.2691 118.082 45.6324 118.463 45.2133 119.224V126H43.0827V112.531H45.2133V117.543ZM57.2559 126.171C55.9008 126.171 54.8042 125.747 53.9661 124.898C53.128 124.049 52.709 122.917 52.709 121.502V121.241C52.709 120.294 52.8913 119.448 53.2559 118.702C53.6205 117.956 54.1321 117.377 54.7906 116.963C55.4545 116.544 56.1947 116.335 57.011 116.335C58.3008 116.335 59.2967 116.748 59.9987 117.576C60.7062 118.397 61.06 119.562 61.06 121.069V121.935H54.8559C54.9212 122.718 55.1824 123.339 55.6396 123.796C56.1021 124.248 56.6817 124.473 57.3783 124.473C58.3525 124.473 59.147 124.079 59.762 123.29L60.913 124.384C60.5321 124.955 60.0232 125.396 59.3865 125.706C58.7552 126.016 58.045 126.171 57.2559 126.171ZM56.9947 118.049C56.4124 118.049 55.9416 118.253 55.5824 118.661C55.2232 119.069 54.9947 119.638 54.8967 120.367H58.9539V120.212C58.9049 119.499 58.7144 118.961 58.3824 118.596C58.0504 118.231 57.5879 118.049 56.9947 118.049ZM67.688 118.457C67.4105 118.414 67.122 118.392 66.8227 118.392C65.8485 118.392 65.19 118.765 64.8472 119.51V126H62.7166V116.514H64.7492L64.8064 117.576C65.3179 116.748 66.0309 116.335 66.9451 116.335C67.2499 116.335 67.5002 116.376 67.6962 116.457L67.688 118.457ZM73.2129 126.171C71.8578 126.171 70.7612 125.747 69.9231 124.898C69.085 124.049 68.666 122.917 68.666 121.502V121.241C68.666 120.294 68.8483 119.448 69.2129 118.702C69.5775 117.956 70.0891 117.377 70.7476 116.963C71.4116 116.544 72.1517 116.335 72.968 116.335C74.2578 116.335 75.2537 116.748 75.9558 117.576C76.6633 118.397 77.017 119.562 77.017 121.069V121.935H70.8129C70.8782 122.718 71.1395 123.339 71.5966 123.796C72.0592 124.248 72.6388 124.473 73.3354 124.473C74.3095 124.473 75.1041 124.079 75.719 123.29L76.8701 124.384C76.4891 124.955 75.9803 125.396 75.3435 125.706C74.7122 126.016 74.002 126.171 73.2129 126.171ZM72.9517 118.049C72.3694 118.049 71.8986 118.253 71.5395 118.661C71.1803 119.069 70.9517 119.638 70.8537 120.367H74.9109V120.212C74.8619 119.499 74.6714 118.961 74.3395 118.596C74.0075 118.231 73.5449 118.049 72.9517 118.049ZM80.6573 122.245C80.6573 121.467 80.7525 120.849 80.943 120.392C81.1389 119.929 81.5199 119.423 82.0858 118.873C82.6573 118.318 83.0192 117.924 83.1716 117.69C83.4056 117.331 83.5226 116.944 83.5226 116.531C83.5226 115.981 83.3865 115.562 83.1144 115.273C82.8423 114.985 82.445 114.841 81.9226 114.841C81.4165 114.841 81.0083 114.982 80.6981 115.265C80.3933 115.548 80.241 115.932 80.241 116.416H78.1103C78.1267 115.382 78.4804 114.563 79.1716 113.959C79.8627 113.355 80.7797 113.053 81.9226 113.053C83.0981 113.053 84.0124 113.352 84.6654 113.951C85.3239 114.55 85.6532 115.382 85.6532 116.449C85.6532 117.401 85.2097 118.34 84.3226 119.265L83.245 120.327C82.8586 120.767 82.66 121.407 82.6491 122.245H80.6573ZM80.5103 124.971C80.5103 124.629 80.6165 124.351 80.8287 124.139C81.0464 123.927 81.3403 123.82 81.7103 123.82C82.0858 123.82 82.3797 123.929 82.592 124.147C82.8097 124.365 82.9185 124.639 82.9185 124.971C82.9185 125.293 82.8124 125.562 82.6001 125.78C82.3933 125.997 82.0967 126.106 81.7103 126.106C81.3239 126.106 81.0273 125.997 80.8205 125.78C80.6137 125.562 80.5103 125.293 80.5103 124.971Z" fill="#AC1269"/>
<path d="M76.9403 47.0612L78.4505 40.5143H80.524L77.9362 50H76.1811L74.1485 43.4857L72.1485 50H70.3934L67.7974 40.5143H69.8791L71.4138 46.9959L73.3648 40.5143H74.9648L76.9403 47.0612ZM84.0434 41.5429C84.74 40.7374 85.6189 40.3347 86.6801 40.3347C88.7046 40.3347 89.7305 41.4912 89.7577 43.8041V50H87.6271V43.8776C87.6271 43.2245 87.4856 42.7619 87.2026 42.4898C86.9196 42.2177 86.5033 42.0816 85.9536 42.0816C85.0992 42.0816 84.4624 42.4626 84.0434 43.2245V50H81.9128V36.5306H84.0434V41.5429ZM94.1676 50H92.037V40.5143H94.1676V50ZM91.9064 38.049C91.9064 37.7224 92.0098 37.4503 92.2166 37.2327C92.4288 37.015 92.7281 36.9061 93.1145 36.9061C93.4955 36.9061 93.7921 37.015 94.0043 37.2327C94.2166 37.4503 94.3227 37.7224 94.3227 38.049C94.3227 38.3701 94.2166 38.6367 94.0043 38.849C93.7921 39.0612 93.4955 39.1673 93.1145 39.1673C92.7281 39.1673 92.4288 39.0612 92.2166 38.849C92.0098 38.6367 91.9064 38.3701 91.9064 38.049ZM100.39 48.4735C100.923 48.4735 101.364 48.3184 101.713 48.0082C102.066 47.698 102.254 47.3143 102.276 46.8571H104.284C104.262 47.4503 104.077 48.0027 103.729 48.5143C103.386 49.0259 102.918 49.4313 102.325 49.7306C101.737 50.0245 101.1 50.1714 100.415 50.1714C99.0921 50.1714 98.0418 49.7442 97.2636 48.8898C96.4853 48.0299 96.0962 46.8408 96.0962 45.3224V45.1102C96.0962 43.6626 96.4799 42.5061 97.2472 41.6408C98.02 40.7701 99.0731 40.3347 100.406 40.3347C101.538 40.3347 102.458 40.6639 103.166 41.3224C103.879 41.981 104.251 42.8435 104.284 43.9102H102.276C102.254 43.3714 102.069 42.9279 101.721 42.5796C101.372 42.2259 100.929 42.049 100.39 42.049C99.6989 42.049 99.1656 42.2993 98.7901 42.8C98.42 43.2952 98.2323 44.0517 98.2268 45.0694V45.4122C98.2268 46.4408 98.4119 47.2082 98.7819 47.7143C99.152 48.2204 99.6881 48.4735 100.39 48.4735ZM107.989 41.5429C108.685 40.7374 109.564 40.3347 110.625 40.3347C112.65 40.3347 113.676 41.4912 113.703 43.8041V50H111.572V43.8776C111.572 43.2245 111.431 42.7619 111.148 42.4898C110.865 42.2177 110.449 42.0816 109.899 42.0816C109.044 42.0816 108.408 42.4626 107.989 43.2245V50H105.858V36.5306H107.989V41.5429ZM117.827 46.2449C117.827 45.4667 117.922 44.849 118.113 44.3918C118.309 43.9293 118.69 43.4231 119.256 42.8735C119.827 42.3184 120.189 41.9238 120.341 41.6898C120.575 41.3306 120.693 40.9442 120.693 40.5306C120.693 39.981 120.556 39.5619 120.284 39.2735C120.012 38.985 119.615 38.8408 119.093 38.8408C118.586 38.8408 118.178 38.9823 117.868 39.2653C117.563 39.5483 117.411 39.932 117.411 40.4163H115.28C115.297 39.3823 115.65 38.5633 116.341 37.9592C117.033 37.3551 117.95 37.0531 119.093 37.0531C120.268 37.0531 121.182 37.3524 121.835 37.951C122.494 38.5497 122.823 39.3823 122.823 40.449C122.823 41.4014 122.38 42.3401 121.493 43.2653L120.415 44.3265C120.029 44.7673 119.83 45.4068 119.819 46.2449H117.827ZM117.68 48.9714C117.68 48.6286 117.786 48.351 117.999 48.1388C118.216 47.9265 118.51 47.8204 118.88 47.8204C119.256 47.8204 119.55 47.9293 119.762 48.1469C119.98 48.3646 120.088 48.6395 120.088 48.9714C120.088 49.2925 119.982 49.5619 119.77 49.7796C119.563 49.9973 119.267 50.1061 118.88 50.1061C118.494 50.1061 118.197 49.9973 117.99 49.7796C117.784 49.5619 117.68 49.2925 117.68 48.9714Z" fill="#AC1269"/>
<path d="M192.538 24.0612L194.048 17.5143H196.122L193.534 27H191.779L189.746 20.4857L187.746 27H185.991L183.395 17.5143H185.477L187.011 23.9959L188.962 17.5143H190.562L192.538 24.0612ZM199.641 18.5429C200.338 17.7374 201.217 17.3347 202.278 17.3347C204.302 17.3347 205.328 18.4912 205.355 20.8041V27H203.225V20.8776C203.225 20.2245 203.083 19.7619 202.8 19.4898C202.517 19.2177 202.101 19.0816 201.551 19.0816C200.697 19.0816 200.06 19.4626 199.641 20.2245V27H197.51V13.5306H199.641V18.5429ZM210.818 23.9469L212.753 17.5143H215.022L211.251 28.4367C210.674 30.0313 209.692 30.8286 208.304 30.8286C207.994 30.8286 207.651 30.7769 207.275 30.6735V29.0245L207.684 29.049C208.222 29.049 208.625 28.951 208.892 28.7551C209.164 28.5592 209.379 28.2327 209.537 27.7755L209.847 26.9592L206.516 17.5143H208.81L210.818 23.9469ZM218.23 23.2449C218.23 22.4667 218.325 21.849 218.515 21.3918C218.711 20.9293 219.092 20.4231 219.658 19.8735C220.23 19.3184 220.591 18.9238 220.744 18.6898C220.978 18.3306 221.095 17.9442 221.095 17.5306C221.095 16.981 220.959 16.5619 220.687 16.2735C220.415 15.985 220.017 15.8408 219.495 15.8408C218.989 15.8408 218.581 15.9823 218.27 16.2653C217.966 16.5483 217.813 16.932 217.813 17.4163H215.683C215.699 16.3823 216.053 15.5633 216.744 14.9592C217.435 14.3551 218.352 14.0531 219.495 14.0531C220.67 14.0531 221.585 14.3524 222.238 14.951C222.896 15.5497 223.225 16.3823 223.225 17.449C223.225 18.4014 222.782 19.3401 221.895 20.2653L220.817 21.3265C220.431 21.7673 220.232 22.4068 220.221 23.2449H218.23ZM218.083 25.9714C218.083 25.6286 218.189 25.351 218.401 25.1388C218.619 24.9265 218.913 24.8204 219.283 24.8204C219.658 24.8204 219.952 24.9293 220.164 25.1469C220.382 25.3646 220.491 25.6395 220.491 25.9714C220.491 26.2925 220.385 26.5619 220.172 26.7796C219.966 26.9973 219.669 27.1061 219.283 27.1061C218.896 27.1061 218.6 26.9973 218.393 26.7796C218.186 26.5619 218.083 26.2925 218.083 25.9714Z" fill="#AC1269"/>
<path d="M251.237 49.9922L249.294 43.5605L251.093 42.53L253.562 52.0474L252.039 52.9196L247.037 48.277L248.539 54.9238L247.016 55.7961L240.049 48.8549L241.856 47.8204L246.409 52.6821L244.88 46.088L246.269 45.2928L251.237 49.9922ZM254.658 41.6734C254.862 40.6283 255.425 39.842 256.346 39.3146C258.102 38.3085 259.567 38.8022 260.741 40.7957L263.82 46.1722L261.971 47.2311L258.928 41.9183C258.604 41.3516 258.251 41.0205 257.87 40.9251C257.489 40.8296 257.06 40.9184 256.583 41.1916C255.842 41.6162 255.479 42.2633 255.494 43.1327L258.861 49.0122L257.012 50.0711L250.318 38.3829L252.167 37.324L254.658 41.6734ZM262.935 41.1096C262.473 40.302 262.215 39.4842 262.161 38.656C262.111 37.8251 262.276 37.0723 262.654 36.3976C263.035 35.7154 263.601 35.1593 264.352 34.7293C265.462 34.0937 266.569 33.936 267.674 34.2562C268.777 34.5717 269.692 35.3049 270.421 36.4558L270.686 36.8868C271.152 37.6991 271.408 38.5146 271.457 39.3334C271.511 40.1494 271.347 40.8985 270.966 41.5807C270.586 42.2628 270.015 42.8216 269.255 43.2571C268.093 43.9224 266.942 44.0703 265.802 43.7009C264.665 43.324 263.727 42.4909 262.988 41.2017L262.935 41.1096ZM264.878 40.2136C265.362 41.0589 265.917 41.6224 266.542 41.9039C267.165 42.1808 267.788 42.1407 268.411 41.7836C269.034 41.4266 269.381 40.9048 269.452 40.2183C269.523 39.5317 269.289 38.7185 268.751 37.7787C268.275 36.9476 267.718 36.3916 267.081 36.1107C266.443 35.8299 265.818 35.8652 265.204 36.2169C264.599 36.5631 264.258 37.0784 264.18 37.763C264.099 38.4428 264.331 39.2597 264.878 40.2136ZM274.413 35.7777C274.027 35.1024 273.802 34.519 273.74 34.0277C273.68 33.5289 273.759 32.9004 273.977 32.1421C274.197 31.3764 274.315 30.8542 274.331 30.5754C274.356 30.1474 274.265 29.7539 274.06 29.395C273.787 28.9181 273.46 28.622 273.081 28.507C272.701 28.3919 272.285 28.4642 271.832 28.7239C271.392 28.9754 271.109 29.3011 270.98 29.7008C270.856 30.0978 270.915 30.5065 271.155 30.9268L269.306 31.9857C268.807 31.0803 268.707 30.1938 269.006 29.3261C269.306 28.4584 269.951 27.7405 270.943 27.1725C271.963 26.5883 272.905 26.3937 273.769 26.5886C274.638 26.7808 275.338 27.3397 275.868 28.2653C276.341 29.0917 276.423 30.1268 276.113 31.3705L275.705 32.8269C275.589 33.4015 275.735 34.0551 276.142 34.7877L274.413 35.7777ZM275.641 38.2167C275.47 37.9191 275.425 37.6256 275.503 37.3359C275.587 37.0435 275.789 36.8054 276.11 36.6215C276.436 36.4348 276.745 36.3832 277.037 36.4667C277.335 36.5474 277.566 36.7318 277.731 37.0198C277.89 37.2985 277.932 37.585 277.856 37.8793C277.785 38.171 277.581 38.4129 277.246 38.6049C276.911 38.7969 276.599 38.8499 276.312 38.7638C276.024 38.6777 275.8 38.4953 275.641 38.2167Z" fill="#AC1269"/>
<g clip-path="url(#clip6_1764_1902)">
<path d="M268.355 154.062C282.633 156.763 295.612 152.095 299.01 142.319C302.942 131.006 292.571 117.145 275.857 111.335C259.142 105.525 242.427 109.999 238.503 121.288C234.805 131.928 243.775 144.845 258.784 151.166C258.343 151.605 257.792 152.113 257.206 152.636C255.187 154.465 262.747 158.008 261.639 159.534C260.566 161.046 249.706 168.659 249.485 168.797C249.784 168.685 268.526 161.363 269.669 160.064C270.821 158.742 265.234 155.992 266.264 155.435C266.783 155.184 267.624 154.588 268.355 154.062Z" fill="#E9B6D3"/>
<path d="M244.729 171.37L249.122 168.267C254.577 164.429 260.397 160.125 261.081 159.152C261.095 158.78 259.761 157.643 259.055 157.021C257.617 155.767 256.24 154.589 256.196 153.389C256.183 152.927 256.359 152.503 256.741 152.152C257.038 151.878 257.335 151.604 257.632 151.33C250.623 148.194 244.773 143.55 241.087 138.15C237.151 132.474 236.007 126.397 237.86 121.064C241.893 109.463 259.042 104.818 276.091 110.743C293.14 116.669 303.711 130.95 299.678 142.551C297.984 147.427 293.87 151.301 288.042 153.475C282.444 155.567 275.542 156.021 268.549 154.748C267.903 155.197 267.41 155.537 267.036 155.784C267.294 156.035 267.742 156.406 268.06 156.651C269.497 157.824 271.304 159.259 270.237 160.504C268.933 162.016 249.986 169.348 249.79 169.414L244.729 171.37ZM275.674 111.944C259.345 106.269 242.953 110.559 239.146 121.511C237.426 126.459 238.507 132.138 242.201 137.514C245.913 142.923 251.882 147.555 259.044 150.583L259.953 150.953L259.292 151.612C258.766 152.129 258.249 152.622 257.706 153.106C257.579 153.224 257.545 153.32 257.546 153.401C257.577 154.057 258.954 155.236 259.953 156.095C261.554 157.459 263.035 158.754 262.232 159.902C261.556 160.852 257.657 163.777 254.31 166.194C260.707 163.625 268.501 160.358 269.187 159.627C269.261 159.249 267.781 158.035 267.213 157.595C266.155 156.743 265.458 156.178 265.487 155.514C265.501 155.223 265.67 154.986 265.943 154.865C266.326 154.676 267.006 154.212 267.932 153.538L268.161 153.375L268.461 153.425C275.3 154.726 282.049 154.299 287.485 152.258C292.921 150.217 296.806 146.587 298.375 142.072C302.2 131.152 292.002 117.62 275.674 111.944Z" fill="#AC1269"/>
</g>
<path d="M252.843 126.973L257.073 121.753L258.936 122.663L252.448 130.051L250.871 129.28L251.904 122.535L247.247 127.511L245.67 126.74L247.501 117.078L249.372 117.991L247.906 124.489L252.504 119.521L253.941 120.223L252.843 126.973ZM261.647 125.132C262.627 124.714 263.593 124.738 264.547 125.204C266.366 126.093 266.78 127.582 265.789 129.672L263.07 135.239L261.155 134.304L263.843 128.803C264.129 128.216 264.205 127.738 264.07 127.37C263.935 127.001 263.621 126.696 263.127 126.455C262.359 126.08 261.62 126.143 260.909 126.643L257.935 132.731L256.021 131.796L261.933 119.694L263.847 120.629L261.647 125.132ZM268.681 138.171C267.463 137.576 266.664 136.713 266.284 135.583C265.903 134.452 266.024 133.251 266.645 131.98L266.759 131.745C267.175 130.894 267.71 130.214 268.365 129.704C269.02 129.194 269.734 128.898 270.507 128.815C271.288 128.73 272.045 128.867 272.778 129.225C273.937 129.791 274.65 130.6 274.918 131.651C275.193 132.7 275 133.902 274.338 135.256L273.958 136.034L268.384 133.311C268.098 134.044 268.061 134.716 268.271 135.327C268.488 135.936 268.91 136.393 269.536 136.699C270.411 137.127 271.298 137.121 272.197 136.682L272.751 138.17C272.158 138.516 271.508 138.689 270.799 138.688C270.096 138.69 269.39 138.517 268.681 138.171ZM272.011 130.758C271.488 130.502 270.975 130.479 270.473 130.688C269.971 130.897 269.516 131.308 269.108 131.92L272.754 133.701L272.822 133.562C273.091 132.9 273.156 132.332 273.018 131.859C272.88 131.385 272.544 131.018 272.011 130.758ZM279.608 132.761L279.18 133.769C280.183 133.314 281.198 133.338 282.225 133.839C284 134.707 284.405 136.164 283.441 138.213L280.689 143.846L278.775 142.911L281.473 137.388C281.738 136.845 281.817 136.387 281.708 136.013C281.605 135.641 281.287 135.326 280.754 135.065C279.981 134.688 279.236 134.757 278.518 135.272L275.555 141.338L273.641 140.403L277.804 131.88L279.608 132.761ZM286.078 142.299C286.42 141.6 286.777 141.087 287.148 140.76C287.527 140.43 288.092 140.143 288.842 139.897C289.599 139.649 290.097 139.453 290.337 139.31C290.705 139.09 290.979 138.794 291.161 138.423C291.402 137.929 291.464 137.492 291.346 137.114C291.228 136.735 290.934 136.431 290.465 136.202C290.01 135.98 289.581 135.928 289.178 136.046C288.78 136.166 288.475 136.444 288.263 136.879L286.348 135.944C286.817 135.022 287.494 134.442 288.38 134.202C289.266 133.963 290.223 134.094 291.25 134.596C292.306 135.112 292.996 135.782 293.32 136.606C293.649 137.433 293.579 138.326 293.111 139.284C292.693 140.14 291.883 140.789 290.68 141.231L289.246 141.711C288.705 141.938 288.246 142.425 287.868 143.174L286.078 142.299ZM284.75 144.685C284.9 144.377 285.117 144.174 285.401 144.076C285.69 143.981 286.001 144.015 286.333 144.177C286.67 144.342 286.887 144.569 286.982 144.858C287.082 145.149 287.059 145.443 286.913 145.742C286.773 146.03 286.559 146.226 286.273 146.328C285.991 146.433 285.677 146.401 285.33 146.231C284.983 146.061 284.764 145.833 284.674 145.547C284.583 145.261 284.609 144.973 284.75 144.685Z" fill="#AC1269"/>
<defs>
<clipPath id="clip0_1764_1902">
<rect width="299.439" height="108" fill="white" transform="translate(1 237)"/>
</clipPath>
<clipPath id="clip1_1764_1902">
<rect width="244.154" height="295.2" fill="white" transform="translate(29 63)"/>
</clipPath>
<clipPath id="clip2_1764_1902">
<rect width="93.2784" height="65" fill="white" transform="matrix(-1 0 0 1 161.278 161)"/>
</clipPath>
<clipPath id="clip3_1764_1902">
<rect width="120" height="78" fill="white" transform="translate(166)"/>
</clipPath>
<clipPath id="clip4_1764_1902">
<rect width="91" height="70.3962" fill="white" transform="translate(49 13)"/>
</clipPath>
<clipPath id="clip5_1764_1902">
<rect width="82.268" height="69" fill="white" transform="translate(18 94)"/>
</clipPath>
<clipPath id="clip6_1764_1902">
<rect width="65.4458" height="67.5629" fill="white" transform="translate(245.182 100) rotate(19.1667)"/>
</clipPath>
</defs>
</svg>
